<svg width="490" height="432" viewBox="0 0 490 432" fill="none" xmlns="http://www.w3.org/2000/svg">
<path opacity="0.49" d="M266.634 432H223.206C99.8982 432 0 337.717 0 221.415V211.193C0 105.208 81.4092 26.6546 187.582 5.47988C331.529 -23.1777 490 62.795 490 211.193V221.415C489.92 337.717 389.958 432 266.634 432Z" fill="#E1E1E1"/>
<path d="M72.6998 246.37C71.2198 246.81 70.1298 248.9 70.1298 248.9C70.1298 248.9 69.0298 246.83 67.5498 246.41C63.2598 245.19 61.3498 249.06 62.9898 252.63C64.6298 256.2 70.1598 260.21 70.1598 260.21C70.1598 260.21 75.7198 255.98 77.2898 252.51C78.8598 249.04 76.9798 245.03 72.6998 246.37Z" fill="#FEFBF9"/>
<path d="M52.5098 242.32C51.5698 242.61 50.8698 243.95 50.8698 243.95C50.8698 243.95 50.1698 242.62 49.2298 242.35C46.4798 241.57 45.2298 244.04 46.3098 246.35C47.3898 248.66 50.8898 251.2 50.8898 251.2C50.8898 251.2 54.4398 248.49 55.4498 246.27C56.4598 244.05 55.2498 241.5 52.5098 242.32Z" fill="#FEFBF9"/>
<path d="M65.3697 222.38C63.8997 222.83 62.8097 224.92 62.8097 224.92C62.8097 224.92 61.7097 222.84 60.2297 222.42C55.9397 221.2 54.0197 225.07 55.6697 228.64C57.3197 232.21 62.8097 236.23 62.8097 236.23C62.8097 236.23 68.3797 231.99 69.9497 228.52C71.5197 225.05 69.6597 221.09 65.3697 222.38Z" fill="#FEFBF9"/>
<path d="M80.7099 289.92C79.2998 289.108 77.8125 288.438 76.2699 287.92C76.2798 288.067 76.2798 288.214 76.2699 288.36C76.0762 289.457 75.4618 290.434 74.5577 291.084C73.6535 291.735 72.5311 292.006 71.4299 291.84C70.8883 291.754 70.3692 291.561 69.9032 291.272C69.4371 290.983 69.0335 290.604 68.7159 290.157C68.3983 289.71 68.1731 289.204 68.0536 288.669C67.9341 288.133 67.9226 287.58 68.0199 287.04C68.0199 286.88 68.1099 286.73 68.1499 286.58C66.5048 286.58 64.8637 286.741 63.2499 287.06C63.3266 287.195 63.3934 287.335 63.4499 287.48C63.8292 288.528 63.7806 289.683 63.3146 290.696C62.8486 291.708 62.0027 292.497 60.9599 292.89C60.4487 293.087 59.9035 293.181 59.3558 293.166C58.8081 293.151 58.2689 293.027 57.7694 292.802C57.2699 292.577 56.8201 292.255 56.4459 291.854C56.0718 291.454 55.7808 290.984 55.5899 290.47C55.5372 290.303 55.4938 290.132 55.4599 289.96C54.012 290.789 52.6459 291.753 51.3799 292.84C51.8425 293.158 52.2368 293.565 52.5394 294.038C52.842 294.51 53.0468 295.039 53.1418 295.592C53.2368 296.145 53.2199 296.711 53.0923 297.258C52.9646 297.804 52.7288 298.319 52.3986 298.773C52.0685 299.227 51.6507 299.61 51.1701 299.9C50.6894 300.189 50.1556 300.38 49.6001 300.46C49.0447 300.539 48.4788 300.507 47.936 300.365C47.3933 300.222 46.8845 299.972 46.4399 299.63C46.2933 299.5 46.1563 299.36 46.0299 299.21C45.1418 300.646 44.3982 302.167 43.8099 303.75C44.0096 303.735 44.2102 303.735 44.4099 303.75C44.9502 303.836 45.468 304.029 45.9328 304.317C46.3977 304.606 46.8002 304.984 47.1169 305.43C47.4336 305.876 47.658 306.381 47.777 306.915C47.896 307.449 47.9072 308.002 47.8099 308.54C47.6208 309.632 47.0137 310.607 46.1176 311.258C45.2215 311.91 44.1067 312.187 43.0099 312.03C42.799 311.99 42.5917 311.933 42.3899 311.86C42.3575 313.536 42.4948 315.212 42.7999 316.86C42.9814 316.748 43.1721 316.651 43.3699 316.57C43.8833 316.371 44.4315 316.277 44.9819 316.294C45.5323 316.31 46.0738 316.437 46.5744 316.666C47.075 316.895 47.5246 317.223 47.8965 317.629C48.2685 318.035 48.5552 318.511 48.7399 319.03C49.1192 320.078 49.0706 321.233 48.6046 322.246C48.1386 323.258 47.2927 324.047 46.2499 324.44C46.0309 324.515 45.8071 324.575 45.5799 324.62C46.4065 326.081 47.3781 327.454 48.4799 328.72C48.5845 328.525 48.7085 328.341 48.8499 328.17C49.5487 327.319 50.5572 326.78 51.6533 326.672C52.7495 326.564 53.8436 326.896 54.6949 327.595C55.5462 328.294 56.0851 329.302 56.1929 330.398C56.3008 331.495 55.9687 332.589 55.2699 333.44C55.1219 333.618 54.9579 333.782 54.7799 333.93C56.2311 334.784 57.7657 335.488 59.3599 336.03C59.345 335.81 59.345 335.59 59.3599 335.37C59.5511 334.27 60.1664 333.289 61.0734 332.639C61.9805 331.988 63.1067 331.719 64.2099 331.89C64.7502 331.976 65.268 332.169 65.7328 332.457C66.1977 332.746 66.6002 333.124 66.9169 333.57C67.2336 334.016 67.458 334.521 67.577 335.055C67.696 335.589 67.7072 336.142 67.6099 336.68C67.5678 336.898 67.5076 337.112 67.4299 337.32C69.1098 337.316 70.785 337.141 72.4299 336.8C72.326 336.624 72.2357 336.44 72.1599 336.25C71.7806 335.202 71.8292 334.047 72.2952 333.034C72.7612 332.022 73.6071 331.234 74.6499 330.84C75.1602 330.64 75.7053 330.544 76.2533 330.557C76.8013 330.57 77.3412 330.692 77.8413 330.917C78.3414 331.141 78.7917 331.463 79.1658 331.864C79.5399 332.264 79.8302 332.736 80.0199 333.25C80.0872 333.446 80.1406 333.647 80.1799 333.85C81.6312 333.003 82.9975 332.019 84.2599 330.91C84.1005 330.816 83.9469 330.713 83.7999 330.6C82.956 329.882 82.4283 328.861 82.3309 327.757C82.2335 326.653 82.5741 325.556 83.2792 324.701C83.9843 323.846 84.9973 323.303 86.0994 323.189C87.2016 323.074 88.3045 323.398 89.1699 324.09C89.3041 324.213 89.431 324.343 89.5499 324.48C90.3939 323.046 91.0939 321.532 91.6399 319.96H91.1399C90.5983 319.874 90.0792 319.681 89.6132 319.392C89.1471 319.103 88.7435 318.724 88.4259 318.277C88.1083 317.83 87.8831 317.324 87.7636 316.789C87.6441 316.253 87.6326 315.7 87.7299 315.16C87.9234 314.062 88.5397 313.084 89.4465 312.435C90.3532 311.786 91.4782 311.519 92.5799 311.69C92.7434 311.719 92.904 311.763 93.0599 311.82C93.0691 310.177 92.9218 308.536 92.6199 306.92C92.4799 306.99 92.3599 307.07 92.2099 307.13C91.6993 307.327 91.1547 307.422 90.6075 307.407C90.0603 307.393 89.5214 307.27 89.022 307.046C88.5226 306.822 88.0726 306.501 87.698 306.101C87.3235 305.702 87.0318 305.233 86.8399 304.72C86.4606 303.672 86.5092 302.517 86.9752 301.504C87.4412 300.492 88.2871 299.704 89.3299 299.31C89.4773 299.261 89.6275 299.221 89.7799 299.19C88.9818 297.765 88.0403 296.424 86.9699 295.19C86.8969 295.315 86.8168 295.435 86.7299 295.55C86.3923 295.999 85.9674 296.374 85.4808 296.654C84.9943 296.934 84.4561 297.112 83.8987 297.179C83.3413 297.245 82.7762 297.198 82.2375 297.04C81.6988 296.883 81.1975 296.618 80.764 296.261C80.3305 295.904 79.9736 295.464 79.7148 294.966C79.456 294.468 79.3008 293.922 79.2583 293.362C79.2159 292.803 79.2872 292.24 79.4679 291.709C79.6486 291.177 79.935 290.688 80.3099 290.27C80.4799 290.12 80.5999 290.03 80.7099 289.92ZM78.7099 298.67C81.3751 300.798 83.3469 303.671 84.3746 306.923C85.4023 310.175 85.4393 313.66 84.481 316.933C83.5226 320.206 81.6123 323.12 78.9929 325.305C76.3736 327.489 73.1637 328.845 69.7715 329.2C66.3794 329.554 62.9584 328.892 59.9438 327.297C56.9292 325.702 54.4572 323.246 52.8424 320.242C51.2275 317.238 50.5428 313.821 50.8754 310.427C51.208 307.032 52.5427 303.814 54.7099 301.18C56.1158 299.435 57.8527 297.986 59.8208 296.914C61.7889 295.843 63.9494 295.172 66.1779 294.938C68.4065 294.705 70.6592 294.915 72.8065 295.555C74.9537 296.196 76.9532 297.254 78.6899 298.67H78.7099Z" fill="#EBB04B"/>
<path d="M52.2002 323.73C54.4935 326.849 57.6621 329.216 61.3036 330.531C64.9451 331.846 68.8951 332.048 72.652 331.113C76.4089 330.178 79.8031 328.148 82.4035 325.28C85.004 322.411 86.6933 318.835 87.257 315.005C87.8207 311.175 87.2333 307.263 85.5694 303.768C83.9055 300.272 81.2401 297.35 77.9119 295.372C74.5837 293.394 70.7428 292.45 66.877 292.66C63.0112 292.87 59.2949 294.224 56.2002 296.55C54.1414 298.063 52.4031 299.97 51.086 302.159C49.7689 304.348 48.8992 306.777 48.5272 309.305C48.1552 311.833 48.2882 314.409 48.9187 316.886C49.5492 319.362 50.6646 321.688 52.2002 323.73ZM59.9802 301.6C62.7188 299.507 66.1767 298.587 69.5934 299.043C73.0101 299.498 76.106 301.292 78.2002 304.03C79.8058 306.082 80.764 308.566 80.9528 311.164C81.1415 313.763 80.5522 316.359 79.2601 318.622C77.9679 320.884 76.0313 322.711 73.6972 323.868C71.363 325.026 68.737 325.463 66.1538 325.122C63.5706 324.782 61.1472 323.68 59.1925 321.958C57.2378 320.235 55.8403 317.969 55.1781 315.449C54.5158 312.929 54.6189 310.269 55.4742 307.808C56.3294 305.347 57.8981 303.196 59.9802 301.63V301.6Z" fill="#EBB04B"/>
<path d="M58.6003 299.77C61.0218 298.002 63.9116 296.988 66.9071 296.857C69.9027 296.725 72.8704 297.481 75.4378 299.029C78.0053 300.578 80.058 302.851 81.3385 305.562C82.619 308.273 83.0701 311.302 82.6352 314.269C82.2004 317.236 80.8989 320.008 78.8942 322.238C76.8895 324.467 74.2708 326.055 71.3669 326.802C68.463 327.549 65.4032 327.421 62.5715 326.435C59.7398 325.449 57.2624 323.649 55.4503 321.26C54.2373 319.646 53.3562 317.807 52.8578 315.85C52.3594 313.893 52.2536 311.857 52.5464 309.859C52.8393 307.861 53.5251 305.94 54.5641 304.209C55.6032 302.477 56.975 300.969 58.6003 299.77Z" stroke="#636D6A" stroke-width="0.5" stroke-miterlimit="10" stroke-linecap="round"/>
<path d="M123.18 283.71C122.051 283.057 120.863 282.514 119.63 282.09C119.63 282.21 119.63 282.33 119.63 282.45C119.475 283.329 118.983 284.112 118.257 284.632C117.532 285.152 116.632 285.366 115.75 285.23C115.316 285.162 114.9 285.009 114.527 284.778C114.153 284.547 113.83 284.243 113.575 283.886C113.321 283.528 113.141 283.123 113.045 282.694C112.95 282.265 112.941 281.822 113.02 281.39C113.02 281.26 113.09 281.14 113.12 281.02C111.803 281.02 110.49 281.151 109.2 281.41C109.2 281.52 109.31 281.62 109.36 281.74C109.661 282.58 109.621 283.504 109.246 284.315C108.872 285.125 108.195 285.755 107.36 286.07C106.951 286.23 106.515 286.307 106.076 286.297C105.637 286.286 105.205 286.188 104.804 286.008C104.404 285.828 104.043 285.571 103.744 285.25C103.444 284.929 103.212 284.552 103.06 284.14C103.013 284.006 102.976 283.869 102.95 283.73C101.786 284.39 100.691 285.164 99.6798 286.04C99.8023 286.107 99.9194 286.184 100.03 286.27C100.683 286.852 101.086 287.664 101.153 288.536C101.22 289.408 100.946 290.272 100.389 290.946C99.8327 291.621 99.0362 292.053 98.1672 292.153C97.2983 292.252 96.4246 292.011 95.7298 291.48C95.6092 291.378 95.4956 291.267 95.3898 291.15C94.7001 292.305 94.1241 293.524 93.6698 294.79C93.8298 294.79 93.9898 294.79 94.1498 294.79C94.5836 294.858 94.9995 295.011 95.373 295.242C95.7465 295.473 96.07 295.777 96.3244 296.134C96.5788 296.492 96.759 296.897 96.8544 297.326C96.9498 297.755 96.9584 298.198 96.8798 298.63C96.7254 299.512 96.2315 300.297 95.5043 300.819C94.777 301.341 93.8743 301.556 92.9898 301.42C92.8238 301.387 92.6601 301.344 92.4998 301.29C92.4703 302.631 92.5809 303.972 92.8298 305.29C92.979 305.205 93.1325 305.129 93.2898 305.06C93.6992 304.902 94.136 304.826 94.5749 304.838C95.0137 304.85 95.4458 304.949 95.846 305.13C96.2462 305.31 96.6064 305.569 96.9058 305.89C97.2052 306.211 97.4377 306.588 97.5898 307C97.8913 307.84 97.8505 308.765 97.4764 309.575C97.1022 310.385 96.4246 311.015 95.5898 311.33C95.4189 311.396 95.2411 311.443 95.0598 311.47C95.7168 312.647 96.4943 313.753 97.3798 314.77C97.4645 314.61 97.565 314.46 97.6798 314.32C97.9575 313.982 98.2991 313.702 98.6852 313.496C99.0712 313.289 99.494 313.161 99.9295 313.119C100.365 313.076 100.805 313.119 101.223 313.247C101.642 313.374 102.032 313.582 102.37 313.86C102.708 314.138 102.988 314.479 103.194 314.865C103.4 315.251 103.528 315.674 103.571 316.11C103.614 316.545 103.57 316.985 103.443 317.404C103.316 317.822 103.108 318.212 102.83 318.55C102.704 318.688 102.57 318.818 102.43 318.94C103.592 319.619 104.822 320.175 106.1 320.6C106.09 320.424 106.09 320.247 106.1 320.07C106.256 319.19 106.751 318.407 107.478 317.887C108.205 317.368 109.107 317.153 109.99 317.29C110.423 317.359 110.838 317.514 111.21 317.745C111.582 317.976 111.905 318.28 112.158 318.638C112.411 318.995 112.591 319.4 112.685 319.828C112.78 320.256 112.788 320.699 112.71 321.13C112.68 321.304 112.633 321.475 112.57 321.64C113.914 321.639 115.255 321.498 116.57 321.22C116.484 321.081 116.413 320.934 116.36 320.78C116.056 319.94 116.095 319.015 116.469 318.204C116.844 317.393 117.523 316.763 118.36 316.45C118.769 316.29 119.206 316.213 119.646 316.223C120.085 316.234 120.518 316.332 120.92 316.511C121.321 316.691 121.682 316.949 121.983 317.27C122.283 317.59 122.517 317.968 122.67 318.38C122.724 318.536 122.764 318.697 122.79 318.86C123.956 318.179 125.054 317.389 126.07 316.5C125.937 316.426 125.81 316.343 125.69 316.25C124.999 315.678 124.563 314.856 124.479 313.963C124.395 313.071 124.668 312.181 125.24 311.49C125.811 310.799 126.634 310.364 127.527 310.279C128.419 310.195 129.309 310.468 130 311.04C130.111 311.136 130.214 311.239 130.31 311.35C130.983 310.197 131.543 308.982 131.98 307.72C131.843 307.73 131.706 307.73 131.57 307.72C131.137 307.651 130.722 307.497 130.35 307.265C129.977 307.034 129.655 306.73 129.402 306.372C129.148 306.015 128.969 305.61 128.874 305.182C128.779 304.754 128.771 304.311 128.85 303.88C129.002 302.999 129.494 302.213 130.219 301.692C130.945 301.17 131.846 300.954 132.73 301.09C132.86 301.09 132.99 301.16 133.11 301.19C133.123 299.875 133.006 298.562 132.76 297.27L132.44 297.44C132.03 297.599 131.592 297.674 131.153 297.662C130.713 297.651 130.28 297.552 129.879 297.371C129.478 297.191 129.117 296.932 128.817 296.611C128.516 296.29 128.283 295.912 128.13 295.5C127.828 294.66 127.869 293.736 128.243 292.926C128.617 292.115 129.295 291.485 130.13 291.17L130.49 291.07C129.843 289.941 129.09 288.876 128.24 287.89C128.17 287.99 128.12 288.09 128.05 288.18C127.489 288.863 126.68 289.295 125.8 289.381C124.92 289.468 124.043 289.201 123.36 288.64C122.677 288.079 122.245 287.27 122.158 286.39C122.072 285.511 122.339 284.633 122.9 283.95L123.18 283.71ZM121.56 290.71C123.692 292.419 125.269 294.724 126.088 297.331C126.908 299.938 126.934 302.73 126.163 305.352C125.392 307.973 123.858 310.307 121.758 312.055C119.657 313.803 117.084 314.887 114.366 315.17C111.648 315.452 108.907 314.919 106.492 313.64C104.077 312.361 102.097 310.392 100.803 307.985C99.5101 305.577 98.9618 302.84 99.2282 300.12C99.4946 297.4 100.564 294.821 102.3 292.71C103.43 291.309 104.826 290.145 106.408 289.286C107.99 288.427 109.726 287.89 111.517 287.706C113.308 287.522 115.117 287.694 116.841 288.213C118.565 288.732 120.168 289.588 121.56 290.73V290.71Z" fill="#EBB04B"/>
<path d="M100.33 310.81C101.567 312.429 103.111 313.788 104.874 314.808C106.637 315.829 108.585 316.492 110.604 316.758C112.624 317.025 114.676 316.89 116.644 316.362C118.611 315.834 120.455 314.922 122.07 313.68C124.477 311.815 126.279 309.28 127.249 306.393C128.218 303.506 128.311 300.397 127.517 297.457C126.722 294.517 125.076 291.878 122.784 289.872C120.493 287.866 117.659 286.583 114.64 286.184C111.621 285.786 108.552 286.29 105.818 287.632C103.085 288.975 100.81 291.096 99.28 293.729C97.7499 296.362 97.0331 299.389 97.22 302.429C97.4069 305.468 98.4889 308.384 100.33 310.81ZM106.57 293.03C108.219 291.829 110.186 291.141 112.224 291.053C114.263 290.966 116.282 291.482 118.028 292.537C119.774 293.592 121.17 295.139 122.04 296.984C122.91 298.829 123.217 300.891 122.92 302.909C122.624 304.928 121.738 306.814 120.374 308.331C119.01 309.848 117.228 310.928 115.252 311.437C113.276 311.945 111.194 311.859 109.267 311.189C107.34 310.519 105.654 309.295 104.42 307.67C102.776 305.439 102.079 302.649 102.482 299.908C102.885 297.166 104.354 294.694 106.57 293.03Z" fill="#EBB04B"/>
<path d="M105.46 291.61C107.401 290.192 109.717 289.38 112.118 289.274C114.519 289.168 116.897 289.773 118.956 291.014C121.014 292.255 122.659 294.076 123.686 296.249C124.713 298.422 125.075 300.849 124.728 303.227C124.38 305.605 123.338 307.828 121.731 309.615C120.125 311.403 118.027 312.676 115.7 313.276C113.372 313.876 110.92 313.774 108.65 312.985C106.38 312.196 104.393 310.754 102.94 308.84C101.966 307.546 101.258 306.072 100.858 304.503C100.457 302.934 100.371 301.302 100.606 299.699C100.84 298.097 101.39 296.557 102.223 295.169C103.056 293.78 104.156 292.571 105.46 291.61Z" stroke="#636D6A" stroke-width="0.5" stroke-miterlimit="10" stroke-linecap="round"/>
<path d="M421.38 171.17L408.44 188.79" stroke="black" stroke-width="0.5" stroke-miterlimit="10"/>
<path d="M410.09 192.65L415.04 185.94" stroke="black" stroke-width="0.5" stroke-miterlimit="10"/>
<path d="M123.55 64.1699L124.47 57.0899L130.66 59.7899L132.37 52.4599L138.81 55.5199L140.24 48.1799L146.96 50.9299L148.59 43.6499" stroke="black" stroke-width="0.5" stroke-miterlimit="10"/>
<path d="M297.59 424.56C297.59 422.078 298.576 419.697 300.331 417.942C302.087 416.186 304.467 415.2 306.95 415.2C309.432 415.2 311.813 416.186 313.568 417.942C315.324 419.697 316.31 422.078 316.31 424.56" stroke="black" stroke-width="0.5" stroke-miterlimit="10"/>
<path d="M178.35 404.88C178.53 405.418 178.599 405.988 178.553 406.554C178.507 407.12 178.347 407.671 178.083 408.174C177.818 408.676 177.455 409.12 177.014 409.479C176.574 409.837 176.066 410.103 175.52 410.26C173.33 410.89 171.93 410.92 170.21 412.88C169.08 414.17 168.37 416.09 166.94 417.02C165.66 417.84 163.83 418.02 162.94 416.48C162.705 415.99 162.591 415.452 162.607 414.909C162.623 414.366 162.768 413.835 163.03 413.36C163.561 412.417 164.18 411.526 164.88 410.7C165.97 409.25 166.81 407.62 167.88 406.12C168.859 404.562 170.241 403.297 171.88 402.46C172.695 402.049 173.606 401.87 174.516 401.94C175.425 402.011 176.298 402.329 177.04 402.86C177.66 403.395 178.114 404.095 178.35 404.88Z" stroke="black" stroke-width="0.5" stroke-miterlimit="10"/>
<path d="M181.01 397.48C181.01 397.941 180.873 398.391 180.617 398.774C180.361 399.158 179.998 399.456 179.572 399.633C179.146 399.809 178.678 399.855 178.226 399.765C177.774 399.675 177.358 399.453 177.033 399.127C176.707 398.802 176.485 398.386 176.395 397.934C176.305 397.483 176.351 397.014 176.527 396.588C176.704 396.163 177.002 395.799 177.386 395.543C177.769 395.287 178.219 395.15 178.68 395.15C179.297 395.153 179.888 395.399 180.325 395.835C180.761 396.272 181.007 396.863 181.01 397.48Z" fill="black"/>
<path d="M404.11 362.03C402.988 362.03 401.912 361.584 401.119 360.791C400.326 359.998 399.88 358.922 399.88 357.8C399.88 356.678 400.326 355.602 401.119 354.809C401.912 354.015 402.988 353.57 404.11 353.57" fill="black"/>
<path d="M45.3499 130.26C45.3499 130.872 45.1684 131.469 44.8285 131.978C44.4885 132.486 44.0053 132.882 43.4401 133.116C42.8749 133.349 42.2531 133.41 41.6534 133.29C41.0537 133.17 40.5032 132.874 40.0714 132.441C39.6397 132.008 39.3462 131.457 39.2281 130.857C39.11 130.257 39.1726 129.635 39.408 129.07C39.6434 128.506 40.041 128.024 40.5505 127.686C41.06 127.347 41.6584 127.168 42.2699 127.17C43.0877 127.173 43.8711 127.499 44.4484 128.079C45.0257 128.658 45.3499 129.442 45.3499 130.26Z" fill="black"/>
<path d="M390.75 130.53C390.393 130.96 389.917 131.275 389.382 131.435C388.847 131.595 388.276 131.593 387.742 131.429C387.208 131.265 386.734 130.947 386.38 130.514C386.027 130.082 385.809 129.554 385.755 128.998C385.701 128.442 385.812 127.882 386.076 127.39C386.339 126.897 386.742 126.493 387.235 126.229C387.727 125.965 388.287 125.853 388.843 125.907C389.399 125.96 389.927 126.177 390.36 126.53C390.648 126.767 390.887 127.059 391.063 127.388C391.239 127.717 391.348 128.078 391.384 128.449C391.42 128.821 391.383 129.196 391.274 129.553C391.165 129.91 390.987 130.242 390.75 130.53Z" fill="black"/>
<path d="M239.19 38.9499C238.824 39.3652 238.343 39.6632 237.809 39.8065C237.274 39.9498 236.709 39.9319 236.184 39.7552C235.66 39.5785 235.199 39.2507 234.86 38.8131C234.521 38.3755 234.319 37.8475 234.279 37.2954C234.239 36.7433 234.363 36.1917 234.635 35.7098C234.907 35.2278 235.316 34.8371 235.81 34.5865C236.303 34.336 236.86 34.2368 237.41 34.3015C237.959 34.3661 238.478 34.5917 238.9 34.9499C239.183 35.1923 239.416 35.4885 239.584 35.8214C239.752 36.1543 239.853 36.5173 239.88 36.8893C239.907 37.2614 239.86 37.6351 239.741 37.9887C239.623 38.3424 239.435 38.6691 239.19 38.9499Z" fill="black"/>
<path d="M228.81 52.7701C226.52 50.7701 224.81 45.0401 229.25 44.6001C233.08 44.2201 237.19 45.6501 240.69 44.0301C241.547 43.519 242.447 43.084 243.38 42.7301C243.851 42.5625 244.364 42.555 244.839 42.7086C245.315 42.8623 245.726 43.1686 246.01 43.5801C246.59 44.6801 245.69 45.9601 244.83 46.8601C241.07 50.7401 234.46 57.7101 228.81 52.7701Z" stroke="black" stroke-width="0.5" stroke-miterlimit="10"/>
<path d="M84.4901 212.03C84.4921 212.489 84.3577 212.939 84.104 213.322C83.8502 213.705 83.4886 214.004 83.0649 214.181C82.6411 214.358 82.1743 214.405 81.7236 214.317C81.2729 214.228 80.8586 214.008 80.5332 213.684C80.2077 213.36 79.9857 212.947 79.8954 212.497C79.8051 212.046 79.8504 211.579 80.0257 211.155C80.201 210.73 80.4984 210.367 80.8801 210.112C81.2619 209.857 81.7108 209.72 82.1701 209.72C82.7837 209.72 83.3722 209.963 83.807 210.396C84.2418 210.829 84.4874 211.417 84.4901 212.03Z" stroke="black" stroke-width="0.5" stroke-miterlimit="10"/>
<path d="M407.9 361.65C409.359 361.65 410.758 362.229 411.789 363.261C412.82 364.292 413.4 365.691 413.4 367.15C413.4 368.609 412.82 370.008 411.789 371.039C410.758 372.07 409.359 372.65 407.9 372.65" stroke="black" stroke-width="0.5" stroke-miterlimit="10"/>
<path d="M42.8101 147.5L58.3701 131.55" stroke="#EEF1F1" stroke-width="0.5" stroke-miterlimit="10"/>
<path d="M44.4502 140.17L52.4302 132.19" stroke="#EEF1F1" stroke-width="0.5" stroke-miterlimit="10"/>
<path d="M307.45 227.55L305.31 220.89L312.12 221.34L310.37 214.16L317.75 213.84L315.39 207.47" stroke="black" stroke-width="0.5" stroke-miterlimit="10"/>
<path d="M71.5 255.3C72.04 254.72 72.62 254.16 73.23 253.61C76.33 250.86 79.92 248.61 82.69 245.55C85.0102 242.957 86.6766 239.848 87.55 236.48C88.38 233.27 88.66 229.53 91.27 227.48C92.2449 226.776 93.3929 226.352 94.5909 226.251C95.7889 226.151 96.9916 226.378 98.07 226.91C103.98 229.71 103.84 238.66 101.66 243.91C100.5 246.71 98.52 249.09 97.11 251.77C92.81 260.03 91.2 273.24 79.41 274.53C74.41 275.07 69.97 272.61 68.29 267.76C66.61 262.91 68.25 258.8 71.5 255.3Z" stroke="black" stroke-width="0.5" stroke-miterlimit="10"/>
<path d="M342.22 184.54C341.96 179.97 344.58 175.68 344.71 171.11C344.611 168.663 344.276 166.232 343.71 163.85C343.152 161.45 343.33 158.938 344.22 156.64C345.22 154.42 347.78 152.75 350.14 153.38C352.67 154.07 353.92 156.92 354.38 159.5C354.899 162.376 354.872 165.324 354.3 168.19C353.57 171.83 351.97 175.36 352.15 179.07C352.27 181.74 353.33 184.33 353.27 187C353.2 190 350.58 193.94 347.19 192.87C344.2 191.91 342.38 187.38 342.22 184.54Z" stroke="black" stroke-width="0.5" stroke-miterlimit="10"/>
<path d="M355.44 130.24C353.86 131.39 352.19 132.65 351.56 134.5C350.93 136.35 351.96 138.86 353.91 138.98C354.616 138.975 355.307 138.778 355.91 138.41C356.83 137.982 357.633 137.337 358.249 136.531C358.866 135.724 359.278 134.78 359.45 133.78C359.63 131.78 357.94 129.59 355.92 129.78" stroke="black" stroke-width="0.5" stroke-miterlimit="10"/>
<path d="M150.51 82.0299C142.51 82.0299 136.09 74.8299 136.09 74.8299C136.09 74.8299 142.54 67.6299 150.51 67.6299C158.48 67.6299 164.92 74.8299 164.92 74.8299C164.92 74.8299 158.47 82.0299 150.51 82.0299Z" fill="white" stroke="#4B524D" stroke-width="0.5" stroke-miterlimit="10"/>
<path d="M150.45 82.0899C146.98 82.0899 144.17 78.8599 144.17 74.8799C144.17 70.8999 146.98 67.6699 150.45 67.6699C153.92 67.6699 156.74 70.8999 156.74 74.8799C156.74 78.8599 153.93 82.0899 150.45 82.0899Z" fill="black"/>
<path d="M386.16 335.79C376.92 335.79 369.43 327.44 369.43 327.44C369.43 327.44 376.92 319.08 386.16 319.08C395.4 319.08 402.89 327.44 402.89 327.44C402.89 327.44 395.4 335.79 386.16 335.79Z" fill="white" stroke="#4B524D" stroke-width="0.5" stroke-miterlimit="10"/>
<path d="M386.11 335.82C390.142 335.82 393.41 332.073 393.41 327.45C393.41 322.827 390.142 319.08 386.11 319.08C382.078 319.08 378.81 322.827 378.81 327.45C378.81 332.073 382.078 335.82 386.11 335.82Z" fill="black"/>
<path d="M402.271 171.368C405.968 162.552 401.818 152.408 393.002 148.711C384.186 145.014 374.042 149.164 370.345 157.981C366.648 166.797 370.798 176.941 379.614 180.638C388.43 184.335 398.574 180.185 402.271 171.368Z" fill="black"/>
<path d="M400.29 163.57C400.29 166.994 399.274 170.341 397.372 173.188C395.469 176.035 392.765 178.253 389.602 179.563C386.438 180.873 382.957 181.215 379.599 180.546C376.241 179.878 373.157 178.228 370.736 175.806C368.316 173.384 366.668 170.299 366.001 166.941C365.335 163.582 365.679 160.101 366.99 156.939C368.302 153.776 370.522 151.073 373.37 149.172C376.218 147.271 379.566 146.258 382.99 146.26C385.263 146.26 387.513 146.708 389.613 147.578C391.712 148.448 393.62 149.723 395.226 151.33C396.833 152.938 398.107 154.846 398.976 156.946C399.845 159.046 400.291 161.297 400.29 163.57Z" fill="#D85F5F"/>
<path d="M381.98 173.11H381.76H381.6C381.05 173.11 380.54 173.11 380.1 173.06C379.66 173.01 379.23 172.97 378.85 172.9C378.47 172.83 378.09 172.74 377.73 172.63L376.63 172.28C376.67 171.874 376.747 171.472 376.86 171.08C376.98 170.68 377.11 170.29 377.25 169.92C377.86 170.11 378.49 170.29 379.13 170.44C379.899 170.605 380.684 170.682 381.47 170.67C382.625 170.757 383.776 170.454 384.74 169.81C385.094 169.528 385.377 169.167 385.564 168.755C385.752 168.343 385.84 167.892 385.82 167.44C385.831 167.009 385.753 166.58 385.59 166.18C385.435 165.835 385.198 165.533 384.9 165.3C384.548 165.021 384.162 164.789 383.75 164.61L382.11 163.9L380.82 163.36C380.31 163.163 379.818 162.922 379.35 162.64C378.911 162.369 378.516 162.032 378.18 161.64C377.839 161.262 377.578 160.82 377.41 160.34C377.217 159.76 377.126 159.151 377.14 158.54C377.093 157.293 377.543 156.077 378.39 155.16C379.359 154.213 380.629 153.633 381.98 153.52V151.03C382.278 150.959 382.584 150.925 382.89 150.93C383.226 150.923 383.562 150.956 383.89 151.03V153.53C384.63 153.569 385.368 153.649 386.1 153.77C386.737 153.874 387.363 154.038 387.97 154.26C387.874 155.027 387.675 155.777 387.38 156.49C386.836 156.292 386.277 156.135 385.71 156.02C384.996 155.875 384.268 155.808 383.54 155.82C382.625 155.762 381.714 155.985 380.93 156.46C380.621 156.689 380.375 156.992 380.215 157.342C380.056 157.692 379.989 158.077 380.02 158.46C380.01 158.844 380.092 159.225 380.26 159.57C380.431 159.897 380.673 160.181 380.97 160.4C381.317 160.668 381.696 160.89 382.1 161.06L383.59 161.71L384.59 162.14C385.19 162.379 385.775 162.656 386.34 162.97C386.831 163.234 387.28 163.572 387.67 163.97C388.042 164.379 388.334 164.854 388.53 165.37C388.754 166.013 388.859 166.69 388.84 167.37C388.895 168.732 388.426 170.063 387.53 171.09C386.55 172.104 385.264 172.768 383.87 172.98V176.03L383.41 176.11H382.95C382.79 176.12 382.63 176.12 382.47 176.11L381.99 176.03L381.98 173.11Z" fill="black"/>
<path d="M67.0206 191.009C69.0136 182.564 63.7838 174.103 55.3394 172.11C46.895 170.117 38.4338 175.347 36.4408 183.791C34.4477 192.236 39.6775 200.697 48.1219 202.69C56.5663 204.683 65.0275 199.453 67.0206 191.009Z" fill="black"/>
<path d="M64.001 189.998C65.9941 181.554 60.7643 173.092 52.3199 171.099C43.8755 169.106 35.4143 174.336 33.4212 182.78C31.4282 191.225 36.658 199.686 45.1024 201.679C53.5468 203.672 62.008 198.442 64.001 189.998Z" fill="#D85F5F"/>
<path d="M47.8097 195.03H47.6097H47.4697C46.9597 195.03 46.4697 195.03 46.0997 194.98C45.7297 194.93 45.3197 194.9 44.9697 194.84C44.6323 194.774 44.2985 194.691 43.9697 194.59C43.6397 194.5 43.3097 194.39 42.9697 194.28C43.0033 193.912 43.0702 193.547 43.1697 193.19C43.2797 192.83 43.3997 192.47 43.5297 192.13C44.0797 192.31 44.6497 192.47 45.2297 192.61C45.926 192.761 46.6373 192.832 47.3497 192.82C48.409 192.905 49.4661 192.63 50.3497 192.04C50.6749 191.787 50.9352 191.46 51.1091 191.086C51.283 190.712 51.3654 190.302 51.3497 189.89C51.359 189.497 51.291 189.107 51.1497 188.74C51.0027 188.429 50.7874 188.156 50.5197 187.94C50.2157 187.69 49.8793 187.481 49.5197 187.32L48.0297 186.67L46.8597 186.19C46.397 186.004 45.949 185.784 45.5197 185.53C45.1242 185.296 44.7668 185.002 44.4597 184.66C44.1541 184.314 43.9166 183.914 43.7597 183.48C43.5885 182.954 43.5073 182.403 43.5197 181.85C43.4761 180.718 43.8824 179.614 44.6497 178.78C45.511 177.958 46.6244 177.451 47.8097 177.34V174.97C48.0817 174.907 48.3604 174.877 48.6397 174.88C48.9322 174.877 49.224 174.907 49.5097 174.97V177.24C50.1803 177.272 50.8482 177.346 51.5097 177.46C52.0895 177.55 52.659 177.698 53.2097 177.9C53.1247 178.589 52.9429 179.262 52.6697 179.9C52.1769 179.725 51.6723 179.585 51.1597 179.48C50.5022 179.342 49.8314 179.279 49.1597 179.29C48.3279 179.239 47.5004 179.445 46.7897 179.88C46.5112 180.086 46.2891 180.359 46.144 180.674C45.9989 180.988 45.9355 181.335 45.9597 181.68C45.9552 182.026 46.0305 182.368 46.1797 182.68C46.3358 182.98 46.5581 183.24 46.8297 183.44C47.138 183.679 47.4737 183.881 47.8297 184.04L49.1797 184.62L50.1097 185.01C50.6535 185.234 51.1843 185.487 51.6997 185.77C52.145 186.013 52.5498 186.323 52.8997 186.69C53.237 187.061 53.5016 187.492 53.6797 187.96C53.8816 188.531 53.9765 189.135 53.9597 189.74C54.0289 190.982 53.6171 192.204 52.8097 193.15C51.917 194.07 50.7471 194.67 49.4797 194.86V197.67L49.0697 197.74C48.787 197.767 48.5024 197.767 48.2197 197.74L47.7797 197.67L47.8097 195.03Z" fill="black"/>
<path d="M133.16 410.71C150.828 410.71 165.15 396.016 165.15 377.89C165.15 359.764 150.828 345.07 133.16 345.07C115.492 345.07 101.17 359.764 101.17 377.89C101.17 396.016 115.492 410.71 133.16 410.71Z" fill="black"/>
<path d="M130.83 409.36C148.497 409.36 162.82 394.666 162.82 376.54C162.82 358.414 148.497 343.72 130.83 343.72C113.162 343.72 98.8398 358.414 98.8398 376.54C98.8398 394.666 113.162 409.36 130.83 409.36Z" fill="#FDFEFE"/>
<path d="M130.83 409.36C144.239 409.36 155.11 394.666 155.11 376.54C155.11 358.414 144.239 343.72 130.83 343.72C117.42 343.72 106.55 358.414 106.55 376.54C106.55 394.666 117.42 409.36 130.83 409.36Z" stroke="black" stroke-width="0.5" stroke-miterlimit="10"/>
<path d="M130.83 409.36C135.773 409.36 139.78 394.666 139.78 376.54C139.78 358.414 135.773 343.72 130.83 343.72C125.887 343.72 121.88 358.414 121.88 376.54C121.88 394.666 125.887 409.36 130.83 409.36Z" stroke="black" stroke-width="0.5" stroke-miterlimit="10"/>
<mask id="mask0_100_1093" style="mask-type:luminance" maskUnits="userSpaceOnUse" x="98" y="343" width="65" height="67">
<path d="M130.82 409.36C148.488 409.36 162.81 394.666 162.81 376.54C162.81 358.414 148.488 343.72 130.82 343.72C113.152 343.72 98.8301 358.414 98.8301 376.54C98.8301 394.666 113.152 409.36 130.82 409.36Z" fill="white"/>
</mask>
<g mask="url(#mask0_100_1093)">
<path d="M130.83 437.111C148.497 437.111 162.82 426.849 162.82 414.191C162.82 401.532 148.497 391.271 130.83 391.271C113.162 391.271 98.8398 401.532 98.8398 414.191C98.8398 426.849 113.162 437.111 130.83 437.111Z" stroke="black" stroke-width="0.5" stroke-miterlimit="10"/>
<path d="M130.83 362.62C148.497 362.62 162.82 352.359 162.82 339.7C162.82 327.042 148.497 316.78 130.83 316.78C113.162 316.78 98.8398 327.042 98.8398 339.7C98.8398 352.359 113.162 362.62 130.83 362.62Z" stroke="black" stroke-width="0.5" stroke-miterlimit="10"/>
<path d="M94.1099 378.42H166.07" stroke="black" stroke-width="0.5" stroke-miterlimit="10"/>
</g>
<path d="M159.81 381.93C159.51 384.276 158.894 386.57 157.98 388.75" stroke="black" stroke-width="0.5" stroke-miterlimit="10"/>
<path d="M159.31 367.65C160.002 370.495 160.259 373.428 160.07 376.35" stroke="black" stroke-width="0.5" stroke-miterlimit="10"/>
<path d="M156.81 392.47C156.5 392.88 156.2 393.3 155.9 393.71" stroke="black" stroke-width="0.5" stroke-miterlimit="10"/>
<path d="M77.2098 68.1802C57.9298 68.1802 42.2998 75.4302 42.2998 84.3702C42.2998 89.6702 47.4398 93.3002 51.6798 95.3702C54.9498 96.9506 58.3978 98.1324 61.9498 98.8902C66.7667 99.9798 71.6821 100.576 76.6198 100.67C76.8698 103.62 81.0998 113.18 82.6198 114.86C83.8193 116.449 85.54 117.564 87.4798 118.01C84.2714 112.743 82.7339 106.628 83.0698 100.47C89.3442 100.046 95.5014 98.5617 101.28 96.0802C105.99 94.0102 112.18 90.2002 112.18 84.3302C112.13 75.4302 96.4898 68.1802 77.2098 68.1802Z" fill="#FEFBF9"/>
<path d="M53.0303 83.0999C53.1507 84.5309 53.8088 85.8631 54.8719 86.8285C55.9351 87.7939 57.3245 88.3207 58.7604 88.3029C60.1964 88.2852 61.5723 87.7242 62.6113 86.7329C63.6503 85.7415 64.2752 84.3934 64.3603 82.9599C64.4503 81.8699 64.1403 80.5899 63.1803 80.1599C62.9289 80.0758 62.6633 80.0426 62.3989 80.0621C62.1346 80.0816 61.8767 80.1534 61.6404 80.2735C61.404 80.3935 61.1939 80.5593 61.0222 80.7613C60.8505 80.9632 60.7207 81.1973 60.6403 81.4499C60.3086 82.4995 60.3872 83.6359 60.8603 84.6299C61.4874 86.1207 62.5698 87.3752 63.9527 88.2139C65.3357 89.0527 66.9483 89.4328 68.5603 89.2999C70.1647 89.0587 71.655 88.3264 72.8261 87.2036C73.9973 86.0808 74.7917 84.6227 75.1003 83.0299C75.2615 82.4885 75.2713 81.9133 75.1285 81.3667C74.9857 80.8202 74.6958 80.3232 74.2903 79.9299C73.1803 79.1399 71.5103 80.0799 71.1203 81.4299C70.9844 82.1181 71.0037 82.8279 71.1767 83.5078C71.3497 84.1876 71.672 84.8203 72.1203 85.3599C72.9734 86.4825 74.0884 87.3793 75.3678 87.972C76.6472 88.5646 78.0523 88.8351 79.4603 88.7599C80.8325 88.7516 82.1769 88.3715 83.3503 87.6599C84.8703 86.5599 86.3503 83.0399 85.1903 81.2599C85.1119 81.1026 84.9966 80.9667 84.8544 80.8636C84.7121 80.7604 84.547 80.6933 84.3732 80.6677C84.1993 80.6422 84.0219 80.6591 83.856 80.7169C83.69 80.7747 83.5406 80.8718 83.4203 80.9999C83.1592 81.2628 82.9532 81.575 82.8141 81.9184C82.675 82.2618 82.6057 82.6294 82.6103 82.9999C82.6759 84.6304 83.309 86.1867 84.4003 87.3999C85.3152 88.4045 86.5191 89.1007 87.8462 89.3926C89.1733 89.6845 90.5582 89.5578 91.8103 89.0299C93.0678 88.4187 94.1431 87.4886 94.9292 86.3324C95.7152 85.1761 96.1845 83.834 96.2903 82.4399C96.3803 81.3799 95.9503 79.9799 94.9403 80.0299C94.1903 80.0299 93.7503 80.9199 93.5803 81.6899C93.3524 82.7911 93.3905 83.9307 93.6914 85.0142C93.9922 86.0978 94.5472 87.0939 95.3103 87.9199C96.0685 88.7149 97.0195 89.3003 98.0708 89.6192C99.1222 89.9381 100.238 89.9797 101.31 89.7399" stroke="black" stroke-width="0.5" stroke-miterlimit="10"/>
<path d="M46.6699 88.0298C48.1699 91.4598 51.8499 93.3898 55.4399 94.4198" stroke="black" stroke-width="0.5" stroke-miterlimit="10"/>
<path d="M57.2402 95.21C58.3838 95.7494 59.6118 96.0877 60.8702 96.21" stroke="black" stroke-width="0.5" stroke-miterlimit="10"/>
<path d="M98.8101 74.6201C101.626 75.5462 104.271 76.9279 106.64 78.7101" stroke="black" stroke-width="0.5" stroke-miterlimit="10"/>
<path d="M237.72 423.8L341.11 388.1C352.25 384.26 356.89 372.78 351.48 362.46L217.71 116.29C212.3 105.98 198.88 100.74 187.71 104.58L86.81 136.21C75.69 140.03 71.05 151.54 76.46 161.85L207.81 412.09C213.17 422.41 226.58 427.65 237.72 423.8Z" fill="black"/>
<path d="M235.94 415.68L346.37 377.55C352.81 375.33 355.49 368.69 352.37 362.73L214.81 109.3C213.144 106.35 210.511 104.066 207.355 102.834C204.198 101.602 200.714 101.499 197.49 102.54L89.49 136.59C83.05 138.82 80.37 145.45 83.49 151.41L218.59 408.91C220.255 411.869 222.893 414.159 226.056 415.393C229.219 416.627 232.711 416.729 235.94 415.68Z" fill="white"/>
<path d="M141.21 131.71L160.28 125.58C160.457 125.527 160.619 125.435 160.755 125.311C160.892 125.187 160.998 125.034 161.068 124.863C161.137 124.692 161.167 124.508 161.155 124.324C161.143 124.14 161.09 123.961 161 123.8C160.798 123.448 160.481 123.176 160.103 123.029C159.725 122.881 159.307 122.868 158.92 122.99L139.81 129.12C139.633 129.172 139.471 129.264 139.334 129.389C139.198 129.513 139.092 129.667 139.023 129.838C138.955 130.009 138.926 130.194 138.94 130.378C138.953 130.562 139.008 130.74 139.1 130.9C139.299 131.263 139.621 131.543 140.007 131.691C140.393 131.84 140.819 131.846 141.21 131.71Z" fill="black"/>
<path d="M168.93 122.64C169.107 122.588 169.27 122.496 169.406 122.371C169.542 122.247 169.648 122.093 169.717 121.922C169.785 121.751 169.814 121.566 169.8 121.382C169.787 121.198 169.732 121.02 169.64 120.86C169.44 120.509 169.125 120.237 168.748 120.089C168.371 119.942 167.956 119.928 167.57 120.05C167.393 120.103 167.231 120.195 167.095 120.319C166.958 120.443 166.852 120.596 166.783 120.767C166.713 120.938 166.684 121.122 166.695 121.306C166.707 121.49 166.76 121.669 166.85 121.83C167.05 122.185 167.366 122.459 167.745 122.607C168.124 122.755 168.543 122.766 168.93 122.64Z" fill="black"/>
<path d="M133.52 263.03C133.866 262.928 134.185 262.749 134.452 262.506C134.719 262.264 134.928 261.964 135.064 261.63C135.199 261.295 135.258 260.935 135.234 260.575C135.211 260.215 135.107 259.864 134.93 259.55L129.6 249.39C129.206 248.696 128.586 248.16 127.843 247.87C127.099 247.581 126.279 247.556 125.52 247.8C125.174 247.904 124.855 248.084 124.588 248.327C124.321 248.571 124.112 248.871 123.976 249.206C123.841 249.541 123.783 249.903 123.806 250.263C123.829 250.624 123.933 250.975 124.11 251.29L129.44 261.44C129.832 262.135 130.453 262.673 131.197 262.962C131.94 263.252 132.761 263.276 133.52 263.03Z" fill="#D8E5E5"/>
<path d="M108.33 215.03C108.676 214.927 108.994 214.748 109.262 214.506C109.529 214.264 109.738 213.964 109.873 213.63C110.009 213.295 110.067 212.935 110.044 212.574C110.021 212.214 109.917 211.864 109.74 211.55L93.5098 180.57C93.1176 179.874 92.4976 179.336 91.7544 179.044C91.0111 178.753 90.1901 178.726 89.4298 178.97C89.0846 179.075 88.7673 179.256 88.5012 179.5C88.235 179.743 88.0267 180.044 87.8915 180.378C87.7564 180.713 87.6977 181.073 87.7199 181.434C87.7421 181.794 87.8446 182.144 88.0198 182.46L104.25 213.39C104.634 214.094 105.252 214.642 105.996 214.941C106.74 215.24 107.565 215.272 108.33 215.03Z" fill="#D8E5E5"/>
<path d="M106.81 215.5C107.157 215.398 107.477 215.219 107.746 214.976C108.014 214.733 108.224 214.432 108.359 214.096C108.495 213.761 108.553 213.399 108.529 213.037C108.505 212.676 108.399 212.325 108.22 212.01L92.01 181.08C91.618 180.387 90.9992 179.851 90.2578 179.561C89.5164 179.272 88.6978 179.247 87.94 179.49C87.5854 179.59 87.2585 179.77 86.9847 180.017C86.7109 180.264 86.4976 180.57 86.3613 180.912C86.2249 181.254 86.1692 181.624 86.1985 181.991C86.2278 182.358 86.3412 182.714 86.53 183.03L102.81 213.91C103.199 214.588 103.806 215.114 104.533 215.403C105.259 215.692 106.062 215.726 106.81 215.5Z" fill="black"/>
<path d="M132.02 263.51C132.367 263.408 132.687 263.229 132.956 262.985C133.224 262.742 133.434 262.442 133.569 262.106C133.705 261.77 133.763 261.408 133.739 261.047C133.715 260.686 133.609 260.334 133.43 260.02L128.1 249.87C127.709 249.176 127.091 248.638 126.349 248.348C125.607 248.059 124.788 248.034 124.03 248.28C123.683 248.38 123.363 248.559 123.095 248.801C122.826 249.043 122.616 249.343 122.481 249.678C122.345 250.013 122.287 250.374 122.311 250.735C122.335 251.095 122.441 251.446 122.62 251.76L127.95 261.92C128.342 262.613 128.961 263.149 129.702 263.439C130.444 263.728 131.262 263.753 132.02 263.51Z" fill="black"/>
<path d="M142.96 281.03C143.307 280.928 143.627 280.749 143.895 280.506C144.164 280.263 144.374 279.962 144.509 279.626C144.645 279.291 144.703 278.929 144.679 278.567C144.655 278.206 144.549 277.855 144.37 277.54L139.05 267.39C138.658 266.695 138.038 266.156 137.294 265.865C136.551 265.573 135.73 265.547 134.97 265.79C134.625 265.895 134.307 266.076 134.041 266.32C133.775 266.564 133.567 266.864 133.432 267.198C133.296 267.533 133.238 267.894 133.26 268.254C133.282 268.614 133.385 268.965 133.56 269.28L138.89 279.44C139.282 280.133 139.901 280.669 140.642 280.959C141.383 281.249 142.202 281.274 142.96 281.03Z" fill="#F0F5F6"/>
<path d="M141.47 281.51C141.816 281.408 142.135 281.229 142.402 280.986C142.669 280.744 142.878 280.444 143.014 280.11C143.149 279.776 143.208 279.415 143.184 279.055C143.161 278.695 143.057 278.345 142.88 278.03L137.55 267.87C137.158 267.177 136.539 266.641 135.798 266.351C135.056 266.062 134.238 266.037 133.48 266.28C133.133 266.382 132.813 266.561 132.544 266.805C132.276 267.048 132.066 267.348 131.931 267.684C131.795 268.02 131.737 268.382 131.761 268.743C131.785 269.104 131.891 269.456 132.07 269.77L137.39 279.92C137.781 280.616 138.401 281.156 139.145 281.445C139.889 281.735 140.711 281.758 141.47 281.51Z" fill="black"/>
<path d="M216.31 404.13L350.05 357.95L218.6 116.2L87.3301 158.31L216.31 404.13Z" fill="#FDFEFE"/>
<path d="M216.23 407.95L82.7099 153.48C78.7099 145.88 82.1599 137.39 90.3699 134.55L195.06 101.62C203.27 98.7901 213.19 102.62 217.18 110.27L353.18 360.67C357.18 368.27 353.73 376.76 345.52 379.59L238.36 416.59C230.15 419.43 220.22 415.55 216.23 407.95ZM90.6399 137.28C84.1899 139.5 82.84 147.28 85.97 153.28L218.44 406.38C221.57 412.38 224.91 416.86 236.53 415.14L345.01 377.64C346.499 377.161 347.864 376.357 349.005 375.286C350.147 374.216 351.036 372.905 351.61 371.449C352.184 369.994 352.428 368.429 352.324 366.867C352.22 365.306 351.772 363.787 351.01 362.42L215.25 111.61C213.631 108.178 210.764 105.493 207.234 104.101C203.703 102.71 199.775 102.716 196.25 104.12L90.6399 137.28Z" fill="#D8E5E5"/>
<path d="M218.59 408.03L84.4902 152.43C81.0902 145.95 84.0202 138.71 91.0202 136.29L196.16 103.21C199.67 102.078 203.464 102.193 206.899 103.536C210.334 104.879 213.199 107.367 215.01 110.58L351.59 362.09C354.99 368.57 352.06 375.81 345.06 378.22L237.45 415.38C233.941 416.517 230.147 416.406 226.71 415.067C223.273 413.727 220.405 411.242 218.59 408.03ZM91.5902 137.42C85.2502 139.61 82.5902 146.16 85.6802 152.03L219.81 407.6C221.456 410.507 224.053 412.757 227.164 413.972C230.275 415.187 233.71 415.293 236.89 414.27L344.5 377.11C350.84 374.93 353.5 368.37 350.41 362.5L213.81 111.03C212.165 108.124 209.567 105.873 206.456 104.658C203.345 103.443 199.91 103.338 196.73 104.36L91.5902 137.42Z" fill="black"/>
<path d="M338.81 113.49C338.55 113.07 338.15 112.72 337.87 112.3C337.549 111.756 337.326 111.16 337.21 110.54L336.28 106.78C335.997 105.721 335.446 104.754 334.68 103.97C334.396 103.588 334.036 103.268 333.623 103.031C333.211 102.794 332.753 102.643 332.28 102.59C331.555 102.635 330.86 102.892 330.28 103.33C323.81 107.42 322.81 114.03 320 120.49C319.4 121.673 318.872 122.892 318.42 124.14C317.75 126.42 318.14 129.07 320.26 130.38C321.337 130.973 322.55 131.272 323.779 131.248C325.008 131.223 326.208 130.876 327.26 130.24C329.19 128.96 329.76 125.08 330.52 123.03C330.592 122.777 330.722 122.544 330.9 122.35C331.57 121.76 332.77 121.93 333.56 121.1C334.071 120.416 334.545 119.705 334.98 118.97C335.93 117.67 337.66 117.15 338.6 115.77C338.813 115.488 338.955 115.159 339.015 114.811C339.074 114.463 339.048 114.106 338.94 113.77C338.906 113.673 338.862 113.579 338.81 113.49Z" fill="white" stroke="#4B524D" stroke-width="0.5" stroke-miterlimit="10"/>
<path d="M326.89 110.61C326.89 106.68 326.75 105.01 325.24 101.37C324.89 100.51 323.9 100.58 322.97 100.56C322.61 102.43 322.97 104.37 322.7 106.27C322.491 107.526 322.184 108.763 321.78 109.97C321 112.66 320.61 115.54 322.52 117.88" fill="white"/>
<path d="M326.89 110.61C326.89 106.68 326.75 105.01 325.24 101.37C324.89 100.51 323.9 100.58 322.97 100.56C322.61 102.43 322.97 104.37 322.7 106.27C322.491 107.526 322.184 108.763 321.78 109.97C321 112.66 320.61 115.54 322.52 117.88" stroke="#4B524D" stroke-width="0.5" stroke-miterlimit="10"/>
<path d="M319.59 99.0301C318.628 99.4536 317.537 99.4812 316.555 99.1069C315.572 98.7326 314.776 97.9865 314.34 97.0301L313.34 94.8101C312.916 93.8477 312.889 92.7574 313.263 91.7748C313.637 90.7923 314.383 89.9967 315.34 89.5601C316.302 89.1365 317.393 89.109 318.375 89.4832C319.358 89.8575 320.153 90.6036 320.59 91.5601L321.59 93.7701C322.016 94.7335 322.046 95.8264 321.671 96.8112C321.297 97.7961 320.549 98.5935 319.59 99.0301Z" fill="#0A0D0D"/>
<path d="M332.66 118.66C332.995 120.01 333.222 121.384 333.34 122.77C333.4 123.5 334 124.16 334.57 124.09C336.57 123.86 338.65 122.09 338.47 120.69C338.62 112.88 334.89 104.69 331.47 99.0001C330.47 97.3901 328.47 96.8901 327.26 95.6601C326.05 94.4301 325.1 92.7601 323.38 92.6601C322.979 92.6491 322.58 92.7341 322.219 92.908C321.857 93.082 321.542 93.3398 321.3 93.6601C320.636 94.2549 320.224 95.0815 320.15 95.9701C320.217 96.7701 320.54 97.5272 321.07 98.1301C329.75 107.92 331.59 114.86 332.66 118.66Z" fill="#0A0D0D"/>
<path d="M381.81 93.3299C363.288 94.0865 344.876 96.5571 326.81 100.71L319.11 83.8799C334.135 73.0336 348.052 60.7307 360.66 47.1499L381.81 93.3299Z" fill="#EBB04B"/>
<path d="M364.81 73.3799C370.63 86.1399 378.34 95.1099 382.02 93.4299C385.7 91.7499 383.96 80.0399 378.13 67.2899C372.3 54.5399 364.6 45.5699 360.92 47.2899C357.24 49.0099 358.94 60.6299 364.81 73.3799Z" fill="#0F1014"/>
<path d="M332.16 100.03L331.46 100.34C328.848 101.54 325.868 101.655 323.172 100.659C320.476 99.6636 318.285 97.6392 317.08 95.0301C316.487 93.734 316.156 92.3338 316.105 90.9096C316.053 89.4854 316.283 88.0651 316.781 86.7298C317.279 85.3944 318.035 84.1702 319.006 83.127C319.977 82.0838 321.143 81.2422 322.44 80.6501L323.13 80.3301L332.16 100.03Z" fill="#FDFEFE"/>
<mask id="mask1_100_1093" style="mask-type:luminance" maskUnits="userSpaceOnUse" x="358" y="47" width="26" height="47">
<path d="M364.81 73.3799C370.63 86.1399 378.34 95.1099 382.02 93.4299C385.7 91.7499 383.96 80.0399 378.13 67.2899C372.3 54.5399 364.6 45.5699 360.92 47.2899C357.24 49.0099 358.94 60.6299 364.81 73.3799Z" fill="white"/>
</mask>
<g mask="url(#mask1_100_1093)">
<path d="M373.61 69.4699C374.143 70.8161 374.269 72.2889 373.974 73.7063C373.679 75.1237 372.975 76.4236 371.949 77.4454C370.924 78.4672 369.621 79.1661 368.203 79.4559C366.784 79.7456 365.312 79.6135 363.968 79.0758C362.623 78.5381 361.466 77.6184 360.639 76.4303C359.811 75.2422 359.35 73.8378 359.312 72.3905C359.274 70.9432 359.661 69.5165 360.425 68.2866C361.188 67.0567 362.296 66.0774 363.61 65.4699C364.529 65.071 365.517 64.8582 366.518 64.8436C367.52 64.829 368.514 65.013 369.444 65.3849C370.374 65.7569 371.221 66.3094 371.936 67.0105C372.651 67.7116 373.22 68.5475 373.61 69.4699Z" fill="#D85F5F"/>
</g>
<path d="M373.81 89.17C369.962 84.4313 366.767 79.198 364.31 73.61C361.695 68.0966 359.828 62.2582 358.76 56.25C357.98 50.98 358.64 47.7 360.69 46.76C362.74 45.82 365.69 47.47 369.13 51.51C372.958 56.2392 376.136 61.4587 378.58 67.03C383.88 78.62 386.69 91.83 382.21 93.88C381.829 94.049 381.417 94.1342 381 94.13C379.08 94.17 376.61 92.47 373.81 89.17ZM361.1 47.74C359.6 48.43 359.1 51.55 359.79 56.09C360.843 61.9989 362.682 67.74 365.26 73.16C367.673 78.657 370.811 83.8062 374.59 88.47C377.59 91.95 380.26 93.62 381.76 92.94C384.76 91.57 383.76 81.03 377.6 67.52C375.188 62.023 372.05 56.8738 368.27 52.21C365.72 49.21 363.4 47.59 361.84 47.59C361.586 47.5865 361.333 47.6377 361.1 47.74Z" fill="#0F1014"/>
<path d="M286.52 119.97C296.92 122.14 300.78 133.43 301.31 143.39C301.47 146.61 302.79 151.18 302.16 154.32C303.239 148.904 304.833 143.603 306.92 138.49C308.59 134.37 309.84 130.17 313.24 127.1C315.665 124.848 317.823 122.325 319.67 119.58C322.79 121.66 327.85 125.38 331.4 126.58C331.28 129.68 331 131.64 331.78 134.63C333.54 141.31 331.32 148.97 329.57 155.5C327.647 162.665 324.965 169.604 321.57 176.2C318.95 181.28 315.43 186.53 309.94 188.13C304.94 189.59 299.5 187.53 295.1 184.68C287.539 179.787 281.746 172.598 278.57 164.17C275.39 155.4 271.57 147.61 271.57 137.94C271.451 134.43 272.061 130.933 273.36 127.67C275.64 122.49 279.56 118.52 286.52 119.97Z" fill="#D85F5F"/>
<path d="M337.38 108.3C337.58 108.208 337.797 108.161 338.017 108.164C338.237 108.166 338.453 108.216 338.651 108.312C338.849 108.407 339.023 108.546 339.161 108.716C339.299 108.887 339.398 109.086 339.45 109.3C339.62 110.381 339.43 111.487 338.91 112.45C339.097 112.38 339.303 112.382 339.488 112.456C339.672 112.53 339.823 112.671 339.91 112.85C340.06 113.21 340.122 113.601 340.09 113.99C340.016 114.607 339.851 115.211 339.6 115.78C339.38 116.358 339.113 116.916 338.8 117.45C338.479 117.987 338.122 118.502 337.73 118.99C337.24 119.6 336.67 120.35 335.73 120.08C335.447 119.994 335.198 119.821 335.019 119.586C334.839 119.351 334.738 119.065 334.73 118.77C334.731 118.427 334.799 118.087 334.93 117.77C335.04 117.47 335.18 117.19 335.3 116.9C334.3 117.72 332.95 118.54 332.3 118.1C331.65 117.66 331.79 116.82 332.02 116.15C332.492 114.786 333.218 113.524 334.16 112.43C333.37 113.116 332.531 113.744 331.65 114.31C331.463 114.462 331.247 114.576 331.015 114.643C330.783 114.71 330.54 114.729 330.3 114.7C329.45 114.48 329.36 113.29 329.65 112.45C330.274 111.004 331.182 109.698 332.32 108.61L332.56 108.33C331.723 109.135 330.816 109.865 329.85 110.51C329.658 110.676 329.433 110.799 329.19 110.871C328.947 110.944 328.692 110.964 328.44 110.93C328.213 110.848 328.015 110.701 327.871 110.507C327.727 110.313 327.643 110.081 327.63 109.84C327.61 109.355 327.702 108.873 327.9 108.43C329.058 105.334 331.266 102.743 334.14 101.11C334.496 100.882 334.9 100.742 335.32 100.7C335.53 100.684 335.741 100.728 335.928 100.825C336.115 100.922 336.272 101.069 336.38 101.25C336.492 101.547 336.509 101.872 336.43 102.18C336.27 103.021 335.962 103.826 335.52 104.56C335.81 104.3 336.155 104.108 336.528 103.999C336.902 103.89 337.296 103.866 337.68 103.93C338.071 104.112 338.386 104.427 338.569 104.818C338.752 105.209 338.791 105.652 338.68 106.07C338.44 106.91 337.993 107.676 337.38 108.3Z" fill="white" stroke="#4B524D" stroke-width="0.5" stroke-miterlimit="10"/>
<path d="M329.23 81.9302L350.6 65.7002" stroke="black" stroke-width="0.5" stroke-miterlimit="10"/>
<path d="M353.15 63.78C353.918 63.1698 354.616 62.4755 355.23 61.71" stroke="black" stroke-width="0.5" stroke-miterlimit="10"/>
<path d="M319.65 85.7202C318.825 87.1396 318.422 88.7652 318.49 90.4056C318.557 92.0461 319.091 93.6332 320.03 94.9802" stroke="black" stroke-width="0.5" stroke-miterlimit="10"/>
<path d="M321.81 97.3799C322.186 97.7729 322.64 98.0827 323.143 98.2894C323.646 98.4961 324.187 98.5951 324.73 98.5799" stroke="black" stroke-width="0.5" stroke-miterlimit="10"/>
<path d="M201.55 146.59L235.9 214.25L226.21 217.56L191.86 149.91L201.55 146.59Z" fill="#EBB04B" stroke="black" stroke-width="0.5" stroke-miterlimit="10"/>
<path d="M185.52 165L214.28 221.65L204.59 224.96L175.83 168.32L185.52 165Z" fill="#EBB04B" stroke="black" stroke-width="0.5" stroke-miterlimit="10"/>
<path d="M167.09 178.69L192.66 229.04L182.96 232.36L157.4 182.01L167.09 178.69Z" fill="#7FA4B0" stroke="black" stroke-width="0.5" stroke-miterlimit="10"/>
<path d="M159.39 209.95L172.58 235.91L162.88 239.22L149.7 213.26L159.39 209.95Z" fill="#D85F5F" stroke="black" stroke-width="0.5" stroke-miterlimit="10"/>
<path d="M244.03 211.56L144.74 245.53" stroke="#0D150A" stroke-width="0.75" stroke-miterlimit="10"/>
<path d="M179.42 171.22L187.22 186.83" stroke="black" stroke-width="0.5" stroke-miterlimit="10"/>
<path d="M188.81 189.03C189.72 191.192 190.768 193.293 191.95 195.32" stroke="black" stroke-width="0.5" stroke-miterlimit="10"/>
<path d="M203.61 168.03C206.377 173.81 209.313 179.533 212.42 185.2" stroke="black" stroke-width="0.5" stroke-miterlimit="10"/>
<path d="M214.55 189.42C215.883 192.24 217.216 195.06 218.55 197.88" stroke="black" stroke-width="0.5" stroke-miterlimit="10"/>
<path d="M154.59 219.71L157.85 226.23" stroke="black" stroke-width="0.5" stroke-miterlimit="10"/>
<path d="M159.93 229.89L161.46 232.95" stroke="black" stroke-width="0.5" stroke-miterlimit="10"/>
<path d="M172.38 207.81L177.27 217.6" stroke="black" stroke-width="0.5" stroke-miterlimit="10"/>
<path d="M172.63 204.18C173.09 205.12 173.56 206.05 174.03 206.98" stroke="black" stroke-width="0.5" stroke-miterlimit="10"/>
<path d="M168.99 200.51L170.38 203.3" stroke="black" stroke-width="0.5" stroke-miterlimit="10"/>
<path d="M250.54 231.91L284.89 299.56L275.2 302.88L240.85 235.22L250.54 231.91Z" fill="#EBB04B" stroke="black" stroke-width="0.5" stroke-miterlimit="10"/>
<path d="M237.1 249.47L265.87 306.11L256.17 309.43L227.41 252.78L237.1 249.47Z" fill="#EBB04B" stroke="black" stroke-width="0.5" stroke-miterlimit="10"/>
<path d="M221.6 262.2L247.16 312.55L237.47 315.86L211.9 265.51L221.6 262.2Z" fill="#D85F5F" stroke="black" stroke-width="0.5" stroke-miterlimit="10"/>
<path d="M200.98 281.19L221.57 321.22L211.88 324.54L191.29 284.5L200.98 281.19Z" fill="#EBB04B" stroke="black" stroke-width="0.5" stroke-miterlimit="10"/>
<path d="M293.02 296.88L193.73 330.84" stroke="#0D150A" stroke-width="0.75" stroke-miterlimit="10"/>
<path d="M294.52 299.5L195.23 333.47" stroke="#0D150A" stroke-width="0.75" stroke-miterlimit="10"/>
<path d="M194.81 97.35C196.7 93.82 197.24 89.35 198.31 85.63C198.434 85.0981 198.639 84.5886 198.92 84.12C199.207 83.7438 199.544 83.4075 199.92 83.12C201.18 82.12 201.92 80.74 203.1 79.66C204.907 77.9952 206.49 76.1027 207.81 74.03C208.109 73.6836 208.313 73.2662 208.404 72.8179C208.495 72.3697 208.47 71.9055 208.33 71.47C208.062 71.0836 207.662 70.8085 207.205 70.6961C206.749 70.5838 206.267 70.6421 205.85 70.86C205.041 71.3295 204.356 71.9841 203.85 72.77C201.96 75.21 200.56 74.45 201.17 71.62L202.89 63.62C203.2 62.4563 203.338 61.2536 203.3 60.05C203.261 59.4612 203.097 58.8875 202.82 58.3668C202.542 57.8461 202.157 57.3904 201.69 57.03C200.997 56.5157 200.137 56.2788 199.279 56.3658C198.42 56.4527 197.625 56.8572 197.05 57.5C196.487 58.2943 196.067 59.181 195.81 60.12C195.143 62.12 194.403 64.07 193.59 65.97C193.497 66.2487 193.331 66.4973 193.11 66.69C193.052 66.7333 192.986 66.7649 192.916 66.7828C192.846 66.8007 192.774 66.8047 192.702 66.7945C192.631 66.7843 192.562 66.7601 192.5 66.7233C192.437 66.6865 192.383 66.6378 192.34 66.58C192.289 66.4309 192.289 66.2691 192.34 66.12C192.68 63.45 194.07 60.95 194.04 58.27C193.865 58.1689 193.663 58.1234 193.461 58.1394C193.259 58.1555 193.067 58.2324 192.91 58.36C192.598 58.6348 192.351 58.9767 192.19 59.36C190.661 62.4041 189.384 65.568 188.37 68.82C187.261 71.614 186.586 74.5616 186.37 77.56C186.444 80.5244 186.286 83.49 185.9 86.43C185.31 89.73 183.42 92.59 183.27 96.02C183.197 96.6384 183.308 97.2646 183.59 97.82C183.845 98.2235 184.186 98.5652 184.59 98.82C187.23 100.62 191.79 101.82 193.94 98.82C194.266 98.3521 194.556 97.8607 194.81 97.35Z" fill="white" stroke="#4B524D" stroke-width="0.5" stroke-miterlimit="10"/>
<path d="M243.1 125.03C242.329 124.683 241.604 124.243 240.94 123.72C240.632 123.445 240.385 123.109 240.213 122.734C240.041 122.359 239.948 121.953 239.94 121.54C232 119.98 223.17 121.31 215.31 122.94C210.74 123.88 197.17 125.44 195.44 130.94C197.44 124.7 199.3 118.37 199.95 111.83C200.58 105.49 199.58 99.08 198.83 92.83L198.41 89.33C197.41 89.16 196.31 88.94 195.26 88.71L184.92 86.5C184.66 86.5 183.17 88.42 182.92 88.68C182.22 89.47 181.54 90.26 180.92 91.07C179.54 92.72 178.2 94.42 176.92 96.15C172.664 101.943 169.387 108.396 167.22 115.25C164.69 123.25 162.29 133.89 163.55 142.25C164.183 146.415 165.881 150.345 168.48 153.66C175.81 162.98 191.31 159.66 201.57 158.66C209.16 157.93 221.87 158.79 229.34 157.21C235.75 155.85 236.12 148.91 240.25 143.87C241.789 142.175 242.939 140.165 243.62 137.98C243.883 136.88 244.007 135.751 243.99 134.62C243.99 133.95 243.99 133.29 243.94 132.62C243.986 130.064 243.703 127.514 243.1 125.03Z" fill="#D85F5F"/>
<mask id="mask2_100_1093" style="mask-type:luminance" maskUnits="userSpaceOnUse" x="87" y="116" width="264" height="289">
<path d="M216.31 404.13L350.05 357.94L290.4 183.24L218.6 116.2L87.3301 158.31L216.31 404.13Z" fill="white"/>
</mask>
<g mask="url(#mask2_100_1093)">
<path d="M294.91 319.61C294.3 280.97 294.8 241.4 290.3 203.48C289.51 196.85 287.79 189.33 281.53 187.02C276.75 185.26 270.7 187.37 266.53 191.02C262.36 194.67 259.65 199.75 257.53 204.75C245.15 234.35 250.19 267.85 256.68 295.92C260.45 312.22 262.23 328.67 263.27 345.5C264.59 366.87 273.34 387.83 280.14 407.14C285.01 406.009 289.736 404.332 294.23 402.14C294.715 401.949 295.144 401.639 295.48 401.24C295.74 400.782 295.855 400.255 295.81 399.73C296.19 377.44 295.34 352.87 295.08 330.73C295.03 327.03 294.97 323.34 294.91 319.61Z" fill="#7FA4B0"/>
<path d="M195.21 377.32C193.784 357.268 195.931 337.122 201.55 317.82C206.68 300.14 207.23 279.07 206.55 260.77C206.29 253.36 205.66 245.86 207.09 238.58C208.52 231.3 211.87 224.77 215.49 218.41C218.75 212.69 222.69 207.41 225.97 201.7C227.77 198.59 228.41 191.81 230.32 189.47C234.57 184.3 251.1 185.6 256.51 189.21C260.05 191.57 266.91 199.63 266.95 203.88C266.95 207.09 265.67 210.32 264.44 213.46C252.77 243.15 246.7 273.1 240.07 303.46C235.637 323.727 231.213 344 226.8 364.28C224.54 374.68 222.35 385.09 220 395.48C218.48 402.24 219.44 401.6 213.56 403.65C212.44 404.05 199.56 405.59 199.49 405.35C197.277 396.144 195.845 386.767 195.21 377.32Z" fill="#7FA4B0"/>
</g>
<path d="M238.81 197.36C255.99 197.787 273.174 197.517 290.36 196.55C291.36 196.49 294.52 168.37 294.93 165.65C296.42 155.78 296.07 146.33 295.83 136.35C295.65 129.03 291.83 123.51 284.95 120.75C281.9 119.54 278.21 120.58 274.95 121.04C273.56 121.24 271.89 119.68 270.45 119.82C268.63 119.99 266.81 120.19 265.02 120.48C261.271 121.218 257.445 121.483 253.63 121.27C253.24 121.27 250.15 120.63 249.75 120.59C245 120.22 234.08 122.4 230.09 125.12C221.58 130.9 225.09 147.06 225.18 155.9C225.327 169.6 225.994 183.287 227.18 196.96C231.027 197.133 234.904 197.267 238.81 197.36Z" fill="#D85F5F"/>
<path d="M276.33 96.1C275.82 96.745 275.184 97.2792 274.46 97.67C272.96 98.48 272.66 99.35 272.55 101.03C272.411 105.008 272.548 108.991 272.96 112.95C273.006 114.272 273.348 115.567 273.96 116.74C274.677 117.958 275.821 118.867 277.17 119.29C278.507 119.711 279.914 119.861 281.31 119.73C282.177 119.633 283.048 119.587 283.92 119.59C283.69 124.08 278.23 126.46 274.67 127.97C268.905 130.439 262.539 131.151 256.371 130.016C250.204 128.881 244.508 125.95 240 121.59C247.56 120.59 254.51 115.12 253.84 105.71C253.3 98.01 250.62 87.22 254.06 79.93C258.93 69.63 276.06 66.12 278.73 79.93C279.19 82.8788 279.19 85.8811 278.73 88.83C278.46 91.38 277.88 94.18 276.33 96.1Z" fill="white" stroke="#4B524D" stroke-width="0.5" stroke-miterlimit="10"/>
<path d="M258.94 86.7C259 85.58 258.87 83.3 260.34 83.38C260.59 83.38 260.76 83.63 260.92 83.82C261.141 84.0443 261.406 84.2204 261.698 84.3372C261.991 84.4541 262.304 84.509 262.619 84.4987C262.934 84.4884 263.243 84.4129 263.527 84.2772C263.811 84.1414 264.064 83.9483 264.27 83.71C265.2 82.51 264.83 80.43 266.15 79.71C266.537 79.5189 266.959 79.4067 267.39 79.38C269.064 79.1101 270.695 78.6191 272.24 77.92C274.96 76.92 277.88 78.1 280.13 75.6C281.76 73.8 281.63 70.47 279.5 69.33C277.9 68.47 275.96 69.06 274.16 68.91C272.594 68.6644 271.074 68.1857 269.65 67.49C264.99 65.6661 259.98 64.9142 254.99 65.29C253.357 65.34 251.751 65.7211 250.27 66.41C248.73 67.2797 247.529 68.6431 246.86 70.28C246.2 71.93 246.67 73.96 245.16 75.28C244.16 76.1 242.8 76.14 241.65 76.69C239.31 77.81 238.5 80.69 238.33 83.31C238.393 84.4668 238.1 85.6151 237.49 86.6C236.75 87.301 235.871 87.8392 234.91 88.18C233.822 88.7362 232.872 89.5289 232.13 90.5C231.78 90.8856 231.512 91.3374 231.34 91.8286C231.168 92.3199 231.097 92.8406 231.13 93.36C231.312 94.0921 231.654 94.7749 232.13 95.36C232.827 96.6844 233.917 97.7604 235.25 98.44C236.62 98.97 238.19 98.62 239.6 99.03C242.23 99.79 243.54 102.86 246.02 104.03C246.918 104.402 247.885 104.576 248.857 104.541C249.828 104.507 250.78 104.264 251.65 103.83C252.15 103.555 252.725 103.45 253.29 103.53C254.29 103.77 254.68 104.98 255.62 105.26C256.09 105.34 256.573 105.241 256.973 104.981C257.373 104.722 257.661 104.322 257.78 103.86C257.981 102.925 257.937 101.953 257.65 101.04C257.12 98.68 256.28 95.79 256.8 93.37C257.25 91.23 258.53 89.26 258.92 87.15C258.938 87.0007 258.945 86.8503 258.94 86.7Z" fill="#0F1014"/>
<path d="M268.56 98.7599H269.81C271.026 98.722 272.238 98.6084 273.44 98.4199C273.32 98.4199 273.12 98.8499 273.07 98.9499C272.977 99.1324 272.913 99.328 272.88 99.5299C272.785 100.026 272.715 100.527 272.67 101.03C272.57 102.38 272.51 103.74 272.47 105.09C272.146 104.475 271.775 103.887 271.36 103.33C270.879 102.703 270.365 102.102 269.82 101.53C268.803 100.389 267.612 99.4168 266.29 98.6499C266.551 98.6538 266.812 98.6772 267.07 98.7199H267.98L268.56 98.7599Z" fill="#0F1014"/>
<path d="M262.11 84.8499C261.818 83.8527 261.15 83.0081 260.247 82.4948C259.343 81.9816 258.276 81.8399 257.27 82.0999C254.71 82.7499 253.27 85.6899 253.33 88.1799C253.333 88.8509 253.483 89.5132 253.77 90.1199C254.202 90.8178 254.81 91.3896 255.533 91.7776C256.257 92.1656 257.07 92.3561 257.89 92.3299" fill="white"/>
<path d="M262.11 84.8499C261.818 83.8527 261.15 83.0081 260.247 82.4948C259.343 81.9816 258.276 81.8399 257.27 82.0999C254.71 82.7499 253.27 85.6899 253.33 88.1799C253.333 88.8509 253.483 89.5132 253.77 90.1199C254.202 90.8178 254.81 91.3896 255.533 91.7776C256.257 92.1656 257.07 92.3561 257.89 92.3299" stroke="#4B524D" stroke-width="0.5" stroke-miterlimit="10"/>
<path d="M224.15 325.03L224.69 324.44C221.71 321.653 219.737 317.957 219.08 313.93L218.28 314.06C218.962 318.268 221.028 322.128 224.15 325.03Z" fill="#0F1014"/>
<path d="M280.98 319.96C282.5 317.789 283.692 315.407 284.52 312.89L283.75 312.64C282.951 315.082 281.792 317.391 280.31 319.49L280.98 319.96Z" fill="#0F1014"/>
<path d="M250.33 259.31C253.49 249.77 256.57 240.05 259.47 230.41L258.85 230.22C255.95 239.86 252.85 249.58 249.71 259.11L250.33 259.31Z" fill="#0F1014"/>
<path d="M269.41 90.7901C269.936 91.2745 270.555 91.6475 271.229 91.8865C271.903 92.1255 272.619 92.2256 273.333 92.1808C274.046 92.1359 274.744 91.9471 275.383 91.6256C276.022 91.3041 276.589 90.8566 277.05 90.3101" fill="white"/>
<path d="M269.41 90.7901C269.936 91.2745 270.555 91.6475 271.229 91.8865C271.903 92.1255 272.619 92.2256 273.333 92.1808C274.046 92.1359 274.744 91.9471 275.383 91.6256C276.022 91.3041 276.589 90.8566 277.05 90.3101" stroke="#4B524D" stroke-width="0.5" stroke-miterlimit="10"/>
<path d="M256.58 85.7099C256.971 85.4396 257.432 85.2874 257.907 85.2714C258.382 85.2555 258.852 85.3764 259.26 85.6199C259.648 85.891 259.928 86.2911 260.048 86.7489C260.169 87.2066 260.124 87.6925 259.92 88.1199" fill="white"/>
<path d="M256.58 85.7099C256.971 85.4396 257.432 85.2874 257.907 85.2714C258.382 85.2555 258.852 85.3764 259.26 85.6199C259.648 85.891 259.928 86.2911 260.048 86.7489C260.169 87.2066 260.124 87.6925 259.92 88.1199" stroke="#4B524D" stroke-width="0.5" stroke-miterlimit="10"/>
<path d="M201.61 57.0898C200.966 61.4567 199.833 65.737 198.23 69.8498L201.61 57.0898Z" fill="white"/>
<path d="M201.61 57.0898C200.966 61.4567 199.833 65.737 198.23 69.8498" stroke="#4B524D" stroke-width="0.5" stroke-miterlimit="10"/>
<path d="M199.53 56.5298C198.443 60.7516 197.107 64.9055 195.53 68.9698L199.53 56.5298Z" fill="white"/>
<path d="M199.53 56.5298C198.443 60.7516 197.107 64.9055 195.53 68.9698" stroke="#4B524D" stroke-width="0.5" stroke-miterlimit="10"/>
<path d="M302.45 152.85C302.042 158.594 301.929 164.355 302.11 170.11" stroke="#4B524D" stroke-width="0.5" stroke-miterlimit="10"/>
<path d="M292.28 183.78C292.081 171.015 291.009 158.279 289.07 145.66" stroke="#4B524D" stroke-width="0.5" stroke-miterlimit="10"/>
<path d="M301.32 33.7599C299.58 34.2799 298.32 36.7599 298.32 36.7599C298.32 36.7599 297.04 34.3199 295.32 33.8299C290.32 32.3899 288.03 36.9399 289.96 41.1399C291.82 45.1399 298.38 50.0599 298.38 50.0599C298.38 50.0599 304.92 45.0599 306.77 40.9999C308.63 36.7499 306.36 32.2399 301.32 33.7599Z" fill="#FEFBF9"/>
<path d="M409.43 130.59C408.43 130.88 407.77 132.23 407.77 132.23C407.77 132.23 407.06 130.89 406.1 130.62C403.33 129.83 402.1 132.33 403.1 134.62C404.1 136.91 407.73 139.53 407.73 139.53C407.73 139.53 411.33 136.79 412.34 134.53C413.35 132.27 412.2 129.76 409.43 130.59Z" fill="#FEFBF9"/>
<path d="M366.49 306.72C365.02 307.16 363.94 309.24 363.94 309.24C363.94 309.24 362.86 307.18 361.39 306.76C357.13 305.55 355.22 309.39 356.85 312.94C358.48 316.49 363.97 320.47 363.97 320.47C363.97 320.47 369.49 316.26 371.05 312.82C372.61 309.38 370.75 305.44 366.49 306.72Z" fill="#FEFBF9"/>
<path d="M276.07 27.2098C274.87 27.5698 273.98 29.2098 273.98 29.2098C273.98 29.2098 273.09 27.5298 271.89 27.2098C268.4 26.2098 266.89 29.3598 268.18 32.2098C269.47 35.0598 274 38.3798 274 38.3798C274 38.3798 278.52 34.9298 279.8 32.1098C281.08 29.2898 279.55 26.1498 276.07 27.2098Z" fill="#FEFBF9"/>
<path d="M440.63 214.5H334.26V279.94H440.63V214.5Z" fill="black"/>
<path d="M438.29 211.92H331.92V277.36H438.29V211.92Z" fill="#FEFBF9"/>
<path d="M379.39 238.63V250.73C379.39 250.899 379.436 251.065 379.522 251.21C379.608 251.356 379.732 251.475 379.88 251.556C380.029 251.637 380.196 251.676 380.365 251.67C380.534 251.663 380.698 251.612 380.84 251.52L389.91 245.75C390.029 245.656 390.125 245.537 390.191 245.401C390.256 245.265 390.291 245.116 390.291 244.965C390.291 244.814 390.256 244.665 390.191 244.529C390.125 244.393 390.029 244.274 389.91 244.18L380.84 237.86C380.7 237.769 380.537 237.717 380.37 237.71C380.203 237.703 380.037 237.741 379.889 237.819C379.741 237.898 379.617 238.014 379.529 238.157C379.442 238.299 379.394 238.463 379.39 238.63Z" fill="#D43F3C"/>
<path d="M338.3 266.98H433.5" stroke="#4B524D" stroke-width="0.5" stroke-miterlimit="10"/>
<path d="M349.47 266.97C349.47 267.601 349.283 268.217 348.932 268.742C348.582 269.267 348.083 269.676 347.501 269.917C346.918 270.158 346.276 270.222 345.657 270.098C345.039 269.975 344.47 269.672 344.024 269.225C343.578 268.779 343.274 268.211 343.151 267.592C343.028 266.973 343.091 266.332 343.333 265.749C343.574 265.166 343.983 264.668 344.508 264.317C345.032 263.967 345.649 263.78 346.28 263.78C347.126 263.78 347.937 264.116 348.536 264.714C349.134 265.312 349.47 266.124 349.47 266.97Z" fill="#4B524D"/>
<path d="M393.98 374.84H333.11V413.15H393.98V374.84Z" fill="black"/>
<path d="M387 369.28H326.13V407.59H387V369.28Z" fill="#EBB04B"/>
<path d="M386.99 369.28C386.99 369.28 358.81 386.62 356.56 388.43L326.13 369.28" stroke="black" stroke-width="0.5" stroke-miterlimit="10"/>
<path d="M384.26 393.03C384.52 396.245 384.52 399.475 384.26 402.69" stroke="black" stroke-width="0.5" stroke-miterlimit="10"/>
<path d="M384.16 391.1C384.16 389.92 384.25 388.73 384.29 387.54" stroke="black" stroke-width="0.5" stroke-miterlimit="10"/>
<path d="M382.49 390.34V392.88" stroke="black" stroke-width="0.5" stroke-miterlimit="10"/>
<path d="M357.58 385.38C357.58 385.38 361.86 382.68 363.3 381.69" stroke="black" stroke-width="0.5" stroke-miterlimit="10"/>
<path d="M365.05 380.39C365.658 379.922 366.307 379.511 366.99 379.16" stroke="black" stroke-width="0.5" stroke-miterlimit="10"/>
<path d="M229.68 161.24C229.679 168.398 230.16 175.547 231.12 182.64" stroke="black" stroke-width="0.5" stroke-miterlimit="10"/>
<path d="M232.23 186.03V191.1" stroke="black" stroke-width="0.5" stroke-miterlimit="10"/>
<path d="M224.62 158.42C226.559 157.222 228.357 155.81 229.98 154.21" stroke="black" stroke-width="0.5" stroke-miterlimit="10"/>
<path d="M196.21 129.44C195.26 131.067 194.119 132.574 192.81 133.93" stroke="black" stroke-width="0.5" stroke-miterlimit="10"/>
<path d="M168.59 142.94C169.356 145.152 170.846 147.041 172.82 148.3" stroke="black" stroke-width="0.5" stroke-miterlimit="10"/>
<path d="M255.81 108.22C255.68 110.816 255.041 113.361 253.93 115.71" stroke="black" stroke-width="0.5" stroke-miterlimit="10"/>
<path d="M253.16 117.22C252.922 117.807 252.583 118.349 252.16 118.82" stroke="black" stroke-width="0.5" stroke-miterlimit="10"/>
<path d="M268.27 99.03C267.444 99.1435 266.602 99.0664 265.81 98.8047C265.018 98.5429 264.296 98.1035 263.7 97.52" stroke="black" stroke-width="0.5" stroke-miterlimit="10"/>
<path d="M284.81 119.48C284.19 119.37 283.55 119.37 282.92 119.29C278.66 124.86 271.61 127.7 264.67 128.01C260.143 128.143 255.623 127.556 251.28 126.27C249.174 125.751 247.134 124.992 245.2 124.01C243.765 123.176 242.464 122.131 241.34 120.91C240.67 121.05 239.99 121.21 239.34 121.29C238.846 121.355 238.345 121.355 237.85 121.29C237.914 121.533 238.038 121.757 238.21 121.94C240.578 124.677 243.588 126.783 246.97 128.07C250.682 129.415 254.538 130.325 258.46 130.78C265.51 131.63 272.91 130.63 279.03 126.83C281.933 125.053 284.414 122.664 286.3 119.83C285.81 119.68 285.32 119.56 284.81 119.48Z" fill="#0F1014"/>
<path d="M238.22 193.12C234.42 193.12 230.63 193.06 226.83 192.99C226.929 193.652 226.969 194.321 226.95 194.99C244.65 195.276 262.35 195.06 280.05 194.34C283.74 194.19 287.43 194.01 291.12 193.82C291.12 193.43 291.19 193.05 291.24 192.68C291.29 192.31 291.35 192.09 291.42 191.8C273.68 192.746 255.947 193.186 238.22 193.12Z" fill="#0F1014"/>
</svg>
