<svg width="167" height="207" viewBox="0 0 167 207" fill="none" xmlns="http://www.w3.org/2000/svg">
<g id="Frame" clip-path="url(#clip0_81_974)">
<g id="Group">
<g id="OBJECTS">
<path id="Vector" d="M134.46 201.292L130.288 201.176V14.455C130.288 13.3213 129.837 12.2339 129.034 11.4323C128.232 10.6306 127.144 10.1802 126.009 10.1802H37.9583L37.2919 6.19971L32.3812 10.5421C31.6557 10.8929 31.0442 11.4413 30.6171 12.1242C30.19 12.8071 29.9645 13.5966 29.9668 14.4019V202.725C29.9668 203.859 30.4176 204.946 31.2199 205.748C32.0222 206.549 33.1104 207 34.245 207H126.009C126.6 206.999 127.183 206.876 127.723 206.639C128.264 206.401 128.749 206.054 129.148 205.62H129.201L134.46 201.292Z" fill="#64758C"/>
<path id="Vector_2" d="M131.311 5.66895H39.5326C37.1698 5.66895 35.2544 7.58284 35.2544 9.94375V198.238C35.2544 200.599 37.1698 202.513 39.5326 202.513H131.311C133.674 202.513 135.59 200.599 135.59 198.238V9.94375C135.59 7.58284 133.674 5.66895 131.311 5.66895Z" fill="#D0E2F3"/>
<path id="Vector_3" d="M127.299 10.2236H43.5453C41.1825 10.2236 39.2671 12.1375 39.2671 14.4984V193.688C39.2671 196.049 41.1825 197.963 43.5453 197.963H127.299C129.662 197.963 131.577 196.049 131.577 193.688V14.4984C131.577 12.1375 129.662 10.2236 127.299 10.2236Z" fill="#37455A"/>
<path id="Vector_4" d="M50.0782 107.83H42.4634V140.707H50.0782V107.83Z" fill="#F39E06"/>
<path id="Vector_5" d="M62.8551 102.46H55.2402V140.702H62.8551V102.46Z" fill="#F24822"/>
<path id="Vector_6" d="M75.3663 94.2822H67.7515V140.702H75.3663V94.2822Z" fill="#068AC0"/>
<path id="Vector_7" d="M128.791 0L114.107 3.26159L117.883 6.49423L98.8769 25.8129L80.1175 3.53178L58.3208 27.6801L63.531 32.6014L79.8471 14.1271L98.3361 36.1332L122.132 10.2914L126.613 14.1271L128.791 0Z" fill="#F39E06"/>
<path id="Vector_8" d="M143.045 82.0176H82.1794C80.8166 82.0176 79.7119 83.1214 79.7119 84.4831V128.727C79.7119 130.088 80.8166 131.192 82.1794 131.192H143.045C144.408 131.192 145.512 130.088 145.512 128.727V84.4831C145.512 83.1214 144.408 82.0176 143.045 82.0176Z" fill="#A3BFDA"/>
<path id="Vector_9" d="M138.188 86.249H87.047C85.6843 86.249 84.5796 87.3529 84.5796 88.7145V124.5C84.5796 125.862 85.6843 126.966 87.047 126.966H138.188C139.55 126.966 140.655 125.862 140.655 124.5V88.7145C140.655 87.3529 139.55 86.249 138.188 86.249Z" fill="#068AC0"/>
<path id="Vector_10" d="M96.0284 105.114C98.4312 105.114 100.379 103.167 100.379 100.767C100.379 98.3657 98.4312 96.4194 96.0284 96.4194C93.6256 96.4194 91.6777 98.3657 91.6777 100.767C91.6777 103.167 93.6256 105.114 96.0284 105.114Z" fill="white"/>
<path id="Vector_11" d="M126.483 96.4243L113.479 115.82L121.287 126.966H138.187C138.842 126.966 139.469 126.706 139.932 126.243C140.395 125.781 140.655 125.154 140.655 124.5V117.538L126.483 96.4243Z" fill="#37455A"/>
<path id="Vector_12" d="M106.362 105.654L91.2432 126.966H121.287L113.484 115.82L106.362 105.654Z" fill="white"/>
<path id="Vector_13" d="M121.664 166.582V140.919H121.243C116.156 140.898 111.177 142.386 106.937 145.195C102.697 148.004 99.3871 152.007 97.4258 156.697C95.4644 161.387 94.9403 166.553 95.9199 171.541C96.8994 176.529 99.3385 181.114 102.928 184.716C106.518 188.318 111.097 190.774 116.085 191.773C121.072 192.773 126.245 192.27 130.947 190.33C135.649 188.39 139.669 185.099 142.497 180.874C145.326 176.649 146.835 171.68 146.835 166.597C146.833 165.178 146.716 163.761 146.483 162.361L121.664 166.582Z" fill="white"/>
<path id="Vector_14" d="M122.808 164.879V139.631C122.668 139.631 122.533 139.631 122.393 139.631C117.392 139.631 112.503 141.113 108.345 143.889C104.187 146.666 100.946 150.612 99.033 155.229C97.1199 159.846 96.62 164.927 97.5967 169.828C98.5735 174.728 100.983 179.23 104.52 182.762C108.058 186.295 112.564 188.7 117.469 189.673C122.375 190.646 127.459 190.144 132.078 188.229C136.698 186.315 140.646 183.075 143.422 178.918C146.198 174.762 147.679 169.876 147.676 164.879C147.673 163.484 147.557 162.092 147.328 160.715L122.808 164.879Z" fill="#F37406"/>
<path id="Vector_15" d="M143.813 145.966L125.753 163.224L150.273 159.056C149.46 154.151 147.212 149.596 143.813 145.966Z" fill="#F39E06"/>
<path id="Vector_16" d="M142.132 146.149C139.818 143.672 137.028 141.688 133.928 140.314C130.828 138.94 127.483 138.206 124.092 138.154V163.407L142.132 146.149Z" fill="#F24822"/>
<path id="Vector_17" d="M162.886 28.5195H85.8011C83.5289 28.5195 81.687 30.36 81.687 32.6303V69.0047C81.687 71.2751 83.5289 73.1155 85.8011 73.1155H162.886C165.158 73.1155 167 71.2751 167 69.0047V32.6303C167 30.36 165.158 28.5195 162.886 28.5195Z" fill="#F24822"/>
<path id="Vector_18" d="M161.858 71.2774H86.8343C85.9177 71.2761 85.0391 70.9117 84.391 70.2641C83.7429 69.6165 83.3782 68.7386 83.377 67.8228V33.8125C83.3782 32.8967 83.7429 32.0187 84.391 31.3711C85.0391 30.7236 85.9177 30.3592 86.8343 30.3579H161.858C162.774 30.3592 163.653 30.7236 164.301 31.3711C164.949 32.0187 165.314 32.8967 165.315 33.8125V67.8228C165.314 68.7386 164.949 69.6165 164.301 70.2641C163.653 70.9117 162.774 71.2761 161.858 71.2774ZM86.8343 30.5943C85.9797 30.5943 85.16 30.9332 84.5552 31.5366C83.9504 32.14 83.61 32.9585 83.6087 33.8125V67.8228C83.61 68.6767 83.9504 69.4953 84.5552 70.0987C85.16 70.702 85.9797 71.0409 86.8343 71.0409H161.858C162.712 71.0409 163.531 70.7019 164.135 70.0984C164.739 69.4948 165.078 68.6763 165.078 67.8228V33.8125C165.078 32.959 164.739 32.1404 164.135 31.5369C163.531 30.9334 162.712 30.5943 161.858 30.5943H86.8343Z" fill="white"/>
<path id="Vector_19" d="M135.542 53.3843C136.965 47.2969 133.18 41.2091 127.088 39.7869C120.996 38.3647 114.903 42.1467 113.48 48.2341C112.057 54.3215 115.842 60.4093 121.934 61.8314C128.026 63.2536 134.119 59.4717 135.542 53.3843Z" fill="white"/>
<path id="Vector_20" d="M120.379 45.5415V56.0645L131.437 50.8054L120.379 45.5415Z" fill="#F24822"/>
<path id="Vector_21" d="M11.4636 25.4991L51.2471 25.7934C52.2806 25.8074 53.2668 26.2291 53.9904 26.9667C54.714 27.7042 55.1165 28.6977 55.11 29.7305L54.9652 50.043C54.9512 51.0766 54.5284 52.0627 53.7893 52.7859C53.0501 53.5091 52.0546 53.9107 51.0201 53.9029L22.4054 53.6954L14.6795 63.3451L14.7519 53.6231L11.2414 53.599C10.2074 53.5837 9.22133 53.1609 8.49783 52.4226C7.77433 51.6843 7.37201 50.6903 7.3785 49.6571L7.51853 29.359C7.53379 28.3258 7.95692 27.3405 8.6958 26.6175C9.43468 25.8946 10.4295 25.4926 11.4636 25.4991Z" fill="#068AC0"/>
<path id="Vector_22" d="M23.7378 39.9981C23.734 40.4359 23.6004 40.8627 23.3539 41.2247C23.1074 41.5866 22.7591 41.8674 22.3529 42.0316C21.9468 42.1959 21.501 42.2361 21.072 42.1473C20.643 42.0585 20.2499 41.8447 19.9424 41.5327C19.635 41.2208 19.427 40.8249 19.3446 40.3949C19.2623 39.9649 19.3094 39.5201 19.4799 39.1169C19.6504 38.7136 19.9368 38.3698 20.3027 38.1291C20.6687 37.8883 21.0978 37.7614 21.5359 37.7642C21.8274 37.7661 22.1156 37.8254 22.3841 37.9388C22.6526 38.0521 22.8961 38.2173 23.1006 38.4248C23.3052 38.6323 23.4667 38.8781 23.5761 39.148C23.6854 39.418 23.7404 39.7069 23.7378 39.9981Z" fill="#D0E2F3"/>
<path id="Vector_23" d="M33.4678 40.0656C33.4658 40.5049 33.3334 40.9339 33.0873 41.298C32.8412 41.6621 32.4925 41.945 32.0854 42.1109C31.6782 42.2769 31.2309 42.3183 30.8002 42.23C30.3694 42.1417 29.9746 41.9276 29.6657 41.6149C29.3568 41.3022 29.1478 40.905 29.0651 40.4734C28.9823 40.0419 29.0296 39.5956 29.201 39.1909C29.3724 38.7863 29.6601 38.4416 30.0276 38.2005C30.3952 37.9594 30.8262 37.8327 31.2659 37.8365C31.5569 37.8384 31.8448 37.8976 32.113 38.0106C32.3811 38.1237 32.6244 38.2884 32.8289 38.4954C33.0333 38.7024 33.195 38.9476 33.3046 39.217C33.4142 39.4864 33.4697 39.7748 33.4678 40.0656Z" fill="#D0E2F3"/>
<path id="Vector_24" d="M43.1929 40.1378C43.1891 40.5755 43.0555 41.0024 42.809 41.3643C42.5625 41.7262 42.2142 42.0071 41.808 42.1713C41.4019 42.3355 40.9561 42.3758 40.5271 42.287C40.098 42.1982 39.705 41.9843 39.3975 41.6724C39.0901 41.3605 38.8821 40.9645 38.7997 40.5345C38.7174 40.1045 38.7645 39.6598 38.935 39.2565C39.1055 38.8532 39.3918 38.5095 39.7578 38.2687C40.1237 38.028 40.5529 37.901 40.991 37.9039C41.2827 37.9051 41.5712 37.964 41.84 38.0771C42.1088 38.1902 42.3525 38.3554 42.5572 38.563C42.7618 38.7706 42.9233 39.0167 43.0324 39.2869C43.1416 39.5572 43.1961 39.8463 43.1929 40.1378Z" fill="#D0E2F3"/>
<path id="Vector_25" d="M71.817 46.6463L29.5612 46.3375C28.4581 46.3298 27.397 46.7599 26.6111 47.5334C25.8252 48.3069 25.3788 49.3605 25.3699 50.4627L25.2105 72.0394C25.2041 73.1408 25.6351 74.1998 26.4091 74.984C27.1831 75.7682 28.2368 76.2136 29.339 76.2225L59.7356 76.4445L67.7947 86.8324L67.8719 76.5072L71.5997 76.5362C72.7019 76.5426 73.7617 76.1119 74.5466 75.3385C75.3314 74.5651 75.7772 73.5123 75.7861 72.4109L75.9455 50.8342C75.9499 50.2883 75.8467 49.7468 75.6415 49.2408C75.4364 48.7348 75.1335 48.2741 74.75 47.8852C74.3666 47.4962 73.9102 47.1866 73.4069 46.974C72.9036 46.7614 72.3633 46.6501 71.817 46.6463Z" fill="#1D99BF"/>
<path id="Vector_26" d="M42.3284 62.0086C42.3246 62.4741 42.1828 62.928 41.9209 63.3129C41.659 63.6979 41.2888 63.9966 40.8571 64.1714C40.4254 64.3463 39.9515 64.3893 39.4953 64.2951C39.0391 64.2009 38.621 63.9737 38.294 63.6422C37.967 63.3107 37.7456 62.8898 37.6579 62.4327C37.5702 61.9755 37.62 61.5027 37.8011 61.0738C37.9823 60.645 38.2865 60.2794 38.6755 60.0233C39.0645 59.7671 39.5207 59.632 39.9865 59.6348C40.2964 59.6367 40.6028 59.6996 40.8883 59.82C41.1738 59.9404 41.4327 60.1159 41.6502 60.3364C41.8678 60.5569 42.0396 60.8181 42.156 61.105C42.2724 61.392 42.331 61.699 42.3284 62.0086Z" fill="#D0E2F3"/>
<path id="Vector_27" d="M52.6571 62.0858C52.6532 62.5515 52.5113 63.0055 52.2492 63.3906C51.9871 63.7756 51.6166 64.0744 51.1846 64.2491C50.7526 64.4237 50.2784 64.4665 49.8221 64.3719C49.3658 64.2773 48.9477 64.0496 48.6209 63.7176C48.2941 63.3857 48.0731 62.9643 47.9859 62.5069C47.8988 62.0494 47.9493 61.5764 48.1312 61.1476C48.313 60.7189 48.618 60.3536 49.0076 60.0981C49.3973 59.8426 49.8539 59.7082 50.32 59.712C50.6294 59.7145 50.9353 59.7779 51.2203 59.8986C51.5052 60.0192 51.7635 60.1948 51.9806 60.4152C52.1976 60.6357 52.369 60.8967 52.4851 61.1833C52.6012 61.4699 52.6596 61.7766 52.6571 62.0858Z" fill="#D0E2F3"/>
<path id="Vector_28" d="M62.9905 62.1678C62.9867 62.6335 62.8448 63.0876 62.5827 63.4726C62.3206 63.8577 61.9501 64.1564 61.5181 64.3311C61.0861 64.5057 60.6119 64.5485 60.1556 64.4539C59.6992 64.3593 59.2812 64.1316 58.9544 63.7997C58.6276 63.4677 58.4066 63.0463 58.3194 62.5889C58.2323 62.1314 58.2828 61.6584 58.4646 61.2297C58.6465 60.8009 58.9515 60.4357 59.3411 60.1801C59.7307 59.9246 60.1874 59.7902 60.6535 59.794C60.9629 59.7965 61.2688 59.86 61.5538 59.9806C61.8387 60.1013 62.097 60.2768 62.3141 60.4973C62.5311 60.7177 62.7025 60.9787 62.8186 61.2653C62.9347 61.552 62.9931 61.8586 62.9905 62.1678Z" fill="#D0E2F3"/>
<path id="Vector_29" d="M40.8218 153.193H15.5533C12.6945 153.193 10.377 155.509 10.377 158.366V171.672C10.377 174.529 12.6945 176.845 15.5533 176.845H40.8218C43.6806 176.845 45.9981 174.529 45.9981 171.672V158.366C45.9981 155.509 43.6806 153.193 40.8218 153.193Z" fill="#F24822"/>
<path id="Vector_30" d="M39.5616 159.321H15.6596C15.497 159.321 15.341 159.256 15.226 159.141C15.111 159.026 15.0464 158.87 15.0464 158.708C15.0464 158.545 15.111 158.39 15.226 158.275C15.341 158.16 15.497 158.095 15.6596 158.095H39.5616C39.7243 158.095 39.8802 158.16 39.9952 158.275C40.1102 158.39 40.1748 158.545 40.1748 158.708C40.1748 158.87 40.1102 159.026 39.9952 159.141C39.8802 159.256 39.7243 159.321 39.5616 159.321Z" fill="#F2F2F2"/>
<path id="Vector_31" d="M39.5616 163.683H15.6596C15.497 163.683 15.341 163.618 15.226 163.503C15.111 163.388 15.0464 163.232 15.0464 163.07C15.0464 162.907 15.111 162.751 15.226 162.637C15.341 162.522 15.497 162.457 15.6596 162.457H39.5616C39.7243 162.457 39.8802 162.522 39.9952 162.637C40.1102 162.751 40.1748 162.907 40.1748 163.07C40.1748 163.232 40.1102 163.388 39.9952 163.503C39.8802 163.618 39.7243 163.683 39.5616 163.683Z" fill="#F2F2F2"/>
<path id="Vector_32" d="M39.5618 168.044H15.6598C15.575 168.052 15.4896 168.042 15.409 168.014C15.3283 167.987 15.2543 167.944 15.1915 167.886C15.1287 167.829 15.0785 167.759 15.0442 167.681C15.0099 167.603 14.9922 167.519 14.9922 167.434C14.9922 167.349 15.0099 167.265 15.0442 167.187C15.0785 167.109 15.1287 167.039 15.1915 166.982C15.2543 166.925 15.3283 166.881 15.409 166.854C15.4896 166.826 15.575 166.816 15.6598 166.824H39.5618C39.6466 166.816 39.732 166.826 39.8126 166.854C39.8932 166.881 39.9673 166.925 40.0301 166.982C40.0929 167.039 40.143 167.109 40.1774 167.187C40.2117 167.265 40.2294 167.349 40.2294 167.434C40.2294 167.519 40.2117 167.603 40.1774 167.681C40.143 167.759 40.0929 167.829 40.0301 167.886C39.9673 167.944 39.8932 167.987 39.8126 168.014C39.732 168.042 39.6466 168.052 39.5618 168.044Z" fill="#F2F2F2"/>
<path id="Vector_33" d="M31.8117 172.406H15.6598C15.575 172.413 15.4896 172.403 15.409 172.376C15.3283 172.349 15.2543 172.305 15.1915 172.247C15.1287 172.19 15.0785 172.12 15.0442 172.042C15.0099 171.965 14.9922 171.88 14.9922 171.795C14.9922 171.71 15.0099 171.626 15.0442 171.548C15.0785 171.471 15.1287 171.401 15.1915 171.343C15.2543 171.286 15.3283 171.242 15.409 171.215C15.4896 171.188 15.575 171.177 15.6598 171.185H31.8117C31.8965 171.177 31.9819 171.188 32.0626 171.215C32.1432 171.242 32.2173 171.286 32.2801 171.343C32.3429 171.401 32.393 171.471 32.4273 171.548C32.4616 171.626 32.4793 171.71 32.4793 171.795C32.4793 171.88 32.4616 171.965 32.4273 172.042C32.393 172.12 32.3429 172.19 32.2801 172.247C32.2173 172.305 32.1432 172.349 32.0626 172.376C31.9819 172.403 31.8965 172.413 31.8117 172.406Z" fill="#F2F2F2"/>
<g id="Clip path group">
<mask id="mask0_81_974" style="mask-type:luminance" maskUnits="userSpaceOnUse" x="-6" y="75" width="139" height="123">
<g id="clip-path">
<path id="Vector_34" d="M127.502 197.895H43.748C42.6134 197.895 41.5252 197.445 40.7229 196.643C39.9206 195.842 39.4698 194.754 39.4698 193.621V180.444C39.4698 170.939 38.4123 161.333 37.8667 151.837C37.8329 151.205 37.7653 150.501 37.2921 150.076C36.7464 149.594 35.9014 149.681 35.1771 149.811C24.5106 151.77 12.5644 154.983 3.55407 148.962C-4.03179 143.891 -6.62962 133.575 -5.0941 124.587C-3.55858 115.598 1.32322 107.584 6.11328 99.8257C2.58351 99.4879 -1.4581 98.8607 -3.29783 95.8162C-4.64503 93.5968 -4.33117 90.7839 -3.89659 88.2268C-3.02259 83.0931 -1.09112 77.1779 3.88242 75.6291C8.28618 74.254 12.83 77.0766 16.437 79.9715C17.6442 80.9364 38.4413 93.4086 38.6924 91.1796C39.0545 87.9807 39.494 85.0375 39.494 81.8001C39.4952 80.6672 39.9465 79.5811 40.7487 78.7804C41.5509 77.9798 42.6384 77.5301 43.7722 77.5301C53.6565 77.5301 64.9846 75.301 70.8128 85.3463C73.3672 89.7514 74.1204 94.996 74.1687 100.077C74.1929 102.262 74.1687 104.626 75.4242 106.402C77.2784 108.964 80.9385 109.138 84.082 109.49C98.1528 111.068 110.157 121.069 117.67 133.074C124.199 143.51 129.998 157.473 131.751 169.742C132.837 177.332 131.818 185.824 131.818 193.621C131.818 194.185 131.706 194.744 131.489 195.265C131.272 195.787 130.953 196.26 130.552 196.657C130.15 197.054 129.674 197.369 129.151 197.581C128.627 197.794 128.067 197.9 127.502 197.895Z" fill="white"/>
</g>
</mask>
<g mask="url(#mask0_81_974)">
<g id="Group_2">
<path id="Vector_35" d="M53.7044 172.97C53.7044 172.97 34.2931 186.128 29.6479 198.508C57.7219 197.929 96.6411 198.508 96.6411 198.508C96.6411 198.508 103.401 181.674 97.0322 170.259L55.3993 171.808L53.7044 172.97Z" fill="#010C00"/>
<path id="Vector_36" d="M13.7713 102.735L11.4438 108.974L17.1079 110.137L18.1267 104.767L13.7713 102.735Z" fill="#EEA277"/>
<path id="Vector_37" d="M113.827 177.901L114.266 180.516L110.78 183.561C111.966 183.312 113.131 182.973 114.266 182.548C116.004 185.013 117.458 187.334 117.458 187.334L118.906 188.781L117.458 183.995L120.075 188.202L119.056 183.411L121.813 188.347L120.51 182.832L123.556 186.895L120.075 179.783L119.056 175.865L113.827 177.901Z" fill="#EEA277"/>
<path id="Vector_38" d="M18.6097 125.373C18.6097 125.373 32.0673 121.6 46.4423 118.136C60.8173 114.672 76.6505 114.363 86.0906 116.105C95.5307 117.847 107.728 129.31 115.715 144.113C123.701 158.916 119.635 178.369 119.635 178.369L113.682 179.238L101.919 148.475L89.6735 142.236C89.6735 142.236 98.143 161.97 98.8721 171.547C73.3091 177.337 53.7046 172.994 53.7046 172.994L40.1022 144.914C40.1022 144.914 20.2177 147.162 12.6077 146.844C3.11933 146.458 -0.753269 137.995 0.115894 128.563C1.13475 117.533 11.444 106.214 11.444 106.214L19.2858 107.811L18.6097 125.373Z" fill="#F2F2F2"/>
<path id="Vector_39" d="M65.6556 174.49C65.6266 174.379 62.5893 163.557 61.3097 159.258C60.0301 154.959 52.4298 124.872 52.3525 124.568L52.8354 124.442C52.9127 124.742 60.4985 154.81 61.7878 159.109C63.077 163.408 66.1336 174.244 66.1336 174.351L65.6556 174.49Z" fill="#D9D9D9"/>
<path id="Vector_40" d="M48.6198 124.794L57.9151 123.245L62.3912 116.09L60.3873 115.362L52.8353 101.288L46.8815 102.735C46.7367 103.174 46.7367 120.876 46.7367 120.876C46.7367 120.876 46.6835 121.359 46.6787 122.116L48.6198 124.794Z" fill="#EEA277"/>
<g id="Vector_41" style="mix-blend-mode:multiply">
<path d="M55.2593 105.808L52.8449 101.288L46.8912 102.735C46.8187 102.947 46.7849 107.13 46.7656 111.42C46.9491 111.42 47.1326 111.372 47.3113 111.338C50.5658 110.711 53.3471 108.563 55.2593 105.808Z" fill="#D9D9D9"/>
</g>
<path id="Vector_42" d="M50.2569 124.568C50.2569 124.568 49.4505 127.795 51.7055 128.601C53.9605 129.407 55.7471 126.02 55.4236 124.259L50.2569 124.568Z" fill="#1D99BF"/>
<path id="Vector_43" d="M51.8454 127.303C51.8454 127.303 45.6212 162.486 42.188 169.849L45.1383 176.396L52.3427 170.013C52.3427 170.013 55.2882 149.232 53.3085 127.467L51.8454 127.303Z" fill="#1D99BF"/>
<path id="Vector_44" d="M46.6837 118.136C46.6837 118.136 48.2048 122.324 52.5506 123.926C57.3406 120.737 60.3924 115.367 60.3924 115.367L59.0838 113.046L65.0376 115.367C65.0376 115.367 64.0187 120.008 61.4064 123.057C58.7941 126.107 57.2441 127.795 57.2441 127.795L52.5989 124.51L50.2232 128.427C50.2232 128.427 43.5451 125.668 43.2554 118.85L46.6886 116.09L46.6837 118.136Z" fill="#D9D9D9"/>
<path id="Vector_45" d="M113.136 179.262L119.635 178.34H120.509L121.234 172.753C121.234 172.753 115.898 171.861 111.32 174.326L113.136 179.262Z" fill="#D9D9D9"/>
<path id="Vector_46" d="M19.2859 107.816L13.4915 105.992L10.7053 105.206C9.51503 106.286 8.40172 107.449 7.37354 108.684L18.9624 112.023L19.2859 107.816Z" fill="#D9D9D9"/>
<path id="Vector_47" d="M65.2739 134.082L77.6595 132.34C77.6595 132.34 80.5567 142.014 79.3978 144.528C77.9619 145.487 76.3495 146.152 74.6543 146.483C72.9592 146.814 71.215 146.806 69.5232 146.458C69.5232 146.458 67.2102 146.27 65.2739 134.082Z" fill="#D9D9D9"/>
<path id="Vector_48" d="M44.9455 88.999C44.9455 88.999 39.9092 99.4496 42.8112 103.126C45.7132 106.803 51.7201 104.284 52.8838 102.542C52.8838 102.542 56.1722 102.928 57.1427 99.8356C58.1133 96.7428 55.3996 96.545 55.3996 96.545L57.3311 91.9035L46.2975 86.6782L44.9455 88.999Z" fill="#EEA277"/>
<path id="Vector_49" d="M60.6772 87.9376C58.4995 82.7123 50.9474 81.839 45.8628 83.5953C42.8111 84.9028 43.3954 89.11 43.3954 89.11L49.4167 91.5707C50.2907 91.0882 52.0339 90.461 54.5641 91.1413C51.8166 93.7564 51.6669 99.1361 52.1063 100.14C52.8641 98.6736 54.0013 97.4374 55.3995 96.5596C55.3995 96.5596 58.2532 97.3847 57.1426 99.8501C59.8032 98.6874 62.7101 94.7696 62.5653 92.3041C62.5653 92.2896 62.6908 88.3719 60.6772 87.9376Z" fill="#010C00"/>
<path id="Vector_50" d="M7.95787 77.4868C7.95787 77.4868 -2.49623 82.7121 1.27014 93.4377L6.9197 93.0131L9.71068 84.7434L7.95787 77.4868Z" fill="#010C00"/>
<path id="Vector_51" d="M20.9517 97.8815L17.393 108.226L13.4189 107.261L17.2577 96.7573L20.9517 97.8815Z" fill="#F37406"/>
<path id="Vector_52" d="M19.141 101.577C19.0293 101.336 18.8454 101.136 18.6147 101.003C18.714 100.922 18.7947 100.82 18.8513 100.704C19.5756 99.2567 17.9822 98.2386 14.5055 97.6597L13.6315 99.1071C13.6315 99.1071 12.3278 103.174 13.0521 103.753C13.7764 104.332 17.1178 104.622 17.1178 104.043C17.1178 103.464 15.6692 103.025 15.6692 103.025C15.6692 103.025 18.2864 103.609 18.2864 102.735C18.2864 102.253 17.6345 101.978 17.0213 101.799C18.0063 101.983 19.3245 102.127 19.141 101.577Z" fill="#EEA277"/>
<path id="Vector_53" d="M1.27002 93.4375L29.1025 100.491L31.063 96.0381L8.12675 77.6313C8.12675 77.6313 10.6618 86.2919 1.27002 93.4375Z" fill="#F24822"/>
<g id="Vector_54" style="mix-blend-mode:multiply">
<path d="M29.1024 100.492L31.0628 96.0384L27.4944 93.1772C20.7539 93.4224 14.0311 94.0231 7.354 94.9769L29.1024 100.492Z" fill="#D9D9D9"/>
</g>
<path id="Vector_55" d="M31.063 96.0337L32.9413 95.9131L30.3242 102.156L29.1025 100.492L31.063 96.0337Z" fill="#F37406"/>
<path id="Vector_56" d="M18.5951 104.53C18.7303 104.188 20.203 103.401 20.5604 103.136C21.1614 102.74 21.5895 102.132 21.7579 101.433C21.9027 100.849 18.1267 99.4013 17.5424 100.125C16.9582 100.849 19.1311 101.751 19.5512 101.987C19.2892 102.855 18.9698 103.705 18.5951 104.53Z" fill="#EEA277"/>
<path id="Vector_57" d="M15.616 99.7536L17.9966 100.236C18.0587 100.252 18.1247 100.244 18.1806 100.212C18.2366 100.181 18.278 100.129 18.296 100.067C18.3123 100.006 18.3036 99.9404 18.272 99.8853C18.2404 99.8302 18.1882 99.7898 18.127 99.7729L15.7464 99.2904C15.6824 99.2731 15.6141 99.2819 15.5566 99.315C15.4991 99.348 15.4571 99.4025 15.4398 99.4665C15.4225 99.5305 15.4314 99.5987 15.4644 99.6561C15.4975 99.7136 15.552 99.7556 15.616 99.7729V99.7536Z" fill="#010C00"/>
<path id="Vector_58" d="M15.413 101.394L17.5859 101.876C17.65 101.894 17.7183 101.885 17.7758 101.852C17.8333 101.819 17.8753 101.764 17.8926 101.7C17.9099 101.636 17.901 101.568 17.8679 101.511C17.8349 101.453 17.7804 101.411 17.7163 101.394L15.5386 100.911C15.4772 100.896 15.4124 100.905 15.3575 100.937C15.3027 100.968 15.2621 101.02 15.244 101.08C15.2276 101.142 15.2361 101.208 15.2677 101.264C15.2992 101.32 15.3514 101.361 15.413 101.379V101.394Z" fill="#010C00"/>
<path id="Vector_59" d="M14.4041 102.87L16.5094 103.295C16.5708 103.31 16.6357 103.301 16.6905 103.269C16.7453 103.238 16.7859 103.187 16.804 103.126C16.8204 103.064 16.8119 102.998 16.7804 102.942C16.7488 102.886 16.6966 102.845 16.635 102.827L14.5345 102.407C14.4724 102.392 14.407 102.401 14.3513 102.432C14.2957 102.464 14.2542 102.515 14.2351 102.576C14.2188 102.637 14.2274 102.703 14.2591 102.758C14.2907 102.813 14.3428 102.853 14.4041 102.87Z" fill="#010C00"/>
<path id="Vector_60" d="M17.8515 99.9512C17.7255 100.19 17.6805 100.463 17.7232 100.729C17.7659 100.995 17.8939 101.24 18.0881 101.428C18.5244 101.808 19.0672 102.045 19.6429 102.108C19.7049 102.123 19.7704 102.114 19.826 102.083C19.8817 102.051 19.9232 102 19.9423 101.939C19.9587 101.877 19.9502 101.811 19.9187 101.755C19.8871 101.699 19.8349 101.658 19.7733 101.64C19.308 101.598 18.8626 101.431 18.484 101.157C18.3452 101.028 18.2477 100.86 18.2039 100.675C18.1884 100.592 18.1884 100.507 18.2039 100.424C18.2039 100.467 18.2039 100.4 18.2039 100.39C18.2039 100.381 18.2039 100.347 18.2039 100.323C18.2021 100.308 18.2021 100.294 18.2039 100.279L18.2474 100.207C18.2781 100.151 18.2862 100.085 18.2701 100.023C18.2539 99.9614 18.2147 99.908 18.1605 99.874C18.1043 99.8433 18.0386 99.8352 17.9767 99.8514C17.9147 99.8675 17.8613 99.9067 17.8273 99.9609L17.8515 99.9512Z" fill="#010C00"/>
<g id="Vector_61" style="mix-blend-mode:multiply">
<path d="M36.5385 136.176C27.2171 139.51 17.4548 141.453 7.56643 141.942C5.88122 142.024 3.95457 141.908 2.51562 141.18C4.56299 144.48 7.88512 146.656 12.5931 146.849C20.0727 147.153 39.4164 144.991 40.0683 144.919L36.5385 136.176Z" fill="#D9D9D9"/>
</g>
<g id="Vector_62" style="mix-blend-mode:multiply">
<path d="M83.2563 174.008C88.51 173.515 93.7262 172.684 98.8723 171.518C98.486 166.457 95.9365 158.559 93.6235 152.219C94.1528 156.458 93.4581 160.76 91.6213 164.618C89.7845 168.476 86.8821 171.729 83.2563 173.993V174.008Z" fill="#D9D9D9"/>
</g>
</g>
</g>
</g>
</g>
</g>
</g>
<defs>
<clipPath id="clip0_81_974">
<rect width="167" height="207" fill="white"/>
</clipPath>
</defs>
</svg>
