<svg width="586" height="408" viewBox="0 0 586 408" fill="none" xmlns="http://www.w3.org/2000/svg">
<path d="M253.718 21.4204C249.14 23.5553 244.642 25.8681 240.224 28.4074C188.576 58.0048 152.431 113.561 95.8838 132.015C80.5743 137.012 64.1402 138.387 51.7705 149.32C42.8455 157.52 35.0784 166.913 28.6856 177.236C15.1688 198.626 6.19843 222.602 2.33973 247.655C-5.38733 296.175 5.42413 350.809 43.7703 384.046C72.5901 409.05 115.483 410.311 151.58 403.551C172.287 399.685 192.127 392.148 212.625 387.183C248.463 378.537 285.743 377.869 321.864 385.226C345.688 390.078 368.709 398.44 392.548 403.567C409.673 407.271 427.505 409.325 444.983 407.044C461.755 404.861 474.687 396.806 489.964 390.305C519.025 377.9 548.439 362.082 566.962 335.412C581.21 314.512 587.792 289.273 585.581 264.022C583.17 238.81 572.922 215.005 556.295 195.997C548.921 187.457 539.282 179.92 535.684 169.052C532.086 158.183 531.523 145.503 530.399 134.36C527.957 109.922 525.033 84.788 513.21 63.3097C500.069 39.4377 476.791 22.3423 451.393 12.7191C425.995 3.09591 398.541 0.346421 371.407 0.0229518C331.23 -0.381385 289.992 4.47065 253.718 21.4204Z" fill="#C0B7E8" fill-opacity="0.33"/>
<path d="M245.652 41.2738C241.291 43.2936 237.007 45.4816 232.8 47.8839C183.61 75.8848 149.184 128.444 95.3271 145.902C80.746 150.631 65.0938 151.931 53.3126 162.275C44.8123 170.033 37.4148 178.918 31.3262 188.684C18.4524 208.921 9.90888 231.604 6.23378 255.305C-1.12564 301.208 9.17142 352.895 45.6931 384.339C73.1418 407.994 113.993 409.188 148.373 402.792C168.095 399.135 186.991 392.005 206.514 387.307C240.647 379.128 276.153 378.496 310.556 385.456C333.246 390.046 355.171 397.957 377.877 402.807C394.187 406.311 411.17 408.255 427.817 406.097C443.79 404.031 456.107 396.412 470.657 390.26C498.336 378.525 526.35 363.56 543.992 338.329C557.562 318.556 563.831 294.679 561.725 270.79C559.429 246.937 549.668 224.417 533.832 206.434C526.809 198.355 517.629 191.224 514.202 180.942C510.775 170.66 510.239 158.664 509.168 148.121C506.843 125.001 504.058 101.223 492.797 80.9036C480.281 58.3192 458.111 42.146 433.922 33.0418C409.732 23.9377 383.584 21.3365 357.742 21.0305C319.476 20.648 280.2 25.2383 245.652 41.2738Z" fill="#F5F5F5"/>
<path d="M500.906 242.896L474.896 261.257L359.41 342.399C350.54 348.79 341.303 354.656 331.747 359.965C323.959 364.172 319.507 372.205 310.082 374.347C305.401 375.161 300.609 375.078 295.959 374.103C288.357 372.865 280.877 370.966 273.606 368.426C272.718 368.12 271.448 367.936 271.051 368.793C270.653 369.65 272.795 369.558 272.045 368.977C204.342 359.796 139.652 335.314 72.5605 322.462C71.781 322.317 71.0696 321.923 70.5333 321.339C69.9971 320.756 69.6651 320.013 69.5874 319.224C69.5097 318.435 69.6906 317.642 70.1026 316.965C70.5147 316.288 71.1357 315.763 71.872 315.469C77.273 313.266 83.1636 312.409 89.1154 311.246C99.8256 309.272 110.383 307.344 121.062 305.6C142.586 301.871 164.317 299.459 186.134 298.378C222.365 296.848 258.933 300.719 294.766 295.103C328.809 289.778 360.848 276.176 392.519 262.558C400.169 259.283 407.957 255.887 413.94 250.133C418.637 245.62 422.401 239.667 428.383 236.699C434.595 233.639 442.153 234.174 448.824 234.48C466.419 235.261 483.801 238.841 500.906 242.896Z" fill="url(#paint0_linear_81_776)"/>
<path d="M75.4981 299.678L226.726 233.884C230.001 232.24 233.698 231.626 237.329 232.124L424.374 248.022C427.954 248.527 427.312 263.92 424.374 266.383L313.906 360.424C310.579 363.361 306.596 365.458 302.292 366.539C297.987 367.62 293.486 367.653 289.166 366.636L76.8292 314.995C74.121 314.337 72.9582 300.933 75.4981 299.678Z" fill="#8CC5F9"/>
<path d="M75.4981 299.678L226.726 233.884C230.001 232.24 233.698 231.626 237.329 232.124L424.374 248.022C427.954 248.527 427.312 263.92 424.374 266.383L313.906 360.424C310.579 363.361 306.596 365.458 302.292 366.539C297.987 367.62 293.486 367.653 289.166 366.636L76.8292 314.995C74.121 314.337 72.9582 300.933 75.4981 299.678Z" fill="url(#paint1_linear_81_776)"/>
<path d="M424.42 255.473L313.952 349.514C310.628 352.456 306.646 354.557 302.34 355.641C298.035 356.724 293.533 356.759 289.212 355.741L76.829 304.085C74.1209 303.427 73.769 299.143 76.2935 297.873L134.496 265.021L149.796 256.422L196.324 230.272C199.599 228.628 203.296 228.014 206.927 228.513L422.538 247.272C426.118 247.7 427.312 253.01 424.42 255.473Z" fill="#8CC5F9"/>
<path d="M206.912 233.639L403.994 262.787L343.329 312.057L141.075 271.126L206.912 233.639Z" fill="url(#paint2_linear_81_776)"/>
<path d="M406.381 268.112C405.8 269.872 403.887 270.775 402.158 271.463C389.554 276.192 376.703 280.237 363.663 283.582C351.285 286.994 338.372 290.437 325.734 288.172C324.147 287.759 322.501 287.625 320.868 287.774C318.175 288.264 316.186 290.452 314.09 292.181C303.64 300.78 288.37 298.822 275.059 296.404C275.635 292.016 275.921 287.594 275.916 283.169C240.313 283.809 204.721 281.382 169.533 275.916C161.883 274.738 141.213 273.804 135.995 267.454C135.35 266.754 134.833 265.946 134.465 265.067L149.766 256.468C150.459 256.499 151.147 256.606 151.816 256.79C192.527 268.079 234.84 272.476 277.002 269.795C278.089 264.302 272.412 257.432 276.727 253.791C278.147 252.78 279.867 252.279 281.608 252.368C288.067 252.116 294.489 253.462 300.305 256.285C303.747 257.968 306.991 260.171 310.709 261.12C314.347 261.842 318.079 261.961 321.756 261.472C345.229 259.715 368.782 259.265 392.305 260.125C396.176 260.263 400.231 260.492 403.52 262.527C405.448 263.69 407.116 265.955 406.381 268.112Z" fill="url(#paint3_linear_81_776)"/>
<path d="M186.287 283.337L267.501 299.755L225.501 334.014L141.075 315.071L186.287 283.337Z" fill="url(#paint4_linear_81_776)"/>
<path d="M145.68 321.008C146.511 322.676 147.686 324.149 149.129 325.328C150.572 326.507 152.249 327.366 154.049 327.847C160.017 329.286 194.794 338.191 194.794 338.191C194.794 338.191 200.455 338.864 203.592 335.131L145.68 321.008Z" fill="url(#paint5_linear_81_776)"/>
<path d="M200.73 228.421L423.165 260.079C424.796 260.306 426.451 259.902 427.794 258.949C429.136 257.997 430.064 256.567 430.387 254.953L462.12 94.705C462.46 92.9948 462.435 91.2321 462.048 89.532C461.661 87.8318 460.92 86.2323 459.874 84.8377C458.827 83.4431 457.498 82.2847 455.974 81.4381C454.45 80.5915 452.764 80.0757 451.027 79.9242L231.362 60.6602C228.129 60.3769 224.913 61.3716 222.405 63.431C219.897 65.4904 218.295 68.4505 217.943 71.6769L200.73 228.421Z" fill="#8CC5F9"/>
<path d="M200.73 228.421L422.584 259.987C424.376 260.241 426.198 259.799 427.675 258.752C429.151 257.705 430.171 256.132 430.525 254.356L462.12 94.705C462.46 92.9948 462.435 91.2321 462.048 89.532C461.661 87.8318 460.92 86.2323 459.874 84.8377C458.827 83.4431 457.498 82.2847 455.974 81.4381C454.45 80.5915 452.764 80.0757 451.027 79.9242L231.362 60.6602C228.129 60.3769 224.913 61.3716 222.405 63.431C219.897 65.4904 218.295 68.4505 217.943 71.6769L200.73 228.421Z" fill="url(#paint6_linear_81_776)"/>
<path d="M419.141 250.868L450.736 89.1817L226.726 68.4946L208.916 221.582L419.141 250.868Z" fill="white"/>
<path d="M400.72 118.575L243.602 102.218L247.167 82.3267L404.331 98.6835C405.659 98.7696 406.955 99.1338 408.133 99.7525C409.311 100.371 410.347 101.231 411.172 102.275C411.997 103.319 412.593 104.526 412.923 105.815C413.252 107.105 413.306 108.449 413.083 109.761C412.48 112.501 410.882 114.919 408.598 116.547C406.314 118.176 403.506 118.898 400.72 118.575Z" fill="#8CC5F9"/>
<path opacity="0.56" d="M243.602 102.218L370.518 115.453L374.083 95.5007L247.167 82.25L243.602 102.218Z" fill="white"/>
<path d="M393.085 110.81C395.768 109.76 397.163 106.912 396.2 104.449C395.236 101.986 392.28 100.84 389.596 101.889C386.913 102.939 385.518 105.786 386.482 108.25C387.445 110.713 390.401 111.859 393.085 110.81Z" stroke="white" stroke-width="1.04" stroke-miterlimit="10"/>
<path d="M394.6 114.627C394.493 114.367 393.162 110.741 393.162 110.741" stroke="white" stroke-width="1.04" stroke-miterlimit="10"/>
<path opacity="0.18" d="M399.205 147.371L238.859 130.204L239.7 127.572L400.032 144.74L399.205 147.371Z" fill="#8CC5F9"/>
<path opacity="0.18" d="M295.867 126.317L241.72 119.906L242.821 115.193L296.984 121.1L295.867 126.317Z" fill="#8CC5F9"/>
<path opacity="0.18" d="M397.216 157.975L236.87 140.808L237.696 138.176L398.042 155.344L397.216 157.975Z" fill="#8CC5F9"/>
<g opacity="0.66">
<path opacity="0.18" d="M287.253 168.671L233.106 162.275L234.208 157.547L288.37 163.453L287.253 168.671Z" fill="#8CC5F9"/>
<path opacity="0.18" d="M390.163 190.674L229.816 173.506L230.658 170.859L391.005 188.042L390.163 190.674Z" fill="#8CC5F9"/>
<path opacity="0.18" d="M386.506 202.945L226.16 185.777L227.001 183.146L387.332 200.313L386.506 202.945Z" fill="#8CC5F9"/>
</g>
<path opacity="0.18" d="M383.4 229.462L223.222 208.545L224.048 205.929L384.226 226.845L383.4 229.462Z" fill="#8CC5F9"/>
<path d="M294.521 214.008C294.521 214.008 130.655 268.265 108.256 219.562C85.8562 170.859 208.518 157.516 208.518 157.516C208.518 157.516 65.1856 171.792 97.3467 231.956C129.508 292.12 304.298 232.629 304.298 232.629L294.521 214.008Z" fill="white"/>
<path d="M294.903 211.759C294.972 213.988 295.581 216.167 296.678 218.108L300.717 226.738C301.579 228.886 302.788 230.876 304.298 232.629C305.48 233.824 306.928 234.724 308.522 235.255C310.117 235.787 311.815 235.936 313.478 235.689C314.262 235.638 315.02 235.386 315.68 234.957C316.339 234.528 316.876 233.938 317.242 233.241C317.93 231.451 316.767 229.538 315.834 227.871C313.325 223.387 312.254 218.277 311.06 213.289C310.142 209.402 308.276 203.924 303.533 203.374C299.34 202.884 295.148 207.673 294.903 211.759Z" fill="#8CC5F9"/>
<path d="M336.061 191.653C336.061 191.653 301.391 159.933 267.501 191.653C267.501 191.653 293.695 188.271 301.774 202.7L336.061 191.653Z" fill="#8CC5F9"/>
<path d="M350.229 220.648C350.229 220.648 348.577 267.623 302.202 269.612C302.202 269.612 322.964 253.286 318.328 237.403L350.229 220.648Z" fill="#8CC5F9"/>
<path d="M301.773 202.731C301.773 202.731 411.094 139.997 472.555 150.034C472.555 150.034 458.662 195.203 318.282 237.403L301.773 202.731Z" fill="white"/>
<path d="M472.631 150.003C472.631 150.003 458.739 195.172 318.359 237.372L313.356 226.86L301.773 202.731C301.773 202.731 398.808 146.973 461.431 148.963C465.183 149.065 468.925 149.412 472.631 150.003Z" fill="url(#paint7_linear_81_776)"/>
<path d="M472.631 150.003C462.915 162.749 429.377 186.236 360.434 211.284C356.538 212.712 352.524 214.14 348.393 215.568C337.53 219.322 325.851 223.086 313.356 226.86L301.789 202.731C301.789 202.731 313.738 195.554 332.007 186.435C341.646 181.615 353.044 176.26 365.376 171.134C399.787 156.827 441.495 144.204 472.631 150.003Z" fill="white"/>
<path d="M388.388 173.429C382.559 175.862 376.01 175.464 369.707 175.878C367.833 175.952 365.974 176.245 364.168 176.75C360.603 178.129 357.351 180.211 354.605 182.87C354.232 183.126 353.953 183.497 353.81 183.926C353.768 184.372 353.876 184.818 354.116 185.196C355.511 188.04 357.117 190.777 358.92 193.382C361.062 196.442 363.586 199.701 363.51 203.465C363.293 206.348 362.174 209.089 360.312 211.3L359.853 211.942C357.646 214.914 355.249 217.741 352.677 220.404C350.78 222.362 352.004 228.345 347.414 226.907C343.421 225.667 345.364 220.924 346.726 218.43L348.256 215.584L350.826 210.825C352.784 207.229 354.773 202.96 353.121 199.212C351.958 196.595 349.281 195.019 346.771 193.612C342.036 190.805 337.071 188.404 331.93 186.435C341.569 181.616 352.968 176.26 365.3 171.134C373.351 171.81 381.438 171.928 389.505 171.486C390.178 172.129 389.23 173.078 388.388 173.429Z" fill="url(#paint8_linear_81_776)"/>
<path d="M374.771 200.451C381.717 200.451 387.347 194.82 387.347 187.873C387.347 180.927 381.717 175.296 374.771 175.296C367.825 175.296 362.194 180.927 362.194 187.873C362.194 194.82 367.825 200.451 374.771 200.451Z" fill="#8CC5F9"/>
<path d="M374.771 196.014C379.503 196.014 383.339 192.177 383.339 187.445C383.339 182.713 379.503 178.876 374.771 178.876C370.039 178.876 366.203 182.713 366.203 187.445C366.203 192.177 370.039 196.014 374.771 196.014Z" fill="url(#paint9_linear_81_776)"/>
<path d="M355.967 160.484C355.967 160.561 354.162 160.255 354.207 160.347C354.62 160.833 355.145 161.211 355.737 161.448C357.902 162.322 360.12 163.058 362.378 163.652C364.627 163.881 365.713 161.754 366.417 159.964C366.983 158.526 367.565 157.088 368.161 155.665C368.619 154.749 368.909 153.76 369.018 152.742C369.041 152.509 369.009 152.273 368.926 152.054C368.78 151.771 368.535 151.553 368.238 151.441C367.787 151.258 367.281 151.258 366.83 151.441C366.004 151.793 365.621 152.727 365.208 153.522C364.244 155.343 362.73 156.827 361.903 158.709C361.285 158.748 360.676 158.545 360.205 158.143L357.528 156.399C357.399 156.296 357.246 156.228 357.084 156.2C356.952 156.193 356.82 156.219 356.7 156.275C356.58 156.331 356.475 156.416 356.395 156.521C355.914 157.103 355.625 157.819 355.569 158.572C355.492 158.956 355.492 159.351 355.569 159.735C355.665 160.003 355.799 160.255 355.967 160.484Z" fill="#F5FAFE"/>
<path d="M358.032 156.322L358.981 156.904C359.119 156.904 359.256 157.057 359.302 157.21C359.333 157.32 359.333 157.436 359.302 157.547L358.675 160.331C358.484 161.578 358.036 162.771 357.359 163.835C356.992 164.34 354.299 162.473 353.84 162.229C352.695 161.469 351.695 160.51 350.887 159.398C350.514 158.945 350.228 158.426 350.046 157.868C349.77 156.456 349.986 154.993 350.658 153.721C351.729 151.625 353.534 152.665 354.896 153.951C355.865 154.838 356.915 155.632 358.032 156.322Z" fill="#8CC5F9"/>
<path d="M340.758 225.82C340.805 226.021 340.912 226.202 341.064 226.34C343.246 228.468 345.846 230.12 348.699 231.191C348.872 231.287 349.067 231.34 349.265 231.344C349.455 231.304 349.625 231.197 349.743 231.042C349.861 230.888 349.919 230.696 349.908 230.502C349.869 230.114 349.727 229.744 349.495 229.431C348.933 228.542 348.304 227.698 347.613 226.906C346.968 226.374 346.556 225.611 346.465 224.78C346.525 224.366 346.633 223.96 346.787 223.571C347.246 221.842 344.369 221.49 343.16 221.903C342.477 222.317 341.903 222.889 341.485 223.57C341.067 224.252 340.818 225.023 340.758 225.82Z" fill="#F5FAFE"/>
<path d="M333.72 177.224C333.72 177.224 328.503 184.507 333.873 190.995C337.591 195.493 343.176 198.553 348.317 201.124C349.22 201.583 350.291 201.95 351.163 202.501C352.861 203.572 351.821 204.475 350.918 205.898C348.653 209.539 346.369 213.156 344.063 216.746C342.731 218.564 341.817 220.654 341.386 222.867L347.215 224.642C350.356 219.287 353.938 214.205 357.925 209.448C359.654 207.397 361.888 204.857 361.567 202.011C361.164 199.377 360.005 196.916 358.231 194.927L347.322 182.258L333.72 177.224Z" fill="#473F47"/>
<path d="M359.057 142.414C359.241 142.949 359.761 143.378 359.838 143.944C359.914 144.51 359.333 145.183 358.95 145.811C358.568 146.438 358.308 147.647 357.787 148.488C357.694 148.673 357.544 148.824 357.359 148.917C357.192 148.977 357.016 149.008 356.839 149.008C356.143 148.989 355.454 148.875 354.789 148.672C354.67 148.597 354.53 148.564 354.391 148.58C354.274 148.649 354.187 148.757 354.146 148.886C353.368 150.496 352.995 152.271 353.06 154.058C353.06 154.639 353.06 155.374 352.585 155.664C352.413 155.777 352.209 155.831 352.004 155.817C350.657 155.817 349.632 154.609 348.944 153.415C348.381 152.342 347.944 151.207 347.643 150.034C347.534 149.693 347.492 149.334 347.521 148.978C347.592 148.563 347.737 148.164 347.949 147.8C348.628 146.474 349.177 145.085 349.586 143.653C349.943 141.777 350.583 139.966 351.484 138.282C351.833 137.748 352.342 137.336 352.937 137.104C353.618 136.955 354.326 136.992 354.987 137.211C356.37 137.433 357.613 138.178 358.461 139.292C358.721 139.69 358.843 141.725 359.057 142.414Z" fill="#F5FAFE"/>
<path d="M345.639 183.207C344.47 183.393 343.275 183.325 342.135 183.008C340.464 182.673 338.754 182.575 337.056 182.717C336.047 182.97 335.059 183.303 334.103 183.711C333.327 183.92 332.515 183.959 331.722 183.824C330.93 183.689 330.176 183.385 329.513 182.931C329.513 182.702 329.513 182.457 329.513 182.227C329.742 180.177 328.885 177.27 329.513 175.296C331.762 167.416 333.674 161.525 338.157 154.762C339.442 152.819 344.507 150.325 346.588 149.284C347.061 149.03 347.582 148.879 348.118 148.84C348.734 148.865 349.336 149.033 349.877 149.33C351.729 150.233 352.448 151.916 353.35 153.66C354.402 155.437 355.118 157.393 355.462 159.429C355.691 162.06 356.625 164.524 355.125 166.972C353.06 170.415 349.632 172.741 347.72 176.459C347.381 176.996 347.191 177.614 347.169 178.249C347.169 179.136 347.796 179.947 347.796 180.835C347.734 181.408 347.491 181.946 347.104 182.372C346.716 182.798 346.203 183.09 345.639 183.207Z" fill="#8CC5F9"/>
<path d="M357.436 170.797C358.17 171.134 358.966 171.425 359.593 171.67C363.189 172.815 366.917 173.494 370.686 173.689C375.426 174.288 380.217 174.375 384.976 173.949C386.92 173.8 388.804 173.209 390.484 172.22C390.974 171.899 391.479 171.318 391.234 170.782C391.092 170.543 390.877 170.356 390.622 170.247C388.784 169.277 386.712 168.842 384.64 168.992C384.64 168.273 384.456 167.355 383.752 167.293C383.048 167.232 382.635 168.196 382.222 168.824C381.304 170.354 379.162 170.522 377.448 170.507C373.488 170.565 369.534 170.159 365.667 169.298C363.729 168.835 361.85 168.153 360.067 167.263C358.92 166.681 356.609 164.279 355.477 165.564C354.345 166.85 353.289 167.707 354.819 169.068C355.599 169.774 356.481 170.357 357.436 170.797Z" fill="#F5FAFE"/>
<path d="M351.469 156.032C351.469 156.032 357.466 164.493 358.338 164.998C359.21 165.503 352.953 171.654 352.953 171.654C352.953 171.654 345.7 163.805 344.859 159.796C344.017 155.787 347.766 153.033 351.469 156.032Z" fill="#8CC5F9"/>
<path d="M358.415 138.466C358.157 138.818 357.83 139.114 357.454 139.335C357.078 139.556 356.66 139.698 356.227 139.751C355.473 139.871 354.711 139.938 353.947 139.95C353.947 139.95 353.81 139.95 353.764 139.95C353.736 139.981 353.715 140.018 353.702 140.057C353.689 140.097 353.684 140.138 353.687 140.18C353.655 140.768 353.503 141.342 353.24 141.869C352.976 142.395 352.608 142.862 352.157 143.24C352.039 143.314 351.943 143.42 351.882 143.546C351.82 143.725 351.82 143.919 351.882 144.097C351.989 144.709 351.989 145.336 351.882 145.948C351.795 146.57 351.504 147.146 351.056 147.586C350.944 147.663 350.863 147.776 350.826 147.907C350.825 148.021 350.857 148.132 350.918 148.228C351.129 148.868 351.085 149.564 350.795 150.171C350.22 149.73 349.554 149.421 348.845 149.268C348.136 149.114 347.402 149.12 346.695 149.284C346.266 149.321 345.859 149.492 345.532 149.774C343.482 151.931 341.799 154.486 339.642 156.567C338.724 157.455 337.698 158.235 336.842 159.199C335.55 160.775 334.517 162.547 333.782 164.447C333.22 165.937 332.475 167.351 331.563 168.655C331.105 169.304 330.523 169.855 329.85 170.278C329.178 170.7 328.429 170.986 327.646 171.119C326.905 171.18 326.159 171.086 325.456 170.844C324.753 170.601 324.107 170.216 323.561 169.711C322.606 168.835 321.924 167.702 321.598 166.448C321.273 165.193 321.316 163.872 321.725 162.642C321.924 162.261 321.979 161.82 321.878 161.402C321.759 161.171 321.592 160.968 321.388 160.806C320.45 159.828 319.927 158.526 319.927 157.172C319.927 155.817 320.45 154.515 321.388 153.538C322.413 152.574 324.877 151.64 325.015 150.049C325.152 148.458 323.729 146.882 324.311 145.046C324.521 144.487 324.826 143.97 325.213 143.516C325.951 142.432 326.951 141.553 328.12 140.96C329.304 140.562 330.544 140.36 331.793 140.363C335.801 140.088 339.993 138.833 342.64 135.773C343.236 134.98 343.891 134.233 344.599 133.539C345.429 132.897 346.374 132.419 347.383 132.132C349.811 131.203 352.489 131.165 354.942 132.024C355.794 132.38 356.555 132.924 357.167 133.616C357.779 134.308 358.227 135.129 358.476 136.018C358.642 136.407 358.722 136.826 358.711 137.249C358.701 137.671 358.6 138.086 358.415 138.466Z" fill="#878ABC"/>
<path d="M357.971 145.091C357.382 145.072 356.795 145.02 356.212 144.938C356.043 145.26 356.808 146.469 356.977 146.56C357.057 146.63 357.16 146.669 357.267 146.669C357.374 146.669 357.477 146.63 357.558 146.56C357.625 146.464 357.672 146.354 357.696 146.239L357.971 145.076" fill="white"/>
<path d="M356.594 142.49C356.848 142.49 357.053 142.285 357.053 142.031C357.053 141.778 356.848 141.572 356.594 141.572C356.341 141.572 356.135 141.778 356.135 142.031C356.135 142.285 356.341 142.49 356.594 142.49Z" fill="#231F20"/>
<path d="M367.524 147.818L366.863 147.692C366.448 147.613 366.047 147.885 365.968 148.3L365.127 152.72C365.048 153.135 365.32 153.535 365.735 153.614L366.397 153.74C366.812 153.819 367.212 153.547 367.291 153.132L368.133 148.712C368.212 148.297 367.939 147.897 367.524 147.818Z" fill="#8CC5F9"/>
<path d="M366.187 148.182C365.785 148.225 365.403 148.377 365.082 148.623C364.761 148.869 364.513 149.198 364.367 149.575C364.24 150.065 364.266 150.583 364.441 151.059C364.616 151.534 364.932 151.945 365.346 152.237C366.187 152.802 367.154 153.153 368.161 153.262C368.308 153.313 368.465 153.328 368.619 153.307C368.774 153.285 368.92 153.228 369.049 153.14C369.18 152.995 369.266 152.814 369.293 152.62C369.534 151.938 369.633 151.214 369.584 150.493C369.374 149.773 368.92 149.149 368.301 148.727C367.681 148.306 366.934 148.113 366.187 148.182Z" fill="#F5FAFE"/>
<path d="M363.403 144.893L363.25 146.637C363.199 146.868 363.242 147.11 363.367 147.31C363.493 147.51 363.693 147.653 363.923 147.708C366.855 147.913 369.724 148.66 372.384 149.911C373.827 150.723 375.198 151.655 376.485 152.696C377.005 153.109 377.754 152.696 377.877 151.809L379.239 142.628C379.361 141.817 378.78 141.251 378.168 141.557C375.612 142.858 369.875 145.245 364.566 143.776C364 143.638 363.464 144.173 363.403 144.893Z" fill="#8CC5F9"/>
<path d="M341.126 223.938C340.393 224.409 339.851 225.125 339.596 225.958C339.512 226.216 339.512 226.495 339.596 226.753C339.703 226.984 339.866 227.183 340.07 227.335C342.517 229.514 345.269 231.324 348.24 232.705C348.617 232.898 349.028 233.018 349.449 233.057C349.658 233.081 349.87 233.05 350.063 232.967C350.256 232.883 350.424 232.751 350.551 232.583C350.696 232.338 350.771 232.057 350.765 231.772C350.781 231.247 350.692 230.724 350.501 230.234C350.311 229.745 350.023 229.298 349.656 228.923C349.289 228.547 348.849 228.249 348.364 228.047C347.879 227.845 347.358 227.744 346.833 227.748C346.456 227.779 346.077 227.779 345.701 227.748C345.348 227.658 345.016 227.502 344.721 227.289C343.917 226.82 343.159 226.277 342.457 225.667C341.983 225.114 341.539 224.537 341.126 223.938Z" fill="#473F47"/>
<defs>
<linearGradient id="paint0_linear_81_776" x1="-159.774" y1="-51.0221" x2="989.074" y2="808.166" gradientUnits="userSpaceOnUse">
<stop offset="0.01"/>
<stop offset="0.08" stop-opacity="0.69"/>
<stop offset="0.21" stop-opacity="0.32"/>
<stop offset="1" stop-opacity="0"/>
</linearGradient>
<linearGradient id="paint1_linear_81_776" x1="59788.8" y1="21713.4" x2="64189.1" y2="58113.2" gradientUnits="userSpaceOnUse">
<stop offset="0.01"/>
<stop offset="0.08" stop-opacity="0.69"/>
<stop offset="0.21" stop-opacity="0.32"/>
<stop offset="1" stop-opacity="0"/>
</linearGradient>
<linearGradient id="paint2_linear_81_776" x1="49803.9" y1="5745.64" x2="48664.4" y2="31572.2" gradientUnits="userSpaceOnUse">
<stop offset="0.01"/>
<stop offset="0.08" stop-opacity="0.69"/>
<stop offset="0.21" stop-opacity="0.32"/>
<stop offset="1" stop-opacity="0"/>
</linearGradient>
<linearGradient id="paint3_linear_81_776" x1="49410.5" y1="5738.24" x2="49878.5" y2="18495" gradientUnits="userSpaceOnUse">
<stop offset="0.01"/>
<stop offset="0.08" stop-opacity="0.69"/>
<stop offset="0.21" stop-opacity="0.32"/>
<stop offset="1" stop-opacity="0"/>
</linearGradient>
<linearGradient id="paint4_linear_81_776" x1="18032.9" y1="6133.51" x2="17271.4" y2="18973.8" gradientUnits="userSpaceOnUse">
<stop offset="0.01"/>
<stop offset="0.08" stop-opacity="0.69"/>
<stop offset="0.21" stop-opacity="0.32"/>
<stop offset="1" stop-opacity="0"/>
</linearGradient>
<linearGradient id="paint5_linear_81_776" x1="8290.34" y1="4293.65" x2="8176.32" y2="5279.5" gradientUnits="userSpaceOnUse">
<stop offset="0.01"/>
<stop offset="0.08" stop-opacity="0.69"/>
<stop offset="0.21" stop-opacity="0.32"/>
<stop offset="1" stop-opacity="0"/>
</linearGradient>
<linearGradient id="paint6_linear_81_776" x1="59660.8" y1="6325.16" x2="72488.1" y2="153281" gradientUnits="userSpaceOnUse">
<stop offset="0.01"/>
<stop offset="0.08" stop-opacity="0.69"/>
<stop offset="0.21" stop-opacity="0.32"/>
<stop offset="1" stop-opacity="0"/>
</linearGradient>
<linearGradient id="paint7_linear_81_776" x1="46498.3" y1="10713.9" x2="47627.4" y2="21387.6" gradientUnits="userSpaceOnUse">
<stop offset="0.01"/>
<stop offset="0.08" stop-opacity="0.69"/>
<stop offset="0.21" stop-opacity="0.32"/>
<stop offset="1" stop-opacity="0"/>
</linearGradient>
<linearGradient id="paint8_linear_81_776" x1="12783.9" y1="9170.93" x2="20484.9" y2="8555.36" gradientUnits="userSpaceOnUse">
<stop offset="0.01"/>
<stop offset="0.08" stop-opacity="0.69"/>
<stop offset="0.21" stop-opacity="0.32"/>
<stop offset="1" stop-opacity="0"/>
</linearGradient>
<linearGradient id="paint9_linear_81_776" x1="3946.32" y1="1541.28" x2="6030.87" y2="3368.34" gradientUnits="userSpaceOnUse">
<stop offset="0.01"/>
<stop offset="0.08" stop-opacity="0.69"/>
<stop offset="0.21" stop-opacity="0.32"/>
<stop offset="1" stop-opacity="0"/>
</linearGradient>
</defs>
</svg>
