<svg width="731" height="644" viewBox="0 0 731 644" fill="none" xmlns="http://www.w3.org/2000/svg">
<path d="M330.939 33.8107C338.158 37.1805 345.251 40.8311 352.217 44.8391C433.654 91.5566 490.648 179.248 579.811 208.376C603.951 216.264 629.864 218.434 649.369 235.692C663.442 248.635 675.689 263.46 685.769 279.754C707.082 313.517 721.226 351.362 727.311 390.906C739.495 467.492 722.447 553.728 661.983 606.189C616.54 645.657 548.908 647.648 491.99 636.977C459.339 630.876 428.056 618.979 395.734 611.142C339.225 597.495 280.442 596.441 223.487 608.053C185.922 615.712 149.623 628.91 112.033 637.003C85.0305 642.849 56.9136 646.091 29.3541 642.491C2.909 639.045 -17.4821 626.331 -41.5714 616.069C-87.3942 596.488 -133.774 571.521 -162.98 529.425C-185.447 496.436 -195.826 456.598 -192.339 416.741C-188.538 376.945 -172.379 339.371 -146.161 309.367C-134.534 295.888 -119.336 283.992 -113.662 266.837C-107.988 249.681 -107.101 229.667 -105.328 212.077C-101.478 173.504 -96.8678 133.832 -78.2245 99.93C-57.5042 62.2496 -20.8004 35.2658 19.2471 20.0762C59.2947 4.88668 102.585 0.546802 145.368 0.0362278C208.719 -0.601989 273.743 7.05662 330.939 33.8107Z" fill="#C0B7E8" fill-opacity="0.33"/>
<path d="M339.99 63.9731C346.865 67.1598 353.62 70.612 360.254 74.4022C437.814 118.581 492.093 201.506 577.011 229.051C600.001 236.511 624.68 238.563 643.256 254.882C656.659 267.122 668.323 281.142 677.923 296.55C698.221 328.478 711.692 364.266 717.486 401.661C729.09 474.085 712.855 555.634 655.27 605.244C611.991 642.567 547.579 644.45 493.372 634.359C462.276 628.589 432.482 617.339 401.699 609.928C347.881 597.023 291.897 596.026 237.654 607.007C201.878 614.249 167.308 626.73 131.507 634.383C105.791 639.911 79.0129 642.977 52.7657 639.573C27.58 636.314 8.15985 624.292 -14.7823 614.587C-58.4232 596.071 -102.595 572.46 -130.41 532.652C-151.807 501.456 -161.692 463.783 -158.37 426.092C-154.75 388.459 -139.361 352.927 -114.392 324.554C-103.318 311.807 -88.8439 300.557 -83.4401 284.335C-78.0363 268.112 -77.1919 249.185 -75.5032 232.552C-71.8363 196.074 -67.4456 158.559 -49.6902 126.499C-29.9565 90.8665 4.99951 65.3492 43.14 50.9851C81.2805 36.6211 122.509 32.5171 163.255 32.0343C223.59 31.4307 285.517 38.6731 339.99 63.9731Z" fill="#F5F5F5"/>
<path d="M559 413.923L526.391 436.942L381.605 538.67C370.485 546.683 358.905 554.036 346.923 560.692C337.16 565.967 331.578 576.039 319.762 578.724C313.894 579.744 307.886 579.64 302.057 578.417C292.526 576.866 283.148 574.484 274.032 571.3C272.919 570.917 271.327 570.686 270.828 571.761C270.33 572.835 273.015 572.72 272.075 571.991C187.195 560.481 106.093 529.788 21.9799 513.674C21.0027 513.493 20.1107 513 19.4384 512.268C18.7661 511.536 18.3499 510.605 18.2525 509.616C18.1551 508.626 18.3818 507.632 18.8984 506.783C19.415 505.934 20.1936 505.276 21.1168 504.908C27.888 502.145 35.2731 501.071 42.7349 499.613C56.1623 497.139 69.3979 494.722 82.787 492.535C109.771 487.86 137.016 484.836 164.368 483.48C209.791 481.562 255.636 486.415 300.561 479.375C343.241 472.699 383.408 455.646 423.115 438.573C432.706 434.468 442.469 430.209 449.969 422.996C455.858 417.337 460.577 409.875 468.077 406.153C475.865 402.317 485.341 402.988 493.704 403.372C515.764 404.35 537.555 408.839 559 413.923Z" fill="url(#paint0_linear_89_780)"/>
<path d="M25.663 485.111L215.258 402.624C219.365 400.563 223.999 399.794 228.551 400.418L463.051 420.349C467.54 420.982 466.734 440.28 463.051 443.369L324.557 561.268C320.386 564.95 315.392 567.579 309.996 568.934C304.599 570.289 298.956 570.331 293.54 569.056L27.3318 504.313C23.9366 503.488 22.4787 486.684 25.663 485.111Z" fill="#8CC5F9"/>
<path d="M25.663 485.111L215.258 402.624C219.365 400.563 223.999 399.794 228.551 400.418L463.051 420.349C467.54 420.982 466.734 440.28 463.051 443.369L324.557 561.268C320.386 564.95 315.392 567.579 309.996 568.934C304.599 570.289 298.956 570.331 293.54 569.056L27.3318 504.313C23.9366 503.488 22.4787 486.684 25.663 485.111Z" fill="url(#paint1_linear_89_780)"/>
<path d="M463.109 429.691L324.615 547.59C320.446 551.278 315.454 553.912 310.057 555.271C304.659 556.63 299.015 556.673 293.597 555.397L27.3315 490.635C23.9363 489.81 23.4951 484.439 26.6601 482.847L99.6285 441.661L118.811 430.88L177.143 398.096C181.249 396.034 185.884 395.265 190.436 395.89L460.749 419.409C465.238 419.946 466.734 426.602 463.109 429.691Z" fill="#8CC5F9"/>
<path d="M190.417 402.317L437.501 438.86L361.444 500.63L107.877 449.315L190.417 402.317Z" fill="url(#paint2_linear_89_780)"/>
<path d="M440.493 445.536C439.764 447.742 437.367 448.874 435.199 449.737C419.397 455.666 403.286 460.738 386.937 464.93C371.419 469.208 355.229 473.524 339.385 470.685C337.396 470.168 335.332 469.999 333.285 470.187C329.909 470.8 327.415 473.544 324.787 475.711C311.686 486.492 292.542 484.037 275.854 481.006C276.576 475.504 276.935 469.961 276.928 464.412C232.292 465.215 187.67 462.173 143.556 455.32C133.965 453.843 108.05 452.672 101.509 444.711C100.7 443.833 100.051 442.82 99.5903 441.719L118.772 430.938C119.641 430.976 120.504 431.111 121.343 431.341C172.382 445.495 225.431 451.006 278.29 447.646C279.652 440.76 272.536 432.147 277.945 427.581C279.726 426.314 281.882 425.686 284.064 425.797C292.162 425.482 300.213 427.169 307.504 430.708C311.82 432.818 315.887 435.58 320.548 436.77C325.109 437.675 329.788 437.824 334.398 437.211C363.826 435.009 393.355 434.445 422.846 435.523C427.699 435.695 432.782 435.983 436.906 438.535C439.323 439.992 441.414 442.832 440.493 445.536Z" fill="url(#paint3_linear_89_780)"/>
<path d="M164.56 464.623L266.378 485.207L213.723 528.158L107.877 504.409L164.56 464.623Z" fill="url(#paint4_linear_89_780)"/>
<path d="M113.651 511.852C114.692 513.943 116.166 515.789 117.975 517.268C119.784 518.746 121.887 519.823 124.143 520.427C131.624 522.23 175.225 533.394 175.225 533.394C175.225 533.394 182.323 534.238 186.255 529.558L113.651 511.852Z" fill="url(#paint5_linear_89_780)"/>
<path d="M182.668 395.775L461.536 435.465C463.58 435.75 465.656 435.243 467.339 434.048C469.021 432.854 470.185 431.062 470.59 429.038L510.374 228.134C510.8 225.99 510.769 223.78 510.284 221.649C509.799 219.517 508.87 217.512 507.558 215.763C506.245 214.015 504.58 212.563 502.669 211.501C500.758 210.44 498.644 209.793 496.467 209.603L221.07 185.452C217.017 185.097 212.986 186.344 209.842 188.926C206.697 191.508 204.689 195.219 204.248 199.264L182.668 395.775Z" fill="#8CC5F9"/>
<path d="M182.668 395.775L460.807 435.35C463.055 435.668 465.338 435.114 467.19 433.801C469.041 432.488 470.32 430.516 470.763 428.29L510.374 228.134C510.8 225.99 510.769 223.78 510.284 221.649C509.799 219.517 508.87 217.512 507.558 215.763C506.245 214.015 504.58 212.563 502.669 211.501C500.758 210.44 498.644 209.793 496.467 209.603L221.07 185.452C217.017 185.097 212.986 186.344 209.842 188.926C206.697 191.508 204.689 195.219 204.248 199.264L182.668 395.775Z" fill="url(#paint6_linear_89_780)"/>
<path d="M456.491 423.917L496.102 221.21L215.258 195.274L192.93 387.201L456.491 423.917Z" fill="white"/>
<path d="M433.396 258.06L236.416 237.553L240.885 212.615L437.923 233.122C439.588 233.23 441.212 233.687 442.69 234.462C444.167 235.238 445.465 236.316 446.499 237.625C447.534 238.934 448.282 240.446 448.694 242.063C449.107 243.68 449.175 245.366 448.895 247.011C448.139 250.445 446.136 253.477 443.272 255.518C440.409 257.56 436.889 258.466 433.396 258.06Z" fill="#8CC5F9"/>
<path opacity="0.56" d="M236.416 237.553L395.531 254.147L400 229.132L240.885 212.52L236.416 237.553Z" fill="white"/>
<path d="M423.824 248.325C427.188 247.009 428.936 243.439 427.729 240.35C426.521 237.262 422.815 235.825 419.45 237.141C416.086 238.457 414.337 242.027 415.545 245.116C416.753 248.204 420.459 249.641 423.824 248.325Z" stroke="white" stroke-width="1.04" stroke-miterlimit="10"/>
<path d="M425.723 253.111C425.589 252.785 423.92 248.238 423.92 248.238" stroke="white" stroke-width="1.04" stroke-miterlimit="10"/>
<path opacity="0.18" d="M431.497 294.162L230.47 272.639L231.525 269.34L432.533 290.863L431.497 294.162Z" fill="#8CC5F9"/>
<path opacity="0.18" d="M301.941 267.767L234.056 259.729L235.437 253.821L303.342 261.225L301.941 267.767Z" fill="#8CC5F9"/>
<path opacity="0.18" d="M429.003 307.457L227.976 285.934L229.011 282.634L430.039 304.157L429.003 307.457Z" fill="#8CC5F9"/>
<g opacity="0.66">
<path opacity="0.18" d="M291.142 320.866L223.257 312.847L224.638 306.919L292.542 314.324L291.142 320.866Z" fill="#8CC5F9"/>
<path opacity="0.18" d="M420.16 348.451L219.133 326.928L220.188 323.609L421.215 345.151L420.16 348.451Z" fill="#8CC5F9"/>
<path opacity="0.18" d="M415.576 363.836L214.548 342.312L215.603 339.013L416.612 360.536L415.576 363.836Z" fill="#8CC5F9"/>
</g>
<path opacity="0.18" d="M411.681 397.08L210.865 370.857L211.901 367.576L412.717 393.8L411.681 397.08Z" fill="#8CC5F9"/>
<path d="M300.253 377.705C300.253 377.705 94.8137 445.728 66.7312 384.668C38.6488 323.609 192.431 306.881 192.431 306.881C192.431 306.881 12.7339 324.779 53.0545 400.207C93.3751 475.634 312.51 401.051 312.51 401.051L300.253 377.705Z" fill="white"/>
<path d="M300.733 374.885C300.819 377.68 301.583 380.412 302.958 382.846L308.022 393.665C309.102 396.357 310.618 398.853 312.511 401.051C313.993 402.549 315.808 403.677 317.807 404.343C319.807 405.01 321.935 405.196 324.02 404.887C325.003 404.823 325.954 404.507 326.78 403.969C327.606 403.432 328.281 402.691 328.739 401.818C329.602 399.574 328.144 397.176 326.974 395.085C323.828 389.464 322.485 383.057 320.989 376.803C319.838 371.931 317.498 365.063 311.552 364.373C306.296 363.759 301.04 369.763 300.733 374.885Z" fill="#8CC5F9"/>
<path d="M352.333 349.678C352.333 349.678 308.867 309.912 266.378 349.678C266.378 349.678 299.218 345.439 309.346 363.529L352.333 349.678Z" fill="#8CC5F9"/>
<path d="M370.095 386.03C370.095 386.03 368.024 444.922 309.883 447.416C309.883 447.416 335.913 426.948 330.101 407.036L370.095 386.03Z" fill="#8CC5F9"/>
<path d="M309.346 363.567C309.346 363.567 446.401 284.917 523.455 297.501C523.455 297.501 506.038 354.129 330.043 407.036L309.346 363.567Z" fill="white"/>
<path d="M523.551 297.462C523.551 297.462 506.134 354.09 330.139 406.997L323.866 393.818L309.346 363.567C309.346 363.567 430.998 293.664 509.51 296.157C514.214 296.285 518.904 296.721 523.551 297.462Z" fill="url(#paint7_linear_89_780)"/>
<path d="M523.551 297.462C511.371 313.442 469.324 342.888 382.889 374.29C378.004 376.081 372.972 377.871 367.793 379.661C354.174 384.368 339.532 389.087 323.866 393.819L309.365 363.567C309.365 363.567 324.346 354.57 347.249 343.137C359.334 337.094 373.625 330.38 389.085 323.954C432.226 306.018 484.516 290.192 523.551 297.462Z" fill="white"/>
<path d="M417.935 326.832C410.627 329.882 402.417 329.383 394.514 329.901C392.165 329.995 389.834 330.362 387.57 330.994C383.1 332.724 379.024 335.333 375.581 338.668C375.114 338.989 374.763 339.453 374.584 339.991C374.532 340.55 374.667 341.11 374.967 341.583C376.717 345.149 378.73 348.58 380.99 351.846C383.676 355.683 386.841 359.769 386.745 364.488C386.472 368.101 385.07 371.538 382.736 374.31L382.161 375.115C379.393 378.841 376.388 382.385 373.164 385.724C370.786 388.179 372.32 395.68 366.566 393.876C361.559 392.323 363.995 386.376 365.702 383.249L367.621 379.681L370.843 373.715C373.298 369.207 375.792 363.855 373.72 359.155C372.263 355.875 368.906 353.899 365.76 352.134C359.823 348.615 353.598 345.605 347.153 343.137C359.238 337.094 373.529 330.38 388.989 323.954C399.082 324.801 409.222 324.949 419.335 324.395C420.179 325.201 418.99 326.39 417.935 326.832Z" fill="url(#paint8_linear_89_780)"/>
<path d="M400.863 360.709C409.571 360.709 416.63 353.649 416.63 344.94C416.63 336.232 409.571 329.172 400.863 329.172C392.155 329.172 385.095 336.232 385.095 344.94C385.095 353.649 392.155 360.709 400.863 360.709Z" fill="#8CC5F9"/>
<path d="M400.863 355.146C406.796 355.146 411.605 350.336 411.605 344.403C411.605 338.47 406.796 333.661 400.863 333.661C394.93 333.661 390.121 338.47 390.121 344.403C390.121 350.336 394.93 355.146 400.863 355.146Z" fill="url(#paint9_linear_89_780)"/>
<path d="M377.289 310.602C377.289 310.698 375.025 310.315 375.083 310.43C375.6 311.04 376.259 311.514 377.001 311.811C379.715 312.907 382.495 313.829 385.326 314.573C388.146 314.861 389.508 312.195 390.39 309.95C391.1 308.147 391.829 306.344 392.577 304.56C393.151 303.412 393.514 302.171 393.651 300.896C393.679 300.603 393.64 300.308 393.536 300.033C393.353 299.679 393.045 299.406 392.673 299.265C392.107 299.035 391.474 299.035 390.908 299.265C389.872 299.706 389.392 300.877 388.875 301.874C387.666 304.157 385.767 306.018 384.731 308.377C383.956 308.426 383.193 308.171 382.602 307.667L379.245 305.481C379.084 305.352 378.892 305.266 378.689 305.231C378.523 305.223 378.358 305.255 378.207 305.325C378.057 305.395 377.926 305.501 377.826 305.634C377.222 306.363 376.86 307.261 376.79 308.205C376.694 308.686 376.694 309.181 376.79 309.662C376.91 309.998 377.078 310.315 377.289 310.602Z" fill="#F5FAFE"/>
<path d="M379.878 305.385L381.068 306.114C381.24 306.114 381.413 306.305 381.471 306.497C381.509 306.635 381.509 306.781 381.471 306.919L380.684 310.411C380.445 311.974 379.883 313.47 379.034 314.804C378.574 315.437 375.198 313.096 374.623 312.789C373.187 311.836 371.933 310.635 370.92 309.24C370.452 308.673 370.094 308.022 369.865 307.322C369.519 305.553 369.79 303.718 370.633 302.124C371.975 299.495 374.239 300.8 375.946 302.411C377.161 303.523 378.477 304.519 379.878 305.385Z" fill="#8CC5F9"/>
<path d="M358.222 392.514C358.28 392.765 358.414 392.993 358.605 393.166C361.341 395.834 364.6 397.905 368.177 399.247C368.394 399.369 368.638 399.434 368.887 399.439C369.125 399.389 369.338 399.255 369.486 399.061C369.634 398.868 369.707 398.627 369.692 398.384C369.644 397.898 369.465 397.434 369.175 397.041C368.471 395.927 367.682 394.869 366.815 393.876C366.007 393.208 365.491 392.252 365.377 391.21C365.452 390.691 365.587 390.182 365.779 389.694C366.355 387.526 362.749 387.085 361.233 387.603C360.377 388.123 359.656 388.84 359.132 389.694C358.609 390.548 358.296 391.515 358.222 392.514Z" fill="#F5FAFE"/>
<path d="M349.398 331.589C349.398 331.589 342.857 340.72 349.59 348.853C354.251 354.493 361.252 358.33 367.698 361.553C368.829 362.128 370.172 362.588 371.265 363.279C373.395 364.622 372.09 365.754 370.959 367.538C368.12 372.103 365.255 376.637 362.365 381.138C360.695 383.418 359.548 386.038 359.008 388.812L366.317 391.037C370.254 384.324 374.745 377.953 379.744 371.988C381.912 369.418 384.712 366.233 384.309 362.665C383.804 359.362 382.352 356.277 380.128 353.783L366.451 337.9L349.398 331.589Z" fill="#473F47"/>
<path d="M381.163 287.947C381.393 288.618 382.046 289.156 382.141 289.865C382.237 290.575 381.508 291.419 381.029 292.206C380.549 292.992 380.223 294.508 379.571 295.563C379.454 295.795 379.266 295.983 379.034 296.1C378.825 296.176 378.604 296.215 378.382 296.215C377.51 296.19 376.645 296.048 375.811 295.793C375.663 295.699 375.487 295.658 375.313 295.678C375.167 295.764 375.058 295.9 375.006 296.061C374.03 298.079 373.563 300.305 373.644 302.545C373.644 303.274 373.644 304.195 373.049 304.56C372.833 304.701 372.578 304.768 372.32 304.751C370.632 304.751 369.347 303.236 368.484 301.74C367.778 300.395 367.23 298.972 366.853 297.5C366.716 297.073 366.664 296.624 366.7 296.177C366.789 295.656 366.971 295.156 367.237 294.699C368.088 293.037 368.776 291.296 369.289 289.501C369.737 287.149 370.539 284.879 371.668 282.768C372.106 282.097 372.744 281.581 373.49 281.291C374.344 281.104 375.231 281.15 376.061 281.425C377.793 281.703 379.353 282.637 380.415 284.034C380.741 284.532 380.895 287.084 381.163 287.947Z" fill="#F5FAFE"/>
<path d="M364.341 339.089C362.876 339.323 361.377 339.238 359.948 338.84C357.853 338.42 355.709 338.298 353.58 338.475C352.315 338.793 351.077 339.21 349.877 339.722C348.904 339.984 347.886 340.032 346.893 339.863C345.9 339.695 344.955 339.313 344.123 338.744C344.123 338.456 344.123 338.149 344.123 337.862C344.411 335.291 343.336 331.646 344.123 329.172C346.943 319.292 349.34 311.907 354.961 303.428C356.572 300.992 362.921 297.865 365.53 296.56C366.123 296.242 366.777 296.052 367.448 296.004C368.221 296.036 368.976 296.246 369.654 296.618C371.975 297.75 372.877 299.86 374.008 302.047C375.327 304.275 376.224 306.726 376.656 309.279C376.943 312.578 378.113 315.667 376.234 318.736C373.644 323.052 369.347 325.968 366.949 330.63C366.524 331.303 366.286 332.078 366.259 332.874C366.259 333.987 367.045 335.003 367.045 336.116C366.967 336.834 366.663 337.509 366.177 338.043C365.691 338.577 365.048 338.943 364.341 339.089Z" fill="#8CC5F9"/>
<path d="M379.13 323.532C380.051 323.954 381.048 324.318 381.834 324.625C386.342 326.062 391.016 326.913 395.741 327.157C401.684 327.908 407.691 328.017 413.657 327.483C416.094 327.297 418.456 326.555 420.563 325.316C421.177 324.913 421.81 324.184 421.503 323.512C421.324 323.213 421.056 322.978 420.736 322.841C418.432 321.626 415.833 321.081 413.235 321.268C413.235 320.366 413.005 319.215 412.123 319.139C411.24 319.062 410.723 320.271 410.205 321.057C409.054 322.975 406.368 323.186 404.22 323.167C399.254 323.24 394.297 322.731 389.45 321.652C387.02 321.072 384.664 320.216 382.429 319.1C380.99 318.371 378.094 315.36 376.674 316.971C375.255 318.582 373.931 319.657 375.85 321.364C376.827 322.249 377.933 322.98 379.13 323.532Z" fill="#F5FAFE"/>
<path d="M371.649 305.02C371.649 305.02 379.168 315.628 380.262 316.261C381.355 316.894 373.51 324.606 373.51 324.606C373.51 324.606 364.417 314.765 363.362 309.739C362.307 304.713 367.007 301.26 371.649 305.02Z" fill="#8CC5F9"/>
<path d="M380.358 282.998C380.035 283.44 379.625 283.81 379.153 284.087C378.681 284.365 378.158 284.542 377.615 284.609C376.669 284.76 375.714 284.843 374.757 284.859C374.757 284.859 374.584 284.859 374.527 284.859C374.492 284.898 374.465 284.943 374.449 284.993C374.432 285.042 374.426 285.095 374.431 285.147C374.391 285.883 374.2 286.604 373.87 287.264C373.54 287.924 373.078 288.509 372.512 288.983C372.364 289.076 372.244 289.209 372.167 289.367C372.09 289.59 372.09 289.834 372.167 290.057C372.301 290.825 372.301 291.611 372.167 292.379C372.058 293.158 371.694 293.88 371.131 294.431C370.991 294.528 370.89 294.67 370.844 294.834C370.843 294.976 370.883 295.116 370.959 295.237C371.223 296.038 371.168 296.911 370.805 297.673C370.084 297.119 369.249 296.733 368.36 296.54C367.471 296.348 366.55 296.355 365.664 296.56C365.126 296.607 364.616 296.822 364.207 297.174C361.636 299.879 359.526 303.083 356.822 305.692C355.671 306.804 354.385 307.783 353.311 308.991C351.691 310.967 350.396 313.188 349.475 315.571C348.771 317.438 347.837 319.211 346.693 320.846C346.119 321.659 345.389 322.35 344.546 322.88C343.704 323.41 342.764 323.769 341.783 323.935C340.853 324.011 339.918 323.894 339.037 323.59C338.155 323.286 337.346 322.803 336.661 322.17C335.464 321.072 334.609 319.651 334.201 318.079C333.792 316.506 333.847 314.849 334.359 313.307C334.609 312.83 334.678 312.278 334.551 311.753C334.402 311.463 334.193 311.208 333.937 311.005C332.762 309.78 332.105 308.148 332.105 306.449C332.105 304.751 332.762 303.119 333.937 301.893C335.223 300.685 338.311 299.515 338.484 297.52C338.656 295.525 336.872 293.549 337.601 291.247C337.865 290.547 338.248 289.898 338.733 289.328C339.658 287.97 340.911 286.868 342.377 286.125C343.861 285.625 345.416 285.372 346.981 285.377C352.007 285.031 357.263 283.458 360.581 279.622C361.328 278.628 362.149 277.691 363.037 276.821C364.077 276.016 365.262 275.417 366.528 275.056C369.571 273.892 372.929 273.844 376.004 274.922C377.072 275.368 378.026 276.05 378.793 276.917C379.56 277.784 380.122 278.814 380.435 279.929C380.642 280.416 380.743 280.942 380.729 281.472C380.716 282.001 380.59 282.522 380.358 282.998Z" fill="#878ABC"/>
<path d="M379.802 291.304C379.063 291.279 378.327 291.215 377.596 291.112C377.385 291.515 378.344 293.031 378.555 293.146C378.656 293.233 378.785 293.282 378.919 293.282C379.053 293.282 379.182 293.233 379.284 293.146C379.368 293.025 379.427 292.888 379.456 292.743L379.802 291.285" fill="white"/>
<path d="M378.075 288.043C378.393 288.043 378.651 287.785 378.651 287.468C378.651 287.15 378.393 286.892 378.075 286.892C377.758 286.892 377.5 287.15 377.5 287.468C377.5 287.785 377.758 288.043 378.075 288.043Z" fill="#231F20"/>
<path d="M391.778 294.722L390.949 294.564C390.429 294.465 389.927 294.807 389.827 295.327L388.773 300.868C388.674 301.388 389.015 301.89 389.535 301.989L390.365 302.147C390.885 302.246 391.387 301.905 391.486 301.384L392.541 295.844C392.64 295.324 392.298 294.821 391.778 294.722Z" fill="#8CC5F9"/>
<path d="M390.102 295.179C389.598 295.233 389.118 295.424 388.716 295.732C388.313 296.04 388.003 296.452 387.819 296.925C387.661 297.54 387.693 298.189 387.912 298.785C388.132 299.382 388.528 299.897 389.047 300.263C390.102 300.971 391.313 301.412 392.576 301.548C392.761 301.611 392.958 301.63 393.151 301.604C393.344 301.577 393.528 301.505 393.689 301.394C393.854 301.213 393.961 300.985 393.996 300.742C394.298 299.887 394.422 298.98 394.36 298.076C394.097 297.174 393.528 296.391 392.751 295.863C391.974 295.334 391.038 295.092 390.102 295.179Z" fill="#F5FAFE"/>
<path d="M386.611 291.055L386.419 293.242C386.356 293.531 386.409 293.834 386.567 294.086C386.724 294.337 386.975 294.516 387.263 294.584C390.939 294.842 394.536 295.779 397.871 297.347C399.679 298.364 401.399 299.532 403.012 300.838C403.664 301.356 404.604 300.838 404.757 299.725L406.464 288.216C406.618 287.199 405.889 286.489 405.122 286.873C401.918 288.503 394.725 291.496 388.069 289.654C387.359 289.482 386.688 290.153 386.611 291.055Z" fill="#8CC5F9"/>
<path d="M358.682 390.155C357.764 390.746 357.084 391.643 356.764 392.687C356.659 393.011 356.659 393.36 356.764 393.684C356.899 393.973 357.103 394.223 357.359 394.413C360.426 397.146 363.877 399.414 367.602 401.146C368.075 401.388 368.589 401.538 369.117 401.588C369.379 401.617 369.645 401.578 369.887 401.474C370.129 401.369 370.34 401.204 370.498 400.993C370.681 400.686 370.774 400.334 370.767 399.976C370.788 399.318 370.675 398.662 370.436 398.048C370.197 397.434 369.837 396.875 369.376 396.404C368.916 395.933 368.365 395.559 367.757 395.306C367.149 395.053 366.496 394.926 365.837 394.931C365.365 394.97 364.89 394.97 364.418 394.931C363.976 394.819 363.559 394.623 363.19 394.356C362.182 393.768 361.232 393.087 360.351 392.322C359.757 391.63 359.2 390.906 358.682 390.155Z" fill="#473F47"/>
<defs>
<linearGradient id="paint0_linear_89_780" x1="-269.299" y1="45.4352" x2="1171.02" y2="1122.6" gradientUnits="userSpaceOnUse">
<stop offset="0.01"/>
<stop offset="0.08" stop-opacity="0.69"/>
<stop offset="0.21" stop-opacity="0.32"/>
<stop offset="1" stop-opacity="0"/>
</linearGradient>
<linearGradient id="paint1_linear_89_780" x1="74888.7" y1="27331.7" x2="80405.4" y2="72966.3" gradientUnits="userSpaceOnUse">
<stop offset="0.01"/>
<stop offset="0.08" stop-opacity="0.69"/>
<stop offset="0.21" stop-opacity="0.32"/>
<stop offset="1" stop-opacity="0"/>
</linearGradient>
<linearGradient id="paint2_linear_89_780" x1="62370.5" y1="7312.75" x2="60941.9" y2="39691.7" gradientUnits="userSpaceOnUse">
<stop offset="0.01"/>
<stop offset="0.08" stop-opacity="0.69"/>
<stop offset="0.21" stop-opacity="0.32"/>
<stop offset="1" stop-opacity="0"/>
</linearGradient>
<linearGradient id="paint3_linear_89_780" x1="61877.3" y1="7303.47" x2="62464.1" y2="23296.8" gradientUnits="userSpaceOnUse">
<stop offset="0.01"/>
<stop offset="0.08" stop-opacity="0.69"/>
<stop offset="0.21" stop-opacity="0.32"/>
<stop offset="1" stop-opacity="0"/>
</linearGradient>
<linearGradient id="paint4_linear_89_780" x1="22539" y1="7799.03" x2="21584.3" y2="23897" gradientUnits="userSpaceOnUse">
<stop offset="0.01"/>
<stop offset="0.08" stop-opacity="0.69"/>
<stop offset="0.21" stop-opacity="0.32"/>
<stop offset="1" stop-opacity="0"/>
</linearGradient>
<linearGradient id="paint5_linear_89_780" x1="10324.7" y1="5492.38" x2="10181.7" y2="6728.35" gradientUnits="userSpaceOnUse">
<stop offset="0.01"/>
<stop offset="0.08" stop-opacity="0.69"/>
<stop offset="0.21" stop-opacity="0.32"/>
<stop offset="1" stop-opacity="0"/>
</linearGradient>
<linearGradient id="paint6_linear_89_780" x1="74728.2" y1="8039.3" x2="90809.8" y2="192278" gradientUnits="userSpaceOnUse">
<stop offset="0.01"/>
<stop offset="0.08" stop-opacity="0.69"/>
<stop offset="0.21" stop-opacity="0.32"/>
<stop offset="1" stop-opacity="0"/>
</linearGradient>
<linearGradient id="paint7_linear_89_780" x1="58226.3" y1="13541.5" x2="59641.9" y2="26923.1" gradientUnits="userSpaceOnUse">
<stop offset="0.01"/>
<stop offset="0.08" stop-opacity="0.69"/>
<stop offset="0.21" stop-opacity="0.32"/>
<stop offset="1" stop-opacity="0"/>
</linearGradient>
<linearGradient id="paint8_linear_89_780" x1="15958.3" y1="11607.1" x2="25613.1" y2="10835.3" gradientUnits="userSpaceOnUse">
<stop offset="0.01"/>
<stop offset="0.08" stop-opacity="0.69"/>
<stop offset="0.21" stop-opacity="0.32"/>
<stop offset="1" stop-opacity="0"/>
</linearGradient>
<linearGradient id="paint9_linear_89_780" x1="4878.54" y1="2041.72" x2="7491.95" y2="4332.31" gradientUnits="userSpaceOnUse">
<stop offset="0.01"/>
<stop offset="0.08" stop-opacity="0.69"/>
<stop offset="0.21" stop-opacity="0.32"/>
<stop offset="1" stop-opacity="0"/>
</linearGradient>
</defs>
</svg>
