<svg width="131" height="133" viewBox="0 0 131 133" fill="none" xmlns="http://www.w3.org/2000/svg">
<path fill-rule="evenodd" clip-rule="evenodd" d="M115.39 62.28L128.08 53.79C128.862 53.2641 129.46 52.5076 129.791 51.6258C130.123 50.7439 130.171 49.7806 129.93 48.87C124.31 28.15 108.04 10.53 87.7299 3.49999C80.3683 0.984742 72.6163 -0.193788 64.8399 0.0200084C57.0203 0.230489 49.2935 1.76907 41.9898 4.57C34.7348 7.3485 28.0409 11.4137 22.2299 16.57C16.4063 21.7827 11.5515 27.985 7.88987 34.89C4.2197 41.8221 1.77377 49.3358 0.659859 57.1C0.00687784 61.6259 -0.157391 66.209 0.169869 70.77C1.30373 86.346 7.91758 101.017 18.8384 112.181C29.7591 123.345 44.281 130.28 59.8282 131.756C75.3754 133.233 90.9431 129.155 103.77 120.247C116.597 111.338 125.854 98.1741 129.9 83.09C130.14 82.1813 130.09 81.2201 129.757 80.3413C129.423 79.4625 128.823 78.7102 128.04 78.19L115.4 69.76C114.783 69.3511 114.276 68.7959 113.925 68.1439C113.574 67.4918 113.39 66.7631 113.389 66.0227C113.388 65.2823 113.57 64.5531 113.92 63.9001C114.269 63.2471 114.774 62.6905 115.39 62.28ZM66.0699 12.89C76.0754 12.8883 85.8776 15.7152 94.3457 21.0445C102.814 26.3738 109.603 33.9884 113.93 43.01C114.405 43.9891 114.51 45.1067 114.227 46.1575C113.945 47.2082 113.292 48.1217 112.39 48.73L102.39 55.43C101.846 55.8008 101.226 56.0469 100.576 56.1504C99.9254 56.254 99.2602 56.2126 98.6277 56.0292C97.9952 55.8457 97.411 55.5248 96.917 55.0893C96.4229 54.6538 96.0312 54.1145 95.7698 53.51C92.8914 46.6591 87.7307 41.0155 81.1639 37.5374C74.597 34.0594 67.0288 32.9612 59.7443 34.4293C52.4597 35.8975 45.9077 39.8415 41.2008 45.5917C36.4939 51.342 33.9221 58.544 33.9221 65.975C33.9221 73.4061 36.4939 80.6081 41.2008 86.3583C45.9077 92.1086 52.4597 96.0525 59.7443 97.5207C67.0288 98.9888 74.597 97.8907 81.1639 94.4126C87.7307 90.9345 92.8914 85.2909 95.7698 78.44C96.0339 77.8391 96.4267 77.3035 96.9206 76.8711C97.4144 76.4388 97.9973 76.1203 98.6278 75.938C99.2584 75.7558 99.9214 75.7144 100.57 75.8167C101.218 75.919 101.836 76.1625 102.38 76.53L112.38 83.2C113.286 83.8072 113.942 84.7218 114.227 85.7749C114.512 86.828 114.407 87.9486 113.93 88.93C109.828 97.4843 103.508 104.783 95.6282 110.065C87.748 115.347 78.5957 118.419 69.1245 118.963C59.6534 119.506 50.2097 117.501 41.7771 113.154C33.3444 108.808 26.2312 102.281 21.1782 94.2518C16.1252 86.2228 13.3172 76.9859 13.0467 67.503C12.7762 58.0201 15.053 48.6381 19.6401 40.3341C24.2272 32.0301 30.9568 25.1077 39.128 20.288C47.2992 15.4682 56.6131 12.9274 66.0999 12.93L66.0699 12.89Z" fill="#3C4CA0"/>
<path d="M69.1599 81.2801C66.325 81.9814 63.3485 81.8556 60.5829 80.9177C57.8174 79.9798 55.3785 78.269 53.5551 75.9879C51.7316 73.7068 50.6001 70.951 50.2944 68.0467C49.9887 65.1425 50.5217 62.2114 51.8302 59.6007C53.1387 56.9899 55.168 54.8088 57.6777 53.3156C60.1874 51.8225 63.0724 51.0798 65.9911 51.1754C68.9099 51.2711 71.7401 52.2012 74.1466 53.8556C76.5531 55.5099 78.4352 57.8193 79.5699 60.5101L77.7798 61.2601C76.6112 58.4616 74.5133 56.1518 71.8398 54.7201C69.9351 53.6866 67.8073 53.1327 65.6404 53.1062C63.4736 53.0798 61.3328 53.5816 59.4035 54.5683C57.4741 55.5551 55.8142 56.997 54.5673 58.7694C53.3203 60.5417 52.524 62.5912 52.247 64.7404C51.9701 66.8897 52.221 69.0741 52.9779 71.1047C53.7348 73.1353 54.975 74.9509 56.5912 76.3944C58.2074 77.838 60.151 78.8661 62.2538 79.3898C64.3566 79.9135 66.5554 79.9171 68.6599 79.4001L69.1599 81.2801Z" fill="url(#paint0_linear_63_3)" stroke="url(#paint1_linear_63_3)" stroke-width="0.5" stroke-miterlimit="10"/>
<path d="M71.9197 86.97C67.949 88.2177 63.7017 88.2866 59.6927 87.1685C55.6836 86.0503 52.0851 83.793 49.3334 80.6704C46.5817 77.5478 44.795 73.694 44.1899 69.5761C43.5849 65.4583 44.1875 61.2534 45.9247 57.4712C47.6619 53.689 50.459 50.4921 53.977 48.268C57.4949 46.0439 61.5826 44.8881 65.7443 44.9409C69.906 44.9937 73.963 46.2528 77.4234 48.5655C80.8838 50.8781 83.599 54.145 85.2396 57.97L83.4596 58.74C81.7396 54.6923 78.6875 51.3545 74.8097 49.28C72.5467 48.004 70.0523 47.1913 67.472 46.8893C64.8916 46.5874 62.277 46.8022 59.7806 47.5213C57.2841 48.2404 54.9559 49.4493 52.9315 51.0776C50.9072 52.7059 49.2273 54.721 47.9899 57.0053C46.7525 59.2896 45.9823 61.7974 45.7242 64.3825C45.4661 66.9676 45.7253 69.5782 46.4867 72.0621C47.2481 74.546 48.4964 76.8534 50.1589 78.8498C51.8213 80.8461 53.8647 82.4915 56.1697 83.69C58.467 84.9492 60.9962 85.7288 63.6038 85.9815C66.2115 86.2342 68.8432 85.9547 71.3396 85.16L71.9197 86.97Z" fill="url(#paint2_linear_63_3)" stroke="url(#paint3_linear_63_3)" stroke-width="0.5" stroke-miterlimit="10"/>
<path d="M78.7197 72.4801C78.3897 71.3201 78.5597 70.6401 79.2997 70.1001C79.6636 69.8777 80.0735 69.7413 80.4981 69.7015C80.9227 69.6616 81.3508 69.7193 81.7497 69.8701C81.7121 69.3351 81.7424 68.7975 81.8397 68.2701C81.9877 67.7933 82.3166 67.3933 82.7558 67.1559C83.195 66.9186 83.7097 66.8626 84.1897 67.0001C84.6097 67.0801 84.7397 67.0001 84.8097 66.5601C84.8291 66.2808 84.9112 66.0094 85.05 65.7663C85.1889 65.5232 85.3808 65.3145 85.6115 65.1559C85.8423 64.9973 86.1058 64.8928 86.3825 64.8502C86.6593 64.8077 86.942 64.8281 87.2097 64.9101C88.4311 65.2101 89.535 65.8682 90.3797 66.8001C92.5412 68.7702 94.5009 70.951 96.2297 73.3101C97.0897 74.5501 97.1097 74.5401 96.2297 75.7801C93.9364 78.9801 91.6531 82.1834 89.3797 85.3901C89.2197 85.6101 89.0997 85.8101 88.7497 85.7101C85.0642 84.8234 81.2795 84.4167 77.4897 84.5001C76.8453 84.5422 76.2012 84.4126 75.6232 84.1245C75.0452 83.8364 74.554 83.4 74.1997 82.8601C73.9403 82.5252 73.7826 82.1229 73.7454 81.7009C73.7082 81.279 73.7929 80.8552 73.9897 80.4801C74.1959 80.1428 74.4928 79.8702 74.8464 79.6934C75.2 79.5166 75.5961 79.4427 75.9897 79.4801C77.2493 79.4318 78.5049 79.3081 79.7497 79.1101C79.6088 78.954 79.4549 78.8101 79.2897 78.6801C75.2897 75.8267 71.2897 72.9767 67.2897 70.1301C66.6068 69.6956 66.1001 69.033 65.8597 68.2601C65.7506 67.9593 65.7184 67.6361 65.766 67.3197C65.8136 67.0033 65.9395 66.7039 66.1322 66.4486C66.325 66.1932 66.5785 65.9901 66.8697 65.8576C67.1609 65.7251 67.4806 65.6676 67.7997 65.6901C68.5731 65.6857 69.3272 65.9313 69.9497 66.3901C72.4697 68.1901 74.9497 70.0101 77.4797 71.8201L78.6397 72.6501L78.7197 72.4801Z" fill="#CFD5EC"/>
<path d="M93.7399 80.4899L97.3499 75.4299C97.4756 75.2005 97.6516 75.0026 97.8648 74.851C98.078 74.6995 98.3228 74.5982 98.5807 74.5549C98.8387 74.5116 99.1031 74.5273 99.3542 74.601C99.6052 74.6746 99.8362 74.8042 100.03 74.98L101.03 75.66C101.227 75.7862 101.397 75.951 101.529 76.1444C101.661 76.3379 101.753 76.5559 101.799 76.7857C101.844 77.0154 101.843 77.2519 101.795 77.4812C101.747 77.7105 101.654 77.9277 101.52 78.1199C101.41 78.2999 101.28 78.47 101.15 78.65L94.1499 88.47C94.0214 88.7028 93.8425 88.9038 93.6261 89.0583C93.4098 89.2128 93.1616 89.3169 92.8997 89.363C92.6379 89.409 92.3691 89.3958 92.113 89.3244C91.8569 89.2529 91.6201 89.125 91.4199 88.95L90.4999 88.2999C90.2835 88.171 90.0978 87.9964 89.9559 87.7883C89.814 87.5801 89.7192 87.3435 89.6783 87.0949C89.6373 86.8463 89.6512 86.5918 89.7188 86.3491C89.7865 86.1065 89.9063 85.8815 90.0699 85.69C91.2699 83.96 92.5099 82.2299 93.7399 80.4899Z" fill="white"/>
<defs>
<linearGradient id="paint0_linear_63_3" x1="50.2098" y1="66.4501" x2="79.5699" y2="66.4501" gradientUnits="userSpaceOnUse">
<stop stop-color="#836FB2"/>
<stop offset="1" stop-color="#454CA0"/>
</linearGradient>
<linearGradient id="paint1_linear_63_3" x1="49.9598" y1="66.4501" x2="79.8999" y2="66.4501" gradientUnits="userSpaceOnUse">
<stop stop-color="#9571B2"/>
<stop offset="1" stop-color="#454CA0"/>
</linearGradient>
<linearGradient id="paint2_linear_63_3" x1="43.9897" y1="66.45" x2="85.2396" y2="66.45" gradientUnits="userSpaceOnUse">
<stop stop-color="#9571B2"/>
<stop offset="1" stop-color="#454CA0"/>
</linearGradient>
<linearGradient id="paint3_linear_63_3" x1="43.7397" y1="66.45" x2="85.5696" y2="66.45" gradientUnits="userSpaceOnUse">
<stop stop-color="#9571B2"/>
<stop offset="1" stop-color="#454CA0"/>
</linearGradient>
</defs>
</svg>
