<svg xmlns="http://www.w3.org/2000/svg" xmlns:xlink="http://www.w3.org/1999/xlink" viewBox="0 0 312.76 144.85"><defs><style>.cls-1,.cls-7{fill:#3c4ca0;}.cls-1{fill-rule:evenodd;}.cls-2,.cls-3{stroke-miterlimit:10;stroke-width:0.5px;}.cls-2{fill:url(#linear-gradient);stroke:url(#linear-gradient-2);}.cls-3{fill:url(#linear-gradient-3);stroke:url(#linear-gradient-4);}.cls-4{fill:#cfd5ec;}.cls-5{fill:#fff;}.cls-6{fill:#010101;}</style><linearGradient id="linear-gradient" x1="432.55" y1="539.56" x2="461.91" y2="539.56" gradientUnits="userSpaceOnUse"><stop offset="0" stop-color="#836fb2"/><stop offset="1" stop-color="#454ca0"/></linearGradient><linearGradient id="linear-gradient-2" x1="432.3" y1="539.56" x2="462.24" y2="539.56" gradientUnits="userSpaceOnUse"><stop offset="0" stop-color="#9571b2"/><stop offset="1" stop-color="#454ca0"/></linearGradient><linearGradient id="linear-gradient-3" x1="426.33" y1="539.56" x2="467.58" y2="539.56" xlink:href="#linear-gradient-2"/><linearGradient id="linear-gradient-4" x1="426.08" y1="539.56" x2="467.91" y2="539.56" xlink:href="#linear-gradient-2"/></defs><g id="Layer_1" data-name="Layer 1"><path class="cls-1" d="M497.73,535.39l12.69-8.49a4.53,4.53,0,0,0,1.85-4.92c-5.62-20.72-21.89-38.34-42.2-45.37a65.25,65.25,0,0,0-22.89-3.48,69,69,0,0,0-22.85,4.55,64.56,64.56,0,0,0-19.76,12A66.23,66.23,0,0,0,390.23,508,68.15,68.15,0,0,0,383,530.21a63.77,63.77,0,0,0-.49,13.67A66.08,66.08,0,0,0,512.24,556.2a4.5,4.5,0,0,0-1.86-4.9l-12.64-8.43A4.49,4.49,0,0,1,497.73,535.39ZM438,559.76h0M448.41,486a53.07,53.07,0,0,1,47.86,30.12,4.52,4.52,0,0,1-1.54,5.72l-10,6.7a4.47,4.47,0,0,1-6.62-1.92,32.18,32.18,0,1,0,0,24.93,4.48,4.48,0,0,1,6.61-1.91l10,6.67a4.52,4.52,0,0,1,1.55,5.73,53.06,53.06,0,1,1-47.83-76Z" transform="translate(-382.34 -473.11)"/><path class="cls-2" d="M451.5,554.39a15.28,15.28,0,1,1,10.41-20.77l-1.79.75a13.18,13.18,0,0,0-5.94-6.54A13.34,13.34,0,1,0,451,552.51Z" transform="translate(-382.34 -473.11)"/><path class="cls-3" d="M454.26,560.08a21.51,21.51,0,1,1,13.32-29l-1.78.77a19.28,19.28,0,0,0-8.65-9.46,19.57,19.57,0,1,0-18.64,34.41,19.35,19.35,0,0,0,15.17,1.47Z" transform="translate(-382.34 -473.11)"/><path class="cls-4" d="M461.06,545.59c-.33-1.16-.16-1.84.58-2.38a2.8,2.8,0,0,1,2.45-.23,6.36,6.36,0,0,1,.09-1.6,1.91,1.91,0,0,1,2.35-1.27c.42.08.55,0,.62-.44a1.86,1.86,0,0,1,2.4-1.65,6.31,6.31,0,0,1,3.17,1.89,44,44,0,0,1,5.85,6.51c.86,1.24.88,1.23,0,2.47q-3.44,4.8-6.85,9.61c-.16.22-.28.42-.63.32a44,44,0,0,0-11.26-1.21,3.65,3.65,0,0,1-3.29-1.64,2.21,2.21,0,0,1-.21-2.38,2.11,2.11,0,0,1,2-1,31.65,31.65,0,0,0,3.76-.37,3.72,3.72,0,0,0-.46-.43q-6-4.28-12-8.55a3.42,3.42,0,0,1-1.43-1.87,1.92,1.92,0,0,1,1.94-2.57,3.59,3.59,0,0,1,2.15.7c2.52,1.8,5,3.62,7.53,5.43l1.16.83Z" transform="translate(-382.34 -473.11)"/><path class="cls-5" d="M476.08,553.6l3.61-5.06a1.73,1.73,0,0,1,2.68-.45l1,.68a1.74,1.74,0,0,1,.49,2.46c-.11.18-.24.35-.37.53l-7,9.82a1.78,1.78,0,0,1-2.73.48l-.92-.65a1.73,1.73,0,0,1-.43-2.61C473.61,557.07,474.85,555.34,476.08,553.6Z" transform="translate(-382.34 -473.11)"/></g><g id="Layer_2" data-name="Layer 2"><path class="cls-6" d="M528.89,604.9h0a2.59,2.59,0,0,0-1.09-1.63,7,7,0,0,0-1.63-.91,8.07,8.07,0,0,0-1.82-.36,4.83,4.83,0,0,0-2.17.54,4.65,4.65,0,0,0-1.82,1.45,4.18,4.18,0,0,0-1.09,2.18,12.43,12.43,0,0,0-.36,2.72,10.72,10.72,0,0,0,.36,2.54,7.12,7.12,0,0,0,1.09,2,4.2,4.2,0,0,0,1.82,1.27,4.61,4.61,0,0,0,2.17.36,9.11,9.11,0,0,0,2.18-.36,5.13,5.13,0,0,0,2.18-1.45v.54a14.46,14.46,0,0,1-2.18,1.45,5.27,5.27,0,0,1-2.54.37,7.53,7.53,0,0,1-2.9-.55,4.94,4.94,0,0,1-2.18-1.63,6.86,6.86,0,0,1-1.27-2.18,10.45,10.45,0,0,1-.54-2.54,8.32,8.32,0,0,1,.9-3.63,9.17,9.17,0,0,1,2.54-2.72,6.35,6.35,0,0,1,3.63-.91,13.42,13.42,0,0,1,2.54.37l.91.18h.54a.64.64,0,0,0,.73-.55h.18Z" transform="translate(-382.34 -473.11)"/><path class="cls-6" d="M531.61,615.06h0a1.94,1.94,0,0,0,1.09-.36,1.55,1.55,0,0,0,.36-1.09v-10a1.55,1.55,0,0,0-.36-1.09,1.94,1.94,0,0,0-1.09-.36V602h4.18v.18a1.38,1.38,0,0,0-.91.36c-.36.18-.36.55-.36,1.09v9.8a2.64,2.64,0,0,0,.36,1.27,2.8,2.8,0,0,0,1.45.36h1.09a2.71,2.71,0,0,0,1.27-.18,2.48,2.48,0,0,0,.72-.54,2.91,2.91,0,0,0,.55-1.09h.18l-.54,2.17-8-.36Z" transform="translate(-382.34 -473.11)"/><path class="cls-6" d="M546.67,602h0c-.36.18-.72.18-1.09.54-.36.18-.36.55-.36,1.09v10.16a1.53,1.53,0,0,0,.36,1.09c.37.18.55.36.91.36v.18h-4.17v-.36a2.64,2.64,0,0,0,1.09-.36c.36-.18.36-.55.36-1.09V603.45a1.53,1.53,0,0,0-.36-1.09,2,2,0,0,0-1.09-.36v-.19h4.35Z" transform="translate(-382.34 -473.11)"/><path class="cls-6" d="M561.55,604.9h0a2.59,2.59,0,0,0-1.09-1.63,6.83,6.83,0,0,0-1.63-.91A8,8,0,0,0,557,602a4.84,4.84,0,0,0-2.18.54A4.65,4.65,0,0,0,553,604a4.17,4.17,0,0,0-1.08,2.18,11.84,11.84,0,0,0-.37,2.72,10.21,10.21,0,0,0,.37,2.54,7.1,7.1,0,0,0,1.08,2,4.2,4.2,0,0,0,1.82,1.27,4.63,4.63,0,0,0,2.18.36,9.12,9.12,0,0,0,2.17-.36,5.07,5.07,0,0,0,2.18-1.45v.54a14,14,0,0,1-2.18,1.45,5.27,5.27,0,0,1-2.54.37,7.57,7.57,0,0,1-2.9-.55,5,5,0,0,1-2.18-1.63,6.86,6.86,0,0,1-1.27-2.18,10.45,10.45,0,0,1-.54-2.54,8.19,8.19,0,0,1,.91-3.63,9,9,0,0,1,2.54-2.72,6.3,6.3,0,0,1,3.62-.91,13.63,13.63,0,0,1,2.55.37l.9.18h.55a.66.66,0,0,0,.54-.18.67.67,0,0,0,.18-.37h.18Z" transform="translate(-382.34 -473.11)"/><path class="cls-6" d="M575.34,602h0c-.36.18-.72.18-.9.36-.37,0-.55.18-.91.54l-.36.37-.19.18L568.45,608l5.44,6.17a2.43,2.43,0,0,0,1.09.91,2.32,2.32,0,0,0,1.09.18v.18h-2.9l-6-6.71v5.08a1.33,1.33,0,0,0,1.45,1.45v.18h-4.17v-.36a1.08,1.08,0,0,0,.72-.18c.18,0,.36-.18.55-.36a1.38,1.38,0,0,0,.18-.91V603.45a1.49,1.49,0,0,0-.37-1.09,1.93,1.93,0,0,0-1.08-.36v-.19h4.17V602a1.33,1.33,0,0,0-1.45,1.45v4.9l5.08-5.08h0a.73.73,0,0,0,.36-.73c0-.18,0-.36-.18-.36s-.36-.18-.73-.18v-.19h3.63Z" transform="translate(-382.34 -473.11)"/><path class="cls-6" d="M588.23,614.15V603.63a1.34,1.34,0,0,0-1.45-1.45V602H591v.18a2.6,2.6,0,0,0-1.09.36,1.55,1.55,0,0,0-.36,1.09v10.89a5,5,0,0,1-.18,1.63,4.08,4.08,0,0,1-.73,1.09c-.36.18-.54.36-.91.54a2,2,0,0,1-.9.18,1.36,1.36,0,0,1-.91-.18c-.36-.18-.55-.18-.73-.36l-.54-.54v-.19a2.87,2.87,0,0,0,1.63.55,1.68,1.68,0,0,0,1.63-.91A7.46,7.46,0,0,0,588.23,614.15Z" transform="translate(-382.34 -473.11)"/><path class="cls-6" d="M608.19,608.53a7.58,7.58,0,0,1-.91,3.45,5.72,5.72,0,0,1-2.54,2.54,6.08,6.08,0,0,1-3.63.9,8.32,8.32,0,0,1-3.63-.9,5.78,5.78,0,0,1-2.54-2.54,7.58,7.58,0,0,1-.91-3.45,7.3,7.3,0,0,1,.55-2.72,4.94,4.94,0,0,1,1.63-2.18,6.32,6.32,0,0,1,2.36-1.45,7.18,7.18,0,0,1,2.72-.55,5.67,5.67,0,0,1,2.54.55,6.48,6.48,0,0,1,2.18,1.45,9.62,9.62,0,0,1,1.63,2.18A6.48,6.48,0,0,1,608.19,608.53Zm-1.64.18a9,9,0,0,0-.9-4.17,3.87,3.87,0,0,0-2.18-2,6.31,6.31,0,0,0-2.36-.54,8,8,0,0,0-1.81.36,4.76,4.76,0,0,0-1.82,1.09,5.7,5.7,0,0,0-1.45,2,8.89,8.89,0,0,0-.54,3.27,8.57,8.57,0,0,0,.54,3.09A6.29,6.29,0,0,0,597.3,614a3.71,3.71,0,0,0,1.81,1.09,7.88,7.88,0,0,0,2,.36,6.53,6.53,0,0,0,1.82-.36,3.71,3.71,0,0,0,1.81-1.09,5.42,5.42,0,0,0,1.27-2A7,7,0,0,0,606.55,608.71Z" transform="translate(-382.34 -473.11)"/><path class="cls-6" d="M622,602h0c-.36.18-.73.18-1.09.36a3.07,3.07,0,0,0-1.27,1.27l-3.08,4.72v5.26a1.55,1.55,0,0,0,.36,1.09,1.94,1.94,0,0,0,1.09.36v.18h-4.18v-.18a2.55,2.55,0,0,0,1.09-.36c.36-.18.36-.55.36-1.09v-5.08l-3.44-5.08a7,7,0,0,0-.91-1.09,2,2,0,0,0-1.09-.36v-.19h4.72V602a1.07,1.07,0,0,0-.91.36.66.66,0,0,0-.18.54,1.36,1.36,0,0,0,.36.73l2.73,4.17,2.54-3.63a2.39,2.39,0,0,0,.54-1.27.66.66,0,0,0-.18-.54c-.18-.18-.18-.18-.36-.18h-.37V602Z" transform="translate(-382.34 -473.11)"/><path class="cls-6" d="M646.11,602h0a.66.66,0,0,1-.54.18c-.18,0-.18,0-.36.18l-.37.36a1.39,1.39,0,0,1-.18.73v.18l.55,10a2.6,2.6,0,0,0,.36,1.09c.18.36.54.54,1.27.54v.18h-4.36v-.36a1.09,1.09,0,0,0,1.09-.54,1.47,1.47,0,0,0,.18-1.27l-.54-10.16h0l-4.72,12.15L634,603.63h0l-.55,9.44a2.73,2.73,0,0,0,.18,1.27c0,.36.18.54.37.54.18.18.54.18.9.36v.18H631.6v-.36a1.37,1.37,0,0,0,.9-.36.92.92,0,0,0,.37-.73c0-.36.18-.72.18-1.27l.54-9.8a.18.18,0,0,0-.18-.18c0-.18-.18-.18-.18-.36-.18-.18-.18-.18-.36-.18a.68.68,0,0,0-.55-.18h-.54v-.19h3.08L639,612.7l4.17-10.89h2.9Z" transform="translate(-382.34 -473.11)"/><path class="cls-6" d="M649.2,602h0l8-.19V604H657c0-1.09-.73-1.63-2.18-1.63H652.1v6h2.36a2.71,2.71,0,0,0,1.27-.18,1.75,1.75,0,0,0,.73-1.09h.18v3.08h-.18a.94.94,0,0,0-.37-.72l-.36-.37a.63.63,0,0,1-.36-.18H652.1v4.72a1.38,1.38,0,0,0,.18.91,1.08,1.08,0,0,0,.91.36h2c.54,0,.9,0,1.08-.18a2.27,2.27,0,0,0,.73-.55,1.37,1.37,0,0,0,.36-.9h.18l-.54,2.17h-8v-.36h.18c.36,0,.54-.18.91-.36s.36-.55.36-1.09v-10a2.6,2.6,0,0,0-.36-1.09c.18-.36-.19-.54-.91-.54Z" transform="translate(-382.34 -473.11)"/><path class="cls-6" d="M660.27,602h0l5.08-.19a6.47,6.47,0,0,1,2,.19l1.64.54a2.91,2.91,0,0,1,1.27.73,3.93,3.93,0,0,1,.9.72,10,10,0,0,1,1.09,1.45,6.21,6.21,0,0,1,.73,1.64,5.61,5.61,0,0,1,.18,1.81,6.26,6.26,0,0,1-.18,1.82,10.9,10.9,0,0,1-.55,1.45,3.26,3.26,0,0,1-.9,1.27,9,9,0,0,1-1.27,1.09,3.54,3.54,0,0,1-1.45.54c-.55,0-1.27.18-2.18.18h-6v-.18h.18a1,1,0,0,0,.91-.54,3.18,3.18,0,0,0,.36-.91v-10a1.67,1.67,0,0,0-.18-.91c-.18-.18-.18-.36-.36-.54a10.09,10.09,0,0,1-1.27-.18Zm2.72.54v10.53c0,.54,0,.9.18,1.08a2.27,2.27,0,0,0,.73.55c.36,0,.9.18,1.45.18a8.2,8.2,0,0,0,2.36-.36,4.13,4.13,0,0,0,2-1.27,3.74,3.74,0,0,0,1.09-1.82,5.79,5.79,0,0,0,.36-2.54,10.8,10.8,0,0,0-.36-2.36,4.25,4.25,0,0,0-1.09-2,4.47,4.47,0,0,0-2-1.64,7,7,0,0,0-2.91-.54A9.37,9.37,0,0,0,663,602.54Z" transform="translate(-382.34 -473.11)"/><path class="cls-6" d="M680.41,602h0c-.36.18-.73.18-1.09.54-.36.18-.36.55-.36,1.09v10.16a1.53,1.53,0,0,0,.36,1.09c.36.18.54.36.91.36v.18h-4.18v-.36a2.55,2.55,0,0,0,1.09-.36c.37-.18.37-.55.37-1.09V603.45a1.53,1.53,0,0,0-.37-1.09,1.94,1.94,0,0,0-1.09-.36v-.19h4.36Z" transform="translate(-382.34 -473.11)"/><path class="cls-6" d="M689.3,601.81l4,11.44a4.35,4.35,0,0,0,.55,1.27l.54.54c.18,0,.36.18.73.18v.18h-4.36v-.36a2.32,2.32,0,0,0,1.09-.18c.18,0,.36-.36.36-.73a2,2,0,0,0-.18-.9v-.18l-1.27-3.45h-4.53l-1.09,3.26A2.34,2.34,0,0,0,685,614a.94.94,0,0,0,.36.73c.18.18.36.18.72.18v.18H683a1.59,1.59,0,0,0,1.09-.54,5.52,5.52,0,0,0,.72-1.45l3.81-11.44h.73Zm-3.08,7.44h4.17l-2.18-6.35h0Z" transform="translate(-382.34 -473.11)"/><path class="cls-7" d="M557.38,592.92a48.29,48.29,0,0,1-13.61-1.81,37.13,37.13,0,0,1-11.43-5.44,26.26,26.26,0,0,1-11.07-21.6,2.73,2.73,0,0,1,.72-2,2.9,2.9,0,0,1,2-.91h14.7a4.4,4.4,0,0,1,2.72.91,4.89,4.89,0,0,1,1.45,2.54,13.24,13.24,0,0,0,2.72,6.71,14.21,14.21,0,0,0,5.27,3.81,22.07,22.07,0,0,0,7.07,1.27c4.9,0,8.71-1.63,11.25-4.72s4-7.62,4-13.43h0a39.34,39.34,0,0,0-39.38-39.37h-3.45a3.09,3.09,0,0,1-3.08-3.09V504.92a3.82,3.82,0,0,1,.9-2.36,3,3,0,0,1,2.18-.91H591a3.8,3.8,0,0,1,2.36.91,3.46,3.46,0,0,1,.91,2.36v53.71c0,7.44-1.64,13.61-4.72,18.69a30.72,30.72,0,0,1-12.89,11.61A45.44,45.44,0,0,1,557.38,592.92Z" transform="translate(-382.34 -473.11)"/><path class="cls-7" d="M610.18,591.65a3,3,0,0,1-2.17-.9,2.79,2.79,0,0,1-.91-2.36V504.73a3.77,3.77,0,0,1,.91-2.35,3.72,3.72,0,0,1,2.17-.91h12a3.8,3.8,0,0,1,2.9,1.09c.19.18.37.54.55.72a8.64,8.64,0,0,1,1.09,1.64l15.6,28.85a8.71,8.71,0,0,0,15.24,0l16.34-29.58a6.4,6.4,0,0,1,1.27-1.63,3.8,3.8,0,0,1,2.9-1.09h12a3.82,3.82,0,0,1,2.36.91,3.45,3.45,0,0,1,.9,2.35v83.66a3.87,3.87,0,0,1-.9,2.36,3.49,3.49,0,0,1-2.36.9H677a3,3,0,0,1-2.18-.9,3.49,3.49,0,0,1-.9-2.36V571.15c0-9.07-12.16-12-16.34-4.18h0a5.53,5.53,0,0,1-1.63,2,4.4,4.4,0,0,1-2.72.91h-6a4.42,4.42,0,0,1-2.72-.91,5.53,5.53,0,0,1-1.63-2h0c-4.18-8-16.33-4.89-16.33,4.18v17.24a3.88,3.88,0,0,1-.91,2.36,3,3,0,0,1-2.18.9Z" transform="translate(-382.34 -473.11)"/></g></svg>