<svg width="733" height="716" viewBox="0 0 733 716" fill="none" xmlns="http://www.w3.org/2000/svg">
<g clip-path="url(#clip0_56_14)">
<path d="M406.527 -13.035C406.527 -13.035 439.417 87.6293 349.544 105.365C259.672 123.102 176.776 103.886 116.522 186.522C70.8708 249.234 107.574 351.628 57.4159 399.105C28.5346 426.491 -37.5047 553.332 62.3559 615.356C110.889 645.452 218.571 596.141 268.967 601.914C350.195 611.209 382.867 719.168 517.221 715.854C611.708 713.541 645.746 662.896 710.724 667.064C771.108 670.92 784 696.722 784 696.722L744.567 -30L406.527 -13.035Z" fill="#C0B7E8" fill-opacity="0.33"/>
<path d="M425.984 -13.3368C425.984 -13.3368 453.37 86.3272 362.675 99.2072C271.979 112.087 190.21 89.2242 125.557 166.88C76.5693 225.715 107.661 327.255 55.0112 371.126C24.6782 396.386 -48.1644 516.787 48.2079 582.021C95.0291 613.721 205.246 570.933 255.274 579.041C335.873 592.067 362.675 698.817 497.006 702.172C591.494 704.527 628.218 656.884 692.893 664.095C752.995 670.827 764.392 696.566 764.392 696.566V-13.3368H425.984Z" fill="#F5F5F5"/>
</g>
<defs>
<clipPath id="clip0_56_14">
<rect width="784" height="746" fill="white" transform="translate(0 -30)"/>
</clipPath>
</defs>
</svg>
