<svg width="313" height="145" viewBox="0 0 313 145" fill="none" xmlns="http://www.w3.org/2000/svg">
<g clip-path="url(#clip0_63_2)">
<path fill-rule="evenodd" clip-rule="evenodd" d="M115.39 62.28L128.08 53.79C128.862 53.2641 129.46 52.5076 129.791 51.6258C130.123 50.7439 130.171 49.7806 129.93 48.87C124.31 28.15 108.04 10.53 87.7299 3.49999C80.3683 0.984742 72.6163 -0.193788 64.8399 0.0200084C57.0203 0.230489 49.2935 1.76907 41.9898 4.57C34.7348 7.3485 28.0409 11.4137 22.2299 16.57C16.4063 21.7827 11.5515 27.985 7.88987 34.89C4.2197 41.8221 1.77377 49.3358 0.659859 57.1C0.00687784 61.6259 -0.157391 66.209 0.169869 70.77C1.30373 86.346 7.91758 101.017 18.8384 112.181C29.7591 123.345 44.281 130.28 59.8282 131.756C75.3754 133.233 90.9431 129.155 103.77 120.247C116.597 111.338 125.854 98.1741 129.9 83.09C130.14 82.1813 130.09 81.2201 129.757 80.3413C129.423 79.4625 128.823 78.7102 128.04 78.19L115.4 69.76C114.783 69.3511 114.276 68.7959 113.925 68.1439C113.574 67.4918 113.39 66.7631 113.389 66.0227C113.388 65.2823 113.57 64.5531 113.92 63.9001C114.269 63.2471 114.774 62.6905 115.39 62.28ZM66.0699 12.89C76.0754 12.8883 85.8776 15.7152 94.3457 21.0445C102.814 26.3738 109.603 33.9884 113.93 43.01C114.405 43.9891 114.51 45.1067 114.227 46.1575C113.945 47.2082 113.292 48.1217 112.39 48.73L102.39 55.43C101.846 55.8008 101.226 56.0469 100.576 56.1504C99.9254 56.254 99.2602 56.2126 98.6277 56.0292C97.9952 55.8457 97.411 55.5248 96.917 55.0893C96.4229 54.6538 96.0312 54.1145 95.7698 53.51C92.8914 46.6591 87.7307 41.0155 81.1639 37.5374C74.597 34.0594 67.0288 32.9612 59.7443 34.4293C52.4597 35.8975 45.9077 39.8415 41.2008 45.5917C36.4939 51.342 33.9221 58.544 33.9221 65.975C33.9221 73.4061 36.4939 80.6081 41.2008 86.3583C45.9077 92.1086 52.4597 96.0525 59.7443 97.5207C67.0288 98.9888 74.597 97.8907 81.1639 94.4126C87.7307 90.9345 92.8914 85.2909 95.7698 78.44C96.0339 77.8391 96.4267 77.3035 96.9206 76.8711C97.4144 76.4388 97.9973 76.1203 98.6278 75.938C99.2584 75.7558 99.9214 75.7144 100.57 75.8167C101.218 75.919 101.836 76.1625 102.38 76.53L112.38 83.2C113.286 83.8072 113.942 84.7218 114.227 85.7749C114.512 86.828 114.407 87.9486 113.93 88.93C109.828 97.4843 103.508 104.783 95.6282 110.065C87.748 115.347 78.5957 118.419 69.1245 118.963C59.6534 119.506 50.2097 117.501 41.7771 113.154C33.3444 108.808 26.2312 102.281 21.1782 94.2518C16.1252 86.2228 13.3172 76.9859 13.0467 67.503C12.7762 58.0201 15.053 48.6381 19.6401 40.3341C24.2272 32.0301 30.9568 25.1077 39.128 20.288C47.2992 15.4682 56.6131 12.9274 66.0999 12.93L66.0699 12.89Z" fill="#595959"/>
<path d="M69.1599 81.2801C66.325 81.9814 63.3485 81.8556 60.5829 80.9177C57.8174 79.9798 55.3785 78.269 53.5551 75.9879C51.7316 73.7068 50.6001 70.951 50.2944 68.0467C49.9887 65.1425 50.5217 62.2114 51.8302 59.6007C53.1387 56.9899 55.168 54.8088 57.6777 53.3156C60.1874 51.8225 63.0724 51.0798 65.9911 51.1754C68.9099 51.2711 71.7401 52.2012 74.1466 53.8556C76.5531 55.5099 78.4352 57.8193 79.5699 60.5101L77.7798 61.2601C76.6112 58.4616 74.5133 56.1518 71.8398 54.7201C69.9351 53.6866 67.8073 53.1327 65.6404 53.1062C63.4736 53.0798 61.3328 53.5816 59.4035 54.5683C57.4741 55.5551 55.8142 56.997 54.5673 58.7694C53.3203 60.5417 52.524 62.5912 52.247 64.7404C51.9701 66.8897 52.221 69.0741 52.9779 71.1047C53.7348 73.1353 54.975 74.9509 56.5912 76.3944C58.2074 77.838 60.151 78.8661 62.2538 79.3898C64.3566 79.9135 66.5554 79.9171 68.6599 79.4001L69.1599 81.2801Z" fill="white" stroke="white" stroke-width="0.5" stroke-miterlimit="10"/>
<path d="M71.9197 86.97C67.949 88.2177 63.7017 88.2866 59.6927 87.1685C55.6836 86.0503 52.0851 83.793 49.3334 80.6704C46.5817 77.5478 44.795 73.694 44.1899 69.5761C43.5849 65.4583 44.1875 61.2534 45.9247 57.4712C47.6619 53.689 50.459 50.4921 53.977 48.268C57.4949 46.0439 61.5826 44.8881 65.7443 44.9409C69.906 44.9937 73.963 46.2528 77.4234 48.5655C80.8838 50.8781 83.599 54.145 85.2396 57.97L83.4596 58.74C81.7396 54.6923 78.6875 51.3545 74.8097 49.28C72.5467 48.004 70.0523 47.1913 67.472 46.8893C64.8916 46.5874 62.277 46.8022 59.7806 47.5213C57.2841 48.2404 54.9559 49.4493 52.9315 51.0776C50.9072 52.7059 49.2273 54.721 47.9899 57.0053C46.7525 59.2896 45.9823 61.7974 45.7242 64.3825C45.4661 66.9676 45.7253 69.5782 46.4867 72.0621C47.2481 74.546 48.4964 76.8534 50.1589 78.8498C51.8213 80.8461 53.8647 82.4915 56.1697 83.69C58.467 84.9492 60.9962 85.7288 63.6038 85.9815C66.2115 86.2342 68.8432 85.9547 71.3396 85.16L71.9197 86.97Z" fill="white" stroke="white" stroke-width="0.5" stroke-miterlimit="10"/>
<path d="M78.7197 72.4801C78.3897 71.3201 78.5597 70.6401 79.2997 70.1001C79.6636 69.8777 80.0735 69.7413 80.4981 69.7015C80.9227 69.6616 81.3508 69.7193 81.7497 69.8701C81.7121 69.3351 81.7424 68.7975 81.8397 68.2701C81.9877 67.7933 82.3166 67.3933 82.7558 67.1559C83.195 66.9186 83.7097 66.8626 84.1897 67.0001C84.6097 67.0801 84.7397 67.0001 84.8097 66.5601C84.8291 66.2808 84.9112 66.0094 85.05 65.7663C85.1889 65.5232 85.3808 65.3145 85.6115 65.1559C85.8423 64.9973 86.1058 64.8928 86.3825 64.8502C86.6593 64.8077 86.942 64.8281 87.2097 64.9101C88.4311 65.2101 89.535 65.8682 90.3797 66.8001C92.5412 68.7702 94.5009 70.951 96.2297 73.3101C97.0897 74.5501 97.1097 74.5401 96.2297 75.7801C93.9364 78.9801 91.6531 82.1834 89.3797 85.3901C89.2197 85.6101 89.0997 85.8101 88.7497 85.7101C85.0642 84.8234 81.2795 84.4167 77.4897 84.5001C76.8453 84.5422 76.2012 84.4126 75.6232 84.1245C75.0452 83.8364 74.554 83.4 74.1997 82.8601C73.9403 82.5252 73.7826 82.1229 73.7454 81.7009C73.7082 81.279 73.7929 80.8552 73.9897 80.4801C74.1959 80.1428 74.4928 79.8702 74.8464 79.6934C75.2 79.5166 75.5961 79.4427 75.9897 79.4801C77.2493 79.4318 78.5049 79.3081 79.7497 79.1101C79.6088 78.954 79.4549 78.8101 79.2897 78.6801C75.2897 75.8267 71.2897 72.9767 67.2897 70.1301C66.6068 69.6956 66.1001 69.033 65.8597 68.2601C65.7506 67.9593 65.7184 67.6361 65.766 67.3197C65.8136 67.0033 65.9395 66.7039 66.1322 66.4486C66.325 66.1932 66.5785 65.9901 66.8697 65.8576C67.1609 65.7251 67.4806 65.6676 67.7997 65.6901C68.5731 65.6857 69.3272 65.9313 69.9497 66.3901C72.4697 68.1901 74.9497 70.0101 77.4797 71.8201L78.6397 72.6501L78.7197 72.4801Z" fill="#CFD5EC"/>
<path d="M93.7399 80.4899L97.3499 75.4299C97.4756 75.2005 97.6516 75.0026 97.8648 74.851C98.078 74.6995 98.3228 74.5982 98.5807 74.5549C98.8387 74.5116 99.1031 74.5273 99.3542 74.601C99.6052 74.6746 99.8362 74.8042 100.03 74.98L101.03 75.66C101.227 75.7862 101.397 75.951 101.529 76.1444C101.661 76.3379 101.753 76.5559 101.799 76.7857C101.844 77.0154 101.843 77.2519 101.795 77.4812C101.747 77.7105 101.654 77.9277 101.52 78.1199C101.41 78.2999 101.28 78.47 101.15 78.65L94.1499 88.47C94.0214 88.7028 93.8425 88.9038 93.6261 89.0583C93.4098 89.2128 93.1616 89.3169 92.8997 89.363C92.6379 89.409 92.3691 89.3958 92.113 89.3244C91.8569 89.2529 91.6201 89.125 91.4199 88.95L90.4999 88.2999C90.2835 88.171 90.0978 87.9964 89.9559 87.7883C89.814 87.5801 89.7192 87.3435 89.6783 87.0949C89.6373 86.8463 89.6512 86.5918 89.7188 86.3491C89.7865 86.1065 89.9063 85.8815 90.0699 85.69C91.2699 83.96 92.5099 82.2299 93.7399 80.4899Z" fill="white"/>
<path d="M146.55 131.79C146.414 131.125 146.023 130.539 145.46 130.16C144.96 129.785 144.411 129.479 143.83 129.25C143.239 129.06 142.628 128.94 142.01 128.89C141.254 128.898 140.511 129.083 139.84 129.43C139.12 129.751 138.494 130.25 138.02 130.88C137.448 131.482 137.069 132.241 136.93 133.06C136.71 133.95 136.589 134.863 136.57 135.78C136.588 136.638 136.709 137.491 136.93 138.32C137.183 139.041 137.551 139.716 138.02 140.32C138.502 140.899 139.13 141.337 139.84 141.59C140.523 141.883 141.268 142.007 142.01 141.95C142.748 141.919 143.48 141.798 144.19 141.59C145.03 141.303 145.781 140.804 146.37 140.14V140.68C145.688 141.228 144.959 141.713 144.19 142.13C143.387 142.461 142.514 142.588 141.65 142.5C140.656 142.51 139.671 142.323 138.75 141.95C137.885 141.621 137.129 141.057 136.57 140.32C136.015 139.678 135.585 138.939 135.3 138.14C135.015 137.319 134.833 136.466 134.76 135.6C134.78 134.337 135.088 133.096 135.66 131.97C136.312 130.899 137.176 129.973 138.2 129.25C139.291 128.589 140.556 128.272 141.83 128.34C142.686 128.382 143.537 128.506 144.37 128.71L145.28 128.89H145.82C145.904 128.903 145.99 128.898 146.072 128.877C146.155 128.857 146.232 128.819 146.3 128.768C146.368 128.717 146.425 128.653 146.468 128.579C146.511 128.506 146.539 128.424 146.55 128.34H146.73L146.55 131.79Z" fill="#595959"/>
<path d="M149.27 141.95C149.661 141.943 150.041 141.817 150.36 141.59C150.615 141.286 150.744 140.896 150.72 140.5V130.5C150.744 130.104 150.615 129.714 150.36 129.41C150.041 129.183 149.661 129.057 149.27 129.05V128.89H153.45V129.07C153.113 129.075 152.789 129.203 152.54 129.43C152.18 129.61 152.18 129.98 152.18 130.52V140.32C152.19 140.767 152.314 141.204 152.54 141.59C152.982 141.839 153.483 141.963 153.99 141.95H155.08C155.511 141.992 155.947 141.931 156.35 141.77C156.621 141.635 156.865 141.452 157.07 141.23C157.328 140.91 157.516 140.538 157.62 140.14H157.8L157.26 142.31L149.26 141.95H149.27Z" fill="#595959"/>
<path d="M164.33 128.89C163.97 129.07 163.61 129.07 163.24 129.43C162.88 129.61 162.88 129.98 162.88 130.52V140.68C162.854 141.076 162.983 141.467 163.24 141.77C163.61 141.95 163.79 142.13 164.15 142.13V142.31H159.98V141.95C160.365 141.911 160.737 141.788 161.07 141.59C161.43 141.41 161.43 141.04 161.43 140.5V130.34C161.456 129.944 161.327 129.553 161.07 129.25C160.75 129.026 160.371 128.901 159.98 128.89V128.7H164.33V128.89Z" fill="#595959"/>
<path d="M179.21 131.79C179.074 131.125 178.683 130.539 178.12 130.16C177.621 129.783 177.072 129.477 176.49 129.25C175.896 129.059 175.282 128.938 174.66 128.89C173.901 128.896 173.154 129.081 172.48 129.43C171.759 129.754 171.133 130.256 170.66 130.89C170.091 131.493 169.715 132.252 169.58 133.07C169.352 133.959 169.227 134.872 169.21 135.79C169.226 136.649 169.35 137.502 169.58 138.33C169.83 139.05 170.195 139.726 170.66 140.33C171.142 140.909 171.77 141.347 172.48 141.6C173.167 141.894 173.915 142.018 174.66 141.96C175.395 141.928 176.124 141.807 176.83 141.6C177.671 141.316 178.423 140.816 179.01 140.15V140.69C178.33 141.24 177.6 141.726 176.83 142.14C176.027 142.471 175.154 142.598 174.29 142.51C173.297 142.519 172.311 142.332 171.39 141.96C170.526 141.629 169.772 141.064 169.21 140.33C168.655 139.688 168.225 138.949 167.94 138.15C167.655 137.329 167.474 136.476 167.4 135.61C167.419 134.346 167.731 133.103 168.31 131.98C168.958 130.906 169.823 129.98 170.85 129.26C171.937 128.598 173.199 128.281 174.47 128.35C175.33 128.392 176.183 128.516 177.02 128.72L177.92 128.9H178.47C178.568 128.912 178.667 128.902 178.76 128.871C178.854 128.84 178.939 128.788 179.01 128.72C179.107 128.619 179.17 128.489 179.19 128.35H179.37L179.21 131.79Z" fill="#595959"/>
<path d="M193 128.89C192.64 129.07 192.28 129.07 192.1 129.25C191.73 129.25 191.55 129.43 191.19 129.79L190.83 130.16L190.64 130.34L186.11 134.89L191.55 141.06C191.814 141.465 192.194 141.782 192.64 141.97C192.983 142.117 193.357 142.179 193.73 142.15V142.33H190.83L184.83 135.62V140.7C184.811 140.895 184.836 141.092 184.902 141.276C184.969 141.46 185.075 141.628 185.213 141.766C185.352 141.905 185.519 142.011 185.704 142.077C185.888 142.144 186.085 142.169 186.28 142.15V142.33H182.11V141.97C182.364 141.997 182.619 141.933 182.83 141.79C183.01 141.79 183.19 141.61 183.38 141.43C183.543 141.156 183.607 140.835 183.56 140.52V130.34C183.574 130.143 183.548 129.945 183.484 129.758C183.421 129.571 183.321 129.398 183.19 129.25C182.874 129.024 182.498 128.899 182.11 128.89V128.7H186.28V128.89C186.085 128.871 185.888 128.896 185.704 128.962C185.519 129.029 185.352 129.135 185.213 129.273C185.075 129.412 184.969 129.58 184.902 129.764C184.836 129.948 184.811 130.145 184.83 130.34V135.24L189.91 130.16C190.036 130.088 190.137 129.98 190.201 129.85C190.265 129.72 190.289 129.574 190.27 129.43C190.27 129.25 190.27 129.07 190.09 129.07C189.91 129.07 189.73 128.89 189.36 128.89V128.7H192.99L193 128.89Z" fill="#595959"/>
<path d="M205.89 141.04V130.52C205.906 130.325 205.88 130.129 205.813 129.946C205.746 129.762 205.64 129.596 205.502 129.457C205.364 129.319 205.197 129.213 205.014 129.146C204.83 129.079 204.634 129.053 204.44 129.07V128.89H208.66V129.07C208.274 129.107 207.901 129.23 207.57 129.43C207.314 129.734 207.186 130.124 207.21 130.52V141.41C207.24 141.959 207.179 142.51 207.03 143.04C206.847 143.44 206.6 143.808 206.3 144.13C205.94 144.31 205.76 144.49 205.39 144.67C205.108 144.799 204.799 144.86 204.49 144.85C204.175 144.898 203.852 144.835 203.58 144.67C203.22 144.49 203.03 144.49 202.85 144.31L202.31 143.77V143.58C202.784 143.926 203.353 144.118 203.94 144.13C204.271 144.156 204.602 144.084 204.893 143.922C205.183 143.76 205.418 143.516 205.57 143.22C205.784 142.513 205.891 141.778 205.89 141.04Z" fill="#595959"/>
<path d="M225.85 135.42C225.825 136.626 225.513 137.809 224.94 138.87C224.388 139.967 223.497 140.858 222.4 141.41C221.315 142.084 220.044 142.399 218.77 142.31C217.507 142.289 216.266 141.982 215.14 141.41C214.045 140.855 213.155 139.965 212.6 138.87C212.026 137.809 211.714 136.626 211.69 135.42C211.698 134.486 211.884 133.563 212.24 132.7C212.568 131.835 213.133 131.08 213.87 130.52C214.54 129.868 215.346 129.373 216.23 129.07C217.092 128.711 218.016 128.525 218.95 128.52C219.828 128.504 220.697 128.692 221.49 129.07C222.308 129.4 223.049 129.893 223.67 130.52C224.314 131.166 224.863 131.9 225.3 132.7C225.678 133.556 225.865 134.484 225.85 135.42ZM224.21 135.6C224.248 134.158 223.94 132.728 223.31 131.43C222.877 130.501 222.093 129.782 221.13 129.43C220.385 129.099 219.584 128.916 218.77 128.89C218.155 128.94 217.547 129.061 216.96 129.25C216.279 129.472 215.657 129.844 215.14 130.34C214.516 130.893 214.021 131.575 213.69 132.34C213.307 133.386 213.123 134.496 213.15 135.61C213.138 136.664 213.321 137.712 213.69 138.7C213.96 139.508 214.393 140.254 214.96 140.89C215.445 141.421 216.074 141.8 216.77 141.98C217.418 142.186 218.09 142.307 218.77 142.34C219.391 142.307 220.003 142.186 220.59 141.98C221.286 141.8 221.915 141.421 222.4 140.89C222.966 140.325 223.399 139.642 223.67 138.89C224.112 137.853 224.298 136.724 224.21 135.6Z" fill="#595959"/>
<path d="M239.66 128.89C239.3 129.07 238.93 129.07 238.57 129.25C238.029 129.537 237.587 129.979 237.3 130.52L234.22 135.24V140.5C234.196 140.896 234.325 141.286 234.58 141.59C234.899 141.817 235.279 141.943 235.67 141.95V142.13H231.49V141.95C231.876 141.914 232.249 141.791 232.58 141.59C232.94 141.41 232.94 141.04 232.94 140.5V135.42L229.5 130.34C229.234 129.947 228.929 129.581 228.59 129.25C228.27 129.026 227.891 128.901 227.5 128.89V128.7H232.22V128.89C232.051 128.873 231.88 128.897 231.721 128.96C231.563 129.022 231.422 129.122 231.31 129.25C231.242 129.321 231.19 129.406 231.159 129.5C231.128 129.593 231.118 129.692 231.13 129.79C231.173 130.064 231.298 130.319 231.49 130.52L234.22 134.69L236.76 131.06C237.061 130.699 237.249 130.257 237.3 129.79C237.312 129.692 237.302 129.593 237.271 129.5C237.24 129.406 237.188 129.321 237.12 129.25C236.94 129.07 236.94 129.07 236.76 129.07H236.39V128.89H239.66Z" fill="#595959"/>
<path d="M263.77 128.89C263.699 128.958 263.614 129.01 263.52 129.041C263.427 129.072 263.328 129.082 263.23 129.07C263.05 129.07 263.05 129.07 262.87 129.25L262.5 129.61C262.508 129.865 262.446 130.118 262.32 130.34V130.52L262.87 140.52C262.907 140.906 263.03 141.278 263.23 141.61C263.41 141.97 263.77 142.15 264.5 142.15V142.33H260.14V141.97C260.355 141.998 260.573 141.962 260.767 141.866C260.961 141.77 261.122 141.618 261.23 141.43C261.354 141.246 261.434 141.036 261.466 140.816C261.497 140.596 261.478 140.372 261.41 140.16L260.87 130L256.15 142.15L251.66 130.52L251.11 139.96C251.068 140.392 251.13 140.827 251.29 141.23C251.29 141.59 251.47 141.77 251.66 141.77C251.84 141.95 252.2 141.95 252.56 142.13V142.31H249.26V141.95C249.594 141.944 249.914 141.816 250.16 141.59C250.274 141.505 250.366 141.395 250.43 141.268C250.495 141.142 250.529 141.002 250.53 140.86C250.53 140.5 250.71 140.14 250.71 139.59L251.25 129.79C251.25 129.742 251.231 129.696 251.197 129.663C251.163 129.629 251.118 129.61 251.07 129.61C251.07 129.43 250.89 129.43 250.89 129.25C250.71 129.07 250.71 129.07 250.53 129.07C250.457 129.001 250.37 128.95 250.275 128.919C250.18 128.887 250.079 128.878 249.98 128.89H249.44V128.7H252.52L256.66 139.59L260.83 128.7H263.73L263.77 128.89Z" fill="#595959"/>
<path d="M266.86 128.89L274.86 128.7V130.89H274.66C274.66 129.8 273.93 129.26 272.48 129.26H269.76V135.26H272.12C272.551 135.302 272.987 135.241 273.39 135.08C273.765 134.825 274.027 134.434 274.12 133.99H274.3V137.07H274.12C274.116 136.93 274.08 136.793 274.016 136.668C273.952 136.544 273.861 136.435 273.75 136.35L273.39 135.98C273.253 135.961 273.127 135.898 273.03 135.8H269.76V140.52C269.713 140.835 269.776 141.156 269.94 141.43C270.052 141.557 270.193 141.656 270.352 141.719C270.51 141.781 270.68 141.806 270.85 141.79H272.85C273.39 141.79 273.75 141.79 273.93 141.61C274.208 141.478 274.456 141.291 274.66 141.06C274.885 140.814 275.013 140.494 275.02 140.16H275.2L274.66 142.33H266.66V141.97H266.84C267.2 141.97 267.38 141.79 267.75 141.61C268.12 141.43 268.11 141.06 268.11 140.52V130.52C268.072 130.134 267.949 129.762 267.75 129.43C267.93 129.07 267.56 128.89 266.84 128.89H266.86Z" fill="#595959"/>
<path d="M277.93 128.89L283.01 128.7C283.682 128.659 284.357 128.723 285.01 128.89L286.65 129.43C287.128 129.561 287.566 129.812 287.92 130.16C288.253 130.355 288.557 130.597 288.82 130.88C289.226 131.329 289.591 131.815 289.91 132.33C290.231 132.839 290.477 133.391 290.64 133.97C290.798 134.56 290.859 135.171 290.82 135.78C290.849 136.392 290.788 137.006 290.64 137.6C290.491 138.096 290.307 138.58 290.09 139.05C289.897 139.54 289.588 139.976 289.19 140.32C288.801 140.722 288.376 141.087 287.92 141.41C287.482 141.695 286.987 141.879 286.47 141.95C285.92 141.95 285.2 142.13 284.29 142.13H278.29V141.95H278.47C278.657 141.954 278.841 141.906 279.002 141.81C279.163 141.715 279.294 141.576 279.38 141.41C279.546 141.127 279.667 140.82 279.74 140.5V130.5C279.767 130.186 279.704 129.87 279.56 129.59C279.38 129.41 279.38 129.23 279.2 129.05C278.773 129.017 278.349 128.957 277.93 128.87V128.89ZM280.65 129.43V139.96C280.65 140.5 280.65 140.86 280.83 141.04C281.033 141.271 281.282 141.458 281.56 141.59C281.92 141.59 282.46 141.77 283.01 141.77C283.81 141.766 284.605 141.645 285.37 141.41C286.146 141.191 286.841 140.75 287.37 140.14C287.901 139.651 288.28 139.019 288.46 138.32C288.768 137.511 288.891 136.643 288.82 135.78C288.787 134.983 288.666 134.191 288.46 133.42C288.285 132.667 287.908 131.975 287.37 131.42C286.879 130.688 286.183 130.118 285.37 129.78C284.449 129.395 283.457 129.211 282.46 129.24C281.855 129.245 281.252 129.309 280.66 129.43H280.65Z" fill="#595959"/>
<path d="M298.07 128.89C297.71 129.07 297.34 129.07 296.98 129.43C296.62 129.61 296.62 129.98 296.62 130.52V140.68C296.594 141.076 296.723 141.467 296.98 141.77C297.34 141.95 297.52 142.13 297.89 142.13V142.31H293.71V141.95C294.096 141.914 294.469 141.791 294.8 141.59C295.17 141.41 295.17 141.04 295.17 140.5V130.34C295.193 129.942 295.061 129.551 294.8 129.25C294.481 129.023 294.101 128.897 293.71 128.89V128.7H298.07V128.89Z" fill="#595959"/>
<path d="M306.96 128.7L310.96 140.14C311.074 140.59 311.26 141.019 311.51 141.41L312.05 141.95C312.23 141.95 312.41 142.13 312.78 142.13V142.31H308.42V141.95C308.792 141.978 309.166 141.917 309.51 141.77C309.69 141.77 309.87 141.41 309.87 141.04C309.88 140.73 309.819 140.422 309.69 140.14V139.96L308.42 136.51H303.89L302.8 139.77C302.662 140.126 302.614 140.511 302.66 140.89C302.661 141.031 302.694 141.169 302.757 141.296C302.819 141.422 302.909 141.533 303.02 141.62C303.2 141.8 303.38 141.8 303.74 141.8V141.98H300.66C301.08 141.951 301.472 141.757 301.75 141.44C302.06 140.994 302.302 140.506 302.47 139.99L306.28 128.55H307.01L306.96 128.7ZM303.88 136.14H308.05L305.87 129.79L303.88 136.14Z" fill="#595959"/>
<path d="M175.04 119.81C170.44 119.858 165.857 119.248 161.43 118C157.337 116.854 153.47 115.014 150 112.56C146.553 110.116 143.747 106.876 141.82 103.116C139.892 99.3552 138.901 95.1853 138.93 90.9599C138.91 90.5954 138.963 90.2305 139.087 89.887C139.211 89.5435 139.402 89.2282 139.65 88.9599C140.171 88.406 140.89 88.0792 141.65 88.0499H156.35C157.333 88.0409 158.29 88.3613 159.07 88.9599C159.801 89.6388 160.307 90.5251 160.52 91.4999C160.785 93.9459 161.727 96.2694 163.24 98.2099C164.678 99.8702 166.482 101.174 168.51 102.02C170.781 102.827 173.17 103.256 175.58 103.29C180.48 103.29 184.29 101.66 186.83 98.5699C189.37 95.4799 190.83 90.9499 190.83 85.1399C190.834 79.9678 189.818 74.8457 187.84 70.0667C185.862 65.2877 182.962 60.9456 179.304 57.2888C175.646 53.632 171.303 50.7324 166.524 48.7559C161.744 46.7794 156.622 45.7647 151.45 45.7699H148C147.182 45.7673 146.399 45.4406 145.821 44.8614C145.244 44.2822 144.92 43.4977 144.92 42.6799V31.8099C144.944 30.944 145.261 30.1118 145.82 29.4499C146.103 29.1586 146.442 28.9278 146.816 28.7713C147.191 28.6149 147.594 28.5362 148 28.5399H208.66C209.527 28.5649 210.36 28.886 211.02 29.4499C211.61 30.0936 211.935 30.9366 211.93 31.8099V85.5199C211.93 92.9599 210.29 99.1299 207.21 104.21C204.118 109.238 199.643 113.269 194.32 115.82C188.262 118.543 181.681 119.905 175.04 119.81Z" fill="#595959"/>
<path d="M227.84 118.54C227.436 118.544 227.036 118.466 226.663 118.311C226.29 118.157 225.952 117.928 225.67 117.64C225.343 117.346 225.09 116.979 224.932 116.569C224.774 116.159 224.715 115.717 224.76 115.28V31.62C224.785 30.7554 225.106 29.9257 225.67 29.2699C226.276 28.7398 227.037 28.4205 227.84 28.3599H239.84C240.373 28.3278 240.906 28.4082 241.406 28.596C241.906 28.7838 242.36 29.0748 242.74 29.4499C242.93 29.6299 243.11 29.9899 243.29 30.1699C243.714 30.6733 244.08 31.2235 244.38 31.81L259.98 60.66C260.733 62.0207 261.837 63.1549 263.177 63.9447C264.517 64.7345 266.044 65.151 267.6 65.151C269.155 65.151 270.682 64.7345 272.022 63.9447C273.362 63.1549 274.466 62.0207 275.22 60.66L291.56 31.0799C291.892 30.4714 292.321 29.9209 292.83 29.4499C293.209 29.0748 293.664 28.7838 294.164 28.596C294.663 28.4082 295.197 28.3278 295.73 28.3599H307.73C308.597 28.3865 309.429 28.7074 310.09 29.2699C310.675 29.912 310.996 30.7512 310.99 31.62V115.28C310.962 116.145 310.645 116.976 310.09 117.64C309.443 118.224 308.601 118.545 307.73 118.54H294.66C294.254 118.545 293.852 118.468 293.478 118.313C293.103 118.158 292.763 117.929 292.48 117.64C291.896 116.993 291.575 116.151 291.58 115.28V98.04C291.58 88.97 279.42 86.0399 275.24 93.8599C274.862 94.6458 274.303 95.3311 273.61 95.8599C272.83 96.4585 271.873 96.7789 270.89 96.77H264.89C263.907 96.7774 262.95 96.4572 262.17 95.8599C261.476 95.3311 260.918 94.6458 260.54 93.8599C256.36 85.8599 244.21 88.97 244.21 98.04V115.28C244.179 116.146 243.858 116.977 243.3 117.64C243.016 117.929 242.677 118.158 242.302 118.313C241.927 118.468 241.525 118.545 241.12 118.54H227.84Z" fill="#595959"/>
</g>
<defs>
<clipPath id="clip0_63_2">
<rect width="312.76" height="144.85" fill="white"/>
</clipPath>
</defs>
</svg>
