<svg width="1219" height="1238" viewBox="0 0 1219 1238" fill="none" xmlns="http://www.w3.org/2000/svg">
<g filter="url(#filter0_f_56_73)">
<path fill-rule="evenodd" clip-rule="evenodd" d="M966.79 603.1C961.817 669.391 995.399 742.233 960.879 799.043C926.383 855.813 849.465 865.266 789.774 894.415C735.693 920.824 683.818 946.177 625.921 962.613C552.214 983.536 465.141 1049.89 403.799 1003.98C338.484 955.098 397.635 841.088 364.149 766.694C336.833 706.008 252.968 684.895 231.776 621.808C208.775 553.334 219.117 476.947 244.044 409.151C270.984 335.88 303.882 244.889 378.634 222.386C457.506 198.643 526.672 298.7 609.038 299.274C687.135 299.818 750.893 208.931 827.211 225.512C902.663 241.904 965.353 310.08 992.125 382.502C1018.23 453.13 972.422 528.012 966.79 603.1Z" fill="url(#paint0_linear_56_73)" fill-opacity="0.05"/>
</g>
<defs>
<filter id="filter0_f_56_73" x="0.96582" y="0.743103" width="1217.14" height="1237.09" filterUnits="userSpaceOnUse" color-interpolation-filters="sRGB">
<feFlood flood-opacity="0" result="BackgroundImageFix"/>
<feBlend mode="normal" in="SourceGraphic" in2="BackgroundImageFix" result="shape"/>
<feGaussianBlur stdDeviation="109" result="effect1_foregroundBlur_56_73"/>
</filter>
<linearGradient id="paint0_linear_56_73" x1="602.619" y1="213.645" x2="623.029" y2="1015.55" gradientUnits="userSpaceOnUse">
<stop stop-color="#1212DD"/>
<stop offset="1" stop-color="#5D5DD9"/>
</linearGradient>
</defs>
</svg>
