<svg width="254" height="243" viewBox="0 0 254 243" fill="none" xmlns="http://www.w3.org/2000/svg">
<g id="Isolation_Mode" clip-path="url(#clip0_56_479)">
<path id="path13148" d="M21.8859 111.424C22.1291 110.936 22.4218 110.475 22.7594 110.046C25.0303 107.149 28.3128 106.218 31.829 107.559C33.6393 108.289 35.3149 109.316 36.7868 110.598C51.6068 123.175 66.535 135.629 81.0714 148.53C88.784 155.377 95.8412 162.978 103.065 170.351C106.047 173.386 108.877 173.655 112.294 171.113C126.658 160.41 141.444 150.237 155.385 139.018C172.726 125.066 189.371 110.297 206.299 95.8664C206.778 95.462 207.098 94.8775 207.853 93.9258C203.089 93.7386 198.903 93.7944 194.778 93.3513C189.455 92.7873 186.193 88.726 186.78 83.9355C187.315 79.5843 191.115 76.9991 196.385 77.3972C197.64 77.4931 198.895 77.6451 200.153 77.6275C209.942 77.5065 219.738 77.2799 229.532 77.2342C239.621 77.1914 244.562 85.0526 240.204 94.0308C239.71 95.0328 239.26 96.0851 238.681 97.0257C233.181 105.952 230.959 115.847 229.959 126.119C229.661 129.179 229.414 132.266 228.8 135.274C227.892 139.693 224.553 142.077 220.297 141.718C216.468 141.39 213.654 138.326 213.397 134.003C213.339 132.465 213.42 130.925 213.639 129.401C214.421 122.808 215.25 116.222 216.187 108.63C213.574 110.61 211.562 112.001 209.696 113.569C190.067 130.007 170.651 146.704 150.774 162.837C141.01 170.759 130.545 177.858 120.127 184.931C110.419 191.519 101.789 190.608 93.0281 182.686C90.8563 180.72 88.9293 178.509 86.8759 176.394C82.9801 172.373 79.3892 168.035 75.1742 164.399C61.1054 152.241 46.7775 140.375 32.6316 128.299C29.2401 125.401 25.9487 122.322 23.0288 118.962C21.0949 116.736 20.6239 113.952 21.8859 111.424ZM65.5942 168.805C65.8609 168.296 66.2143 167.837 66.6386 167.45C69.4944 164.746 71.988 167.523 74.1476 169.519C83.0618 177.764 91.9685 186.019 100.868 194.284C106.346 199.361 106.692 199.68 113.122 195.817C120.534 191.38 127.596 186.356 134.796 181.568C136.949 180.135 139.37 178.449 141.536 180.891C143.786 183.402 142.35 185.969 140.098 187.773C130.783 195.233 120.985 201.957 109.597 205.872C107.261 206.679 104.517 206.291 102.609 206.413C100.963 205.085 100.059 204.426 99.2383 203.671C88.9577 194.226 78.6592 184.8 68.4489 175.275C66.5308 173.488 64.3688 171.219 65.5875 168.801L65.5942 168.805ZM146.365 172.591C146.427 172.472 146.51 172.366 146.611 172.278C149.492 169.945 152.599 167.907 155.886 166.193C156.702 165.756 158.802 166.527 159.479 167.39C160.254 168.369 160.108 170.087 160.47 172.139C156.903 174.259 153.697 176.407 150.242 177.994C149.352 178.395 147.091 177.388 146.464 176.395C145.909 175.516 145.865 173.495 146.365 172.591ZM164.22 157.534C165.984 157.302 168.143 156.36 169.397 157.054C170.516 157.669 171.34 160.254 171.031 161.687C170.507 164.12 168.122 164.855 166.123 163.464C164.872 162.595 164.366 160.636 163.533 159.158L164.22 157.534Z" fill="#FFE176"/>
</g>
<defs>
<clipPath id="clip0_56_479">
<rect width="173.701" height="196.412" fill="white" transform="matrix(-0.442719 0.896661 0.896661 0.442719 76.9006 0)"/>
</clipPath>
</defs>
</svg>
