<svg width="191" height="219" viewBox="0 0 191 219" fill="none" xmlns="http://www.w3.org/2000/svg">
<g id="Frame" clip-path="url(#clip0_81_851)">
<g id="Group">
<g id="OBJECTS">
<path id="Vector" opacity="0.6" d="M19.087 33.1098C2.09977 49.7683 -0.22793 74.4155 8.81542 100.04C12.3416 110.142 16.4919 120.135 13.9166 130.997C11.2719 142.067 4.46709 152.03 1.43613 163.149C-5.15076 187.342 11.787 202.835 32.6174 206.045C45.7714 208.079 59.3611 204.958 72.0694 209.994C82.0438 213.944 90.0075 219.632 101.131 218.882C113.601 218.082 125.25 211.426 136.71 206.045C148.745 200.347 157.966 200.811 169.892 198.145C196.844 192.072 185.483 144.634 180.342 125.072C173.725 99.8526 183.224 79.3034 181.501 54.5575C179.243 22.0206 165.514 5.18428 134.947 0.809805C115.355 -2.01434 48.4358 2.00464 29.4676 25.0718C26.4366 28.7649 22.0883 30.1671 19.087 33.1098Z" fill="#E5E7ED"/>
<g id="Vector_2" style="mix-blend-mode:multiply">
<path d="M128.063 196.288C130.113 190.561 129.717 183.451 129.806 177.369C129.915 168.797 125.844 161.411 125.042 152.919C123.754 138.927 126.498 124.44 133.649 112.67C140.068 102.104 145.535 92.4762 156.193 85.4652C160.155 82.8188 164.167 80.3995 167.564 77.0026C171.209 73.3589 172.269 69.6164 174.686 65.6073C174.979 64.7971 175.176 63.9552 175.271 63.0991C179.857 67.7995 181.491 76.1633 183.323 82.1473C185.156 88.1314 188.276 94.8856 188.514 101.235C189.024 117.627 183.993 133.715 174.231 146.915C167.154 156.42 159.27 165.301 150.666 173.458C144.565 179.314 137.453 184.182 132.045 190.601C130.648 192.269 128.915 196.19 127.092 196.239" fill="#D8DFF4"/>
</g>
<path id="Vector_3" d="M174.785 77.5752C175.102 85.3564 173.151 90.7776 169.902 97.4726C164.682 108.236 159.343 118.624 155.342 130.059C151.766 140.309 148.408 150.648 144.872 160.937C143.396 165.282 142.049 169.745 140.84 174.169C139.999 177.24 140.771 181.802 139.375 184.409" stroke="white" stroke-width="0.31" stroke-miterlimit="10"/>
<path id="Vector_4" d="M133.56 128.864C134.538 137.102 137.212 145.049 141.415 152.208" stroke="white" stroke-width="0.31" stroke-miterlimit="10"/>
<path id="Vector_5" d="M147.15 102.134C143.812 109.856 148.557 117.489 149.23 124.845" stroke="white" stroke-width="0.31" stroke-miterlimit="10"/>
<path id="Vector_6" d="M160.492 91.0244C159.053 95.8294 158.785 100.907 159.71 105.836" stroke="white" stroke-width="0.31" stroke-miterlimit="10"/>
<path id="Vector_7" d="M170.229 107.851C172.339 103.743 179.025 100.474 182.561 97.5713" stroke="white" stroke-width="0.31" stroke-miterlimit="10"/>
<path id="Vector_8" d="M160.67 127.916C163.067 123.7 167.327 122.268 171.437 120.016C174.26 118.496 180.728 111.919 181.996 111.998" stroke="white" stroke-width="0.31" stroke-miterlimit="10"/>
<path id="Vector_9" d="M150.29 156.098C155.633 150.14 162.055 145.239 169.219 141.652" stroke="white" stroke-width="0.31" stroke-miterlimit="10"/>
<g id="Vector_10" style="mix-blend-mode:multiply">
<path d="M124.824 199.043C127.657 196.318 129.519 192.19 131.351 188.764C133.927 183.935 133.778 178.721 135.829 173.715C139.179 165.322 144.989 158.131 152.499 153.077C159.214 148.712 165.148 144.644 173.21 143.35C176.238 143.001 179.224 142.356 182.125 141.425C185.245 140.279 186.949 138.462 189.484 136.764C189.893 136.385 190.252 135.957 190.554 135.49C191.772 139.312 190.247 144.466 189.564 148.327C188.88 152.188 188.573 156.79 186.899 160.453C182.294 169.96 174.778 177.761 165.435 182.731C158.663 186.316 151.611 189.348 144.347 191.795C139.186 193.573 133.739 194.531 128.796 196.812C127.518 197.404 125.389 199.182 124.358 198.787" fill="#D8DFF4"/>
</g>
<path id="Vector_11" d="M185.998 143.558C183.898 148.051 181.204 150.628 177.41 153.6C171.299 158.379 165.237 162.922 159.581 168.412C154.559 173.349 149.606 178.287 144.614 183.224C142.504 185.308 140.434 187.5 138.453 189.702C137.076 191.232 136.185 194.007 134.63 195.133" stroke="white" stroke-width="0.21" stroke-miterlimit="10"/>
<path id="Vector_12" d="M147.695 162.23C145.842 167.078 145.022 172.257 145.288 177.437" stroke="white" stroke-width="0.21" stroke-miterlimit="10"/>
<path id="Vector_13" d="M163.216 150.52C159.066 154.045 159.502 159.565 157.719 163.929" stroke="white" stroke-width="0.21" stroke-miterlimit="10"/>
<path id="Vector_14" d="M174.013 147.586C171.804 149.915 170.163 152.719 169.219 155.782" stroke="white" stroke-width="0.21" stroke-miterlimit="10"/>
<path id="Vector_15" d="M174.577 159.574C176.974 157.777 181.709 157.599 184.561 156.859" stroke="white" stroke-width="0.21" stroke-miterlimit="10"/>
<path id="Vector_16" d="M163.286 168.521C165.881 166.744 168.714 167 171.685 166.783C173.726 166.635 179.302 164.542 179.996 164.907" stroke="white" stroke-width="0.21" stroke-miterlimit="10"/>
<path id="Vector_17" d="M149.161 181.881C153.894 179.86 158.954 178.706 164.098 178.475" stroke="white" stroke-width="0.21" stroke-miterlimit="10"/>
<path id="Vector_18" d="M171.279 27.2046H53.8936V110.033H171.279V27.2046Z" fill="white"/>
<path id="Vector_19" d="M172.517 20.8257H52.6553V30.7497H172.517V20.8257Z" fill="#37455A"/>
<path id="Vector_20" d="M172.348 30.7495H52.6553V38.7677H172.348V30.7495Z" fill="#D8DFF4"/>
<path id="Vector_21" d="M53.418 33.7417H172.348" stroke="white" stroke-width="0.23" stroke-miterlimit="10"/>
<path id="Vector_22" d="M144.119 43.4487H121.793V75.8672H144.119V43.4487Z" fill="#F2F5FC"/>
<path id="Vector_23" d="M134.353 46.9641C134.355 47.2418 134.274 47.5139 134.12 47.7458C133.967 47.9777 133.748 48.1589 133.491 48.2666C133.234 48.3742 132.951 48.4034 132.678 48.3504C132.404 48.2974 132.153 48.1647 131.955 47.969C131.757 47.7733 131.622 47.5235 131.567 47.2512C131.512 46.9789 131.54 46.6965 131.646 46.4397C131.752 46.1829 131.932 45.9633 132.164 45.8088C132.395 45.6543 132.667 45.5718 132.946 45.5718C133.317 45.5718 133.674 45.7181 133.937 45.979C134.201 46.2398 134.35 46.5939 134.353 46.9641Z" fill="#37455A"/>
<path id="Vector_24" d="M143.039 51.2197H122.863V52.2072H143.039V51.2197Z" fill="#D8DFF4"/>
<path id="Vector_25" d="M142.287 54.291H123.625V55.8413H142.287V54.291Z" fill="#D8DFF4"/>
<path id="Vector_26" d="M142.524 61.0454H123.378V62.1612H142.524V61.0454Z" fill="#D8DFF4"/>
<path id="Vector_27" d="M141.494 64.7285H124.408V66.2393H141.494V64.7285Z" fill="#D8DFF4"/>
<path id="Vector_28" d="M138.859 71.1865H127.042V72.7171H138.859V71.1865Z" fill="#D8DFF4"/>
<g id="Group_2" opacity="0.4">
<path id="Vector_29" d="M155.966 50.1733H148.913V56.4832H155.966V50.1733Z" fill="#37455A"/>
<path id="Vector_30" d="M155.966 58.8628H148.913V65.1727H155.966V58.8628Z" fill="#6E80B4"/>
<path id="Vector_31" d="M155.936 67.5625H148.883V73.8724H155.936V67.5625Z" fill="#D8DFF4"/>
</g>
<path id="Vector_32" d="M138.255 81.2588H131.203V87.5687H138.255V81.2588Z" fill="#37455A"/>
<path id="Vector_33" d="M138.255 89.958H131.203V96.2679H138.255V89.958Z" fill="#6E80B4"/>
<path id="Vector_34" d="M138.225 98.6577H131.173V104.968H138.225V98.6577Z" fill="#D8DFF4"/>
<g id="Group_3" opacity="0.9">
<path id="Vector_35" d="M147.556 81.397H140.503V87.7069H147.556V81.397Z" fill="#37455A"/>
<path id="Vector_36" d="M147.556 90.0864H140.503V96.3963H147.556V90.0864Z" fill="#6E80B4"/>
<path id="Vector_37" d="M147.536 98.7861H140.484V105.096H147.536V98.7861Z" fill="#D8DFF4"/>
</g>
<g id="Group_4" opacity="0.8">
<path id="Vector_38" d="M156.906 81.397H149.854V87.7069H156.906V81.397Z" fill="#37455A"/>
<path id="Vector_39" d="M156.906 90.0864H149.854V96.3963H156.906V90.0864Z" fill="#6E80B4"/>
<path id="Vector_40" d="M156.877 98.7861H149.824V105.096H156.877V98.7861Z" fill="#D8DFF4"/>
</g>
<path id="Vector_41" d="M27.9326 126.997L26.8862 197.306L30.2932 197.357L31.3396 127.047L27.9326 126.997Z" fill="#12121C"/>
<path id="Vector_42" d="M125.217 128.474L124.121 198.783L127.528 198.835L128.624 128.527L125.217 128.474Z" fill="#12121C"/>
<path id="Vector_43" d="M137.909 143.113L15.4419 141.247L21.5038 106.271L129.707 107.15L137.909 143.113Z" fill="#6E80B4"/>
<path id="Vector_44" d="M52.2095 116.402L45.791 133.742L108.173 134.7L100.725 117.143L52.2095 116.402Z" fill="#12121C"/>
<path id="Vector_45" d="M55.2107 118.822L51.9321 130.513L101.913 131.274L97.2777 119.434L55.2107 118.822Z" fill="#37455A"/>
<g id="Vector_46" style="mix-blend-mode:multiply" opacity="0.2">
<path d="M129.826 132.478C124.14 128.084 117.692 124.519 110.382 123.966C103.577 123.443 96.7627 124.618 89.9877 125.092C78.3294 125.922 64.2344 126.751 53.943 120.096C50.6941 117.982 47.0094 115 46.8708 110.754C46.7937 109.221 47.2639 107.709 48.1981 106.488L21.5038 106.311L15.4419 141.277L137.899 143.153L137.146 139.884C135.045 137.104 132.584 134.613 129.826 132.478Z" fill="#6E80B4"/>
</g>
<path id="Vector_47" d="M70.9396 85.5015L70.5913 107.855L83.8031 108.06L84.1514 85.7061L70.9396 85.5015Z" fill="#37455A"/>
<path id="Vector_48" d="M40.0296 45.901L39.3032 93.0469L115.554 94.2145L116.28 47.0686L40.0296 45.901Z" fill="#37455A"/>
<path id="Vector_49" d="M43.0105 47.9318L42.3647 89.8447L112.594 90.9201L113.239 49.0072L43.0105 47.9318Z" fill="#6E80B4"/>
<path id="Vector_50" d="M56.9936 104.79L56.8945 111.515C56.8945 112.7 58.3407 113.677 60.1632 113.707L94.0486 114.22C95.8711 114.22 97.3668 113.312 97.3767 112.137L97.4856 105.412L56.9936 104.79Z" fill="#37455A"/>
<path id="Vector_51" d="M92.9692 88.8816H58.8164L59.2423 51.9307L93.722 52.454L92.9692 88.8816Z" fill="#FAA53C"/>
<path id="Vector_52" d="M63.9868 72.5097C64.4325 74.0007 65.8687 74.9092 66.9583 75.9065C68.0478 76.9039 68.0478 77.7531 68.4341 79.1553C68.5881 79.9381 68.9427 80.6678 69.4635 81.2734C69.9842 81.879 70.6533 82.34 71.4057 82.6114C74.1296 83.2434 75.3677 80.6365 75.655 78.2962C75.863 76.4891 75.655 74.6228 76.7247 73.0528C77.3484 72.1763 78.1811 71.4682 79.1477 70.9924C80.1143 70.5167 81.1844 70.2881 82.2617 70.3274C83.7276 70.3274 85.0747 70.3274 86.1048 69.1226C87.135 67.9179 88.4523 64.9457 87.4618 63.1386C86.9457 62.4769 86.3935 61.844 85.8077 61.2427C85.3719 60.6206 85.3917 59.8602 85.0846 59.3369C84.0941 57.6582 80.6372 59.0604 79.2505 59.5936C77.3884 60.3145 75.6352 61.4895 73.7235 62.0623C72.099 62.556 71.4156 60.9761 69.9694 61.3414C61.3619 63.4743 63.2934 70.1891 63.9868 72.5097Z" fill="#D8DFF4"/>
<path id="Vector_53" d="M75.7342 76.0351C77.3289 77.0818 79.4189 77.0226 81.2117 77.5361C82.856 78.01 83.8069 80.0541 85.4709 80.1133C87.4519 80.1923 88.4425 78.2865 88.7693 76.5585C89.167 75.0104 89.7489 73.5153 90.5027 72.105C91.1664 70.6238 91.1763 69.0636 89.8787 67.9774C88.6586 67.0764 87.3269 66.3362 85.9166 65.7753C79.4981 62.7932 66.1758 69.7746 75.7342 76.0351Z" fill="#6E80B4"/>
<path id="Vector_54" d="M63.3232 82.2262C63.8185 79.7378 65.6212 76.7952 68.3847 76.2323C71.5742 75.5806 74.6646 76.5384 77.755 75.1165C79.9054 74.2065 81.7545 72.7099 83.0897 70.7989C84.4249 68.8878 85.1919 66.6399 85.3027 64.3136C85.4017 62.2202 84.9263 60.1564 86.2932 58.3888C86.4715 58.1518 87.2837 57.194 87.0658 57.6087" stroke="white" stroke-width="0.77" stroke-miterlimit="10"/>
<path id="Vector_55" d="M64.3633 83.5991C65.1359 77.1115 71.9902 77.8422 76.4574 77.4768C80.2412 77.1609 84.6291 74.5144 86.0059 70.7127C86.8343 68.4558 87.1719 66.0492 86.9964 63.6523C86.838 61.1639 87.7096 59.7617 88.7199 57.7275" stroke="white" stroke-width="0.77" stroke-miterlimit="10"/>
<path id="Vector_56" d="M65.0171 69.9124C65.1756 70.5938 66.1067 70.574 66.0076 69.8532C65.9085 69.1323 64.7992 69.4088 65.2449 70.2086" stroke="white" stroke-width="0.52" stroke-miterlimit="10"/>
<path id="Vector_57" d="M65.5518 65.548C65.3438 66.1998 66.1064 66.6342 66.4729 66.0023C66.9385 65.2024 65.9777 65.0148 65.4824 65.2419C65.5111 65.4962 65.5744 65.7453 65.6706 65.9825" stroke="white" stroke-width="0.52" stroke-miterlimit="10"/>
<path id="Vector_58" d="M66.9384 67.7404C66.5719 68.5501 67.8596 69.3302 68.0081 68.3724C68.1369 67.5824 66.6512 67.2961 67.1266 68.3724" stroke="white" stroke-width="0.52" stroke-miterlimit="10"/>
<path id="Vector_59" d="M68.0577 64.2545C67.9487 65.0247 68.8798 66.0319 69.2265 64.9556C69.5236 64.0471 67.8298 63.4151 68.0477 64.61" stroke="white" stroke-width="0.52" stroke-miterlimit="10"/>
<path id="Vector_60" d="M82.7666 81.081C82.7669 81.1864 82.7909 81.2903 82.837 81.3851C82.8831 81.4799 82.9501 81.5631 83.0329 81.6286C83.1157 81.6941 83.2122 81.7401 83.3153 81.7633C83.4184 81.7864 83.5254 81.7861 83.6283 81.7624C83.8264 81.2686 83.6283 80.7749 83.1133 80.7749C83.0397 80.8837 82.9909 81.0073 82.9704 81.137C82.9498 81.2667 82.9581 81.3992 82.9944 81.5254" stroke="white" stroke-width="0.52" stroke-miterlimit="10"/>
<path id="Vector_61" d="M84.6489 76.0942C83.8268 76.6966 84.9857 78.0692 85.4413 77.0817C85.4621 77.0169 85.4699 76.9486 85.4643 76.8807C85.4586 76.8129 85.4396 76.7468 85.4083 76.6863C85.3771 76.6258 85.3341 76.572 85.282 76.528C85.2299 76.484 85.1696 76.4507 85.1045 76.43C85.0395 76.4092 84.971 76.4014 84.903 76.4071C84.8349 76.4127 84.7686 76.4317 84.7079 76.4629C84.6472 76.494 84.5933 76.5368 84.5492 76.5888C84.505 76.6408 84.4716 76.7009 84.4508 76.7657" stroke="white" stroke-width="0.52" stroke-miterlimit="10"/>
<path id="Vector_62" d="M86.1048 79.2046C85.6194 80.1032 86.8278 81.5548 87.3231 80.4784C87.8184 79.4021 86.5505 79.1157 85.9463 79.3823C85.9512 79.6135 86.0473 79.8335 86.2137 79.9946" stroke="white" stroke-width="0.52" stroke-miterlimit="10"/>
<path id="Vector_63" d="M87.2342 73.8524C87.1748 74.198 87.5215 75.2941 87.8979 74.6029C88.1554 74.1289 87.6998 73.4673 87.2441 73.8425C87.2441 74.0697 87.3828 73.9808 87.4026 74.04" stroke="white" stroke-width="0.52" stroke-miterlimit="10"/>
<g id="Vector_64" style="mix-blend-mode:multiply" opacity="0.2">
<path d="M101.309 83.5988C98.6347 80.9622 96.1188 77.9307 92.8501 75.9953C89.2645 73.8722 85.243 73.0329 81.2116 72.1541C77.3883 71.295 73.3965 70.3667 70.0189 68.2634C67.021 66.2553 64.4189 63.7148 62.3424 60.7686C59.6383 57.2631 56.9342 53.9254 53.0316 51.6938C50.7337 50.3706 48.3465 49.235 46.0089 47.9908L43.0374 47.9414L42.3936 89.8494L112.621 90.9258C108.469 89.1258 104.646 86.6496 101.309 83.5988Z" fill="#6E80B4"/>
</g>
<path id="Vector_65" d="M118.217 128.835C118.199 129.87 117.774 130.857 117.033 131.583C116.292 132.309 115.294 132.715 114.255 132.715C113.208 132.697 112.21 132.266 111.481 131.517C110.751 130.767 110.349 129.76 110.363 128.716L110.422 124.588C110.443 123.546 110.876 122.554 111.628 121.829C112.379 121.104 113.388 120.704 114.434 120.718C115.472 120.736 116.462 121.16 117.19 121.899C117.919 122.637 118.326 123.632 118.326 124.667L118.217 128.835Z" fill="#37455A"/>
<path id="Vector_66" d="M58.8164 50.0352V55.091" stroke="#12121C" stroke-width="0.52" stroke-miterlimit="10"/>
<path id="Vector_67" d="M55.7261 51.9307H60.9659" stroke="#12121C" stroke-width="0.52" stroke-miterlimit="10"/>
<path id="Vector_68" d="M93.7217 50.9634V55.091" stroke="#12121C" stroke-width="0.52" stroke-miterlimit="10"/>
<path id="Vector_69" d="M91.6616 52.4248H95.8812" stroke="#12121C" stroke-width="0.52" stroke-miterlimit="10"/>
<path id="Vector_70" d="M58.3408 86.4526V88.8818" stroke="#12121C" stroke-width="0.52" stroke-miterlimit="10"/>
<path id="Vector_71" d="M56.8945 88.793H60.4009" stroke="#12121C" stroke-width="0.52" stroke-miterlimit="10"/>
<path id="Vector_72" d="M92.8105 87.1733V89.5926" stroke="#12121C" stroke-width="0.52" stroke-miterlimit="10"/>
<path id="Vector_73" d="M90.9482 88.793H95.2372" stroke="#12121C" stroke-width="0.52" stroke-miterlimit="10"/>
<path id="Vector_74" d="M28.3877 122.782C31.1314 131.402 30.6163 138.867 30.9333 147.942C31.822 148.167 32.7509 148.184 33.6473 147.992C35.9453 140.418 35.9651 128.005 30.7847 121.824C30.1677 122.361 29.5048 122.843 28.8037 123.265" fill="#37455A"/>
<path id="Vector_75" d="M16.9573 83.4111C13.2528 85.5736 14.3225 91.0244 14.5602 94.4608C15.0852 100.781 14.7682 107.169 15.4913 113.44C16.6304 123.315 16.1153 129.368 27.4864 130.227C34.0436 130.73 42.1063 132.903 47.8909 128.874C53.6755 124.845 52.784 115.049 52.576 108.631C52.2987 100.109 50.4761 87.3214 41.6804 83.6678C41.72 83.6777 26.7831 77.6739 16.9573 83.4111Z" fill="#37455A"/>
<path id="Vector_76" d="M23.4058 84.6655C31.211 84.9124 40.0959 86.6405 43.4834 94.5402C45.5437 99.3096 48.9312 118.338 46.0488 121.666" stroke="#6E80B4" stroke-width="1.03" stroke-miterlimit="10"/>
<path id="Vector_77" d="M64.9077 150.282C64.8483 153.788 61.6589 156.573 57.7761 156.513L24.0195 156C20.1466 155.941 17.0859 153.038 17.0859 149.552C17.1454 146.046 20.3348 143.252 24.2176 143.311L57.9742 143.834C61.857 143.894 64.9573 146.797 64.9077 150.282Z" fill="#37455A"/>
<path id="Vector_78" d="M36.0018 155.537L35.4761 189.66L41.0322 189.745L41.5579 155.622L36.0018 155.537Z" fill="#37455A"/>
<path id="Vector_79" d="M21.3049 188.489L21.2612 191.323L53.9739 191.824L54.0176 188.99L21.3049 188.489Z" fill="#37455A"/>
<path id="Vector_80" d="M21.3112 188.471L21.2021 195.551L24.9755 195.609L25.0846 188.529L21.3112 188.471Z" fill="#37455A"/>
<path id="Vector_81" d="M50.9582 188.917L50.8516 195.996L55.1103 196.06L55.2169 188.981L50.9582 188.917Z" fill="#37455A"/>
<path id="Vector_82" d="M27.2982 196.604C27.2844 197.438 27.0232 198.248 26.5475 198.934C26.0719 199.619 25.4031 200.149 24.6257 200.455C23.8484 200.762 22.9972 200.832 22.1799 200.657C21.3625 200.482 20.6156 200.069 20.0335 199.471C19.4514 198.872 19.0602 198.116 18.9093 197.296C18.7584 196.476 18.8546 195.63 19.1858 194.865C19.5169 194.099 20.0682 193.449 20.7699 192.996C21.4715 192.543 22.2922 192.307 23.1282 192.319C23.6845 192.326 24.2338 192.444 24.7446 192.663C25.2554 192.883 25.7178 193.201 26.1051 193.599C26.4925 193.997 26.7973 194.467 27.002 194.983C27.2067 195.499 27.3074 196.05 27.2982 196.604Z" fill="#37455A"/>
<g id="Vector_83" style="mix-blend-mode:multiply" opacity="0.4">
<path d="M24.7133 192.654C25.3021 192.902 25.8269 193.28 26.2479 193.759C26.6689 194.238 26.9753 194.806 27.1438 195.421C27.3124 196.035 27.3387 196.68 27.2208 197.306C27.1029 197.932 26.8439 198.524 26.4633 199.036C26.0827 199.547 25.5905 199.966 25.0238 200.261C24.4571 200.555 23.8307 200.717 23.1919 200.735C22.5531 200.753 21.9186 200.626 21.3362 200.364C20.7538 200.101 20.2388 199.711 19.8301 199.221C20.3947 199.053 25.2184 195.123 24.7133 192.654Z" fill="#6E80B4"/>
</g>
<path id="Vector_84" d="M57.6771 197.069C57.6633 197.902 57.4021 198.713 56.9265 199.398C56.4508 200.084 55.782 200.613 55.0047 200.92C54.2273 201.226 53.3762 201.297 52.5588 201.121C51.7414 200.946 50.9945 200.533 50.4124 199.935C49.8303 199.337 49.4391 198.58 49.2882 197.76C49.1373 196.94 49.2335 196.094 49.5647 195.329C49.8958 194.564 50.4471 193.913 51.1488 193.46C51.8505 193.007 52.6711 192.772 53.5071 192.783C54.0634 192.791 54.6127 192.908 55.1235 193.128C55.6343 193.347 56.0967 193.665 56.484 194.063C56.8714 194.461 57.1762 194.932 57.3809 195.448C57.5856 195.963 57.6863 196.514 57.6771 197.069Z" fill="#37455A"/>
<g id="Vector_85" style="mix-blend-mode:multiply" opacity="0.4">
<path d="M55.0922 193.128C55.6831 193.375 56.2101 193.752 56.6331 194.231C57.0562 194.71 57.3642 195.28 57.5339 195.895C57.7036 196.511 57.7304 197.157 57.6125 197.785C57.4945 198.412 57.2348 199.005 56.853 199.517C56.4712 200.03 55.9773 200.449 55.4089 200.743C54.8404 201.038 54.2122 201.199 53.572 201.215C52.9317 201.231 52.2962 201.102 51.7135 200.837C51.1308 200.572 50.6163 200.178 50.209 199.685C50.7736 199.517 55.6271 195.587 55.0922 193.128Z" fill="#6E80B4"/>
</g>
<g id="Vector_86" style="mix-blend-mode:multiply" opacity="0.2">
<path d="M40.472 131.224C42.2423 128.858 43.5433 126.177 44.3052 123.324C44.9788 120.204 43.9784 116.847 43.1463 113.835C42.4233 111.198 41.7993 108.512 41.0366 105.886C37.7382 94.6583 30.032 84.9515 17.72 83.7172C17.6058 83.707 17.4986 83.6585 17.4158 83.5795C17.333 83.5006 17.2796 83.3959 17.2643 83.2827L16.9573 83.4407C13.2528 85.5736 14.3225 91.0244 14.5602 94.4608C15.0852 100.781 14.7682 107.169 15.4913 113.44C16.6304 123.315 16.1153 129.368 27.4864 130.227C31.5376 130.553 36.1633 131.491 40.472 131.224Z" fill="#6E80B4"/>
</g>
<path id="Vector_87" d="M31.4189 142.847C32.2267 143.005 33.0577 143.005 33.8655 142.847" stroke="#6E80B4" stroke-width="1.03" stroke-miterlimit="10"/>
<path id="Vector_88" d="M31.4487 140.872C32.1596 141.026 32.8988 140.985 33.5882 140.753" stroke="#6E80B4" stroke-width="1.03" stroke-miterlimit="10"/>
<path id="Vector_89" d="M31.478 138.69C32.3893 138.759 33.0628 138.393 33.9246 138.423" stroke="#6E80B4" stroke-width="1.03" stroke-miterlimit="10"/>
<path id="Vector_90" d="M31.3594 136.705C32.1315 136.673 32.8998 136.58 33.6574 136.428" stroke="#6E80B4" stroke-width="1.03" stroke-miterlimit="10"/>
<path id="Vector_91" d="M31.082 134.562C31.8982 134.655 32.7241 134.619 33.5286 134.453" stroke="#6E80B4" stroke-width="1.03" stroke-miterlimit="10"/>
<path id="Vector_92" d="M31.1611 132.577C32.013 132.508 32.7658 132.765 33.6077 132.775" stroke="#6E80B4" stroke-width="1.03" stroke-miterlimit="10"/>
<path id="Vector_93" d="M54.9334 84.9222C67.5525 92.7528 88.2244 77.2694 88.2244 77.2694C88.8682 76.7559 93.3751 72.9245 93.3354 74.4156C93.2958 75.9067 91.9982 76.2622 91.9091 76.7559C91.82 77.2496 100.517 74.1589 100.715 75.1858C100.992 76.6473 94.9995 77.5261 95.881 78.1482C96.7626 78.7703 101.765 76.9633 101.913 77.8224C102.151 79.1851 96.1089 79.5109 96.3862 80.0738C96.6636 80.6366 101.507 79.0073 101.735 79.9454C102.062 81.2686 95.4749 81.8413 96.1584 82.3252C96.8418 82.8091 100.358 81.9203 100.358 82.5918C100.358 83.2633 88.3829 84.7939 88.3829 84.7939C88.3829 84.7939 70.1872 103.556 50.1987 92.9898L54.9334 84.9222Z" fill="#FF7875"/>
<path id="Vector_94" d="M40.7397 77.9409C37.3225 81.1798 42.8891 88.566 44.9098 91.2816C47.2402 94.307 50.3093 96.6868 53.8244 98.1938C62.2734 101.857 71.9507 97.5026 80.0828 95.1228C79.6866 90.7977 76.0613 86.7294 75.8236 82.424C69.1575 82.5623 63.3531 84.8137 56.5681 82.7795C54.2701 82.0883 40.4228 75.7882 40.4327 79.2641" fill="#FAA53C"/>
<path id="Vector_95" d="M66.7403 195.104C65.0851 194.721 63.3505 194.873 61.7878 195.538C60.0346 196.2 58.6281 193.267 58.1526 192.477C58.0635 192.309 57.8456 192.358 57.7564 192.566L54.5273 199.992L75.12 206.42C75.3677 206.499 75.6351 206.301 75.7441 205.976L76.2492 204.366C76.2917 204.256 76.3022 204.137 76.2794 204.022C76.2566 203.906 76.2015 203.8 76.1205 203.714L66.7403 195.104Z" fill="#12121C"/>
<path id="Vector_96" d="M57.3208 193.514L59.6782 181.269L69.1574 183.076L66.7405 195.103C65.4491 195.986 63.9364 196.492 62.3724 196.565C60.3419 196.427 57.3208 193.514 57.3208 193.514Z" fill="#FF7875"/>
<path id="Vector_97" d="M84.6486 196.466C82.9461 196.359 81.2544 196.802 79.8248 197.73C78.2004 198.668 76.3184 196.012 75.7241 195.311C75.6052 195.163 75.3972 195.252 75.3477 195.469L73.3667 203.369L94.7518 206.282C94.9994 206.282 95.2372 206.074 95.2867 205.739L95.5442 204.07C95.5677 203.955 95.5588 203.836 95.5186 203.727C95.4784 203.617 95.4084 203.52 95.3164 203.448L84.6486 196.466Z" fill="#12121C"/>
<path id="Vector_98" d="M75.0508 196.476L75.3182 184.004L84.9658 184.212L84.6488 196.466C84.6488 196.466 82.6084 198.441 80.5877 198.639C78.5671 198.836 75.0508 196.476 75.0508 196.476Z" fill="#FF7875"/>
<path id="Vector_99" d="M85.4609 188.873L74.8822 188.606L72.5248 147.379C72.5248 147.379 38.0353 149.503 36.3415 141.079C34.6477 132.656 36.8268 119.553 36.8268 119.553L52.0807 119.681L53.1504 124.135C53.1504 124.135 84.5496 123.819 86.6495 129.309C88.7494 134.799 90.9582 146.718 85.4609 188.873Z" fill="#136C91"/>
<path id="Vector_100" d="M31.1614 116.649C31.1614 116.649 22.8313 132.37 25.3373 140.674C29.0913 153.126 61.897 149.275 61.897 149.275L57.301 187.045L68.0282 190.304C68.0282 190.304 86.1248 140.388 81.0336 132.626C77.0121 126.494 59.9159 126.158 57.7665 125.457C54.6761 124.47 54.379 116.234 54.379 116.234L31.1614 116.649Z" fill="#068AC0"/>
<path id="Vector_101" d="M31.518 130.01C31.518 130.01 30.4284 134.947 33.1523 135.806C35.8762 136.665 71.6633 138.502 72.0793 141.731C72.9609 148.456 63.244 188.221 63.244 188.221" stroke="#37455A" stroke-width="0.52" stroke-miterlimit="10"/>
<path id="Vector_102" d="M24.6933 81.7921C24.6933 81.7921 38.1544 76.0944 43.3942 78.7507C48.0396 81.1008 54.0421 90.7582 54.8643 96.1004C55.6468 101.146 57.7863 123.493 57.7268 125.458L25.1589 127.235C25.1589 127.235 22.3656 88.4673 24.6933 81.7921Z" fill="#CE3D1D"/>
<path id="Vector_103" d="M51.6549 120.274C49.5253 118.417 46.0288 118.299 44.7213 115.563C42.2054 110.3 51.12 106.242 51.9421 101.61C52.3086 99.5269 49.9611 98.2333 48.1088 98.4012C46.4493 98.6646 44.8436 99.1949 43.3544 99.9712C41.73 100.662 39.6598 101.62 38.2434 100.09C36.0742 97.7593 37.5203 92.7035 38.5504 90.2151C40.1551 86.443 42.9384 83.3028 45.2067 79.9158C44.6511 79.4506 44.0467 79.0467 43.4039 78.7111C38.1641 76.0548 24.7031 81.7525 24.7031 81.7525C22.3754 88.4278 25.1686 127.176 25.1686 127.176L53.3685 125.635C53.5789 124.67 53.5314 123.667 53.2306 122.726C52.9299 121.785 52.3865 120.939 51.6549 120.274Z" fill="#F24822"/>
<path id="Vector_104" d="M54.7254 122.397C54.7254 122.397 60.5892 121.567 60.3911 120.422C60.193 119.276 54.5471 120.599 54.5471 120.599C54.5471 120.599 60.9062 118.96 60.3614 117.825C59.8166 116.689 54.7155 119.118 54.141 118.605C53.5665 118.091 60.084 116.452 59.3907 115.445C58.6973 114.438 49.9808 117.37 49.9808 117.37C49.9808 117.37 51.3279 112.097 50.8723 111.831C50.4167 111.564 47.1876 117.173 47.1876 117.173C42.0568 116.887 31.072 114.082 28.1896 110.754C27.4467 109.915 29.299 86.5812 28.3382 84.8433C27.5854 83.4904 24.7426 81.792 24.7426 81.792C14.6692 85.5246 9.88499 121.34 27.5161 122.278C37.4212 122.792 58.8261 123.137 58.8261 123.137C58.6181 121.123 54.7254 122.397 54.7254 122.397Z" fill="#FF7875"/>
<path id="Vector_105" d="M24.1285 80.9033C24.1285 80.9033 8.04265 91.3902 15.3625 113.065C17.0464 118.002 18.334 120.965 22.722 122.14C27.11 123.315 44.741 124.618 44.741 124.618L45.0382 115.919C45.0382 115.919 37.7183 115.099 33.9742 111.683C30.2301 108.266 28.3283 102.331 28.4372 96.6633C28.5462 90.9952 29.7447 88.4574 28.2887 84.8137C26.8326 81.1699 24.1285 80.9033 24.1285 80.9033Z" fill="#FAA53C"/>
<path id="Vector_106" d="M34.4198 73.023L33.2808 79.4021L36.7277 83.4309C37.8668 84.5171 41.2346 86.8772 41.9873 83.4309L41.6209 77.674L35.9254 72.1738C35.5645 72.4154 35.2322 72.697 34.9349 73.0132C34.7566 73.2107 34.4198 73.023 34.4198 73.023Z" fill="#FF7875"/>
<path id="Vector_107" d="M40.0757 61.9439C39.6571 61.824 39.2235 61.7642 38.788 61.7662L38.372 61.8748C33.0332 62.8622 33.152 68.1847 33.0827 69.1327C32.9737 70.8508 35.0637 76.509 37.8173 76.8645C38.0848 76.8645 40.67 78.7802 43.1165 77.0324C44.424 76.0943 45.5037 73.8231 43.8495 66.3579C43.716 65.3371 43.2885 64.3769 42.6187 63.5934C41.9488 62.81 41.0655 62.237 40.0757 61.9439Z" fill="#FF7875"/>
<path id="Vector_108" d="M40.561 67.8784C41.3237 68.9548 44.7311 71.769 41.6209 71.9468" stroke="#12121C" stroke-width="0.26" stroke-miterlimit="10"/>
<path id="Vector_109" d="M39.4422 69.35C39.4114 69.4573 39.3465 69.5517 39.2571 69.6189C39.1677 69.6861 39.0588 69.7224 38.9469 69.7224C38.835 69.7224 38.7261 69.6861 38.6367 69.6189C38.5474 69.5517 38.4824 69.4573 38.4517 69.35C38.4824 69.2427 38.5474 69.1483 38.6367 69.0811C38.7261 69.0139 38.835 68.9775 38.9469 68.9775C39.0588 68.9775 39.1677 69.0139 39.2571 69.0811C39.3465 69.1483 39.4114 69.2427 39.4422 69.35Z" fill="#12121C"/>
<path id="Vector_110" d="M43.3147 67.6018C43.3045 67.7319 43.2441 67.853 43.1462 67.9395C43.0483 68.0261 42.9205 68.0714 42.7897 68.0659C42.6583 68.0659 42.5324 68.0139 42.4395 67.9213C42.3466 67.8287 42.2944 67.7031 42.2944 67.5722C42.2944 67.4412 42.3466 67.3156 42.4395 67.223C42.5324 67.1304 42.6583 67.0784 42.7897 67.0784C42.8601 67.0724 42.9311 67.0818 42.9975 67.106C43.0639 67.1302 43.1243 67.1685 43.1743 67.2184C43.2243 67.2682 43.2627 67.3284 43.287 67.3946C43.3112 67.4608 43.3207 67.5315 43.3147 67.6018Z" fill="#12121C"/>
<path id="Vector_111" d="M36.936 68.994C37.0054 68.2337 38.0553 67.8387 38.6397 67.6313" stroke="#12121C" stroke-width="0.26" stroke-miterlimit="10"/>
<path id="Vector_112" d="M41.3237 66.7231C41.819 65.9825 42.443 66.7231 42.8095 66.6441C42.8095 66.6441 43.0571 66.0516 43.0175 66.022" stroke="#12121C" stroke-width="0.26" stroke-miterlimit="10"/>
<path id="Vector_113" d="M40.6108 73.3587C41.0076 73.5717 41.4549 73.6732 41.9051 73.6523C42.3552 73.6314 42.7912 73.489 43.1664 73.2402" stroke="#12121C" stroke-width="0.26" stroke-miterlimit="10"/>
<path id="Vector_114" d="M42.5918 58.9123C41.4527 58.4087 40.9772 57.5299 39.6797 57.1053C37.976 56.5523 35.4997 55.7426 33.7366 56.3153C32.231 56.7991 31.2504 58.0236 29.933 58.8333C29.6244 58.7878 29.3106 58.7878 29.002 58.8333C27.7332 59.309 26.6785 60.2238 26.0304 61.4106C25.0399 63.3855 26.2483 66.2097 24.931 67.9476C23.8216 69.4091 22.3953 69.5473 21.6623 71.3643C21.475 71.796 21.4066 72.2697 21.4641 72.7366C21.5215 73.2035 21.7028 73.6467 21.9891 74.0205C22.6528 74.929 23.3858 75.2944 23.3065 76.8842C23.1778 77.6599 23.3438 78.4556 23.7721 79.1159C24.5522 80.1574 25.6678 80.9 26.9318 81.2192C27.9223 81.4265 29.2694 82.2066 30.3887 82.098L31.0424 81.9104C31.8612 81.5212 32.5719 80.938 33.1126 80.2119C33.2116 79.9157 33.0531 79.5405 33.2314 79.2245C34.0932 77.5655 34.2219 76.035 34.8063 73.9415C35.4601 71.6901 33.3107 69.7251 33.4394 68.0167C33.4394 68.0167 38.0651 61.5587 39.5707 62.092C39.6598 62.092 39.7094 62.2105 39.8282 62.2203C41.7102 62.3783 43.2257 67.2959 45.4741 64.7285C47.2967 62.4869 44.3747 59.7023 42.5918 58.9123Z" fill="#12121C"/>
<path id="Vector_115" d="M35.351 71.4432C35.3372 71.8038 35.2165 72.1521 35.0043 72.4444C34.7921 72.7366 34.4978 72.9597 34.1586 73.0855C33.8194 73.2112 33.4504 73.234 33.0983 73.151C32.7461 73.068 32.4264 72.8828 32.1796 72.6189C31.9328 72.355 31.77 72.0242 31.7115 71.6681C31.6531 71.3121 31.7018 70.9467 31.8513 70.6182C32.0009 70.2897 32.2447 70.0126 32.552 69.8221C32.8593 69.6315 33.2163 69.5359 33.578 69.5473C34.065 69.5653 34.525 69.7749 34.8572 70.1303C35.1895 70.4856 35.3671 70.9577 35.351 71.4432Z" fill="#FF7875"/>
</g>
</g>
</g>
<defs>
<clipPath id="clip0_81_851">
<rect width="191" height="219" fill="white"/>
</clipPath>
</defs>
</svg>
