<svg width="487" height="420" viewBox="0 0 487 420" fill="none" xmlns="http://www.w3.org/2000/svg">
<g clip-path="url(#clip0_100_557)">
<path opacity="0.49" d="M275.034 413.79H233.81C116.762 413.79 21.9346 324.315 21.9346 213.944V204.244C21.9346 103.663 99.2112 29.1152 199.994 9.02026C336.634 -18.1759 487.061 63.4126 487.061 204.244V213.944C486.985 324.315 392.098 413.79 275.034 413.79Z" fill="#E1E1E1"/>
<path d="M475.012 333.758C473.635 332.017 471.804 330.69 469.721 329.92C464.719 328.091 459.214 328.199 454.287 330.222C449.404 332.264 445.013 335.324 441.408 339.197C430.085 350.786 424.779 367.813 420.244 383.013C419.776 384.615 418.34 387.878 418.43 390.19C420.078 390.19 421.726 390.054 423.374 390.19C424.417 388.8 425.339 387.168 425.943 386.367C435.905 372.588 448.815 361.271 464.839 355.167C469.44 353.237 473.195 349.72 475.42 345.256C476.32 343.619 476.805 341.787 476.834 339.92C476.863 338.053 476.435 336.207 475.587 334.543C475.41 334.271 475.218 334.009 475.012 333.758Z" fill="#83B08B"/>
<path d="M415.861 390.371H416.118C415.483 388.15 415.286 383.451 414.818 381.774C413.519 376.391 411.617 371.17 409.149 366.212C407.23 362.501 404.314 359.398 400.729 357.252C392.007 352.402 376.255 355.213 372.007 365.064C371.261 366.674 370.991 368.465 371.23 370.223C371.468 371.982 372.205 373.636 373.353 374.99C374.574 376.189 376.084 377.053 377.736 377.498C379.951 378.166 382.29 378.311 384.569 377.921C390.117 376.985 396.511 375.323 402.226 376.833C408.484 378.48 412.248 385.264 415.861 390.371Z" fill="#A9D2B2"/>
<path d="M412.595 367.39C413.515 371.083 414.246 374.82 414.787 378.586C415.075 380.46 416.828 387.108 416.707 390.341L418.461 390.235C420.093 387.289 419.7 383.95 420.35 380.611C422.875 367.677 427.259 353.49 424.114 340.375C422.285 332.821 418.204 325.478 411.688 321.187C405.173 316.896 396.027 316.186 389.633 320.658C388.385 321.477 387.349 322.58 386.61 323.876C384.902 327.125 386.247 331.144 388.121 334.256C389.805 336.909 391.897 339.281 394.319 341.282C396.859 343.352 399.731 344.999 402.165 347.205C404.972 349.83 407.219 352.996 408.771 356.512C410.376 360.014 411.656 363.655 412.595 367.39Z" fill="#A9D2B2"/>
<path d="M421.016 389.585C428.846 373.948 436.797 356.678 451.869 346.782C456.052 344.143 460.365 341.717 464.794 339.514" stroke="#282A41" stroke-width="0.25" stroke-miterlimit="10"/>
<path d="M415.407 389.828C411.552 382.092 408.121 373.208 399.776 369.34C394.38 366.877 388.484 367.376 383.269 367.829" stroke="#282A41" stroke-width="0.25" stroke-miterlimit="10"/>
<path d="M405.294 334.937C421.378 348.248 417.387 370.805 417.75 389.601" stroke="#282A41" stroke-width="0.25" stroke-miterlimit="10"/>
<path d="M409.95 390.266H429.3" stroke="#313131" stroke-width="0.25" stroke-miterlimit="10"/>
<path d="M319.265 332.821C317.274 330.561 314.714 328.875 311.852 327.937C308.989 326.999 305.927 326.844 302.984 327.488C291.858 330.313 283.181 343.095 278.556 352.81C272.267 366.061 269.486 380.686 268.276 395.236C268.155 396.838 266.855 403.758 267.853 405.344H270.105C271.224 404.054 272.123 402.589 272.766 401.008C275.932 394.997 279.82 389.396 284.345 384.328C293.204 374.205 303.846 365.864 313.717 356.769C320.202 350.725 326.718 341.146 319.265 332.821Z" fill="#A9D2B2"/>
<path d="M260.778 405.344H262.29C261.035 390.235 250.03 372.799 242.019 360.969C238.33 355.515 233.326 349.789 226.735 349.758C224.616 349.843 222.548 350.436 220.706 351.488C218.864 352.54 217.303 354.019 216.154 355.802C214.609 358.164 213.708 360.888 213.538 363.704C213.368 366.521 213.937 369.333 215.186 371.863C217.726 376.849 222.745 380.143 227.839 382.439C232.933 384.736 238.421 386.08 243.455 388.483C251.149 392.366 256.379 398.364 260.778 405.344Z" fill="#A9D2B2"/>
<path d="M261.247 391.761C262.184 395.901 262.487 399.392 263.394 405.042L266.266 405.344C268.685 390.522 268.473 375.474 272.751 360.758C275.139 352.523 278.919 343.654 277.649 334.891C277.61 333.515 277.298 332.161 276.731 330.907C276.165 329.652 275.354 328.523 274.347 327.584C273.341 326.645 272.157 325.915 270.866 325.437C269.575 324.959 268.201 324.742 266.825 324.798C262.693 324.692 258.66 326.07 255.457 328.681C250.922 332.398 248.912 338.381 248.836 344.168C248.746 351.919 252.056 358.733 254.309 365.94C256.989 374.452 259.302 383.059 261.247 391.761Z" fill="#83B08B"/>
<path d="M268.412 405.359C274.733 381.099 287.407 358.961 305.131 341.222" stroke="#282A41" stroke-width="0.25" stroke-miterlimit="10"/>
<path d="M264.921 405.193C265.958 385.015 265.134 364.784 262.457 344.757" stroke="#282A41" stroke-width="0.25" stroke-miterlimit="10"/>
<path d="M261.565 404.891C260.658 397.337 256.5 390.659 251.799 384.751C247.532 379.328 242.664 374.406 237.287 370.08" stroke="#282A41" stroke-width="0.25" stroke-miterlimit="10"/>
<path d="M255.17 405.344H279.085" stroke="#313131" stroke-width="0.25" stroke-miterlimit="10"/>
<path d="M302.032 322.895C302.032 322.895 290.316 335.586 275.88 335.586C261.443 335.586 249.743 322.849 249.743 322.849C249.743 322.849 261.459 310.143 275.895 310.158C290.332 310.173 302.032 322.895 302.032 322.895Z" stroke="black" stroke-width="0.5" stroke-miterlimit="10" stroke-linecap="round"/>
<path d="M286.477 322.88C286.477 329.905 281.715 335.586 275.895 335.586C270.075 335.586 265.313 329.89 265.313 322.864C265.313 315.839 270.075 310.158 275.895 310.158C281.715 310.158 286.477 315.854 286.477 322.88Z" fill="black"/>
<path d="M262.033 41.4893C261.343 41.1218 260.586 40.8963 259.807 40.8263C259.028 40.7562 258.243 40.843 257.498 41.0814C256.07 41.6284 254.864 42.6324 254.067 43.937L222.17 53.8938L224.74 61.962L256.576 52.0354C257.267 52.4023 258.027 52.6225 258.807 52.6823C259.588 52.7421 260.372 52.6402 261.111 52.3829C262.224 52.0237 263.205 51.3435 263.932 50.4281C264.659 49.5126 265.098 48.4027 265.195 47.2381C265.292 46.0735 265.042 44.9063 264.477 43.8833C263.911 42.8603 263.056 42.0274 262.018 41.4893H262.033ZM261.383 47.5329C261.202 47.9632 260.863 48.3087 260.437 48.4994C260.01 48.6901 259.527 48.7118 259.085 48.5603L259.388 48.651C258.982 48.5937 258.605 48.4069 258.313 48.1184C258.022 47.8298 257.831 47.4549 257.77 47.0494C257.716 46.639 257.799 46.2222 258.007 45.8641C258.215 45.5061 258.536 45.2268 258.919 45.0701C259.21 44.9698 259.52 44.9338 259.826 44.9644H259.917L260.34 45.0701H260.446C260.882 45.2804 261.222 45.649 261.396 46.101C261.57 46.5529 261.566 47.0542 261.383 47.5027V47.5329Z" fill="#7FA4B0"/>
<path d="M224.166 59.4991L256.409 49.4214" stroke="black" stroke-width="0.5" stroke-miterlimit="10"/>
<path d="M223.123 56.3413L255.503 46.2485" stroke="black" stroke-width="0.5" stroke-miterlimit="10"/>
<path d="M218.18 51.9294C216.375 52.496 214.832 53.6895 213.831 55.294C212.83 56.8986 212.437 58.8083 212.723 60.6775L212.904 61.9618L218.452 57.3384L222.14 61.7654L216.502 66.4491L217.62 66.9024C219.382 67.6065 221.338 67.6601 223.135 67.0538C224.933 66.4474 226.456 65.2206 227.431 63.5936C227.516 63.4575 227.591 63.3162 227.658 63.1705C228.142 62.248 228.436 61.2383 228.524 60.2005C228.613 59.1627 228.493 58.1178 228.172 57.1269C227.536 55.1135 226.126 53.435 224.252 52.4603C222.379 51.4856 220.194 51.2947 218.18 51.9294Z" fill="#7FA4B0"/>
<path d="M259.66 50.9778C261.973 50.9778 263.847 49.104 263.847 46.7926C263.847 44.4812 261.973 42.6074 259.66 42.6074C257.347 42.6074 255.473 44.4812 255.473 46.7926C255.473 49.104 257.347 50.9778 259.66 50.9778Z" stroke="black" stroke-width="0.5" stroke-miterlimit="10"/>
<path d="M94.3584 146.886C115.184 138.264 125.074 114.401 116.447 93.586C107.821 72.771 83.9456 62.8864 63.1199 71.5083C42.2942 80.1302 32.4046 103.994 41.0309 124.809C49.6572 145.624 73.5327 155.508 94.3584 146.886Z" fill="#DD5050"/>
<path d="M90.627 137.883C106.478 131.32 114.005 113.158 107.439 97.3152C100.874 81.4726 82.7017 73.9494 66.851 80.5116C51.0004 87.0738 43.4733 105.236 50.0389 121.079C56.6044 136.922 74.7764 144.445 90.627 137.883Z" fill="white"/>
<path d="M99.4379 109.193C99.4379 113.287 98.2232 117.289 95.9476 120.693C93.672 124.097 90.4375 126.75 86.6533 128.317C82.869 129.883 78.705 130.293 74.6877 129.495C70.6704 128.696 66.9802 126.724 64.0839 123.83C61.1875 120.935 59.2151 117.246 58.416 113.231C57.6169 109.216 58.027 105.054 59.5945 101.272C61.162 97.4894 63.8164 94.2566 67.2222 91.9821C70.6279 89.7077 74.632 88.4937 78.728 88.4937C81.4482 88.4917 84.1421 89.0257 86.6557 90.0652C89.1692 91.1048 91.4531 92.6294 93.3765 94.5519C95.3 96.4744 96.8254 98.7571 97.8654 101.269C98.9055 103.782 99.4399 106.474 99.4379 109.193Z" fill="#DD5050"/>
<path d="M90.4888 109.193C90.4888 111.518 89.7991 113.79 88.5068 115.723C87.2145 117.657 85.3778 119.163 83.2288 120.053C81.0798 120.943 78.715 121.175 76.4336 120.722C74.1523 120.268 72.0567 119.149 70.412 117.505C68.7672 115.861 67.6471 113.766 67.1933 111.486C66.7395 109.206 66.9723 106.842 67.8625 104.694C68.7526 102.547 70.2601 100.711 72.1941 99.419C74.1282 98.1274 76.402 97.438 78.7281 97.438C80.2731 97.436 81.8033 97.7387 83.2311 98.3287C84.6589 98.9188 85.9562 99.7846 87.0486 100.876C88.1411 101.968 89.0073 103.265 89.5976 104.692C90.188 106.119 90.4908 107.649 90.4888 109.193Z" fill="white"/>
<path d="M83.7163 109.193C83.7163 110.179 83.4237 111.143 82.8755 111.963C82.3274 112.783 81.5484 113.422 80.6368 113.799C79.7253 114.177 78.7222 114.276 77.7546 114.083C76.7869 113.891 75.898 113.416 75.2004 112.719C74.5027 112.021 74.0276 111.133 73.8351 110.166C73.6426 109.199 73.7414 108.196 74.1189 107.285C74.4965 106.374 75.1359 105.595 75.9563 105.047C76.7767 104.499 77.7411 104.207 78.7278 104.207C80.0508 104.207 81.3196 104.732 82.2551 105.667C83.1907 106.602 83.7163 107.871 83.7163 109.193Z" fill="#DD5050"/>
<path d="M129.051 77.8264L133.828 78.3099L144.667 72.085L136.443 73.2786L129.051 77.8264Z" fill="#7FA4B0"/>
<path d="M129.036 77.8263L130.759 73.3389L141.19 66.4644L136.443 73.2634L129.036 77.8263Z" fill="#7FA4B0"/>
<path d="M136.443 73.2637L80.4512 107.788" stroke="#313131" stroke-miterlimit="10" stroke-linecap="round"/>
<path d="M82.1592 102.243L77.3975 110.114L86.5582 109.374L82.1592 102.243Z" fill="black"/>
<path d="M129.036 77.8263L130.759 73.3389L141.19 66.4644L136.443 73.2634L129.036 77.8263Z" fill="#7FA4B0"/>
<path d="M45.864 140.559C45.5768 140.076 45.229 139.592 44.9418 139.048C43.9455 137.464 43.3875 135.645 43.3244 133.775C43.2443 133.119 43.4232 132.458 43.8232 131.932C45.3348 130.421 47.3756 134.213 47.9651 135.18C48.5547 136.147 49.3861 137.235 50.0815 138.293C50.9734 139.668 52.4851 140.68 52.9083 142.327C53.0778 143.236 53.0364 144.171 52.7874 145.062C52.3576 146.955 51.7189 148.794 50.8827 150.546C50.5249 151.301 49.9598 151.939 49.2532 152.386C48.5467 152.833 47.7279 153.07 46.8919 153.069C46.2493 152.932 45.6609 152.61 45.1989 152.143C44.737 151.676 44.4217 151.084 44.2918 150.44C44.1748 149.482 44.3049 148.509 44.6697 147.615C44.9426 146.502 45.3381 145.423 45.8489 144.397C46.1483 143.886 46.3627 143.33 46.4837 142.75C46.5268 141.971 46.3087 141.2 45.864 140.559Z" fill="#DB9D90"/>
<path d="M111.833 132.007C110.926 133.589 109.829 135.056 108.568 136.374C107.254 137.55 106.073 138.868 105.046 140.302C104.578 141.241 104.33 142.275 104.321 143.324C104.075 145.954 104.172 148.605 104.608 151.211C104.691 151.858 104.982 152.462 105.437 152.93C105.892 153.399 106.487 153.707 107.132 153.81C108.402 153.915 109.294 152.616 109.717 151.422C110.306 149.731 110.502 147.928 110.292 146.149C109.989 143.671 108.976 140.891 110.443 138.882C110.839 138.413 111.263 137.969 111.713 137.552C113.066 136.247 113.935 134.521 114.177 132.657C114.249 132.302 114.239 131.934 114.147 131.583C114.056 131.232 113.885 130.907 113.647 130.632C113.492 130.486 113.287 130.405 113.073 130.406C112.695 130.406 112.484 130.829 112.302 131.176C112.159 131.461 112.003 131.738 111.833 132.007Z" fill="#DB9D90"/>
<path d="M37.6406 154.671C38.6685 151.528 39.8173 147.555 42.6744 145.605C43.1382 145.369 43.645 145.228 44.1645 145.192C44.684 145.155 45.2055 145.224 45.6977 145.394C46.8104 145.647 47.906 145.97 48.9781 146.361C49.8769 146.552 50.7462 146.862 51.563 147.283C52.0678 147.676 52.4779 148.177 52.7631 148.75C53.0483 149.323 53.2012 149.952 53.2108 150.591C53.1304 151.736 52.9637 152.872 52.7119 153.991C52.6212 154.958 52.6061 155.925 52.4549 156.907C52.0921 159.204 51.5933 161.44 51.0642 163.721C50.4596 166.35 49.5525 168.994 49.2502 171.684C49.0455 172.562 49.1033 173.482 49.4165 174.328C49.7255 174.883 50.1479 175.367 50.656 175.748L50.9433 176.005C56.1214 180.426 61.8848 184.112 68.0705 186.959C74.1172 189.754 78.7278 191.491 75.6289 199.258C73.573 204.395 70.1717 207.205 64.246 206.283C60.676 205.543 57.3054 204.049 54.3597 201.902C44.2919 195.299 31.8962 182.018 34.1032 169.1C34.9411 164.213 36.1232 159.391 37.6406 154.671Z" fill="#EBB04B"/>
<path d="M47.3004 350.68C47.3004 353.037 45.4863 374.673 45.4863 374.673L59.7262 375.262L62.7496 350.876L47.3004 350.68Z" fill="#DB9D90"/>
<path d="M28.8123 383.3C31.0345 378.994 36.3707 376.395 40.6336 374.824C41.7989 374.419 42.9268 373.913 44.0046 373.313C44.6293 372.814 45.2109 372.263 45.7431 371.666C48.1444 372.534 50.6607 373.043 53.2107 373.177C55.306 373.225 57.4021 373.129 59.4842 372.89C59.6656 372.89 59.847 372.89 60.0132 372.799C60.1795 372.709 60.24 372.89 60.24 372.95C60.2272 374.882 60.4044 376.81 60.7691 378.707C61.011 380.218 61.2377 382.877 60.1795 383.602C59.4476 383.957 58.6274 384.088 57.8213 383.98C50.7013 383.98 43.5965 383.859 36.5219 383.859C35.2219 383.859 30.3694 383.859 29.2508 383.965C29.171 383.967 29.092 383.949 29.0212 383.912C28.9505 383.875 28.8903 383.821 28.8464 383.754C28.8025 383.688 28.7763 383.611 28.7704 383.532C28.7644 383.452 28.7788 383.372 28.8123 383.3Z" fill="black"/>
<path d="M79.6802 241.926C79.1209 236.955 77.2918 232.029 73.8452 229.113C71.1241 226.832 69.0229 210.816 65.9542 214.004C63.9739 216.029 59.9075 233.857 59.5598 236.441C57.8517 247.924 54.8736 259.316 52.9236 270.784C49.9002 288.502 47.5017 306.31 45.728 324.209C45.0024 331.461 44.5943 338.548 43.2187 345.649C42.4477 349.562 40.8755 357.328 45.8943 359.247C48.3734 360.169 68.902 362.269 69.4915 359.247C69.4915 359.051 69.4915 358.854 69.5974 358.658C73.1649 333.985 76.0522 307.71 78.3499 283.43C79.1249 276.34 79.5235 269.213 79.5441 262.081C79.4685 255.403 80.4058 248.468 79.6802 241.926Z" fill="#DD5050"/>
<path d="M118.016 346.087C118.424 348.308 121.04 372.981 121.04 372.981L107.888 376.516L103.353 353.974L118.016 346.087Z" fill="#DB9D90"/>
<path d="M118.968 356.769L120.042 356.165C122.158 354.971 124.985 353.959 125.574 351.949C126.164 349.94 124.335 345.377 123.775 343.231C118.686 323.308 113.587 303.384 108.477 283.46C105.907 273.387 103.328 263.315 100.738 253.242C98.9236 246.096 97.5782 237.544 92.4083 231.848C91.2849 230.681 90.0146 229.665 88.6291 228.826C85.6057 226.862 82.0382 225.034 78.637 226.152C71.2147 228.599 69.4611 240.263 69.5669 246.806C69.8372 247.762 70.1913 248.692 70.6251 249.586C71.2147 250.779 71.8344 251.943 72.3484 253.167C72.4882 253.238 72.62 253.324 72.7414 253.423C72.9804 253.756 73.1493 254.134 73.2376 254.534C73.326 254.934 73.332 255.348 73.2554 255.75C73.981 260.404 76.0822 268.336 76.1275 268.502C78.002 275.588 79.423 282.826 81.5998 289.836C83.3684 295.502 83.5347 301.334 85.1069 307.106C89.5713 323.524 94.0359 339.948 98.5003 356.376C98.6752 357.298 99.052 358.17 99.6038 358.93C100.487 359.824 101.65 360.389 102.899 360.531C108.583 361.559 114.146 359.443 118.968 356.769Z" fill="#DD5050"/>
<path d="M96.8074 234.749C95.7733 230.598 95.1355 226.358 94.9027 222.087C94.759 217.256 94.9408 212.42 95.4469 207.613C95.8248 203.08 96.9585 197.58 94.8421 193.169C92.0304 187.276 86.014 186.853 80.2243 186.672C74.5687 186.404 68.9023 186.877 63.3691 188.077C62.2359 188.265 61.1606 188.71 60.2249 189.376C59.126 190.426 58.4125 191.815 58.1993 193.32C57.481 197.412 57.5272 201.603 58.3353 205.679C59.0458 209.229 58.9551 212.689 59.3633 216.255C59.5144 217.63 59.7563 218.99 59.8016 220.365C59.8321 221.747 59.7715 223.13 59.6202 224.505C59.4158 228.001 58.8639 231.468 57.9726 234.854C70.8671 235.005 83.9128 234.749 96.8074 234.749Z" fill="#EBB04B"/>
<path d="M101.917 168.904C101.662 171.223 101.103 173.499 100.254 175.672C99.2934 177.928 97.8822 179.964 96.1069 181.655C94.3315 183.346 92.2293 184.657 89.9292 185.508C87.2687 186.475 84.4116 186.793 81.7058 187.639C80.3243 187.974 79.0246 188.585 77.8844 189.434C76.7442 190.283 75.7869 191.352 75.0696 192.579C74.5031 193.965 74.2961 195.472 74.4678 196.959C74.6396 198.446 75.1846 199.865 76.0521 201.086C83.6105 212.674 95.4469 203.458 103.837 197.898C106.648 196.274 109.147 194.161 111.214 191.658C113.253 188.461 114.545 184.846 114.993 181.081C116.406 173.31 117.194 165.438 117.351 157.542C117.605 154.018 117.153 150.478 116.021 147.131C115.559 145.794 114.699 144.629 113.557 143.792C112.876 143.402 112.122 143.156 111.342 143.067C110.562 142.979 109.773 143.051 109.022 143.279C99.9516 145.787 102.975 158.101 102.355 165.021C102.204 166.35 102.053 167.634 101.917 168.904Z" fill="#EBB04B"/>
<path d="M133.601 374.749C130.76 373.903 127.751 373.706 124.849 373.026C123.337 372.694 122.143 371.047 120.858 370.579C116.863 373.231 112.17 374.64 107.374 374.628C107.73 376.465 107.972 378.321 108.1 380.188C108.236 381.699 107.359 384.479 109.702 384.388C112.574 384.298 115.431 383.92 118.288 383.557C124.667 382.772 131.017 381.759 137.366 380.747C137.925 380.656 139.845 380.445 140.147 379.855C140.449 379.266 139.346 378.058 138.892 377.619C137.381 376.257 135.568 375.273 133.601 374.749Z" fill="black"/>
<path d="M130.185 372.769C130.463 373.037 130.651 373.384 130.724 373.762C130.797 374.141 130.751 374.533 130.593 374.884C130.423 375.229 130.149 375.512 129.811 375.693C129.472 375.875 129.085 375.946 128.704 375.897" fill="#E06E6E"/>
<path d="M127.751 372.24C127.907 372.561 127.971 372.918 127.936 373.273C127.901 373.627 127.769 373.965 127.555 374.25C127.333 374.528 127.041 374.741 126.708 374.866C126.375 374.991 126.015 375.023 125.665 374.96" fill="#E06E6E"/>
<path d="M36.416 375.262C36.2547 375.649 36.1818 376.066 36.2027 376.485C36.2236 376.903 36.3378 377.311 36.5369 377.68C36.648 377.853 36.7934 378.002 36.9641 378.117C37.1348 378.233 37.3272 378.312 37.5297 378.35C37.7321 378.388 37.9403 378.385 38.1413 378.339C38.3423 378.294 38.532 378.209 38.6987 378.088" fill="#E06E6E"/>
<path d="M38.85 374.008C38.7787 374.358 38.7998 374.72 38.9111 375.059C39.0224 375.399 39.2201 375.703 39.4849 375.942C39.757 376.172 40.085 376.324 40.4356 376.385C40.7862 376.447 41.1467 376.414 41.4803 376.29" fill="#E06E6E"/>
<path d="M109.309 298.282C109.693 298.597 109.96 299.031 110.07 299.515C110.179 300 110.124 300.506 109.914 300.956" stroke="#313131" stroke-width="0.5" stroke-miterlimit="10" stroke-linecap="round"/>
<path d="M78.9698 279.788C78.5768 273.825 78.3753 267.847 78.3652 261.854" stroke="#313131" stroke-width="0.5" stroke-miterlimit="10" stroke-linecap="round"/>
<path d="M80.2242 175.068C80.2242 173.648 80.33 172.228 80.3149 170.807C80.3149 169.991 80.209 170.037 80.7835 169.735C81.6149 169.296 82.8394 169.417 83.3836 168.496C84.2755 166.985 81.9475 165.474 83.7917 164.401C84.9859 163.706 87.0872 163.993 87.4046 162.271C87.8279 159.989 84.865 159.914 83.4743 159.37C81.5847 158.629 80.073 156.831 77.9415 156.801C75.3717 156.801 73.5879 159.385 71.1541 160.216C70.096 160.579 68.9319 160.579 67.904 161.032C66.8823 161.575 66.0219 162.377 65.4098 163.359C63.7167 165.806 63.2028 168.541 62.0992 171.215C61.2829 173.24 60.0282 176.7 61.3283 178.77C61.5195 179.049 61.7665 179.286 62.0539 179.465C64.8202 181.384 68.6448 180.9 71.8193 180.976L78.3043 181.097C78.8198 181.088 79.3324 181.175 79.816 181.353C80.1046 179.271 80.2411 177.17 80.2242 175.068Z" fill="black"/>
<path d="M82.7942 180.975C82.8278 178.785 83.2422 176.618 84.0186 174.569V174.312C84.0186 174.207 79.2417 173.784 78.9092 173.753C77.821 173.714 76.7358 173.613 75.659 173.451C74.8427 173.27 74.4346 172.318 73.6032 172.182C73.5653 172.164 73.524 172.155 73.4822 172.155C73.4405 172.155 73.3992 172.164 73.3614 172.182C73.294 172.236 73.2462 172.31 73.2253 172.394C72.409 175.038 73.2253 178.059 72.9834 180.839C72.9217 182.615 72.5587 184.368 71.9101 186.022C71.6985 186.4 71.2299 186.943 70.7764 186.989C71.4055 187.526 72.0955 187.987 72.8322 188.364C74.6616 189.559 76.7216 190.356 78.8789 190.706C79.4577 190.769 80.0434 190.718 80.6022 190.555C81.0838 190.37 81.5329 190.11 81.9325 189.784C82.9 189.089 83.8221 188.364 84.7291 187.593C83.8758 186.802 83.3387 185.728 83.2174 184.571C82.9166 183.397 82.7743 182.188 82.7942 180.975Z" fill="#DB9D90"/>
<mask id="mask0_100_557" style="mask-type:luminance" maskUnits="userSpaceOnUse" x="71" y="171" width="14" height="16">
<path d="M71.9706 186.294H84.0337V171.125H71.9706V186.294Z" fill="white"/>
</mask>
<g mask="url(#mask0_100_557)">
<path d="M84.3968 173.708C82.6388 173.886 80.9824 174.616 79.6653 175.793C79.3425 175.93 79.0717 176.166 78.8924 176.467C78.7131 176.768 78.6346 177.119 78.6683 177.468C78.702 177.817 78.8462 178.146 79.0799 178.407C79.3136 178.668 79.6246 178.848 79.9677 178.921C80.879 179.357 81.8533 179.648 82.8549 179.782C83.0003 177.681 83.5226 175.624 84.3968 173.708Z" fill="black"/>
</g>
<path d="M87.5559 166.395C88.2362 170.732 88.1304 175.823 84.0035 177.667C82.9723 178.103 81.8568 178.305 80.7379 178.258C79.6189 178.211 78.5245 177.916 77.5336 177.395C76.3754 176.714 75.3509 175.828 74.5103 174.781C72.4695 172.378 70.9578 169.341 72.2881 166.259C72.6307 165.395 73.1449 164.608 73.7997 163.948C74.7384 163.203 75.8108 162.644 76.9592 162.301C79.2116 161.47 80.9953 160.352 83.4442 160.352C83.909 160.308 84.3778 160.356 84.8239 160.493C85.2701 160.631 85.6847 160.855 86.0442 161.152C86.4904 161.683 86.7832 162.326 86.8908 163.011C87.1175 164.023 87.3745 165.247 87.5559 166.395Z" fill="#DB9D90"/>
<path d="M88.2061 162.029C88.0666 162.82 87.71 163.556 87.1762 164.157C86.6423 164.757 85.9523 165.197 85.1828 165.428C82.5676 166.123 79.8012 165.776 77.0953 165.957C76.9289 165.954 76.7653 166.001 76.6267 166.093C76.4968 166.253 76.4179 166.447 76.4 166.652C76.2952 167.134 76.0695 167.58 75.7442 167.95C75.4189 168.321 75.0047 168.602 74.5405 168.767C73.2405 169.221 73.3464 171.155 73.4522 172.288C73.5935 173.739 73.841 175.179 74.1929 176.594C74.3932 177.243 74.5199 177.912 74.5708 178.588C74.6003 178.927 74.562 179.269 74.4582 179.593C74.3544 179.918 74.1871 180.218 73.9661 180.477C73.2405 181.278 71.9556 181.066 70.9428 180.9C69.631 180.675 68.3337 180.372 67.0578 179.994C66.8598 179.953 66.6768 179.859 66.5287 179.722C66.4036 179.545 66.3351 179.334 66.3322 179.117C65.9216 176.208 66.0808 173.247 66.8008 170.399C67.4836 167.634 68.6284 165.003 70.1869 162.618C70.6709 161.839 71.3344 161.186 72.1219 160.714C74.2534 159.491 77.0197 160.714 79.3628 160.034C80.4016 159.596 81.4115 159.091 82.3861 158.524C83.0993 158.174 83.8897 158.012 84.683 158.051C85.4763 158.091 86.2464 158.331 86.9211 158.75C87.4265 159.117 87.8163 159.62 88.044 160.202C88.2717 160.783 88.328 161.417 88.2061 162.029Z" fill="black"/>
<path d="M74.2684 167.619C77.0801 167.619 77.5034 172.288 74.2684 172.696C70.6555 173.149 70.6253 167.589 74.2684 167.619Z" fill="#DB9D90"/>
<path d="M81.5396 173.043C81.9158 173.538 82.4154 173.925 82.9884 174.167C83.5614 174.408 84.1878 174.495 84.8048 174.418C85.8479 174.146 86.4827 173.104 86.9967 172.167" fill="white"/>
<path d="M74.2683 168.677C74.0323 168.736 73.8123 168.846 73.6241 169.001C73.4359 169.155 73.2843 169.348 73.1799 169.568C73.075 169.79 73.0205 170.033 73.0205 170.278C73.0205 170.524 73.075 170.766 73.1799 170.988" fill="black"/>
<path d="M62.3867 306.169C62.8393 306.435 63.3451 306.597 63.8679 306.644C64.3906 306.691 64.9173 306.622 65.4101 306.441" stroke="#313131" stroke-width="0.5" stroke-miterlimit="10" stroke-linecap="round"/>
<path d="M310.271 161.409C310.476 160.484 310.387 159.517 310.014 158.645C309.288 157.134 308.275 155.729 308.623 153.885C308.9 152.834 309.301 151.82 309.817 150.863C310.137 150.147 310.376 149.397 310.528 148.627C310.648 148.239 310.648 147.822 310.528 147.434C310.386 147.163 310.166 146.942 309.896 146.799C309.626 146.656 309.319 146.598 309.016 146.633C308.395 146.764 307.824 147.068 307.368 147.509C305.397 149.354 304.116 151.817 303.74 154.49C303.317 157.088 305.131 159.506 304.617 162.15C304.334 163.085 303.986 163.999 303.574 164.885C303.364 165.326 303.255 165.809 303.255 166.297C303.255 166.786 303.364 167.268 303.574 167.71C304.829 169.735 307.519 168.435 308.593 166.97C309.197 165.771 309.615 164.487 309.832 163.162C310.027 162.591 310.173 162.005 310.271 161.409Z" fill="#DB9D90"/>
<path d="M420.018 59.9526H254.807V155.88H420.018V59.9526Z" fill="white"/>
<path opacity="0.75" d="M311.299 133.609H257.997V135.12H311.299V133.609Z" fill="black"/>
<path opacity="0.75" d="M311.299 138.429H257.997V139.94H311.299V138.429Z" fill="black"/>
<path opacity="0.75" d="M311.299 143.249H257.997V144.759H311.299V143.249Z" fill="black"/>
<path d="M347.049 72.5381H257.513V125.948H347.049V72.5381Z" fill="#C8DCD9"/>
<path opacity="0.75" d="M329.635 117.76H346.445V115.886H258.118V117.76H329.635Z" fill="black"/>
<path d="M312.584 92.9357C312.584 94.9737 311.979 96.9659 310.846 98.6605C309.713 100.355 308.103 101.676 306.219 102.456C304.335 103.236 302.263 103.44 300.263 103.042C298.263 102.644 296.426 101.663 294.984 100.222C293.542 98.7808 292.56 96.9448 292.162 94.946C291.765 92.9471 291.969 90.8752 292.749 88.9924C293.529 87.1095 294.851 85.5002 296.546 84.368C298.242 83.2357 300.235 82.6313 302.274 82.6313C305.008 82.6313 307.63 83.717 309.564 85.6494C311.497 87.5819 312.584 90.2028 312.584 92.9357Z" fill="#DD5050"/>
<path d="M298.963 88.584V97.6645L307.353 92.7692L298.963 88.584Z" fill="black"/>
<path d="M403.208 72.9009H353.701V96.3047H403.208V72.9009Z" fill="#C8DCD9"/>
<path d="M403.208 99.5532H353.701V122.957H403.208V99.5532Z" fill="#C8DCD9"/>
<path d="M403.208 125.888H353.701V149.292H403.208V125.888Z" fill="#C8DCD9"/>
<path d="M371.236 150.289C370.53 148.502 369.234 147.009 367.563 146.058C367.245 145.922 366.807 145.832 366.595 146.058C366.384 146.285 366.747 146.995 366.686 147.494C366.658 147.352 366.595 147.219 366.504 147.107C366.412 146.995 366.295 146.906 366.162 146.85C366.029 146.793 365.884 146.769 365.74 146.781C365.595 146.793 365.456 146.839 365.334 146.917C365.212 146.994 365.11 147.1 365.038 147.226C364.966 147.351 364.926 147.492 364.92 147.637C364.915 147.781 364.945 147.925 365.008 148.055C365.07 148.186 365.164 148.299 365.28 148.385C365.028 148.103 364.704 147.894 364.343 147.781C364.254 147.758 364.161 147.754 364.07 147.768C363.978 147.781 363.891 147.813 363.812 147.861C363.733 147.909 363.665 147.972 363.611 148.046C363.557 148.12 363.518 148.205 363.496 148.295C363.495 148.482 363.547 148.665 363.648 148.823L365.159 151.694L363.436 150.319C363.373 150.254 363.299 150.201 363.215 150.165C363.132 150.128 363.043 150.109 362.952 150.108C362.839 150.133 362.739 150.2 362.672 150.295C362.605 150.39 362.575 150.506 362.589 150.621C362.616 150.852 362.705 151.072 362.846 151.256C363.557 152.344 364.358 153.326 365.023 154.459C366.777 157.647 365.507 161.47 367.805 164.507C368.621 165.579 371.145 168.238 372.702 167.332C373.882 166.652 373.383 164.567 372.99 163.66C372.132 161.882 371.816 159.891 372.083 157.934C372.204 157.088 372.43 156.257 372.476 155.411C372.459 153.631 372.035 151.879 371.236 150.289Z" fill="#DB9D90"/>
<path d="M390.48 207.779C390.344 208.217 390.192 208.655 390.026 209.109C386.791 217.766 378.023 224.913 370.586 229.989C367.563 232.029 364.116 234.522 360.382 234.734C356.648 234.945 353.323 229.748 351.569 226.756L348.455 221.407C347.754 220.372 347.242 219.221 346.943 218.008C346.324 214.593 349.438 211.33 352.869 210.801C354.598 210.567 356.349 210.537 358.085 210.71C364.434 211.148 374.426 202.325 374.547 200.617C375.106 192.791 369.482 187.881 367.805 180.22C366.837 175.808 365.22 170.928 367.124 166.547C367.471 165.636 368.04 164.826 368.779 164.19C369.518 163.554 370.404 163.113 371.357 162.905C372.658 162.778 373.966 163.052 375.106 163.691C379.49 165.927 381.349 171.336 383.36 175.491C388.061 185.267 393.881 196.689 390.48 207.779Z" fill="#DD5050"/>
<path d="M312.916 193.954C313.327 186.105 313.14 178.236 312.357 170.414C312.009 167.559 311.117 164.22 308.396 163.268C296.303 159.022 296.56 190.283 296.303 196.402C296.166 197.842 296.212 199.294 296.439 200.723C296.876 202.513 297.607 204.218 298.601 205.769C303.881 215.382 311.018 223.85 319.598 230.684C320.943 231.876 322.539 232.749 324.269 233.238C325.956 233.46 327.671 233.184 329.202 232.442C330.733 231.701 332.014 230.528 332.885 229.068C334.922 225.921 336.396 222.445 337.239 218.793C337.708 215.908 336.664 212.569 334.064 211.239C333.224 210.861 332.348 210.568 331.449 210.363C323.8 208.187 318.086 201.962 312.81 196.024C312.871 195.299 312.901 194.589 312.916 193.954Z" fill="#DD5050"/>
<path d="M327.519 406.115C323.4 406.276 319.274 406.175 315.168 405.813H305.418C303.423 405.813 301.563 405.586 299.674 405.435C299.437 405.413 299.209 405.33 299.013 405.195C298.817 405.059 298.659 404.876 298.555 404.662C298.45 404.448 298.402 404.211 298.415 403.974C298.429 403.736 298.503 403.506 298.631 403.305C299.522 401.996 300.834 401.032 302.349 400.57L311.555 397.548C317.738 395.463 317.889 391.399 319.522 385.673C320.489 382.333 322.364 379.009 325.871 377.861C326.755 377.556 327.702 377.475 328.625 377.625C329.548 377.776 330.42 378.152 331.162 378.722C333.656 380.762 333.233 384.071 332.673 386.942C331.54 393.393 329.061 405.919 327.519 406.115Z" fill="#191A1B"/>
<path d="M382.498 407.475C382.467 407.911 382.281 408.321 381.973 408.631C381.665 408.942 381.256 409.132 380.82 409.167L369.18 410.088L359.475 410.874C357.419 411.04 355.5 410.98 353.55 410.965C353.328 410.965 353.11 410.907 352.917 410.798C352.723 410.689 352.562 410.531 352.448 410.341C352.334 410.151 352.271 409.935 352.265 409.713C352.259 409.491 352.311 409.272 352.416 409.076C353.243 407.564 354.591 406.404 356.21 405.813L364.313 402.338C365.976 401.567 368.606 400.736 369.649 398.878C370.42 397.518 369.906 396.853 369.785 395.433C369.588 392.925 370.511 389.389 373.519 389.223C375.786 389.057 380.593 388.755 382.589 390.084C382.906 390.296 383.768 390.628 383.738 390.961C383.33 396.415 382.906 401.975 382.498 407.475Z" fill="#191A1B"/>
<path d="M313.249 389.737C314.352 376.139 317.511 341.388 317.542 339.031C317.95 313.98 321.774 288.748 324.707 264.181C325.206 259.875 326.324 255.01 330.391 253.514C333.49 252.366 337.405 253.726 340.141 256.128C342.732 258.62 344.722 261.668 345.961 265.042C353.988 284.215 350.723 305.927 346.505 324.133C344.197 334.71 342.767 345.459 342.227 356.27C341.441 369.083 337.692 383.466 333.475 395.251C329.696 394.511 314.352 389.737 313.249 389.737Z" fill="#7FA4B0"/>
<path d="M346.581 254.919C350.088 252.592 360.806 251.746 363.557 255.1C364.812 256.611 365.22 261.008 366.384 263.017C368.515 266.704 371.07 270.149 373.186 273.851C379.883 285.605 381.848 302.558 382.03 315.838C382.377 342.884 391.1 367.934 384.554 394.647C377.369 394.683 370.191 394.209 363.073 393.227C362.861 392.592 359.385 348.504 356.513 335.359C352.219 315.718 348.954 289.896 341.396 270.647C340.469 268.697 339.915 266.591 339.763 264.438C339.839 261.673 344.283 256.46 346.581 254.919Z" fill="#7FA4B0"/>
<path d="M321.124 220.652C321.23 216.255 323.452 211.043 328.305 210.196C329.748 210.139 331.186 209.998 332.613 209.773C334.125 209.335 335.772 209.003 337.344 208.67C340.402 207.827 343.658 208.078 346.55 209.381C346.759 209.501 346.977 209.607 347.2 209.698C347.531 209.788 347.871 209.833 348.213 209.834C350.103 209.909 352.008 209.955 353.882 210.181C357.374 210.483 360.75 211.579 363.753 213.384C369.271 217.131 367.003 227.602 366.943 233.328C366.832 242.212 366.409 251.086 365.673 259.95C363.149 260.056 360.624 260.147 358.115 260.207C346.979 260.489 335.838 260.313 324.692 259.678C324.072 259.678 321.986 241.412 321.668 239.659C320.927 233.352 320.745 226.991 321.124 220.652Z" fill="#DD5050"/>
<path d="M335.274 207.945C334.806 208.736 334.063 209.327 333.187 209.607C332.673 209.788 332.114 209.864 331.676 210C333.278 214.638 338.176 216.618 342.832 216.482C345.278 216.413 347.666 215.721 349.77 214.472C350.284 214.155 354.426 210.302 354.064 210.136C352.232 209.407 350.687 208.101 349.664 206.416C348.642 204.731 348.196 202.759 348.395 200.798C348.743 195.813 350.481 188.817 348.259 184.088C345.099 177.41 333.974 175.128 332.25 184.088C331.956 186.001 331.956 187.947 332.25 189.86C332.318 191.539 332.841 193.168 333.762 194.574C334.092 194.989 334.504 195.334 334.971 195.586C335.375 195.779 335.711 196.09 335.933 196.479C336.154 196.868 336.251 197.316 336.211 197.762C336.299 200.343 336.213 202.928 335.954 205.497C335.91 206.353 335.678 207.189 335.274 207.945Z" fill="#DB9D90"/>
<path d="M357.827 183.378C357.079 182.729 356.55 181.863 356.316 180.9C355.834 179.718 355.102 178.654 354.171 177.78C353.239 176.907 352.13 176.244 350.919 175.839C349.244 175.257 347.502 174.891 345.734 174.751C344.328 174.6 343.225 174.131 341.864 173.889C340.403 173.656 338.909 173.727 337.476 174.096C336.043 174.465 334.702 175.125 333.535 176.035C330.633 178.316 330.889 181.64 330.406 184.979L341.456 186.022C341.637 185.403 341.834 183.695 342.968 184.284C343.173 184.413 343.344 184.589 343.467 184.798C344.178 185.949 344.599 187.256 344.691 188.606C344.933 189.996 345.87 191.114 345.87 192.564C345.87 194.015 344.888 195.873 345.19 197.097C345.492 198.321 347.291 198.774 348.364 198.88C350.826 199.106 353.299 198.579 355.454 197.369C355.809 197.121 356.21 196.947 356.633 196.855C357.54 196.719 358.326 197.444 359.188 197.792C359.705 197.937 360.246 197.976 360.779 197.906C361.312 197.837 361.825 197.661 362.288 197.389C362.751 197.116 363.154 196.753 363.474 196.322C363.793 195.89 364.022 195.398 364.146 194.876C364.344 193.808 364.268 192.707 363.924 191.676C363.58 190.646 362.981 189.719 362.181 188.983C361.6 188.461 361.059 187.895 360.564 187.291C359.687 186.037 359.929 184.798 358.629 183.982C358.349 183.798 358.081 183.596 357.827 183.378Z" fill="black"/>
<path d="M338.796 196.296H337.994C337.204 196.279 336.417 196.209 335.636 196.084C335.712 196.084 335.833 196.356 335.878 196.432C335.934 196.547 335.974 196.669 335.999 196.795C335.999 197.127 336.105 197.444 336.135 197.777C336.135 198.653 336.241 199.529 336.256 200.406C336.469 200.005 336.712 199.622 336.982 199.257C337.299 198.865 337.632 198.472 337.979 198.094C338.64 197.361 339.41 196.734 340.262 196.236C340.096 196.221 339.929 196.221 339.763 196.236H338.796V196.296Z" fill="black"/>
<path d="M347.155 191.914C347.001 191.977 346.838 192.018 346.671 192.035C345.296 192.126 343.799 190.267 343.346 189.149C342.892 188.031 342.665 188.575 342.983 187.276C343.096 186.924 343.28 186.598 343.523 186.32C343.767 186.041 344.065 185.816 344.4 185.657C344.734 185.499 345.098 185.41 345.468 185.398C345.837 185.385 346.206 185.448 346.55 185.584C347.274 185.804 347.916 186.235 348.392 186.822C348.869 187.409 349.159 188.124 349.226 188.877C349.163 189.516 348.94 190.129 348.578 190.66C348.216 191.19 347.727 191.622 347.155 191.914Z" fill="#DB9D90"/>
<path d="M345.583 187.911C346.021 187.412 346.928 187.775 347.185 188.379C347.366 189.01 347.318 189.684 347.049 190.283" fill="black"/>
<path d="M337.435 191.552C337.383 191.985 337.177 192.385 336.855 192.68C336.533 192.974 336.117 193.144 335.68 193.159C335.244 193.174 334.817 193.032 334.476 192.759C334.136 192.487 333.904 192.101 333.822 191.673" fill="white"/>
<path d="M349.649 303.993C347.095 296.272 345.749 284.805 343.406 277.008" stroke="#313131" stroke-width="0.5" stroke-miterlimit="10" stroke-linecap="round"/>
<path d="M363.436 281.148C366.35 283.558 369.91 285.055 373.67 285.454" stroke="#313131" stroke-width="0.5" stroke-miterlimit="10" stroke-linecap="round"/>
<path d="M329.031 279.214C326.841 281.136 324.263 282.563 321.472 283.4" stroke="#313131" stroke-width="0.5" stroke-miterlimit="10" stroke-linecap="round"/>
<path d="M361.062 340.134C361.855 340.779 362.834 341.152 363.854 341.198C364.875 341.245 365.884 340.961 366.731 340.391" stroke="#313131" stroke-width="0.5" stroke-miterlimit="10" stroke-linecap="round"/>
<path d="M325.659 340.965C325.826 341.191 326.066 341.352 326.339 341.418C327.132 341.724 327.96 341.927 328.803 342.022" stroke="#313131" stroke-width="0.5" stroke-miterlimit="10" stroke-linecap="round"/>
<path d="M467.968 186.188C467.972 184.6 467.653 183.028 467.032 181.567C466.411 180.105 465.5 178.785 464.354 177.685C463.209 176.585 461.852 175.728 460.366 175.167C458.88 174.605 457.296 174.351 455.709 174.418C453.543 174.515 451.448 175.216 449.662 176.443C448.285 174.87 446.571 173.627 444.647 172.808C442.724 171.99 440.64 171.615 438.551 171.714C432.504 172.001 426.654 176.08 426.17 181.686C423.772 182.303 421.591 183.573 419.87 185.354C418.149 187.135 416.955 189.357 416.422 191.775C415.888 194.193 416.034 196.711 416.845 199.051C417.656 201.39 419.1 203.46 421.016 205.029C420.628 206.142 420.485 207.326 420.598 208.499C420.71 209.673 421.074 210.808 421.666 211.828C422.37 213.108 423.459 214.133 424.78 214.759C425.797 215.271 426.911 215.563 428.049 215.618C429.187 215.672 430.324 215.488 431.386 215.076L431.537 226.136C431.539 226.28 431.587 226.42 431.673 226.535C431.76 226.651 431.881 226.735 432.019 226.777C432.157 226.819 432.304 226.817 432.441 226.769C432.577 226.722 432.694 226.632 432.776 226.514L438.566 218.174C443.963 220.38 448.8 217.071 449.148 212.13C450.622 212.87 452.263 213.213 453.91 213.127C456.271 213.017 458.511 212.049 460.209 210.405C461.907 208.76 462.946 206.553 463.131 204.198C464.601 205.062 466.268 205.534 467.973 205.568C469.677 205.603 471.362 205.198 472.866 204.394C474.814 203.423 476.321 201.749 477.084 199.711C477.703 198.219 477.943 196.597 477.782 194.99C477.621 193.383 477.064 191.841 476.161 190.501C475.259 189.162 474.038 188.067 472.608 187.314C471.178 186.561 469.584 186.174 467.968 186.188Z" fill="#7FA4B0"/>
<path d="M428.151 199.726C426.638 199.797 425.177 200.296 423.938 201.165C422.699 202.035 421.732 203.239 421.152 204.636" stroke="black" stroke-width="0.5" stroke-miterlimit="10"/>
<path d="M463.07 203.443C463.01 202.168 462.699 200.917 462.155 199.762C461.611 198.608 460.845 197.571 459.9 196.713C458.955 195.854 457.851 195.19 456.649 194.758C455.447 194.326 454.172 194.135 452.896 194.196" stroke="black" stroke-width="0.5" stroke-miterlimit="10"/>
<path d="M468.799 186.203C466.853 186.064 464.91 186.511 463.221 187.487" stroke="black" stroke-width="0.5" stroke-miterlimit="10"/>
<path d="M457.749 178.754C456.725 178.801 455.72 179.049 454.793 179.485C453.865 179.92 453.032 180.535 452.342 181.293C451.653 182.051 451.12 182.938 450.774 183.902C450.428 184.867 450.276 185.89 450.327 186.913" stroke="black" stroke-width="0.5" stroke-miterlimit="10"/>
<path d="M450.917 208.429C451.822 208.518 452.737 208.428 453.607 208.163C454.478 207.899 455.288 207.465 455.99 206.886C456.692 206.308 457.273 205.596 457.7 204.793C458.126 203.989 458.39 203.109 458.475 202.204" stroke="black" stroke-width="0.5" stroke-miterlimit="10"/>
<path d="M472.669 198.306C472.936 197.535 473.049 196.719 473.001 195.905C472.952 195.09 472.744 194.294 472.388 193.56C472.031 192.826 471.533 192.169 470.923 191.628C470.312 191.086 469.601 190.67 468.83 190.404" stroke="black" stroke-width="0.5" stroke-miterlimit="10"/>
<path d="M425.158 207.417C425.552 208.603 426.399 209.586 427.514 210.152C428.629 210.717 429.923 210.821 431.114 210.438" stroke="black" stroke-width="0.5" stroke-miterlimit="10"/>
<path d="M436.525 183.59C435.051 182.598 433.39 181.915 431.644 181.583C429.898 181.25 428.103 181.275 426.367 181.656" stroke="black" stroke-width="0.5" stroke-miterlimit="10"/>
<path d="M424.16 187.639C423.175 188.365 422.371 189.309 421.81 190.396C421.249 191.484 420.946 192.686 420.925 193.909" stroke="black" stroke-width="0.5" stroke-miterlimit="10"/>
<path d="M445.021 190.615C443.804 190.349 442.535 190.464 441.386 190.947C440.238 191.429 439.266 192.253 438.604 193.308C437.942 194.363 437.623 195.597 437.689 196.84C437.755 198.083 438.204 199.276 438.974 200.255" stroke="black" stroke-width="0.5" stroke-miterlimit="10"/>
<path d="M445.837 202.43C446.254 202.815 446.57 203.295 446.759 203.83C446.948 204.364 447.004 204.936 446.922 205.497C446.841 206.058 446.623 206.59 446.289 207.048C445.955 207.507 445.515 207.877 445.006 208.126" stroke="black" stroke-width="0.5" stroke-miterlimit="10"/>
<path d="M208.58 185.342H208.338C207.887 185.343 207.438 185.415 207.008 185.554C206.721 185.674 206.207 185.931 206.161 186.279C206.13 186.479 206.13 186.683 206.161 186.883C206.233 187.71 206.448 188.517 206.796 189.27C207.181 189.943 207.695 190.534 208.308 191.008C209.516 191.893 210.922 192.469 212.405 192.685C214.768 193.001 217.173 192.747 219.419 191.945C220.825 191.465 222.146 190.767 223.334 189.875C223.966 189.453 224.536 188.944 225.027 188.364C225.266 188.071 225.441 187.731 225.541 187.367C225.656 187.111 225.698 186.829 225.662 186.551C225.553 186.323 225.372 186.138 225.148 186.022C224.851 185.857 224.52 185.763 224.181 185.75H223.183C222.487 185.683 221.805 185.515 221.157 185.251C220.84 185.115 220.507 184.995 220.205 184.828C219.931 184.699 219.631 184.637 219.328 184.647H217.726C216.668 184.647 215.609 184.738 214.551 184.783L212.737 184.889H212.012C211.845 184.889 211.664 184.889 211.483 184.889C211.301 184.889 211.059 185.01 210.833 185.055L210.122 185.146L208.58 185.342Z" fill="black"/>
<path d="M120.646 313.693C120.106 313.518 119.524 313.518 118.984 313.693C118.447 314.045 118.059 314.583 117.895 315.204C115.392 321.484 113.296 327.918 111.622 334.468C111.244 335.979 108.598 343.065 109.611 344.228C110.926 345.739 115.144 342.324 116.096 341.342C117.644 339.601 119.012 337.708 120.178 335.692C121.69 333.229 123.761 328.439 126.905 327.85C128.417 327.563 143.7 327.457 143.745 328.062C142.717 314.343 131.969 315.612 120.646 313.693Z" fill="#7FA4B0"/>
<path d="M245.012 419.441C247.914 419.441 244.8 415.467 243.908 414.908C242.618 414.118 241.231 413.498 239.781 413.065C235.778 411.539 231.867 409.784 228.066 407.807C227.075 407.378 226.157 406.797 225.345 406.085C222.881 403.667 225.451 387.742 221.052 387.561C218.391 387.455 214.748 388.407 213.357 390.961C212.804 392.108 212.495 393.359 212.451 394.632C211.695 401.643 210.425 410.874 212.254 417.794C213.161 421.224 217.378 419.728 220.402 419.653C228.625 419.35 236.804 419.441 245.012 419.441Z" fill="#7FA4B0"/>
<path d="M207.371 337.49C207.159 346.555 207.053 355.62 206.796 364.686C206.555 372.86 203.078 380.732 204.438 388.996C206.101 398.953 218.043 408.336 227.884 401.824C233.326 398.213 233.205 389.857 234.097 384.056C235.11 377.423 235.836 370.745 236.501 364.051C237.423 354.563 238.012 345.044 238.799 335.541C239.677 327.049 239.99 318.509 239.736 309.976C239.146 298.433 242.26 276.54 235.201 264.876C228.444 253.801 210.364 268.049 209.23 279.788C208.175 291.815 207.731 303.888 207.9 315.959C207.87 318.241 207.643 326.762 207.371 337.49Z" fill="black"/>
<path d="M214.929 283.429C216.819 274.017 214.733 254.466 202.836 250.19C200.448 249.344 197.515 249.661 193.902 251.61C185.86 255.946 186.419 268.396 184.348 276.419C182.433 283.903 180.257 291.311 177.818 298.644C175.717 305.035 172.572 310.58 170.063 316.564C166.238 316.73 164.394 316.035 161.477 316.307C156.737 316.535 151.989 316.092 147.373 314.992C143.019 314.131 136.474 311.396 132.135 312.983C125.514 315.4 127.313 328.968 129.369 333.878C133.269 343.186 147.857 343.518 156.503 344.56C165.407 345.648 177.667 347.295 185.86 342.551C199.284 334.845 211.362 301.228 214.929 283.429Z" fill="black"/>
<path d="M213.251 237.332C213.674 245.824 213.856 254.33 214.143 262.776H214.566C218.089 262.383 221.611 262.02 225.148 261.567C227.77 261.182 230.427 261.091 233.069 261.295C232.858 251.882 233.447 242.409 233.523 233.011C233.685 225.899 233.225 218.785 232.147 211.753C230.983 204.908 228.927 195.556 222.79 191.431C218.587 188.621 211.604 190.782 205.27 191.613C201.853 192.051 207.552 208.731 208.58 212.025C211.178 220.235 212.747 228.736 213.251 237.332Z" fill="white"/>
<path d="M217.59 201.599C218.467 200.678 219.374 199.786 220.25 198.85C221.127 197.913 222.291 196.508 223.274 195.359L224.226 194.362C224.047 194.232 223.884 194.079 223.742 193.909C223.091 192.882 222.774 191.679 222.835 190.464C222.609 187.543 222.578 184.611 222.745 181.686C222.971 179.208 224.06 179.842 225.405 177.954L225.541 177.757C228.232 173.663 226.63 168.692 226.509 164.159C226.547 163.446 226.444 162.733 226.206 162.059C226.169 161.977 226.112 161.904 226.04 161.848C225.927 161.81 225.805 161.81 225.692 161.848C225.17 161.998 224.633 162.089 224.09 162.12C223.727 162.12 223.606 161.938 223.304 161.727C222.587 161.237 221.78 160.893 220.931 160.714C219.199 160.364 217.409 160.415 215.7 160.866C214.369 161.221 213.129 161.859 212.065 162.734C211.001 163.61 210.137 164.704 209.533 165.942C207.719 169.583 208.263 173.421 208.671 177.244C209.118 181.544 208.602 185.89 207.159 189.965C206.791 191.293 206.052 192.488 205.028 193.41C204.302 193.969 203.274 194.438 203.244 195.359C206.056 196.644 209.094 197.233 211.936 198.381C213.434 199.034 214.867 199.828 216.214 200.753L217.59 201.599Z" fill="#DB9D90"/>
<path d="M218.784 229.49C217.575 223.553 216.638 217.403 219.132 211.722L219.313 211.329C220.99 207.468 222.394 203.495 223.516 199.439C224.09 197.414 224.574 195.374 225.027 193.319C225.239 192.277 225.436 191.249 225.617 190.207C225.708 189.693 229.895 192.171 229.986 191.718C230.076 191.265 229.986 190.57 229.653 190.328C229.366 190.137 229.098 189.92 228.852 189.678L227.764 188.59L226.887 187.684C226.764 187.545 226.632 187.414 226.494 187.291L226.131 186.928L225.995 186.792L225.798 186.641L225.632 186.46C225.632 186.46 225.632 186.611 225.632 186.641C225.604 186.709 225.563 186.771 225.511 186.823C225.404 186.939 225.282 187.041 225.148 187.125C224.925 187.272 224.68 187.384 224.423 187.457C221.823 188.268 219.119 188.701 216.396 188.741C212.904 188.847 206.933 188.046 206.222 186.445C205.792 188.208 205.083 189.891 204.121 191.431C203.243 192.612 201.933 193.399 200.478 193.622C197.198 194.528 193.524 195.012 191.544 198.154C190.032 200.526 190.682 203.881 190.304 206.555C189.79 210.151 189.201 213.762 188.793 217.373C188.49 219.972 189.065 222.374 188.551 224.927C187.644 229.46 185.392 233.389 184.197 237.74C183.39 240.748 183.039 243.859 183.154 246.971C183.245 249.555 183.441 253.483 185.135 255.584C185.77 256.387 186.536 257.076 187.402 257.623C187.284 258.942 187.309 260.269 187.478 261.582C191.499 261.914 195.399 263.667 199.374 264.362C200.69 264.604 212.193 267.112 212.617 266.266C213.856 263.788 213.871 260.978 214.854 258.409C216.214 254.889 218.558 251.867 219.691 248.21C221.475 242.197 219.963 235.458 218.784 229.49Z" fill="#7FA4B0"/>
<path d="M244.15 248.422C243.651 243.36 241.943 237.846 242.518 232.799C243.092 227.753 244.997 222.888 246.599 217.977C248.201 213.067 249.35 207.205 247.279 202.249C245.405 197.807 241.354 194.876 237.166 192.821C234.037 191.31 230.152 191.31 227.507 188.847C227.004 188.366 226.572 187.817 226.222 187.215C226.054 186.948 225.85 186.704 225.617 186.49C225.768 186.626 224.861 187.321 224.755 187.382C224.583 187.441 224.406 187.487 224.226 187.518C223.984 187.593 223.758 187.744 223.516 187.835C222.525 188.268 221.466 188.524 220.387 188.59C220.583 191.688 221.49 194.921 221.898 198.018C222.291 201.463 222.533 204.938 222.684 208.398C222.972 215.197 222.866 221.996 222.579 228.811C222.382 233.509 222.352 237.876 222.503 242.409C222.503 244.131 222.639 245.854 222.745 247.606C222.836 249.117 223.229 262.942 223.062 266.87C224.317 267.067 225.541 267.459 226.766 267.746C228.495 268.104 230.262 268.251 232.027 268.185C234.521 268.185 237.03 267.988 239.585 267.792C239.585 267.097 239.177 264.03 239.585 264.075C241.55 264.271 242.986 262.247 243.606 260.373C244.614 256.47 244.8 252.4 244.15 248.422Z" fill="#7FA4B0"/>
<path d="M214.929 167.831C214.983 167.61 215.065 167.397 215.171 167.196C216.109 165.368 219.706 165.957 221.445 166.002C222.869 166.115 224.297 165.833 225.572 165.186C226.75 164.251 227.537 162.909 227.779 161.424C227.832 161.247 227.832 161.058 227.779 160.88C227.71 160.714 227.588 160.576 227.431 160.488C226.6 160.004 225.556 160.488 224.589 160.367C223.439 160.137 222.367 159.617 221.475 158.856C221 158.47 220.419 158.238 219.809 158.189C219.199 158.141 218.589 158.278 218.059 158.584C216.653 159.067 215.262 158.81 213.811 159.173C212.753 159.453 211.737 159.869 210.787 160.412C209.181 161.35 207.907 162.765 207.144 164.461C206.154 167.075 206.154 169.961 207.144 172.575L208.006 175.43C208.097 175.702 208.142 176.171 208.399 176.352C208.656 176.533 209.427 176.352 209.714 176.231C210.377 175.839 210.962 175.326 211.437 174.72C212.148 174.071 213.085 173.663 213.765 172.968C215.292 171.396 214.446 169.538 214.929 167.831Z" fill="black"/>
<path d="M210.742 175.824C210.895 175.895 211.058 175.941 211.226 175.959C212.511 176.08 214.098 174.162 214.612 173.195C214.831 172.834 214.951 172.423 214.96 172.001C214.922 171.61 214.809 171.23 214.627 170.883C214.504 170.478 214.255 170.123 213.916 169.871C213.672 169.734 213.396 169.661 213.115 169.659C211.029 169.508 208.837 170.354 208.747 172.681C208.791 173.329 208.996 173.957 209.345 174.506C209.693 175.054 210.174 175.508 210.742 175.824Z" fill="#DB9D90"/>
<path d="M212.405 171.925C211.982 171.427 211.06 171.759 210.788 172.364C210.589 173.005 210.626 173.696 210.893 174.313" fill="black"/>
<path d="M219.963 179.948H220.885C221.785 179.948 222.684 179.888 223.576 179.767C223.485 179.767 223.334 180.084 223.289 180.144C223.218 180.277 223.167 180.42 223.138 180.567C223.055 180.931 222.995 181.299 222.956 181.67C222.865 182.668 222.79 183.665 222.745 184.692C222.512 184.237 222.249 183.798 221.959 183.378C221.611 182.909 221.248 182.471 220.855 182.033C220.12 181.182 219.258 180.448 218.3 179.857C218.491 179.842 218.684 179.842 218.875 179.857H219.54L219.963 179.948Z" fill="black"/>
<path d="M219.192 173.814C219.53 174.463 220.061 174.991 220.712 175.326C221.363 175.66 222.102 175.785 222.827 175.682C223.552 175.579 224.227 175.254 224.759 174.752C225.291 174.249 225.654 173.594 225.798 172.877" fill="white"/>
<path d="M207.507 307.634C209.654 301.742 214.93 279.35 216.245 273.216" stroke="#C8AB47" stroke-width="0.5" stroke-miterlimit="10"/>
<path d="M209.019 162.83C210.724 161.254 212.715 160.019 214.884 159.189C215.871 158.837 216.881 158.555 217.907 158.342C218.77 158.076 219.665 157.933 220.568 157.919C221.566 158.01 222.594 158.207 223.591 158.342C224.589 158.478 225.723 158.66 226.781 158.841C227.769 159.122 228.781 159.315 229.804 159.415C228.736 160.657 227.352 161.586 225.798 162.105C219.948 164.477 213.115 164.462 206.887 164.915C207.552 164.19 208.278 163.48 209.019 162.83Z" fill="#DD5050"/>
<path d="M206.479 165.579C205.974 164.837 205.622 164.002 205.443 163.123C205.264 162.244 205.262 161.338 205.436 160.457C206.007 158.652 207.129 157.071 208.645 155.936C210.16 154.801 211.993 154.168 213.886 154.127C215.51 153.979 217.142 154.287 218.6 155.016C220.058 155.745 221.284 156.865 222.14 158.251L206.479 165.579Z" fill="#DD5050"/>
<path d="M300.112 195.979H154.583V275.709H300.112V195.979Z" fill="white"/>
<path d="M193.297 201.01H163.472V226.288H193.297V201.01Z" fill="#C8DCD9"/>
<path d="M193.297 230.458H163.472V271.297H193.297V230.458Z" fill="#C8DCD9"/>
<path d="M231.225 201.01H198.452V233.767H231.225V201.01Z" fill="#C8DCD9"/>
<path d="M289.984 201.01H236.395V233.767H289.984V201.01Z" fill="#C8DCD9"/>
<path d="M219.812 237.815H198.452V271.675H219.812V237.815Z" fill="#C8DCD9"/>
<path d="M289.923 237.815H271.738V271.675H289.923V237.815Z" fill="#C8DCD9"/>
<path d="M268.745 237.815H224.196V271.675H268.745V237.815Z" fill="#C8DCD9"/>
<path d="M287.943 202.476L238.602 231.923" stroke="#7FA4B0" stroke-miterlimit="10"/>
<path d="M287.943 202.476L238.602 231.923" stroke="#7FA4B0" stroke-miterlimit="10"/>
<path d="M238.602 202.476L287.943 231.923" stroke="#7FA4B0" stroke-miterlimit="10"/>
<path d="M229.396 202.476L200.659 231.923" stroke="#7FA4B0" stroke-miterlimit="10"/>
<path d="M200.659 202.476L229.396 231.923" stroke="#7FA4B0" stroke-miterlimit="10"/>
<path d="M191.09 232.301L164.938 269.469" stroke="#7FA4B0" stroke-miterlimit="10"/>
<path d="M164.938 232.301L191.09 269.469" stroke="#7FA4B0" stroke-miterlimit="10"/>
<path d="M266.961 239.659L226.63 270.21" stroke="#7FA4B0" stroke-miterlimit="10"/>
<path d="M226.63 239.659L266.961 270.21" stroke="#7FA4B0" stroke-miterlimit="10"/>
<path d="M164.938 204.682H191.831" stroke="#7FA4B0" stroke-miterlimit="10"/>
<path d="M164.938 209.97H191.831" stroke="#7FA4B0" stroke-miterlimit="10"/>
<path d="M164.938 215.243H191.831" stroke="#7FA4B0" stroke-miterlimit="10"/>
<path d="M164.938 220.516H191.831" stroke="#7FA4B0" stroke-miterlimit="10"/>
<path d="M200.659 240.762H216.501" stroke="#7FA4B0" stroke-miterlimit="10"/>
<path d="M200.659 246.035H216.501" stroke="#7FA4B0" stroke-miterlimit="10"/>
<path d="M200.659 251.308H216.501" stroke="#7FA4B0" stroke-miterlimit="10"/>
<path d="M200.659 256.581H216.501" stroke="#7FA4B0" stroke-miterlimit="10"/>
<path d="M200.659 262.111H216.501" stroke="#7FA4B0" stroke-miterlimit="10"/>
<path d="M200.659 267.626H216.501" stroke="#7FA4B0" stroke-miterlimit="10"/>
<path d="M273.96 240.762H287.217" stroke="#7FA4B0" stroke-miterlimit="10"/>
<path d="M273.96 246.035H287.217" stroke="#7FA4B0" stroke-miterlimit="10"/>
<path d="M273.96 251.308H287.217" stroke="#7FA4B0" stroke-miterlimit="10"/>
<path d="M273.96 256.581H287.217" stroke="#7FA4B0" stroke-miterlimit="10"/>
<path d="M273.96 262.111H287.217" stroke="#7FA4B0" stroke-miterlimit="10"/>
<path d="M273.96 267.626H287.217" stroke="#7FA4B0" stroke-miterlimit="10"/>
<path d="M160.388 234.008C160.363 233.701 160.222 233.415 159.995 233.207C159.653 232.934 159.256 232.738 158.831 232.633L157.879 232.316C158.801 232.165 159.98 232.029 159.92 230.805C159.92 230.404 159.76 230.02 159.477 229.737C159.193 229.453 158.809 229.294 158.408 229.294H154.447L155.248 229.128C156.128 228.93 156.992 228.668 157.833 228.342C158.361 228.177 158.836 227.874 159.209 227.466C159.303 227.361 159.375 227.237 159.421 227.104C159.466 226.97 159.485 226.829 159.475 226.688C159.465 226.547 159.427 226.41 159.363 226.284C159.299 226.158 159.211 226.046 159.103 225.955C158.777 225.788 158.401 225.745 158.045 225.834C156.11 226.061 154.19 226.333 152.27 226.65C151.394 226.786 150.366 226.998 150.517 228.085C150.544 228.404 150.671 228.705 150.88 228.947C151.089 229.189 151.37 229.358 151.681 229.43C151.961 229.475 152.244 229.505 152.527 229.521H152.406C151.666 229.732 151.031 230.337 151.424 231.152C151.5 231.308 151.612 231.443 151.752 231.545C151.892 231.648 152.054 231.715 152.225 231.742C152.048 231.743 151.875 231.789 151.721 231.876C151.568 231.964 151.439 232.089 151.348 232.24C151.254 232.392 151.195 232.564 151.177 232.742C151.158 232.92 151.181 233.1 151.242 233.268C151.398 233.645 151.682 233.955 152.044 234.144C152.409 234.329 152.794 234.471 153.193 234.567L152.089 234.884C151.838 234.943 151.602 235.051 151.394 235.202C151.238 235.397 151.133 235.627 151.089 235.872C151.044 236.117 151.06 236.37 151.137 236.607C151.363 237.272 151.862 237.196 152.452 237.302C154.13 237.589 155.808 237.816 157.501 237.952C158.241 238.027 159.088 237.725 158.71 236.803C158.641 236.638 158.532 236.493 158.393 236.38C157.947 235.877 157.394 235.48 156.775 235.217C157.728 235.217 159.798 235.368 160.312 234.31C160.362 234.217 160.388 234.113 160.388 234.008Z" fill="#DB9D90"/>
<path d="M303.755 231.47C303.834 231.206 303.838 230.926 303.769 230.66C303.7 230.394 303.559 230.151 303.362 229.959C302.501 229.347 301.471 229.015 300.414 229.007C299.492 228.856 298.555 228.765 297.618 228.69C296.777 228.629 295.934 228.629 295.093 228.69C294.216 228.688 293.366 228.993 292.69 229.551H292.554C292.451 229.615 292.366 229.704 292.306 229.809C292.247 229.915 292.216 230.034 292.216 230.155C292.216 230.277 292.247 230.396 292.306 230.502C292.366 230.607 292.451 230.696 292.554 230.76L292.675 230.835C293.306 231.364 294.09 231.676 294.912 231.727L295.638 231.817H295.91L297.421 231.999L299.946 232.286H300.445H299.568L297.346 232.195C296.605 232.195 295.834 232.089 295.124 232.12C294.413 232.15 293.143 232.225 293.279 233.328C293.4 234.144 294.64 234.341 295.275 234.477C295.91 234.613 296.499 234.658 297.119 234.749C296.809 234.778 296.502 234.823 296.197 234.885C295.475 234.96 294.804 235.292 294.307 235.821C294.235 235.948 294.206 236.095 294.225 236.24C294.244 236.384 294.31 236.519 294.413 236.622C294.69 236.883 295.047 237.042 295.426 237.075C295.789 237.075 296.152 237.211 296.514 237.242C297.21 237.317 297.89 237.362 298.585 237.393H298.857H298.752L298.026 237.755H297.935L297.648 237.876L297.3 238.057L296.938 238.224C297.285 238.103 296.847 238.224 296.786 238.224C296.477 238.354 296.174 238.501 295.879 238.662L295.229 239.04C294.972 239.176 294.579 239.508 294.731 239.855C294.786 240.044 294.903 240.209 295.063 240.324C295.204 240.388 295.351 240.438 295.501 240.475C295.786 240.575 296.08 240.646 296.378 240.686C297.05 240.784 297.732 240.784 298.404 240.686C298.922 240.601 299.429 240.459 299.916 240.263C300.792 240.094 301.57 239.597 302.092 238.873C302.204 238.651 302.262 238.405 302.262 238.156C302.262 237.907 302.204 237.661 302.092 237.438C302.389 237.324 302.638 237.112 302.798 236.837C302.957 236.562 303.018 236.241 302.969 235.927C302.919 235.632 302.782 235.359 302.576 235.141C302.841 235.004 303.065 234.799 303.225 234.547C303.384 234.295 303.473 234.004 303.483 233.706C303.502 233.38 303.416 233.057 303.236 232.785C303.056 232.512 302.793 232.306 302.486 232.195H302.622C302.851 232.163 303.072 232.081 303.267 231.956C303.463 231.831 303.629 231.665 303.755 231.47Z" fill="#DB9D90"/>
<path d="M230.636 345.044C230.861 345.425 231.181 345.739 231.566 345.957C231.951 346.174 232.386 346.287 232.828 346.283" stroke="#C8AB47" stroke-width="0.5" stroke-miterlimit="10"/>
<path d="M183.23 337.188C182.776 337.68 182.432 338.264 182.221 338.899C182.01 339.535 181.937 340.208 182.005 340.874" stroke="#C8AB47" stroke-width="0.5" stroke-miterlimit="10"/>
<path d="M161.522 139.456C163.773 141.397 166.467 142.755 169.367 143.411C172.266 144.067 175.283 144.001 178.151 143.218C181.507 142.327 215.852 124.861 224.272 115.176C226.638 112.44 228.441 109.264 229.574 105.829C230.707 102.394 231.15 98.7693 230.876 95.163C230.602 91.5567 229.617 88.0402 227.977 84.8159C226.338 81.5916 224.077 78.7233 221.324 76.3761C215.75 71.5898 208.513 69.194 201.182 69.7088C193.852 70.2236 187.021 73.6076 182.172 79.126C174.87 87.5266 157.017 117.76 156.292 119.769C155.063 123.194 154.905 126.911 155.839 130.427C156.773 133.943 158.756 137.092 161.522 139.456Z" stroke="black" stroke-width="0.5" stroke-miterlimit="10" stroke-linecap="round"/>
<path d="M165.543 111.414C165.978 112.029 166.154 112.79 166.032 113.534C165.911 114.277 165.502 114.943 164.893 115.387C164.591 115.606 164.248 115.763 163.885 115.849C163.522 115.934 163.146 115.947 162.778 115.887C162.409 115.827 162.057 115.694 161.74 115.497C161.424 115.3 161.149 115.042 160.933 114.738C160.877 114.661 160.826 114.58 160.781 114.496C159.999 115.281 159.295 116.142 158.68 117.065L158.983 117.17C159.67 117.481 160.206 118.052 160.473 118.757C160.739 119.463 160.714 120.245 160.404 120.932C160.093 121.62 159.522 122.155 158.816 122.422C158.11 122.688 157.327 122.663 156.64 122.353L156.383 122.186C156.096 123.27 155.914 124.378 155.838 125.495L156.171 125.42C156.912 125.359 157.648 125.592 158.22 126.068C158.792 126.543 159.154 127.224 159.229 127.964C159.304 128.704 159.086 129.443 158.622 130.024C158.158 130.605 157.484 130.981 156.745 131.071H156.398C156.688 132.161 157.088 133.219 157.592 134.228L157.864 133.972C158.479 133.537 159.241 133.361 159.985 133.483C160.729 133.604 161.395 134.013 161.84 134.621C162.058 134.923 162.215 135.266 162.301 135.629C162.387 135.991 162.4 136.368 162.34 136.736C162.279 137.104 162.146 137.456 161.949 137.773C161.752 138.089 161.494 138.363 161.19 138.58C161.088 138.659 160.976 138.725 160.857 138.776C161.659 139.583 162.54 140.307 163.487 140.937C163.519 140.797 163.565 140.66 163.623 140.529C163.934 139.842 164.505 139.306 165.211 139.04C165.917 138.773 166.7 138.798 167.387 139.109C168.075 139.419 168.611 139.99 168.878 140.695C169.144 141.401 169.119 142.183 168.808 142.871C168.808 142.992 168.672 143.112 168.597 143.233C169.7 143.527 170.829 143.709 171.968 143.777C171.929 143.633 171.899 143.487 171.877 143.339C171.817 142.598 172.049 141.863 172.525 141.291C173.001 140.72 173.682 140.358 174.422 140.282C175.163 140.207 175.903 140.425 176.484 140.889C177.065 141.353 177.441 142.027 177.531 142.765C177.546 142.916 177.546 143.068 177.531 143.218C178.641 142.913 179.719 142.503 180.751 141.994C180.637 141.886 180.531 141.77 180.433 141.647C179.992 141.034 179.813 140.271 179.935 139.526C180.057 138.78 180.47 138.114 181.083 137.673C181.697 137.232 182.46 137.053 183.206 137.175C183.951 137.297 184.618 137.71 185.059 138.323C185.138 138.449 185.209 138.58 185.271 138.716C186.083 137.899 186.812 137.003 187.447 136.041C187.292 136.005 187.14 135.954 186.994 135.89C186.306 135.58 185.77 135.009 185.504 134.303C185.237 133.598 185.262 132.815 185.573 132.128C185.884 131.441 186.455 130.905 187.161 130.639C187.867 130.373 188.649 130.397 189.337 130.708C189.471 130.769 189.598 130.845 189.715 130.935C189.999 129.826 190.171 128.693 190.229 127.55C190.09 127.589 189.948 127.619 189.806 127.641C189.064 127.701 188.328 127.469 187.757 126.993C187.185 126.517 186.822 125.837 186.747 125.097C186.672 124.357 186.89 123.617 187.354 123.037C187.819 122.456 188.493 122.08 189.231 121.99H189.639C189.334 120.895 188.924 119.833 188.415 118.817L188.113 119.089C187.499 119.53 186.736 119.709 185.99 119.587C185.244 119.465 184.578 119.053 184.137 118.439C183.696 117.826 183.517 117.063 183.638 116.318C183.76 115.573 184.173 114.907 184.787 114.466L185.089 114.3C184.288 113.511 183.413 112.803 182.474 112.184C182.448 112.305 182.407 112.421 182.353 112.532C182.042 113.219 181.471 113.755 180.765 114.021C180.059 114.287 179.277 114.263 178.589 113.952C177.901 113.642 177.365 113.071 177.099 112.365C176.832 111.66 176.857 110.877 177.168 110.19C177.218 110.096 177.273 110.005 177.334 109.918C176.255 109.643 175.151 109.471 174.039 109.404C174.039 109.51 174.039 109.616 174.039 109.722C174.099 110.463 173.867 111.198 173.391 111.769C172.915 112.341 172.234 112.703 171.494 112.778C170.754 112.853 170.013 112.636 169.432 112.171C168.851 111.707 168.475 111.034 168.385 110.296C168.378 110.195 168.378 110.094 168.385 109.994C167.311 110.291 166.269 110.69 165.271 111.187L165.543 111.414ZM182.444 119.829C183.778 121.689 184.532 123.901 184.609 126.188C184.686 128.475 184.083 130.733 182.876 132.678C181.669 134.622 179.913 136.166 177.828 137.113C175.744 138.06 173.426 138.368 171.167 137.999C168.908 137.629 166.808 136.599 165.135 135.038C163.461 133.476 162.288 131.454 161.764 129.227C161.24 126.999 161.388 124.667 162.19 122.523C162.992 120.38 164.411 118.523 166.269 117.185C168.763 115.394 171.866 114.667 174.897 115.163C177.927 115.658 180.636 117.337 182.429 119.829H182.444Z" fill="#5A7379"/>
<path d="M181.627 116.626C179.656 114.926 177.225 113.849 174.641 113.53C172.057 113.21 169.436 113.664 167.11 114.833C164.784 116.003 162.857 117.835 161.573 120.099C160.288 122.362 159.704 124.956 159.895 127.551C160.085 130.147 161.04 132.627 162.641 134.68C164.242 136.732 166.415 138.265 168.887 139.083C171.358 139.901 174.017 139.968 176.527 139.276C179.037 138.584 181.285 137.164 182.988 135.195C185.265 132.55 186.4 129.11 186.145 125.63C185.89 122.15 184.266 118.912 181.627 116.626ZM179.707 132.37C178.564 133.693 177.053 134.647 175.367 135.112C173.681 135.576 171.895 135.531 170.234 134.981C168.574 134.431 167.114 133.401 166.039 132.022C164.965 130.643 164.323 128.976 164.196 127.232C164.069 125.488 164.463 123.746 165.327 122.226C166.19 120.706 167.486 119.476 169.049 118.691C170.612 117.907 172.373 117.604 174.109 117.82C175.845 118.036 177.477 118.761 178.8 119.905C180.571 121.44 181.66 123.614 181.83 125.95C182 128.286 181.237 130.595 179.707 132.37Z" fill="#5A7379"/>
<path d="M165.195 135.649C167.596 137.717 170.719 138.748 173.879 138.515C177.04 138.283 179.979 136.806 182.05 134.41" stroke="#313131" stroke-width="0.5" stroke-miterlimit="10" stroke-linecap="round"/>
<path d="M180.811 117.563C179.62 116.538 178.239 115.758 176.746 115.267C175.253 114.776 173.678 114.583 172.111 114.7C170.544 114.817 169.015 115.242 167.612 115.95C166.209 116.657 164.959 117.634 163.933 118.825C162.908 120.015 162.127 121.396 161.636 122.888C161.144 124.38 160.952 125.954 161.069 127.521C161.186 129.087 161.611 130.615 162.319 132.018C163.027 133.42 164.005 134.669 165.196 135.694" stroke="#313131" stroke-width="0.5" stroke-miterlimit="10" stroke-linecap="round"/>
<path d="M192.164 73.445C192.5 73.9122 192.741 74.4412 192.873 75.0016C193.005 75.562 193.026 76.1429 192.933 76.7111C192.84 77.2793 192.637 77.8237 192.333 78.3133C192.03 78.8028 191.634 79.2278 191.166 79.5642C190.699 79.9005 190.169 80.1415 189.609 80.2734C189.048 80.4053 188.467 80.4255 187.898 80.3329C187.33 80.2403 186.785 80.0366 186.295 79.7337C185.806 79.4307 185.38 79.0342 185.044 78.567L184.832 78.1892C183.621 79.3987 182.533 80.7246 181.582 82.1478C181.741 82.1941 181.898 82.2495 182.051 82.314C183.047 82.829 183.808 83.7064 184.177 84.7653C184.546 85.8243 184.495 86.9843 184.034 88.0065C183.573 89.0288 182.737 89.8355 181.699 90.2606C180.661 90.6856 179.499 90.6967 178.453 90.2916C178.309 90.2257 178.172 90.1446 178.045 90.0498C177.602 91.7158 177.323 93.4212 177.213 95.1415C177.381 95.0903 177.553 95.0549 177.727 95.0358C178.873 94.9413 180.009 95.3 180.892 96.0348C181.776 96.7695 182.335 97.8215 182.45 98.9643C182.565 100.107 182.226 101.249 181.507 102.145C180.788 103.041 179.745 103.618 178.604 103.754H178.075C178.525 105.421 179.138 107.04 179.904 108.589C180.055 108.468 180.176 108.332 180.343 108.211C181.287 107.532 182.462 107.255 183.61 107.442C184.758 107.629 185.785 108.264 186.465 109.208C187.144 110.152 187.421 111.327 187.234 112.474C187.047 113.622 186.411 114.648 185.467 115.327L184.953 115.614C186.19 116.853 187.547 117.967 189.004 118.938C189.048 118.725 189.113 118.518 189.201 118.319C189.437 117.794 189.775 117.321 190.194 116.926C190.613 116.532 191.106 116.224 191.644 116.02C192.182 115.815 192.756 115.719 193.331 115.737C193.907 115.754 194.473 115.884 194.998 116.12C195.523 116.356 195.997 116.694 196.391 117.113C196.786 117.532 197.094 118.024 197.299 118.562C197.503 119.1 197.599 119.673 197.582 120.248C197.564 120.824 197.434 121.39 197.198 121.915C197.105 122.111 196.994 122.298 196.865 122.474C198.566 122.928 200.308 123.211 202.065 123.32C202.065 123.108 201.959 122.882 201.929 122.64C201.835 121.495 202.194 120.359 202.929 119.476C203.664 118.594 204.716 118.035 205.86 117.92C207.003 117.805 208.146 118.143 209.042 118.862C209.938 119.581 210.516 120.623 210.652 121.764C210.674 121.995 210.674 122.227 210.652 122.459C212.359 121.997 214.015 121.365 215.595 120.57C215.423 120.403 215.266 120.221 215.126 120.026C214.761 119.562 214.493 119.028 214.339 118.458C214.186 117.888 214.149 117.292 214.231 116.707C214.313 116.122 214.513 115.56 214.819 115.054C215.124 114.548 215.528 114.109 216.008 113.764C216.487 113.418 217.031 113.173 217.608 113.043C218.184 112.913 218.781 112.901 219.363 113.008C219.944 113.114 220.498 113.337 220.991 113.663C221.484 113.989 221.905 114.411 222.231 114.904C222.358 115.099 222.474 115.301 222.579 115.508C223.829 114.255 224.948 112.878 225.919 111.399C225.686 111.346 225.458 111.27 225.239 111.172C224.676 110.933 224.169 110.58 223.751 110.133C223.333 109.687 223.013 109.158 222.812 108.581C222.611 108.004 222.532 107.391 222.582 106.782C222.632 106.173 222.809 105.58 223.101 105.044C223.393 104.507 223.795 104.037 224.28 103.664C224.765 103.292 225.322 103.025 225.917 102.881C226.511 102.736 227.129 102.718 227.731 102.827C228.333 102.935 228.905 103.169 229.411 103.512C229.85 101.81 230.123 100.069 230.228 98.3144C230.009 98.3742 229.787 98.4196 229.563 98.4504C228.984 98.5189 228.398 98.4716 227.839 98.3113C227.279 98.1509 226.757 97.8807 226.303 97.5165C225.848 97.1522 225.471 96.7012 225.194 96.1897C224.916 95.6782 224.743 95.1166 224.685 94.5375C224.626 93.9584 224.684 93.3736 224.854 92.8171C225.025 92.2606 225.305 91.7436 225.677 91.2963C226.049 90.849 226.507 90.4803 227.024 90.2118C227.541 89.9433 228.106 89.7804 228.686 89.7325H229.306C228.834 88.0488 228.201 86.4146 227.416 84.8523C227.267 84.9962 227.11 85.1324 226.947 85.2602C226.483 85.6254 225.949 85.8928 225.379 86.0466C224.808 86.2003 224.212 86.2371 223.627 86.1548C223.042 86.0725 222.479 85.8728 221.973 85.5676C221.467 85.2625 221.028 84.8582 220.682 84.3791C220.336 83.9 220.091 83.356 219.961 82.7798C219.831 82.2036 219.819 81.607 219.926 81.026C220.032 80.445 220.255 79.8914 220.581 79.3988C220.907 78.9061 221.33 78.4844 221.823 78.159C221.972 78.0571 222.129 77.9663 222.291 77.887C221.062 76.6675 219.71 75.5789 218.255 74.6386C218.215 74.8164 218.154 74.9888 218.074 75.1523C217.859 75.7073 217.533 76.2127 217.116 76.6376C216.698 77.0625 216.199 77.398 215.648 77.6237C215.097 77.8493 214.506 77.9603 213.91 77.95C213.315 77.9397 212.728 77.8082 212.185 77.5636C211.642 77.319 211.154 76.9664 210.752 76.5273C210.35 76.0882 210.042 75.5718 209.846 75.0097C209.65 74.4476 209.571 73.8514 209.613 73.2577C209.656 72.664 209.819 72.0851 210.092 71.5564C210.092 71.4053 210.259 71.2844 210.334 71.1333C208.671 70.7063 206.97 70.4432 205.255 70.3477C205.294 70.5071 205.324 70.6685 205.346 70.8312C205.403 71.4026 205.348 71.9798 205.182 72.5297C205.016 73.0797 204.744 73.5916 204.38 74.0364C204.017 74.4811 203.569 74.8499 203.063 75.1218C202.557 75.3936 202.002 75.5631 201.43 75.6207C200.859 75.6782 200.281 75.6227 199.731 75.4571C199.181 75.2916 198.669 75.0194 198.224 74.656C197.779 74.2927 197.41 73.8452 197.138 73.3393C196.866 72.8334 196.696 72.2789 196.638 71.7075C196.638 71.5564 196.638 71.4053 196.638 71.2542C194.985 71.7049 193.38 72.3172 191.846 73.0824C191.952 73.2184 192.073 73.3241 192.164 73.445ZM218.225 86.4085C220.286 89.2735 221.451 92.6849 221.572 96.2114C221.693 99.738 220.766 103.221 218.907 106.221C217.048 109.221 214.34 111.602 211.127 113.064C207.914 114.526 204.34 115.004 200.855 114.436C197.371 113.867 194.133 112.28 191.552 109.873C188.97 107.466 187.161 104.348 186.352 100.913C185.543 97.4783 185.771 93.881 187.007 90.5758C188.244 87.2707 190.433 84.4061 193.298 82.3442C195.2 80.9724 197.355 79.9892 199.639 79.4509C201.922 78.9127 204.289 78.83 206.605 79.2075C208.92 79.585 211.139 80.4154 213.133 81.651C215.127 82.8867 216.857 84.5034 218.225 86.4085Z" fill="#EBB04B"/>
<path d="M216.94 81.4829C213.903 78.863 210.156 77.2021 206.174 76.7102C202.192 76.2184 198.154 76.9177 194.57 78.7197C190.986 80.5217 188.017 83.3454 186.038 86.8339C184.059 90.3224 183.16 94.319 183.454 98.3183C183.748 102.318 185.221 106.14 187.689 109.302C190.156 112.464 193.506 114.824 197.315 116.084C201.124 117.343 205.221 117.445 209.088 116.378C212.956 115.31 216.419 113.12 219.041 110.084C222.554 106.012 224.306 100.712 223.912 95.349C223.518 89.9863 221.01 84.9991 216.94 81.4829ZM214.007 105.748C212.247 107.779 209.925 109.244 207.333 109.957C204.741 110.669 201.995 110.599 199.444 109.754C196.892 108.908 194.647 107.327 192.994 105.208C191.341 103.089 190.353 100.528 190.155 97.8479C189.957 95.1682 190.558 92.49 191.881 90.1512C193.205 87.8123 195.192 85.9179 197.592 84.7069C199.992 83.496 202.697 83.0228 205.365 83.3471C208.034 83.6715 210.547 84.7788 212.586 86.5293C213.948 87.6937 215.065 89.1154 215.876 90.7127C216.686 92.31 217.172 94.0516 217.307 95.8373C217.442 97.6231 217.222 99.4178 216.661 101.119C216.1 102.819 215.209 104.393 214.038 105.748H214.007Z" fill="#EBB04B"/>
<path d="M215.866 107.319C213.789 109.717 211.048 111.446 207.988 112.287C204.929 113.129 201.688 113.045 198.677 112.046C195.665 111.048 193.016 109.18 191.066 106.678C189.116 104.176 187.951 101.153 187.719 97.9898C187.487 94.8267 188.198 91.6658 189.762 88.9063C191.326 86.1469 193.674 83.9127 196.508 82.4859C199.342 81.0591 202.535 80.5037 205.685 80.8899C208.834 81.2762 211.799 82.5867 214.204 84.6559C217.429 87.442 219.416 91.394 219.728 95.6437C220.04 99.8933 218.651 104.093 215.866 107.319Z" stroke="#313131" stroke-width="0.5" stroke-miterlimit="10" stroke-linecap="round"/>
<path d="M452.897 274.938H394.894V307.725H452.897V274.938Z" fill="#EBB04B"/>
<path d="M452.851 275.06L424.417 259.618L394.849 275.06C394.849 275.06 452.851 275.18 452.851 275.06Z" fill="#EBB04B"/>
<path d="M445.006 278.731L421.378 289.775L405.022 280.982L405.37 256.218H445.006V278.731Z" fill="white"/>
<path d="M395.408 275.633L452.413 307.015" stroke="#232757" stroke-width="0.5" stroke-miterlimit="10"/>
<path d="M408.423 266.477C409.927 266.524 411.416 266.164 412.732 265.435C413.699 264.891 414.576 263.637 413.82 262.866C413.536 262.888 413.262 262.98 413.022 263.132C412.781 263.285 412.582 263.495 412.442 263.742C412.302 263.99 412.224 264.268 412.217 264.553C412.209 264.838 412.272 265.12 412.399 265.374C412.74 265.87 413.222 266.253 413.782 266.474C414.342 266.695 414.955 266.743 415.543 266.613C416.716 266.331 417.821 265.817 418.793 265.102C419.519 264.634 420.305 263.894 420.003 263.123C419.758 263.026 419.493 262.991 419.232 263.021C418.97 263.051 418.72 263.144 418.503 263.294C418.287 263.443 418.11 263.644 417.989 263.877C417.869 264.111 417.807 264.371 417.811 264.634C417.937 265.17 418.236 265.651 418.662 266C419.088 266.35 419.618 266.549 420.169 266.568C421.298 266.601 422.416 266.346 423.419 265.828C424.855 265.208 426.443 264.317 426.73 262.806C425.611 262.035 423.873 263.289 424.039 264.589C424.227 265.237 424.628 265.803 425.175 266.197C425.723 266.591 426.388 266.791 427.062 266.764C428.443 266.671 429.771 266.2 430.902 265.405C431.733 264.891 432.565 263.727 431.748 263.199C431.576 263.099 431.381 263.047 431.182 263.047C430.983 263.047 430.787 263.099 430.615 263.199C430.38 263.345 430.179 263.541 430.026 263.772C429.874 264.003 429.772 264.264 429.729 264.538C429.686 264.812 429.703 265.091 429.777 265.358C429.852 265.625 429.983 265.873 430.161 266.084C430.572 266.496 431.088 266.788 431.653 266.926C432.219 267.065 432.811 267.045 433.366 266.87C434.462 266.512 435.423 265.826 436.117 264.906C436.631 264.271 436.858 263.063 436.026 262.912C435.868 262.894 435.708 262.914 435.558 262.969C435.409 263.024 435.274 263.113 435.165 263.229C434.061 264.302 435.165 266.251 436.676 266.704C438.246 266.946 439.851 266.631 441.211 265.812" stroke="#232757" stroke-width="0.5" stroke-miterlimit="10"/>
<path d="M451.173 275.754L421.378 289.458" stroke="#232757" stroke-width="0.5" stroke-miterlimit="10"/>
<path d="M298.389 32.6356C283.335 30.8448 268.198 29.8362 253.039 29.6138C240.752 29.6629 228.576 31.9462 217.106 36.3524C193.254 44.9918 171.968 59.5061 155.219 78.5518C140.102 95.9725 124.547 123.879 131.243 148.053C135.476 163.238 149.384 174.766 165.589 169.689C167.811 168.994 170.23 167.665 170.592 165.353C170.662 164.287 170.373 163.229 169.77 162.347C169.167 161.465 168.286 160.81 167.267 160.488C165.207 159.898 163.023 159.898 160.963 160.488C147.358 163.389 133.526 174.237 126.95 186.521C123.927 192.051 122.823 198.91 125.439 204.652C126.421 207.098 128.335 209.054 130.76 210.091C131.976 210.568 133.318 210.627 134.571 210.258C135.825 209.888 136.92 209.112 137.683 208.051C138.055 207.484 138.226 206.808 138.167 206.132C137.986 204.848 136.655 204.017 135.476 203.579C117.064 197.067 110.398 227.995 113.693 239.961C114.884 245.066 117.846 249.583 122.053 252.713C126.361 255.599 132.468 256.128 136.67 253.076C137.514 252.539 138.211 251.8 138.699 250.928C139.187 250.055 139.451 249.075 139.467 248.075C139.292 246.943 138.756 245.898 137.939 245.094C137.122 244.291 136.067 243.773 134.932 243.618C132.67 243.325 130.374 243.77 128.386 244.887C121.992 248.045 117.17 255.252 118.757 262.202C120.178 268.457 126.195 272.687 132.362 274.561C139.048 276.569 146.187 276.496 152.83 274.349" stroke="#A6414F" stroke-width="0.5" stroke-miterlimit="10" stroke-dasharray="3 3"/>
<path d="M311.661 18.5234L346.989 42.8943L311.782 52.836L312.901 34.3274L306.113 36.2765L312.538 26.7881L311.661 18.5234Z" fill="white"/>
<path d="M311.661 18.5234L346.989 42.8943L313.43 54.1656L312.901 34.3275L306.113 36.2765L312.538 26.7881L311.661 18.5234Z" fill="#EBB04B"/>
<mask id="mask1_100_557" style="mask-type:luminance" maskUnits="userSpaceOnUse" x="306" y="18" width="41" height="37">
<path d="M311.661 18.5234L346.974 42.8791L313.43 54.1656L312.886 34.3274L306.113 36.2765L312.523 26.7729L311.661 18.5234Z" fill="white"/>
</mask>
<g mask="url(#mask1_100_557)">
<path d="M339.309 41.5647L312.901 34.3275L303.589 41.2474L301.926 32.8468L312.538 26.7881L339.309 41.5647Z" fill="black"/>
</g>
<mask id="mask2_100_557" style="mask-type:luminance" maskUnits="userSpaceOnUse" x="4" y="216" width="43" height="43">
<path d="M25.7587 258.288C37.4052 258.288 46.8465 248.852 46.8465 237.211C46.8465 225.571 37.4052 216.134 25.7587 216.134C14.1123 216.134 4.6709 225.571 4.6709 237.211C4.6709 248.852 14.1123 258.288 25.7587 258.288Z" fill="white"/>
</mask>
<g mask="url(#mask2_100_557)">
<path d="M25.7738 258.288C37.4203 258.288 46.8617 248.852 46.8617 237.211C46.8617 225.571 37.4203 216.134 25.7738 216.134C14.1274 216.134 4.68604 225.571 4.68604 237.211C4.68604 248.852 14.1274 258.288 25.7738 258.288Z" fill="#7FA4B0"/>
<path d="M35.5391 237.211C35.5391 248.86 31.1553 258.288 25.7586 258.288C20.3619 258.288 15.9932 248.86 15.9932 237.211C15.9932 225.562 20.377 216.059 25.7586 216.059C31.1401 216.059 35.5391 225.562 35.5391 237.211Z" stroke="#313131" stroke-width="0.5" stroke-miterlimit="10" stroke-linecap="round"/>
<path d="M4.6709 237.211H46.8616" stroke="#313131" stroke-width="0.5" stroke-miterlimit="10" stroke-linecap="round"/>
<path d="M48.4639 218.627C48.4639 224.459 38.5625 229.203 26.3482 229.203C14.1339 229.203 4.24756 224.474 4.24756 218.627C4.24756 212.78 14.149 208.051 26.3482 208.051C38.5474 208.051 48.4639 212.795 48.4639 218.627Z" stroke="#313131" stroke-width="0.5" stroke-miterlimit="10" stroke-linecap="round"/>
<path d="M26.3633 267.459C38.5692 267.459 48.464 262.731 48.464 256.898C48.464 251.065 38.5692 246.337 26.3633 246.337C14.1575 246.337 4.2627 251.065 4.2627 256.898C4.2627 262.731 14.1575 267.459 26.3633 267.459Z" stroke="#313131" stroke-width="0.5" stroke-miterlimit="10" stroke-linecap="round"/>
</g>
<path d="M250.363 267.263C249.295 273.857 250.288 280.619 253.207 286.627C256.126 292.635 260.829 297.597 266.674 300.835" stroke="#A6414F" stroke-width="0.5" stroke-miterlimit="10" stroke-dasharray="3 3"/>
<path d="M426.624 230.639C425.914 233.562 424.376 236.219 422.193 238.291C420.011 240.362 417.277 241.761 414.319 242.318C408.378 243.179 401.908 239.221 400.638 233.374C399.369 227.526 404.312 220.909 410.298 221.12C413.85 226.076 412.898 233.404 408.907 238.012C404.916 242.62 398.507 244.675 392.415 244.373C386.314 243.846 380.43 241.861 375.257 238.586" stroke="#A6414F" stroke-width="0.5" stroke-miterlimit="10" stroke-dasharray="3 3"/>
<path d="M421.333 312.847C417.584 325.236 407.093 336.069 393.413 341.554" stroke="#A6414F" stroke-width="0.5" stroke-miterlimit="10" stroke-dasharray="3 3"/>
<path d="M188.082 344.939C185.227 343.569 181.969 343.289 178.922 344.153C174.845 345.433 171.429 348.252 169.398 352.01C166.511 357.101 166.163 362.828 164.636 368.252C163.11 373.676 158.59 377.997 155.46 382.726C152.029 387.909 150.925 394.133 149.671 399.965C149.353 401.34 148.159 410.345 149.792 414.395H154.871C156.408 409.77 158.435 405.323 160.918 401.129C163.064 397.699 164.546 394.103 167.146 390.855C172.376 384.298 179.405 378.949 184.258 372.15C188.067 366.801 191.604 363.084 192.451 356.301C192.844 353.203 192.874 349.849 190.939 347.235C190.169 346.267 189.193 345.483 188.082 344.939Z" fill="#A9D2B2"/>
<path d="M178.891 360.471C176.866 371.138 168.083 377.091 161.598 385.552C155.551 393.499 153.284 403.123 152.422 412.476" stroke="black" stroke-width="0.25" stroke-miterlimit="10"/>
<path d="M146.723 412.445C144.642 407.596 141.811 403.104 138.333 399.134C135.41 395.515 131.912 392.402 127.978 389.918C123.957 387.576 119.21 388.528 114.993 386.715C112.269 385.28 109.935 383.206 108.19 380.671C106.27 378.269 103.655 377.513 100.148 377.891C92.3931 378.737 90.1861 385.672 93.663 391.202C96.1637 395.151 100.034 398.04 104.532 399.316C109.203 400.645 114.252 400.343 119.15 400.026L127.509 399.497C131.923 399.21 135.249 403.365 137.517 406.356C139.376 408.804 140.253 412.4 142.762 414.425H147.599C147.378 413.736 147.084 413.072 146.723 412.445Z" fill="#83B08B"/>
<path d="M148.673 411.086C149.005 411.917 149.338 412.748 149.64 413.579C149.695 413.764 149.806 413.927 149.958 414.047C150.105 414.114 150.265 414.15 150.426 414.153C150.714 414.153 151.303 414.304 151.938 414.394H154.311C154.765 413.79 154.311 411.977 154.311 411.373C153.994 408.079 152.8 405.072 152.452 401.778C152.041 398.102 151.359 394.461 150.411 390.885C149.522 388.15 148.924 385.329 148.627 382.469C148.068 370.382 154.765 359.186 155.097 347.099C155.315 344.662 154.898 342.211 153.888 339.983C152.938 338.401 151.596 337.09 149.991 336.177C148.386 335.264 146.574 334.779 144.727 334.77C131.712 334.543 129.611 350.075 128.946 358.159C128.356 364.943 128.159 371.953 130.76 378.375C133.103 384.192 137.562 389.102 140.54 394.662C143.552 399.982 146.267 405.465 148.673 411.086Z" fill="#83B08B"/>
<path d="M137.94 368.418C138.065 373.384 138.662 378.327 139.724 383.179C141.145 388.882 143.078 394.444 145.498 399.799C147.615 404.725 148.219 409.212 149.308 414.41" stroke="black" stroke-width="0.25" stroke-miterlimit="10"/>
<path d="M143.533 413.866C142.339 411.947 141.19 409.65 139.996 407.731C138.396 404.839 136.262 402.276 133.707 400.177C129.834 397.676 125.319 396.348 120.707 396.354C115.915 396.143 110.896 396.626 106.512 394.934C103.825 393.755 101.372 392.102 99.2715 390.054" stroke="black" stroke-width="0.25" stroke-miterlimit="10"/>
<path d="M140.011 414.455L159.587 414.561" stroke="#232757" stroke-width="0.25" stroke-miterlimit="10"/>
<path d="M218.134 32.9979L200.614 16.4384L188.445 42.1389L171.952 20.9107L160.403 36.2917L141.976 5.24268L116.776 39.4041" stroke="black" stroke-width="0.5" stroke-miterlimit="10"/>
<path d="M123.549 39.4041C123.549 40.7428 123.152 42.0515 122.408 43.1646C121.663 44.2777 120.606 45.1453 119.368 45.6576C118.131 46.17 116.769 46.304 115.455 46.0428C114.142 45.7817 112.935 45.137 111.988 44.1904C111.041 43.2437 110.396 42.0376 110.135 40.7246C109.873 39.4116 110.007 38.0506 110.52 36.8137C111.032 35.5769 111.901 34.5198 113.014 33.776C114.128 33.0322 115.437 32.6353 116.777 32.6353C118.572 32.6392 120.292 33.3536 121.561 34.6222C122.83 35.8907 123.545 37.6101 123.549 39.4041Z" fill="#5A7379"/>
<path d="M168.355 20.8958C168.352 21.6083 168.561 22.3056 168.955 22.8993C169.349 23.4929 169.911 23.9562 170.569 24.2302C171.227 24.5043 171.952 24.5768 172.651 24.4385C173.35 24.3002 173.993 23.9574 174.497 23.4536C175.001 22.9498 175.344 22.3077 175.482 21.6087C175.62 20.9098 175.548 20.1855 175.274 19.5278C175 18.8702 174.536 18.3087 173.942 17.9147C173.348 17.5207 172.651 17.312 171.938 17.315C170.989 17.3189 170.08 17.6975 169.409 18.3682C168.738 19.0389 168.359 19.9473 168.355 20.8958Z" fill="#DD5050"/>
<path d="M213.176 33.799C213.176 34.833 213.483 35.8437 214.057 36.7034C214.632 37.5631 215.449 38.2331 216.405 38.6288C217.36 39.0245 218.412 39.128 219.427 38.9263C220.441 38.7246 221.373 38.2267 222.105 37.4956C222.836 36.7645 223.334 35.833 223.536 34.8189C223.738 33.8048 223.634 32.7537 223.238 31.7984C222.843 30.8432 222.172 30.0267 221.312 29.4523C220.452 28.8779 219.441 28.5713 218.406 28.5713C217.719 28.5693 217.038 28.7032 216.402 28.9652C215.767 29.2272 215.189 29.6122 214.703 30.098C214.217 30.5839 213.832 31.1609 213.57 31.7961C213.308 32.4312 213.174 33.1119 213.176 33.799Z" fill="#5A7379"/>
<path d="M194.612 16.9978C194.612 18.2409 194.981 19.4561 195.672 20.4897C196.363 21.5233 197.345 22.3289 198.494 22.8046C199.643 23.2804 200.908 23.4048 202.128 23.1623C203.348 22.9198 204.468 22.3212 205.348 21.4422C206.227 20.5632 206.826 19.4432 207.069 18.224C207.311 17.0048 207.187 15.7409 206.711 14.5924C206.235 13.444 205.429 12.4623 204.395 11.7717C203.36 11.081 202.145 10.7124 200.901 10.7124C200.075 10.7104 199.256 10.8716 198.492 11.1868C197.728 11.502 197.034 11.9649 196.45 12.5489C195.865 13.1329 195.402 13.8266 195.087 14.5901C194.772 15.3536 194.61 16.1718 194.612 16.9978Z" fill="#DD5050"/>
<path d="M147.146 5.27303C147.149 6.31956 146.841 7.34344 146.262 8.21506C145.682 9.08667 144.857 9.76682 143.89 10.1694C142.924 10.572 141.86 10.6789 140.832 10.4765C139.805 10.2742 138.861 9.77171 138.119 9.03275C137.378 8.2938 136.873 7.35158 136.667 6.32537C136.462 5.29916 136.566 4.23514 136.966 3.26798C137.366 2.30081 138.044 1.474 138.914 0.892255C139.785 0.310515 140.808 4.27164e-06 141.855 0C143.256 -5.71381e-06 144.599 0.555044 145.591 1.5435C146.583 2.53195 147.142 3.87314 147.146 5.27303Z" fill="#DD5050"/>
<path d="M165.09 36.5636C165.093 35.6336 164.819 34.7236 164.305 33.9489C163.79 33.1742 163.057 32.5696 162.198 32.2116C161.339 31.8537 160.393 31.7585 159.48 31.9381C158.567 32.1177 157.728 32.564 157.069 33.2205C156.41 33.8771 155.961 34.7143 155.778 35.6262C155.596 36.5381 155.688 37.4837 156.043 38.3432C156.399 39.2027 157.001 39.9375 157.775 40.4544C158.548 40.9714 159.458 41.2474 160.388 41.2474C161.633 41.2474 162.826 40.7544 163.707 39.8765C164.588 38.9985 165.086 37.8072 165.09 36.5636Z" fill="#5A7379"/>
<path d="M192.602 42.1237C192.602 41.2983 192.357 40.4914 191.898 39.8053C191.439 39.1193 190.786 38.5848 190.023 38.2696C189.26 37.9544 188.42 37.8727 187.61 38.0349C186.801 38.197 186.057 38.5957 185.475 39.1804C184.892 39.7651 184.495 40.5095 184.336 41.3194C184.177 42.1293 184.262 42.9683 184.58 43.73C184.898 44.4917 185.435 45.142 186.123 45.5983C186.811 46.0547 187.619 46.2968 188.445 46.2938C188.992 46.2938 189.534 46.1858 190.04 45.9761C190.545 45.7663 191.004 45.4589 191.39 45.0715C191.776 44.684 192.082 44.2242 192.29 43.7184C192.498 43.2125 192.604 42.6706 192.602 42.1237Z" fill="#5A7379"/>
<path d="M52.0621 242.454C49.7074 249.294 45.209 255.193 39.2345 259.276C33.2599 263.359 26.1276 265.407 18.896 265.118" stroke="#A6414F" stroke-width="0.5" stroke-miterlimit="10" stroke-dasharray="3 3"/>
<path d="M39.0013 212.87C29.9313 209.849 19.5008 210.423 11.5191 215.59C3.53751 220.757 -1.3603 230.941 0.937438 240.172" stroke="#A6414F" stroke-width="0.5" stroke-miterlimit="10" stroke-dasharray="3 3"/>
<path d="M474.075 182.592C472.592 177.377 469.33 172.844 464.854 169.78C462.607 168.304 460.017 167.433 457.334 167.251C454.652 167.068 451.967 167.58 449.541 168.737C447.433 166.917 444.942 165.594 442.253 164.866C439.564 164.138 436.746 164.023 434.007 164.531C431.268 165.039 428.678 166.156 426.429 167.799C424.18 169.443 422.33 171.571 421.016 174.026" stroke="#A6414F" stroke-width="0.5" stroke-miterlimit="10" stroke-dasharray="3 3"/>
<path d="M336.861 52.655L357.026 44.5264" stroke="#A6414F" stroke-width="0.5" stroke-miterlimit="10" stroke-dasharray="3 3"/>
<path d="M235.987 88.7051C237.236 94.6257 236.865 100.773 234.912 106.501C232.959 112.228 229.497 117.324 224.891 121.25" stroke="#A6414F" stroke-width="0.5" stroke-miterlimit="10" stroke-dasharray="3 3"/>
</g>
<defs>
<clipPath id="clip0_100_557">
<rect width="487" height="420" fill="white"/>
</clipPath>
</defs>
</svg>
