<svg width="496" height="524" viewBox="0 0 496 524" fill="none" xmlns="http://www.w3.org/2000/svg">
<path opacity="0.3" d="M150.882 384.896C120.188 366.539 91.9299 343.244 66.5245 320.335C26.4107 284.098 -6.72032 236.287 1.30245 179.581C9.7412 120.078 71.4868 54.3269 134.183 83.3644C159.054 94.8782 177.358 117.341 207.25 113.324C235.151 109.575 250.216 86.5478 268.193 67.8043C291.37 43.6759 319.39 21.6003 350.619 9.07495C406.779 -13.4172 476.904 7.23031 492.028 71.0472C507.39 135.816 467.871 190.232 437.711 243.219C407.551 296.206 379.68 355.293 330.741 393.434C316.459 404.653 299.873 412.566 282.174 416.604C264.475 420.642 246.103 420.706 228.376 416.789C200.982 410.457 174.805 399.684 150.882 384.896Z" fill="#86B8E1"/>
<g clip-path="url(#clip0_110_1276)">
<g style="mix-blend-mode:multiply">
<path d="M241.777 466.243C367.444 466.243 469.317 457.738 469.317 447.247C469.317 436.755 367.444 428.25 241.777 428.25C116.11 428.25 14.2363 436.755 14.2363 447.247C14.2363 457.738 116.11 466.243 241.777 466.243Z" fill="#E8E8E8"/>
</g>
<path d="M405.121 429.329C405.121 429.329 383.186 364.937 420.937 318.945C458.689 272.952 467.687 252.659 469.329 250.524C461.96 315.525 441.047 358.188 427.755 374.487C414.464 390.786 405.121 429.329 405.121 429.329Z" fill="#B6D15A"/>
<path d="M405.121 429.329C405.121 429.329 392.277 377.678 430.028 331.686C467.779 285.693 467.687 252.659 469.329 250.524C461.96 315.525 441.047 358.188 427.755 374.487C414.464 390.786 405.121 429.329 405.121 429.329Z" fill="#A1BC33"/>
<path d="M407.566 433.002C407.566 433.002 403.847 377.759 443.148 349.511C482.449 321.264 493.846 307.203 495.591 305.895C476.136 355.468 450.723 384.622 436.835 394.677C422.946 404.732 407.566 433.002 407.566 433.002Z" fill="#B6D15A"/>
<path d="M407.565 433.002C407.565 433.002 408.323 389.684 447.67 361.448C487.016 333.212 493.892 307.203 495.636 305.872C476.181 355.445 450.769 384.599 436.88 394.654C422.992 404.709 407.565 433.002 407.565 433.002Z" fill="#A1BC33"/>
<path d="M148.265 307.72H136.374C134.393 307.717 132.494 306.928 131.094 305.528C129.693 304.127 128.905 302.228 128.902 300.247V289.665C123.186 288.722 117.585 287.183 112.19 285.073L106.864 294.256C105.87 295.971 104.237 297.223 102.321 297.735C100.406 298.247 98.3659 297.978 96.6485 296.988L86.3183 291.042C84.6039 290.05 83.3524 288.42 82.8382 286.507C82.324 284.594 82.589 282.556 83.5751 280.838L89.0157 271.415C84.6215 267.747 80.6139 263.639 77.0555 259.156L67.4484 264.7C65.7311 265.691 63.6909 265.959 61.7756 265.447C59.8604 264.935 58.2266 263.684 57.233 261.968L51.2873 251.638C50.3382 249.93 50.095 247.918 50.6098 246.032C51.1246 244.147 52.3564 242.538 54.0421 241.549L63.9247 235.81C62.0228 230.527 60.6577 225.067 59.85 219.511H48.1538C46.173 219.508 44.2742 218.72 42.8735 217.319C41.4729 215.918 40.6847 214.02 40.6816 212.039V200.147C40.6816 198.165 41.4685 196.263 42.8695 194.86C44.2705 193.457 46.171 192.667 48.1538 192.664H60.2746C61.2483 187.246 62.7514 181.937 64.7626 176.813L54.0421 170.637C52.3268 169.644 51.0752 168.011 50.5611 166.096C50.0469 164.182 50.3122 162.141 51.2988 160.422L57.2444 150.092C58.2361 148.374 59.8691 147.121 61.7845 146.606C63.6999 146.092 65.7412 146.359 67.4599 147.348L78.4903 153.719C81.9813 149.596 85.8637 145.821 90.0831 142.447L83.6095 131.256C82.6229 129.537 82.3576 127.497 82.8717 125.582C83.3859 123.668 84.6375 122.035 86.3527 121.041L96.683 115.095C98.3971 114.127 100.424 113.871 102.324 114.385C104.225 114.898 105.848 116.139 106.841 117.838L113.395 129.19C118.413 127.332 123.598 125.964 128.879 125.104V111.927C128.882 109.946 129.67 108.048 131.071 106.647C132.471 105.246 134.37 104.458 136.351 104.455H148.242C150.223 104.458 152.122 105.246 153.523 106.647C154.923 108.048 155.711 109.946 155.715 111.927V125.104C160.995 125.965 166.18 127.334 171.198 129.19L177.752 117.838C178.238 116.981 178.889 116.229 179.668 115.625C180.446 115.021 181.336 114.577 182.287 114.318C183.238 114.06 184.23 113.993 185.207 114.12C186.184 114.248 187.126 114.567 187.979 115.061L198.31 121.006C200.025 122 201.276 123.634 201.789 125.549C202.301 127.464 202.032 129.505 201.041 131.222L194.579 142.413C198.79 145.802 202.664 149.588 206.149 153.719L217.179 147.348C218.03 146.862 218.969 146.548 219.941 146.425C220.913 146.301 221.9 146.37 222.845 146.628C223.791 146.886 224.676 147.328 225.451 147.928C226.226 148.528 226.874 149.275 227.36 150.126L233.306 160.456C234.297 162.174 234.565 164.214 234.053 166.129C233.541 168.044 232.29 169.678 230.574 170.672L219.865 176.847C221.887 181.968 223.39 187.278 224.353 192.698H236.474C238.458 192.701 240.36 193.491 241.762 194.894C243.165 196.296 243.955 198.198 243.958 200.182V212.073C243.952 214.055 243.161 215.954 241.758 217.354C240.356 218.754 238.456 219.542 236.474 219.545H224.778C223.969 225.113 222.6 230.586 220.692 235.879L230.574 241.618C232.289 242.609 233.54 244.241 234.052 246.154C234.565 248.068 234.296 250.106 233.306 251.822L227.36 262.152C226.369 263.867 224.737 265.118 222.824 265.63C220.911 266.142 218.872 265.874 217.156 264.884L207.549 259.34C203.987 263.823 199.976 267.931 195.578 271.598L201.018 281.022C202.008 282.737 202.277 284.776 201.765 286.689C201.252 288.603 200.001 290.234 198.287 291.226L187.956 297.171C186.241 298.161 184.202 298.43 182.289 297.918C180.375 297.405 178.744 296.154 177.752 294.44L172.415 285.257C167.024 287.368 161.427 288.907 155.715 289.848V300.431C155.664 302.376 154.858 304.225 153.467 305.585C152.077 306.946 150.211 307.711 148.265 307.72ZM111.662 283.616L112.155 283.811C117.777 286.036 123.628 287.63 129.602 288.563L130.118 288.643V300.282C130.122 301.939 130.782 303.527 131.955 304.698C133.128 305.868 134.717 306.526 136.374 306.526H148.265C149.92 306.523 151.507 305.864 152.677 304.694C153.847 303.523 154.506 301.937 154.509 300.282V288.609L155.026 288.528C161.003 287.599 166.858 286.01 172.484 283.788L172.977 283.593L178.843 293.739C179.25 294.451 179.795 295.076 180.445 295.576C181.095 296.077 181.838 296.443 182.631 296.655C184.231 297.081 185.934 296.859 187.371 296.035L197.701 290.078C198.412 289.669 199.035 289.124 199.535 288.474C200.035 287.823 200.402 287.081 200.616 286.289C200.829 285.497 200.884 284.671 200.778 283.858C200.671 283.045 200.406 282.26 199.997 281.55L194.028 271.219L194.43 270.887C199.056 267.083 203.255 262.788 206.952 258.077L207.274 257.652L217.799 263.724C218.51 264.135 219.294 264.402 220.107 264.509C220.921 264.616 221.748 264.561 222.54 264.348C223.332 264.134 224.075 263.767 224.725 263.266C225.375 262.765 225.919 262.141 226.327 261.429L232.285 251.098C233.109 249.661 233.33 247.955 232.9 246.355C232.469 244.754 231.423 243.39 229.989 242.559L219.211 236.338L219.395 235.856C221.432 230.329 222.867 224.599 223.676 218.765L223.745 218.237H236.508C238.166 218.237 239.755 217.579 240.928 216.409C242.101 215.238 242.761 213.65 242.764 211.993V200.147C242.761 198.489 242.101 196.9 240.928 195.728C239.756 194.555 238.167 193.895 236.508 193.892H223.32L223.24 193.387C222.263 187.7 220.685 182.133 218.534 176.778L218.327 176.285L229.954 169.57C231.388 168.742 232.434 167.379 232.864 165.78C233.295 164.182 233.074 162.478 232.25 161.042L226.293 150.712C225.464 149.278 224.102 148.232 222.503 147.802C220.905 147.371 219.201 147.592 217.765 148.416L205.839 155.303L205.518 154.901C201.888 150.557 197.822 146.595 193.385 143.079L192.961 142.757L199.962 130.636C200.786 129.201 201.007 127.497 200.577 125.898C200.146 124.3 199.1 122.937 197.667 122.108L187.337 116.163C185.901 115.339 184.197 115.118 182.598 115.548C181 115.979 179.637 117.025 178.808 118.458L171.726 130.717L171.244 130.533C166.007 128.55 160.58 127.112 155.049 126.24L154.532 126.16V111.927C154.529 110.272 153.87 108.686 152.7 107.515C151.53 106.345 149.943 105.686 148.288 105.683H136.374C134.717 105.683 133.128 106.341 131.955 107.511C130.782 108.682 130.122 110.27 130.118 111.927V126.16L129.602 126.24C124.055 127.103 118.612 128.537 113.361 130.522L112.878 130.705L105.797 118.504C104.968 117.071 103.605 116.025 102.007 115.594C100.408 115.164 98.7043 115.385 97.2684 116.209L86.9381 122.154C86.2273 122.563 85.6041 123.109 85.104 123.759C84.604 124.409 84.2369 125.151 84.0237 125.943C83.8105 126.735 83.7555 127.561 83.8616 128.374C83.9678 129.187 84.2332 129.972 84.6425 130.682L91.6326 142.803L91.2194 143.125C86.795 146.639 82.7414 150.597 79.1216 154.935L78.7887 155.337L66.8745 148.45C65.4368 147.626 63.7312 147.405 62.1308 147.835C60.5304 148.265 59.1655 149.312 58.3349 150.746L52.3892 161.076C51.9799 161.787 51.7145 162.571 51.6084 163.384C51.5022 164.198 51.5572 165.024 51.7704 165.816C51.9836 166.608 52.3507 167.35 52.8508 168C53.3508 168.65 53.9741 169.195 54.6848 169.604L66.3121 176.319L66.117 176.813C63.9657 182.167 62.3882 187.734 61.411 193.421L61.3192 193.926H48.1538C46.4968 193.929 44.9086 194.59 43.7379 195.763C42.5673 196.935 41.9098 198.525 41.9098 200.182V212.073C41.9128 213.728 42.5717 215.315 43.742 216.485C44.9123 217.655 46.4987 218.314 48.1538 218.317H60.9289L61.0092 218.845C61.8179 224.679 63.2533 230.41 65.2906 235.936L65.4742 236.418L54.6848 242.639C53.2509 243.47 52.2043 244.835 51.7741 246.435C51.3439 248.035 51.565 249.741 52.3892 251.179L58.3349 261.509C58.744 262.221 59.2897 262.846 59.9406 263.347C60.5916 263.848 61.335 264.216 62.1283 264.429C62.9216 264.642 63.7492 264.697 64.5636 264.59C65.3781 264.483 66.1634 264.216 66.8745 263.805L77.3884 257.733L77.7213 258.157C81.4183 262.865 85.613 267.16 90.2323 270.967L90.6341 271.3L84.677 281.63C84.2676 282.341 84.0022 283.125 83.8961 283.938C83.7899 284.752 83.845 285.578 84.0581 286.37C84.2713 287.162 84.6384 287.904 85.1385 288.554C85.6385 289.204 86.2618 289.749 86.9726 290.158L97.3028 296.115C98.0135 296.525 98.7978 296.79 99.611 296.896C100.424 297.002 101.25 296.947 102.042 296.734C102.834 296.521 103.577 296.154 104.227 295.654C104.877 295.154 105.422 294.531 105.831 293.82L111.662 283.616ZM142.32 253.153C133.272 253.155 124.427 250.474 116.904 245.449C109.38 240.424 103.516 233.281 100.052 224.922C96.5888 216.564 95.682 207.366 97.4465 198.492C99.211 189.619 103.568 181.468 109.965 175.07C116.363 168.672 124.514 164.316 133.388 162.551C142.261 160.787 151.459 161.694 159.817 165.157C168.176 168.62 175.319 174.485 180.344 182.008C185.369 189.532 188.05 198.377 188.048 207.425C188.024 219.542 183.197 231.155 174.626 239.72C166.054 248.286 154.437 253.103 142.32 253.119V253.153ZM142.32 162.913C133.516 162.91 124.909 165.519 117.587 170.409C110.266 175.298 104.559 182.249 101.188 190.383C97.8172 198.516 96.934 207.466 98.6502 216.101C100.366 224.737 104.605 232.669 110.829 238.895C117.054 245.121 124.985 249.362 133.62 251.08C142.255 252.799 151.205 251.918 159.339 248.549C167.474 245.181 174.426 239.475 179.318 232.155C184.209 224.835 186.82 216.229 186.82 207.425C186.817 195.619 182.129 184.297 173.786 175.945C165.442 167.593 154.125 162.893 142.32 162.878V162.913Z" fill="#4F5665"/>
<path d="M376.105 249.468H369.551C368.388 249.468 367.273 249.006 366.45 248.184C365.628 247.362 365.166 246.247 365.166 245.084V239.483C362.157 238.972 359.204 238.168 356.351 237.084L353.539 241.962C353.251 242.462 352.867 242.901 352.41 243.253C351.952 243.605 351.429 243.863 350.871 244.012C350.313 244.162 349.732 244.199 349.159 244.123C348.587 244.047 348.035 243.859 347.536 243.569L341.854 240.297C340.848 239.712 340.114 238.752 339.813 237.627C339.512 236.503 339.668 235.304 340.247 234.294L343.128 229.302C340.821 227.363 338.711 225.203 336.827 222.851L331.742 225.778C330.733 226.36 329.534 226.518 328.408 226.217C327.282 225.915 326.322 225.18 325.739 224.171L322.456 218.501C321.874 217.491 321.716 216.292 322.017 215.167C322.319 214.041 323.055 213.081 324.063 212.498L329.309 209.467C328.315 206.678 327.597 203.799 327.162 200.87H320.953C319.788 200.867 318.671 200.403 317.848 199.579C317.024 198.756 316.56 197.639 316.557 196.474V189.92C316.56 188.755 317.024 187.639 317.848 186.815C318.671 185.991 319.788 185.527 320.953 185.524H327.403C327.902 182.68 328.671 179.89 329.699 177.191L323.96 173.897C322.951 173.314 322.215 172.354 321.914 171.228C321.613 170.102 321.771 168.903 322.353 167.894L325.636 162.224C325.928 161.715 326.321 161.271 326.791 160.92C327.26 160.569 327.797 160.317 328.368 160.181C328.925 160.028 329.508 159.989 330.081 160.063C330.655 160.138 331.208 160.326 331.708 160.617L337.573 164.06C339.418 161.904 341.454 159.917 343.656 158.126L340.213 152.158C339.634 151.148 339.477 149.949 339.778 148.825C340.079 147.7 340.813 146.74 341.82 146.155L347.501 142.883C348.511 142.304 349.71 142.148 350.834 142.449C351.959 142.75 352.919 143.484 353.504 144.49L356.948 150.551C359.613 149.564 362.364 148.826 365.166 148.347V141.322C365.166 140.158 365.628 139.042 366.45 138.218C367.272 137.394 368.387 136.929 369.551 136.926H376.105C377.27 136.929 378.386 137.393 379.21 138.217C380.034 139.041 380.498 140.157 380.501 141.322V148.347C383.27 148.811 385.99 149.529 388.627 150.493L392.128 144.433C392.711 143.424 393.671 142.688 394.797 142.387C395.923 142.086 397.122 142.244 398.131 142.826L403.801 146.051C404.814 146.635 405.553 147.597 405.856 148.726C406.007 149.282 406.045 149.864 405.968 150.435C405.891 151.007 405.701 151.557 405.408 152.054L401.965 158.023C404.16 159.817 406.192 161.803 408.037 163.957L413.913 160.514C414.923 159.931 416.122 159.773 417.247 160.075C418.373 160.376 419.333 161.112 419.916 162.121L423.188 167.791C423.479 168.29 423.669 168.841 423.746 169.414C423.823 169.987 423.785 170.569 423.636 171.127C423.486 171.685 423.228 172.209 422.875 172.666C422.522 173.124 422.082 173.507 421.581 173.794L415.842 177.088C416.888 179.786 417.68 182.576 418.206 185.421H424.657C425.822 185.424 426.938 185.888 427.762 186.712C428.586 187.536 429.05 188.652 429.053 189.817V196.371C429.05 197.536 428.586 198.652 427.762 199.476C426.938 200.3 425.822 200.764 424.657 200.767H418.447C418.005 203.695 417.282 206.574 416.289 209.364L421.535 212.394C422.037 212.681 422.476 213.064 422.829 213.522C423.182 213.98 423.441 214.503 423.59 215.061C423.739 215.619 423.777 216.201 423.7 216.774C423.623 217.347 423.433 217.898 423.142 218.397L419.87 224.068C419.287 225.076 418.327 225.812 417.202 226.114C416.076 226.415 414.877 226.257 413.867 225.674L408.783 222.748C406.896 225.097 404.786 227.257 402.481 229.198L405.351 234.191C405.643 234.688 405.833 235.239 405.91 235.81C405.987 236.382 405.949 236.963 405.798 237.52C405.649 238.079 405.391 238.603 405.039 239.062C404.686 239.521 404.246 239.906 403.744 240.194L398.131 243.615C397.122 244.197 395.923 244.355 394.797 244.054C393.671 243.752 392.711 243.016 392.128 242.008L389.304 237.13C386.455 238.214 383.507 239.018 380.501 239.528V245.13C380.486 246.286 380.016 247.389 379.193 248.201C378.37 249.013 377.261 249.469 376.105 249.468ZM355.823 235.58L356.317 235.775C359.392 237 362.595 237.874 365.866 238.381L366.394 238.461V245.118C366.394 245.955 366.727 246.758 367.319 247.35C367.911 247.942 368.714 248.275 369.551 248.275H376.105C376.943 248.275 377.747 247.943 378.341 247.351C378.934 246.759 379.27 245.956 379.273 245.118V238.461L379.789 238.381C383.064 237.874 386.271 237 389.35 235.775L389.844 235.58L393.196 241.388C393.62 242.111 394.312 242.638 395.123 242.853C395.933 243.067 396.796 242.954 397.523 242.536L403.193 239.253C403.553 239.045 403.869 238.768 404.122 238.438C404.375 238.107 404.56 237.73 404.667 237.328C404.773 236.926 404.799 236.507 404.743 236.094C404.688 235.682 404.551 235.285 404.341 234.926L400.897 229.038L401.299 228.705C403.841 226.622 406.15 224.271 408.186 221.692L408.507 221.278L414.522 224.722C415.247 225.139 416.108 225.253 416.916 225.038C417.725 224.823 418.415 224.296 418.837 223.574L422.12 217.892C422.328 217.533 422.463 217.136 422.516 216.724C422.569 216.312 422.54 215.894 422.43 215.493C422.326 215.092 422.142 214.715 421.89 214.386C421.637 214.057 421.322 213.782 420.961 213.577L414.82 210.03L414.992 209.536C416.114 206.513 416.903 203.376 417.345 200.182L417.414 199.654H424.691C425.531 199.651 426.335 199.316 426.928 198.723C427.521 198.129 427.856 197.325 427.859 196.486V189.932C427.856 189.093 427.521 188.289 426.928 187.695C426.335 187.102 425.531 186.767 424.691 186.764H417.208L417.116 186.259C416.584 183.142 415.722 180.091 414.545 177.157L414.35 176.663L420.961 172.853C421.682 172.426 422.206 171.734 422.421 170.924C422.636 170.114 422.524 169.253 422.109 168.525L418.826 162.844C418.406 162.12 417.717 161.592 416.909 161.374C416.508 161.266 416.089 161.239 415.677 161.294C415.266 161.349 414.869 161.486 414.51 161.696L407.738 165.598L407.405 165.197C405.432 162.801 403.217 160.616 400.794 158.677L400.381 158.344L404.352 151.457C404.562 151.099 404.699 150.702 404.754 150.29C404.809 149.878 404.782 149.46 404.674 149.059C404.439 148.271 403.908 147.604 403.193 147.199L397.523 143.928C396.797 143.507 395.933 143.391 395.122 143.607C394.31 143.822 393.618 144.35 393.196 145.076L389.201 152.008L388.708 151.825C385.829 150.755 382.848 149.986 379.812 149.529L379.296 149.449V141.414C379.296 140.574 378.962 139.768 378.368 139.174C377.774 138.58 376.968 138.246 376.128 138.246H369.574C369.158 138.246 368.747 138.328 368.363 138.488C367.979 138.647 367.631 138.88 367.338 139.175C367.044 139.469 366.812 139.818 366.654 140.203C366.496 140.587 366.416 140.999 366.417 141.414V149.449L365.889 149.529C362.853 149.987 359.872 150.757 356.994 151.825L356.512 152.008L352.471 145.053C352.264 144.692 351.986 144.377 351.656 144.124C351.326 143.871 350.949 143.686 350.547 143.579C350.144 143.472 349.725 143.446 349.313 143.502C348.901 143.558 348.503 143.695 348.144 143.905L342.474 147.199C342.114 147.407 341.798 147.684 341.545 148.014C341.292 148.345 341.107 148.722 341 149.124C340.894 149.526 340.867 149.945 340.923 150.358C340.979 150.77 341.116 151.167 341.326 151.526L345.298 158.413L344.884 158.746C342.451 160.673 340.224 162.846 338.239 165.231L337.906 165.633L331.134 161.73C330.408 161.309 329.544 161.194 328.733 161.409C327.921 161.624 327.229 162.153 326.807 162.878L323.535 168.56C323.114 169.286 322.999 170.149 323.214 170.961C323.429 171.772 323.958 172.465 324.683 172.887L331.294 176.698L331.099 177.191C329.919 180.125 329.054 183.177 328.517 186.293L328.425 186.798H320.953C320.113 186.801 319.309 187.136 318.716 187.73C318.123 188.323 317.788 189.127 317.785 189.966V196.52C317.788 197.359 318.123 198.164 318.716 198.757C319.309 199.35 320.113 199.685 320.953 199.688H328.218L328.299 200.216C328.729 203.407 329.498 206.543 330.594 209.571L330.778 210.064L324.637 213.611C324.278 213.819 323.964 214.095 323.712 214.425C323.46 214.754 323.276 215.13 323.169 215.531C323.062 215.932 323.036 216.35 323.091 216.761C323.146 217.172 323.281 217.568 323.489 217.927L326.761 223.608C327.185 224.332 327.878 224.858 328.688 225.073C329.498 225.288 330.361 225.174 331.088 224.756L337.091 221.313L337.424 221.726C339.457 224.308 341.766 226.66 344.311 228.739L344.712 229.072L341.269 234.96C340.848 235.686 340.732 236.55 340.948 237.361C341.163 238.173 341.691 238.865 342.417 239.287L348.087 242.57C348.814 242.985 349.676 243.097 350.486 242.882C351.295 242.668 351.988 242.143 352.414 241.422L355.823 235.58ZM372.833 219.419C367.793 219.421 362.865 217.928 358.673 215.129C354.48 212.33 351.213 208.351 349.283 203.694C347.353 199.038 346.847 193.913 347.83 188.969C348.813 184.025 351.24 179.484 354.804 175.92C358.368 172.355 362.91 169.928 367.854 168.945C372.798 167.963 377.922 168.468 382.579 170.398C387.235 172.328 391.215 175.596 394.014 179.788C396.813 183.98 398.305 188.908 398.303 193.949C398.285 200.695 395.595 207.16 390.821 211.927C386.048 216.694 379.58 219.375 372.833 219.384V219.419ZM372.833 169.696C368.036 169.694 363.346 171.114 359.356 173.778C355.366 176.441 352.256 180.228 350.418 184.66C348.581 189.091 348.099 193.968 349.034 198.674C349.968 203.379 352.277 207.702 355.668 211.095C359.06 214.488 363.381 216.799 368.086 217.735C372.791 218.672 377.668 218.193 382.101 216.357C386.533 214.522 390.321 211.413 392.987 207.425C395.652 203.436 397.075 198.746 397.075 193.949C397.075 187.516 394.523 181.345 389.978 176.791C385.433 172.238 379.267 169.674 372.833 169.662V169.696Z" fill="#4F5665"/>
<path d="M301.612 69.5504C300.294 69.5526 299.006 69.1638 297.909 68.4332C296.813 67.7026 295.958 66.6629 295.452 65.446C294.947 64.2291 294.814 62.8896 295.071 61.5971C295.327 60.3047 295.962 59.1174 296.893 58.1857C297.825 57.254 299.012 56.6197 300.305 56.3632C301.597 56.1067 302.937 56.2395 304.154 56.7448C305.37 57.2501 306.41 58.1051 307.141 59.2017C307.871 60.2982 308.26 61.5869 308.258 62.9046C308.255 64.6662 307.554 66.3548 306.308 67.6005C305.062 68.8462 303.374 69.5473 301.612 69.5504ZM301.612 57.4755C300.538 57.4732 299.487 57.7897 298.593 58.3848C297.698 58.98 297.001 59.8271 296.588 60.819C296.175 61.8108 296.066 62.9028 296.274 63.9567C296.483 65.0106 296.999 65.979 297.758 66.7395C298.516 67.4999 299.484 68.0181 300.537 68.2285C301.591 68.4389 302.683 68.3321 303.676 67.9215C304.668 67.5109 305.517 66.8151 306.114 65.922C306.711 65.029 307.03 63.9788 307.03 62.9046C307.03 61.4667 306.459 60.0875 305.444 59.0697C304.428 58.0518 303.05 57.4785 301.612 57.4755Z" fill="#4F5665"/>
<path d="M344.494 145.546H343.289V117.655C343.282 114.942 342.201 112.343 340.282 110.426C338.363 108.509 335.763 107.431 333.05 107.428H312.459C309.414 107.428 306.495 106.218 304.342 104.066C302.19 101.913 300.98 98.9939 300.98 95.9497V68.9419H302.209V95.9612C302.212 98.6757 303.291 101.278 305.211 103.197C307.13 105.117 309.733 106.197 312.447 106.2H333.016C336.06 106.2 338.979 107.409 341.132 109.561C343.284 111.714 344.494 114.633 344.494 117.678V145.546Z" fill="#4F5665"/>
<path d="M106.508 70.9737C105.191 70.9737 103.903 70.583 102.808 69.851C101.713 69.1189 100.86 68.0785 100.356 66.8614C99.8527 65.6443 99.7215 64.3051 99.9793 63.0134C100.237 61.7218 100.872 60.5356 101.805 59.605C102.737 58.6744 103.924 58.0413 105.216 57.7857C106.508 57.5301 107.847 57.6636 109.063 58.1692C110.28 58.6749 111.319 59.5299 112.049 60.6262C112.779 61.7225 113.167 63.0108 113.165 64.3279C113.162 66.0915 112.459 67.7819 111.211 69.0279C109.963 70.2739 108.271 70.9737 106.508 70.9737ZM106.508 58.8988C105.434 58.8988 104.384 59.2172 103.492 59.8138C102.599 60.4103 101.903 61.2583 101.492 62.2503C101.081 63.2423 100.974 64.3339 101.183 65.3871C101.393 66.4402 101.91 67.4076 102.669 68.1669C103.428 68.9262 104.396 69.4432 105.449 69.6527C106.502 69.8622 107.593 69.7547 108.585 69.3438C109.578 68.9329 110.425 68.237 111.022 67.3442C111.619 66.4514 111.937 65.4017 111.937 64.3279C111.937 62.888 111.365 61.5071 110.347 60.489C109.329 59.4708 107.948 58.8988 106.508 58.8988Z" fill="#4F5665"/>
<path d="M152.237 91.6343C150.919 91.6366 149.631 91.2478 148.534 90.5172C147.438 89.7865 146.583 88.7469 146.077 87.53C145.572 86.3131 145.439 84.9736 145.696 83.6811C145.952 82.3887 146.587 81.2014 147.518 80.2697C148.45 79.338 149.637 78.7037 150.93 78.4472C152.222 78.1907 153.562 78.3235 154.779 78.8288C155.995 79.3341 157.035 80.1891 157.766 81.2857C158.496 82.3822 158.885 83.6709 158.883 84.9886C158.88 86.7502 158.179 88.4388 156.933 89.6845C155.687 90.9302 153.999 91.6313 152.237 91.6343ZM152.237 79.5594C151.163 79.5572 150.112 79.8737 149.218 80.4688C148.323 81.064 147.626 81.9111 147.213 82.903C146.8 83.8948 146.691 84.9868 146.899 86.0407C147.108 87.0946 147.624 88.063 148.383 88.8234C149.141 89.5839 150.109 90.1021 151.162 90.3125C152.216 90.5229 153.308 90.4161 154.301 90.0055C155.293 89.5949 156.142 88.8991 156.739 88.006C157.336 87.1129 157.655 86.0628 157.655 84.9886C157.655 83.5507 157.084 82.1715 156.069 81.1536C155.053 80.1358 153.675 79.5625 152.237 79.5594Z" fill="#4F5665"/>
<path d="M254.839 61.7911C253.522 61.7911 252.234 61.4004 251.139 60.6683C250.044 59.9363 249.191 58.8959 248.687 57.6788C248.184 56.4617 248.053 55.1225 248.31 53.8308C248.568 52.5391 249.203 51.3529 250.136 50.4224C251.068 49.4918 252.255 48.8587 253.547 48.6031C254.839 48.3475 256.178 48.481 257.394 48.9866C258.611 49.4923 259.65 50.3473 260.38 51.4436C261.11 52.5399 261.498 53.8281 261.496 55.1453C261.493 56.9089 260.79 58.5993 259.542 59.8453C258.294 61.0913 256.603 61.7911 254.839 61.7911ZM254.839 49.7162C253.765 49.7162 252.715 50.0346 251.823 50.6312C250.93 51.2277 250.234 52.0756 249.823 53.0677C249.412 54.0597 249.305 55.1513 249.514 56.2045C249.724 57.2576 250.241 58.225 251 58.9843C251.759 59.7435 252.727 60.2606 253.78 60.4701C254.833 60.6796 255.924 60.5721 256.917 60.1612C257.909 59.7502 258.756 59.0544 259.353 58.1616C259.95 57.2687 260.268 56.2191 260.268 55.1453C260.268 54.4323 260.128 53.7264 259.855 53.0677C259.582 52.409 259.182 51.8105 258.678 51.3063C258.174 50.8022 257.575 50.4023 256.917 50.1295C256.258 49.8566 255.552 49.7162 254.839 49.7162Z" fill="#4F5665"/>
<path d="M285.543 142.907C284.568 142.902 283.617 142.609 282.81 142.063C282.002 141.518 281.375 140.745 281.007 139.843C280.638 138.941 280.546 137.95 280.742 136.995C280.937 136.041 281.411 135.166 282.104 134.481C282.797 133.796 283.678 133.332 284.635 133.147C285.591 132.963 286.581 133.067 287.479 133.446C288.377 133.824 289.142 134.461 289.678 135.274C290.214 136.088 290.496 137.043 290.49 138.017C290.481 139.321 289.955 140.568 289.027 141.485C288.1 142.401 286.847 142.913 285.543 142.907ZM285.543 133.977C284.749 133.975 283.972 134.208 283.31 134.647C282.648 135.086 282.132 135.711 281.825 136.444C281.519 137.176 281.436 137.983 281.588 138.762C281.74 139.542 282.119 140.259 282.678 140.823C283.237 141.386 283.951 141.772 284.729 141.931C285.507 142.089 286.315 142.013 287.05 141.713C287.785 141.413 288.415 140.902 288.859 140.244C289.304 139.586 289.544 138.811 289.548 138.017C289.553 137.488 289.453 136.964 289.253 136.474C289.054 135.984 288.76 135.538 288.387 135.162C288.015 134.787 287.572 134.488 287.084 134.285C286.595 134.082 286.072 133.977 285.543 133.977Z" fill="#4F5665"/>
<path d="M20.5262 128.077C19.2085 128.079 17.9198 127.69 16.8233 126.96C15.7267 126.229 14.8717 125.189 14.3664 123.972C13.8611 122.755 13.7283 121.416 13.9848 120.124C14.2413 118.831 14.8756 117.644 15.8073 116.712C16.739 115.78 17.9263 115.146 19.2187 114.89C20.5112 114.633 21.8507 114.766 23.0676 115.271C24.2845 115.776 25.3241 116.632 26.0548 117.728C26.7854 118.825 27.1742 120.113 27.1719 121.431C27.1689 123.193 26.4677 124.881 25.2221 126.127C23.9764 127.373 22.2878 128.074 20.5262 128.077ZM20.5262 116.002C19.4519 116 18.4011 116.316 17.5068 116.911C16.6125 117.506 15.9148 118.354 15.5021 119.345C15.0895 120.337 14.9803 121.429 15.1885 122.483C15.3967 123.537 15.9128 124.505 16.6717 125.266C17.4305 126.026 18.3978 126.544 19.4513 126.755C20.5047 126.965 21.5969 126.858 22.5896 126.448C23.5824 126.037 24.4309 125.341 25.028 124.448C25.6251 123.555 25.9438 122.505 25.9438 121.431C25.9438 119.993 25.3734 118.614 24.3577 117.596C23.342 116.578 21.9641 116.005 20.5262 116.002Z" fill="#4F5665"/>
<path d="M466.001 136.926C464.684 136.929 463.395 136.54 462.299 135.81C461.203 135.08 460.348 134.041 459.842 132.825C459.336 131.608 459.203 130.269 459.459 128.977C459.714 127.685 460.347 126.498 461.278 125.566C462.208 124.634 463.395 123.998 464.686 123.741C465.978 123.483 467.317 123.614 468.534 124.117C469.751 124.621 470.792 125.474 471.524 126.569C472.256 127.664 472.647 128.952 472.647 130.269C472.647 132.033 471.947 133.724 470.701 134.972C469.455 136.221 467.764 136.923 466.001 136.926ZM466.001 124.851C464.926 124.849 463.875 125.166 462.98 125.762C462.086 126.357 461.388 127.205 460.976 128.198C460.563 129.19 460.455 130.283 460.664 131.337C460.873 132.391 461.39 133.36 462.15 134.12C462.91 134.879 463.879 135.397 464.933 135.606C465.987 135.815 467.08 135.707 468.072 135.294C469.065 134.882 469.913 134.184 470.508 133.29C471.104 132.395 471.421 131.344 471.418 130.269C471.415 128.833 470.844 127.457 469.828 126.442C468.813 125.426 467.437 124.854 466.001 124.851Z" fill="#4F5665"/>
<path d="M446.339 190.575C445.022 190.575 443.734 190.184 442.639 189.452C441.544 188.72 440.691 187.68 440.187 186.462C439.684 185.245 439.553 183.906 439.81 182.615C440.068 181.323 440.703 180.137 441.636 179.206C442.568 178.275 443.755 177.642 445.047 177.387C446.339 177.131 447.678 177.265 448.894 177.77C450.111 178.276 451.15 179.131 451.88 180.227C452.61 181.324 452.998 182.612 452.996 183.929C452.993 185.693 452.29 187.383 451.042 188.629C449.794 189.875 448.103 190.575 446.339 190.575ZM446.339 178.5C445.265 178.5 444.215 178.818 443.323 179.415C442.43 180.011 441.734 180.859 441.323 181.851C440.912 182.843 440.805 183.935 441.014 184.988C441.224 186.041 441.741 187.009 442.5 187.768C443.259 188.527 444.227 189.044 445.28 189.254C446.333 189.463 447.424 189.356 448.417 188.945C449.409 188.534 450.256 187.838 450.853 186.945C451.45 186.052 451.768 185.003 451.768 183.929C451.768 183.216 451.628 182.51 451.355 181.851C451.082 181.193 450.682 180.594 450.178 180.09C449.674 179.586 449.075 179.186 448.417 178.913C447.758 178.64 447.052 178.5 446.339 178.5Z" fill="#4F5665"/>
<path d="M33.8296 182.873C33.025 182.875 32.2378 182.639 31.5679 182.193C30.8979 181.747 30.3753 181.113 30.0664 180.37C29.7574 179.627 29.676 178.809 29.8324 178.02C29.9888 177.231 30.376 176.506 30.945 175.937C31.5139 175.368 32.239 174.981 33.0282 174.824C33.8175 174.668 34.6354 174.749 35.3783 175.058C36.1213 175.367 36.7557 175.89 37.2013 176.56C37.6469 177.23 37.8836 178.017 37.8813 178.821C37.8783 179.895 37.4504 180.924 36.6912 181.683C35.932 182.442 34.9032 182.87 33.8296 182.873ZM33.8296 175.504C33.173 175.502 32.5306 175.694 31.9835 176.058C31.4365 176.421 31.0096 176.938 30.7568 177.544C30.5039 178.15 30.4366 178.817 30.5633 179.461C30.69 180.106 31.005 180.698 31.4685 181.163C31.9319 181.628 32.5229 181.945 33.1667 182.074C33.8105 182.203 34.478 182.138 35.0848 181.887C35.6916 181.636 36.2104 181.211 36.5754 180.665C36.9404 180.12 37.1352 179.478 37.1352 178.821C37.1322 177.944 36.7834 177.104 36.1644 176.483C35.5454 175.862 34.7064 175.51 33.8296 175.504Z" fill="#4F5665"/>
<path d="M64.8541 146.97H63.626V119.078C63.626 116.034 64.8353 113.114 66.9878 110.962C69.1404 108.809 72.0598 107.6 75.104 107.6H95.6612C98.3737 107.597 100.974 106.519 102.893 104.602C104.813 102.685 105.894 100.086 105.9 97.3731V70.3652H107.128V97.3845C107.128 100.429 105.918 103.348 103.766 105.501C101.613 107.653 98.6939 108.863 95.6497 108.863H75.0925C72.3781 108.866 69.7757 109.945 67.8562 111.865C65.9368 113.784 64.8572 116.387 64.8541 119.101V146.97Z" fill="#4F5665"/>
<path d="M224.812 97.3389C223.495 97.3412 222.207 96.9527 221.111 96.2226C220.014 95.4924 219.159 94.4535 218.654 93.2373C218.148 92.021 218.015 90.6821 218.27 89.3899C218.526 88.0978 219.159 86.9105 220.089 85.9783C221.02 85.0462 222.206 84.411 223.498 84.1532C224.79 83.8954 226.129 84.0265 227.346 84.5301C228.563 85.0336 229.603 85.8869 230.335 86.9819C231.067 88.0769 231.458 89.3645 231.458 90.6817C231.458 92.4453 230.758 94.1369 229.512 95.385C228.266 96.6332 226.576 97.3359 224.812 97.3389ZM224.812 85.264C223.738 85.2618 222.686 85.5785 221.792 86.1742C220.897 86.7699 220.2 87.6177 219.787 88.6102C219.375 89.6027 219.266 90.6953 219.475 91.7495C219.685 92.8037 220.202 93.7721 220.962 94.5321C221.722 95.2921 222.69 95.8094 223.744 96.0185C224.799 96.2276 225.891 96.1191 226.884 95.7068C227.876 95.2944 228.724 94.5968 229.32 93.7022C229.915 92.8077 230.232 91.7564 230.23 90.6817C230.234 89.9668 230.098 89.258 229.828 88.5961C229.558 87.9342 229.159 87.3321 228.656 86.8245C228.153 86.3169 227.554 85.9136 226.894 85.638C226.235 85.3623 225.527 85.2196 224.812 85.2181V85.264Z" fill="#4F5665"/>
<path d="M213.966 135.205H198.184V133.976H213.966C216.678 133.97 219.278 132.889 221.195 130.97C223.112 129.051 224.19 126.451 224.193 123.738V96.6958H225.421V123.738C225.418 126.776 224.21 129.689 222.063 131.839C219.916 133.988 217.004 135.199 213.966 135.205Z" fill="#4F5665"/>
<path d="M392.736 209.56H83.2311C78.8254 209.56 75.2539 213.131 75.2539 217.537V409.036C75.2539 413.442 78.8254 417.014 83.2311 417.014H392.736C397.142 417.014 400.714 413.442 400.714 409.036V217.537C400.714 213.131 397.142 209.56 392.736 209.56Z" fill="#181C8B"/>
<path d="M397.029 224.917H78.9385V398.58H397.029V224.917Z" fill="#D7F7FF"/>
<path d="M241.226 224.917H78.9385V398.58H241.226V224.917Z" fill="#FFF6F6"/>
<path d="M199.767 256.826H97.2109V259.282H199.767V256.826Z" fill="#D6E7EA"/>
<path d="M221.931 265.722H97.2109V268.43H221.931V265.722Z" fill="#D6E7EA"/>
<path d="M179.29 274.755H97.2109V277.464H179.29V274.755Z" fill="#D6E7EA"/>
<path d="M221.92 274.755H189.724V277.464H221.92V274.755Z" fill="#D6E7EA"/>
<path d="M221.931 283.776H97.2109V286.485H221.931V283.776Z" fill="#D6E7EA"/>
<path d="M221.931 292.798H97.2109V295.507H221.931V292.798Z" fill="#D6E7EA"/>
<path d="M221.931 301.832H128.121V304.54H221.931V301.832Z" fill="#D6E7EA"/>
<path d="M118.709 301.832H97.2109V304.54H118.709V301.832Z" fill="#D6E7EA"/>
<path d="M199.767 320.644H97.2109V323.1H199.767V320.644Z" fill="#D6E7EA"/>
<path d="M221.931 329.551H97.2109V332.26H221.931V329.551Z" fill="#D6E7EA"/>
<path d="M221.931 338.573H189.322V341.282H221.931V338.573Z" fill="#D6E7EA"/>
<path d="M116.655 338.573H97.2109V341.282H116.655V338.573Z" fill="#D6E7EA"/>
<path d="M178.062 338.573H127.708V341.282H178.062V338.573Z" fill="#D6E7EA"/>
<path d="M221.931 347.594H97.2109V350.303H221.931V347.594Z" fill="#D6E7EA"/>
<path d="M200.582 356.627H97.2109V359.336H200.582V356.627Z" fill="#D6E7EA"/>
<path d="M221.92 356.627H209.788V359.336H221.92V356.627Z" fill="#D6E7EA"/>
<path d="M221.931 365.649H97.2109V368.358H221.931V365.649Z" fill="#D6E7EA"/>
<path d="M356.557 320.644H254.001V323.1H356.557V320.644Z" fill="#D6E7EA"/>
<path d="M378.71 329.551H296.573V332.26H378.71V329.551Z" fill="#D6E7EA"/>
<path d="M285.313 329.551H254.001V332.26H285.313V329.551Z" fill="#D6E7EA"/>
<path d="M378.721 338.573H254.001V341.282H378.721V338.573Z" fill="#D6E7EA"/>
<path d="M310.496 347.594H254.001V350.303H310.496V347.594Z" fill="#D6E7EA"/>
<path d="M378.71 347.594H321.343V350.303H378.71V347.594Z" fill="#D6E7EA"/>
<path d="M378.721 356.627H254.001V359.336H378.721V356.627Z" fill="#D6E7EA"/>
<path d="M378.71 365.649H291.66V368.358H378.71V365.649Z" fill="#D6E7EA"/>
<path d="M281.227 365.649H254.001V368.358H281.227V365.649Z" fill="#D6E7EA"/>
<path d="M31.6597 415.647H444.295V423.82C444.295 429.299 442.118 434.554 438.244 438.429C434.369 442.304 429.114 444.48 423.635 444.48H52.2972C46.8177 444.48 41.5626 442.304 37.688 438.429C33.8134 434.554 31.6367 429.299 31.6367 423.82V415.625L31.6597 415.647Z" fill="#181C8B"/>
<path d="M444.296 424.899C444.296 424.543 444.296 424.199 444.296 423.843V415.647H31.6602V423.82C31.6602 424.176 31.6602 424.52 31.6602 424.876L444.296 424.899Z" fill="#2A33A0"/>
<path d="M55.2933 432.245C55.2933 433.003 55.0685 433.744 54.6472 434.375C54.226 435.005 53.6272 435.496 52.9267 435.787C52.2262 436.077 51.4554 436.153 50.7117 436.005C49.9681 435.857 49.285 435.492 48.7488 434.956C48.2127 434.419 47.8476 433.736 47.6996 432.993C47.5517 432.249 47.6276 431.478 47.9178 430.778C48.208 430.077 48.6993 429.478 49.3298 429.057C49.9602 428.636 50.7014 428.411 51.4596 428.411C52.4764 428.411 53.4515 428.815 54.1705 429.534C54.8894 430.253 55.2933 431.228 55.2933 432.245Z" fill="#010205"/>
<path d="M68.9637 432.245C68.966 433.006 68.7424 433.75 68.3213 434.384C67.9001 435.018 67.3004 435.513 66.598 435.805C65.8956 436.098 65.1221 436.176 64.3755 436.029C63.6288 435.882 62.9426 435.517 62.4037 434.979C61.8648 434.442 61.4975 433.757 61.3482 433.011C61.1989 432.264 61.2743 431.491 61.565 430.787C61.8557 430.084 62.3486 429.483 62.9811 429.06C63.6137 428.637 64.3576 428.411 65.1186 428.411C66.1364 428.411 67.1127 428.815 67.8334 429.533C68.5542 430.252 68.9607 431.227 68.9637 432.245Z" fill="#010205"/>
<path d="M424.094 428.997H404.443V434.724H424.094V428.997Z" fill="#010205"/>
<path d="M135.984 455.086C135.551 455.083 135.136 454.909 134.831 454.602C134.526 454.294 134.354 453.878 134.354 453.445V198.564C134.335 198.337 134.364 198.11 134.437 197.895C134.511 197.68 134.628 197.483 134.782 197.315C134.936 197.148 135.122 197.015 135.33 196.924C135.538 196.832 135.763 196.785 135.99 196.785C136.217 196.785 136.442 196.832 136.65 196.924C136.858 197.015 137.044 197.148 137.198 197.315C137.352 197.483 137.469 197.68 137.543 197.895C137.616 198.11 137.645 198.337 137.626 198.564V453.445C137.626 453.88 137.453 454.298 137.145 454.606C136.837 454.913 136.42 455.086 135.984 455.086Z" fill="#FF6D5A"/>
<path d="M173.31 455.086C172.877 455.083 172.463 454.909 172.157 454.602C171.852 454.294 171.681 453.878 171.681 453.445V198.564C171.662 198.337 171.69 198.11 171.763 197.895C171.837 197.68 171.954 197.483 172.108 197.315C172.262 197.148 172.449 197.015 172.656 196.924C172.864 196.832 173.089 196.785 173.316 196.785C173.543 196.785 173.768 196.832 173.976 196.924C174.184 197.015 174.371 197.148 174.524 197.315C174.678 197.483 174.795 197.68 174.869 197.895C174.943 198.11 174.971 198.337 174.952 198.564V453.445C174.952 453.88 174.779 454.298 174.471 454.606C174.163 454.913 173.746 455.086 173.31 455.086Z" fill="#FF6D5A"/>
<path d="M173.31 219.121H135.984C135.574 219.086 135.191 218.899 134.913 218.596C134.634 218.293 134.479 217.897 134.479 217.485C134.479 217.074 134.634 216.677 134.913 216.374C135.191 216.071 135.574 215.884 135.984 215.849H173.31C173.537 215.831 173.764 215.859 173.979 215.932C174.194 216.006 174.391 216.123 174.559 216.277C174.726 216.431 174.859 216.617 174.95 216.825C175.042 217.033 175.089 217.258 175.089 217.485C175.089 217.712 175.042 217.937 174.95 218.145C174.859 218.353 174.726 218.54 174.559 218.693C174.391 218.847 174.194 218.964 173.979 219.038C173.764 219.112 173.537 219.14 173.31 219.121Z" fill="#FF6D5A"/>
<path d="M173.311 243.351H135.984C135.552 243.351 135.138 243.179 134.832 242.874C134.526 242.568 134.354 242.153 134.354 241.721C134.354 241.289 134.526 240.874 134.832 240.569C135.138 240.263 135.552 240.091 135.984 240.091H173.311C173.743 240.091 174.158 240.263 174.463 240.569C174.769 240.874 174.941 241.289 174.941 241.721C174.941 242.153 174.769 242.568 174.463 242.874C174.158 243.179 173.743 243.351 173.311 243.351Z" fill="#FF6D5A"/>
<path d="M173.31 267.592H135.984C135.574 267.558 135.191 267.371 134.913 267.068C134.634 266.765 134.479 266.368 134.479 265.957C134.479 265.545 134.634 265.149 134.913 264.846C135.191 264.543 135.574 264.356 135.984 264.321H173.31C173.537 264.302 173.764 264.33 173.979 264.404C174.194 264.478 174.391 264.595 174.559 264.749C174.726 264.902 174.859 265.089 174.95 265.297C175.042 265.505 175.089 265.73 175.089 265.957C175.089 266.184 175.042 266.409 174.95 266.616C174.859 266.824 174.726 267.011 174.559 267.165C174.391 267.319 174.194 267.436 173.979 267.51C173.764 267.583 173.537 267.611 173.31 267.592Z" fill="#FF6D5A"/>
<path d="M173.31 291.822H135.984C135.574 291.788 135.191 291.601 134.913 291.298C134.634 290.995 134.479 290.598 134.479 290.187C134.479 289.775 134.634 289.379 134.913 289.076C135.191 288.773 135.574 288.586 135.984 288.551H173.31C173.537 288.532 173.764 288.56 173.979 288.634C174.194 288.708 174.391 288.825 174.559 288.979C174.726 289.132 174.859 289.319 174.95 289.527C175.042 289.735 175.089 289.96 175.089 290.187C175.089 290.414 175.042 290.639 174.95 290.846C174.859 291.054 174.726 291.241 174.559 291.395C174.391 291.549 174.194 291.666 173.979 291.74C173.764 291.813 173.537 291.841 173.31 291.822Z" fill="#FF6D5A"/>
<path d="M173.31 316.064H135.984C135.574 316.03 135.191 315.842 134.913 315.54C134.634 315.237 134.479 314.84 134.479 314.428C134.479 314.017 134.634 313.62 134.913 313.317C135.191 313.014 135.574 312.827 135.984 312.793H173.31C173.537 312.774 173.764 312.802 173.979 312.876C174.194 312.949 174.391 313.067 174.559 313.22C174.726 313.374 174.859 313.561 174.95 313.769C175.042 313.977 175.089 314.201 175.089 314.428C175.089 314.656 175.042 314.88 174.95 315.088C174.859 315.296 174.726 315.483 174.559 315.637C174.391 315.79 174.194 315.908 173.979 315.981C173.764 316.055 173.537 316.083 173.31 316.064Z" fill="#FF6D5A"/>
<path d="M173.31 340.306H135.984C135.574 340.271 135.191 340.084 134.913 339.781C134.634 339.478 134.479 339.082 134.479 338.67C134.479 338.259 134.634 337.862 134.913 337.559C135.191 337.256 135.574 337.069 135.984 337.035H173.31C173.537 337.016 173.764 337.044 173.979 337.117C174.194 337.191 174.391 337.308 174.559 337.462C174.726 337.616 174.859 337.803 174.95 338.01C175.042 338.218 175.089 338.443 175.089 338.67C175.089 338.897 175.042 339.122 174.95 339.33C174.859 339.538 174.726 339.725 174.559 339.878C174.391 340.032 174.194 340.149 173.979 340.223C173.764 340.297 173.537 340.325 173.31 340.306Z" fill="#FF6D5A"/>
<path d="M173.31 364.536H135.984C135.574 364.501 135.191 364.314 134.913 364.011C134.634 363.708 134.479 363.312 134.479 362.9C134.479 362.489 134.634 362.092 134.913 361.789C135.191 361.486 135.574 361.299 135.984 361.265H173.31C173.537 361.246 173.764 361.274 173.979 361.347C174.194 361.421 174.391 361.538 174.559 361.692C174.726 361.846 174.859 362.032 174.95 362.24C175.042 362.448 175.089 362.673 175.089 362.9C175.089 363.127 175.042 363.352 174.95 363.56C174.859 363.768 174.726 363.955 174.559 364.108C174.391 364.262 174.194 364.379 173.979 364.453C173.764 364.527 173.537 364.555 173.31 364.536Z" fill="#FF6D5A"/>
<path d="M173.31 388.777H135.984C135.574 388.743 135.191 388.556 134.913 388.253C134.634 387.95 134.479 387.553 134.479 387.142C134.479 386.73 134.634 386.334 134.913 386.031C135.191 385.728 135.574 385.541 135.984 385.506H173.31C173.537 385.487 173.764 385.515 173.979 385.589C174.194 385.663 174.391 385.78 174.559 385.934C174.726 386.087 174.859 386.274 174.95 386.482C175.042 386.69 175.089 386.915 175.089 387.142C175.089 387.369 175.042 387.594 174.95 387.802C174.859 388.01 174.726 388.196 174.559 388.35C174.391 388.504 174.194 388.621 173.979 388.695C173.764 388.768 173.537 388.796 173.31 388.777Z" fill="#FF6D5A"/>
<path d="M173.31 413.008H135.984C135.574 412.974 135.191 412.786 134.913 412.483C134.634 412.18 134.479 411.784 134.479 411.372C134.479 410.961 134.634 410.564 134.913 410.261C135.191 409.958 135.574 409.771 135.984 409.737H173.31C173.537 409.718 173.764 409.746 173.979 409.82C174.194 409.893 174.391 410.01 174.559 410.164C174.726 410.318 174.859 410.505 174.95 410.713C175.042 410.921 175.089 411.145 175.089 411.372C175.089 411.599 175.042 411.824 174.95 412.032C174.859 412.24 174.726 412.427 174.559 412.58C174.391 412.734 174.194 412.852 173.979 412.925C173.764 412.999 173.537 413.027 173.31 413.008Z" fill="#FF6D5A"/>
<path d="M173.31 437.249H135.984C135.574 437.215 135.191 437.028 134.913 436.725C134.634 436.422 134.479 436.025 134.479 435.614C134.479 435.202 134.634 434.805 134.913 434.502C135.191 434.2 135.574 434.012 135.984 433.978H173.31C173.537 433.959 173.764 433.987 173.979 434.061C174.194 434.134 174.391 434.252 174.559 434.405C174.726 434.559 174.859 434.746 174.95 434.954C175.042 435.162 175.089 435.386 175.089 435.614C175.089 435.841 175.042 436.065 174.95 436.273C174.859 436.481 174.726 436.668 174.559 436.822C174.391 436.975 174.194 437.093 173.979 437.166C173.764 437.24 173.537 437.268 173.31 437.249Z" fill="#FF6D5A"/>
<path d="M252.933 250.203L252.164 254.611C252.164 254.611 246.758 251.868 246.54 251.076C246.887 250.36 247.178 249.62 247.412 248.86L252.933 250.203Z" fill="#FFAC83"/>
<path d="M246.701 258.02C246.701 258.02 256.204 265.32 258.316 266.892C260.428 268.465 264.055 263.828 260.428 260.751C256.801 257.675 254.299 253.796 254.402 252.005C253.737 250.077 251.613 252.212 250.959 252.533C250.305 252.855 247.516 251.626 247.217 249.25C245.56 250.716 244.261 252.542 243.418 254.588C243.418 254.588 243.429 255.506 246.701 258.02Z" fill="#FF6D5A"/>
<path d="M260.038 265.951C257.926 264.39 247.298 256.264 247.298 256.264C246.131 255.322 245.083 254.243 244.176 253.05C243.9 253.549 243.651 254.063 243.43 254.588C243.43 254.588 243.43 255.506 246.701 258.031C246.701 258.031 256.205 265.331 258.317 266.904C258.779 267.17 259.328 267.245 259.845 267.112C260.362 266.979 260.806 266.649 261.083 266.192C260.902 266.235 260.714 266.236 260.532 266.194C260.351 266.152 260.182 266.069 260.038 265.951Z" fill="#DDDDDD"/>
<path d="M229.186 250.203L229.943 254.611C229.943 254.611 235.361 251.868 235.567 251.076C235.221 250.36 234.929 249.62 234.695 248.86L229.186 250.203Z" fill="#FFAC83"/>
<path d="M235.395 258.02C235.395 258.02 225.891 265.32 223.779 266.892C221.667 268.465 218.04 263.828 221.667 260.751C225.294 257.675 227.796 253.796 227.693 252.005C228.37 250.077 230.494 252.212 231.137 252.533C231.779 252.855 234.58 251.626 234.878 249.25C236.54 250.712 237.84 252.539 238.678 254.588C238.678 254.588 238.678 255.506 235.395 258.02Z" fill="#FF6D5A"/>
<path d="M222.069 265.951C224.181 264.39 234.81 256.264 234.81 256.264C235.976 255.322 237.024 254.243 237.932 253.05C238.207 253.549 238.456 254.063 238.678 254.588C238.678 254.588 238.678 255.506 235.406 258.031C235.406 258.031 225.903 265.331 223.791 266.904C223.328 267.17 222.779 267.245 222.263 267.112C221.746 266.979 221.301 266.649 221.024 266.192C221.205 266.24 221.395 266.243 221.577 266.201C221.759 266.159 221.928 266.073 222.069 265.951Z" fill="#DDDDDD"/>
<path d="M264.331 207.757C262.311 202.971 253.14 203.051 253.14 203.051L241.191 203.614L241.099 204.153C241.042 203.82 240.996 203.614 240.996 203.614L229.059 203.051C229.059 203.051 219.394 202.833 217.363 207.643C215.331 212.452 227.808 249.675 229.059 250.8C231.097 250.466 233.11 249.994 235.085 249.388C235.085 249.388 230.299 221.634 227.911 215.011C230.299 211.361 239.871 211.832 240.996 211.465C240.996 211.465 241.065 211.465 241.099 211.396C241.134 211.327 241.157 211.453 241.191 211.465C242.339 211.832 252.118 211.017 254.506 214.679C252.118 221.29 247.102 249.388 247.102 249.388C249.081 249.995 251.098 250.466 253.14 250.8C254.391 249.652 266.386 212.544 264.331 207.757Z" fill="#12196B"/>
<path d="M224.697 172.267C224.697 172.267 218.58 185.111 222.872 195.223C227.165 205.335 231.538 206.07 231.538 206.07L232.973 197.232C232.973 197.232 223.113 191.918 230.425 177.547C229.392 172.026 224.697 172.267 224.697 172.267Z" fill="#FFAC83"/>
<path d="M257.295 172.267C257.295 172.267 263.425 185.111 259.132 195.223C254.839 205.335 250.455 206.07 250.455 206.07L249.031 197.232C249.031 197.232 258.891 191.918 251.568 177.547C252.612 172.026 257.295 172.267 257.295 172.267Z" fill="#FFAC83"/>
<path d="M221.473 175.894C221.473 175.894 227.143 177.203 229.507 180.612C231.179 173.902 233.779 167.458 237.232 161.466C237.232 161.466 227.958 161.558 225.398 168.445C224.412 171.085 223.093 173.588 221.473 175.894Z" fill="#FF6D5A"/>
<path d="M260.027 175.895C260.027 175.895 254.357 177.203 251.992 180.612C250.327 173.9 247.726 167.455 244.268 161.467C244.268 161.467 251.946 160.629 255.539 167.034C258.5 172.371 260.027 175.895 260.027 175.895Z" fill="#FF6D5A"/>
<path d="M240.709 161.065C240.709 161.065 231.286 159.917 229.553 166.081C227.82 172.245 231.114 193.203 231.114 193.203H249.961C249.961 193.203 254.276 174.712 252.463 165.897C251.464 161.065 243.992 161.099 240.709 161.065Z" fill="#FF6D5A"/>
<path d="M237.805 155.808C238.099 157.693 238.037 159.616 237.622 161.478C237.174 162.913 236.68 165.771 240.973 165.794C244.417 165.794 245.036 164.485 245.105 162.764C245.105 162.603 244.715 161.455 244.566 160.893C244.243 159.191 244.139 157.455 244.256 155.728C242.442 155.613 237.805 155.808 237.805 155.808Z" fill="#FFBAAC"/>
<path d="M247.39 150.643C247.39 154.89 244.589 158.333 241.134 158.333C237.679 158.333 234.867 154.89 234.867 150.643C234.867 146.396 237.668 142.953 241.134 142.953C244.601 142.953 247.39 146.35 247.39 150.643Z" fill="#FFBAAC"/>
<path d="M246.999 150.241C246.999 150.241 247.642 149.093 248.572 149.736C249.501 150.379 248.193 153.179 247.608 153.179C247.022 153.179 246.712 152.261 246.747 152.032C246.781 151.802 246.999 150.241 246.999 150.241Z" fill="#FFBAAC"/>
<path d="M235.395 150.241C235.395 150.241 234.753 149.093 233.823 149.736C232.893 150.379 234.202 153.179 234.787 153.179C235.372 153.179 235.682 152.261 235.648 152.032C235.613 151.802 235.395 150.241 235.395 150.241Z" fill="#FFBAAC"/>
<path d="M244.153 150.574C244.161 150.634 244.157 150.696 244.141 150.754C244.126 150.813 244.098 150.868 244.061 150.916C244.023 150.964 243.977 151.004 243.924 151.034C243.871 151.064 243.812 151.083 243.752 151.09C243.639 151.061 243.539 150.995 243.467 150.902C243.396 150.81 243.357 150.696 243.357 150.58C243.357 150.463 243.396 150.349 243.467 150.257C243.539 150.165 243.639 150.098 243.752 150.069C243.872 150.083 243.981 150.144 244.056 150.239C244.131 150.333 244.166 150.454 244.153 150.574Z" fill="#12196B"/>
<path d="M243.866 150.78C243.869 150.821 243.857 150.862 243.831 150.894C243.806 150.926 243.769 150.947 243.728 150.952C243.688 150.947 243.651 150.926 243.625 150.894C243.599 150.862 243.587 150.821 243.59 150.78C243.589 150.761 243.591 150.741 243.597 150.722C243.603 150.704 243.613 150.686 243.626 150.671C243.639 150.656 243.654 150.644 243.672 150.635C243.689 150.626 243.708 150.621 243.728 150.62C243.748 150.621 243.767 150.626 243.784 150.635C243.802 150.644 243.818 150.656 243.83 150.671C243.843 150.686 243.853 150.704 243.859 150.722C243.865 150.741 243.867 150.761 243.866 150.78Z" fill="#4F5665"/>
<path d="M245.198 149.965C244.83 149.415 244.282 149.009 243.648 148.818C242.73 148.645 242.707 149.38 243.04 149.46C243.779 149.528 244.505 149.698 245.198 149.965Z" fill="#12196B"/>
<path d="M238.368 150.574C238.385 150.65 238.424 150.719 238.479 150.774C238.534 150.829 238.603 150.868 238.679 150.885C238.755 150.902 238.834 150.898 238.908 150.872C238.981 150.846 239.046 150.8 239.094 150.739C239.143 150.678 239.173 150.605 239.181 150.528C239.19 150.45 239.177 150.372 239.143 150.302C239.109 150.232 239.056 150.173 238.99 150.132C238.924 150.09 238.847 150.069 238.77 150.069C238.651 150.086 238.543 150.148 238.469 150.242C238.394 150.336 238.358 150.454 238.368 150.574Z" fill="#12196B"/>
<path d="M238.667 150.781C238.663 150.822 238.676 150.862 238.701 150.894C238.727 150.926 238.764 150.947 238.804 150.953C238.845 150.947 238.882 150.926 238.907 150.894C238.933 150.862 238.945 150.822 238.942 150.781C238.941 150.75 238.931 150.72 238.912 150.695C238.894 150.671 238.868 150.652 238.839 150.643C238.818 150.64 238.797 150.641 238.777 150.646C238.757 150.651 238.738 150.661 238.722 150.674C238.706 150.687 238.693 150.703 238.683 150.721C238.674 150.74 238.668 150.76 238.667 150.781Z" fill="#4F5665"/>
<path d="M237.323 149.965C237.691 149.415 238.239 149.009 238.873 148.818C239.791 148.645 239.814 149.38 239.481 149.46C238.742 149.528 238.016 149.698 237.323 149.965Z" fill="#12196B"/>
<path d="M247.596 144.904C246.954 143.549 246.448 143.526 246.448 143.526C246.448 143.526 246.448 139.67 241.857 140.312C238.494 141.173 238.414 142.528 235.085 143.423C234.625 143.586 234.138 143.66 233.65 143.641C234.056 144.235 234.615 144.707 235.269 145.007C234.385 145.26 233.421 144.341 233.421 144.341C233.431 144.757 233.541 145.165 233.741 145.53C233.94 145.896 234.224 146.208 234.569 146.442C234.361 147.451 234.338 148.489 234.5 149.506C234.866 150.151 235.119 150.854 235.246 151.584C235.395 152.628 235.143 153.524 235.361 154.74C235.857 156.432 236.71 157.998 237.863 159.332C238.642 159.961 239.571 160.376 240.56 160.535C241.549 160.694 242.562 160.592 243.499 160.238C245.542 159.664 246.529 156.141 246.942 155.245C247.355 154.35 247.045 152.1 247.229 151.354C247.362 150.725 247.566 150.113 247.837 149.529C248.243 148 248.159 146.382 247.596 144.904ZM246.563 149.564C246.518 149.945 246.495 150.328 246.494 150.712C246.54 151.327 246.54 151.944 246.494 152.56C246.311 153.501 245.438 155.486 243.763 154.637C241.783 153.927 239.624 153.891 237.622 154.534C236.153 155.039 236.336 152.789 236.049 151.963C235.869 151.376 235.869 150.748 236.049 150.161C236.118 149.644 236.979 149.013 236.979 147.498C238.597 147.865 242.718 148.462 244.784 145.868C244.834 146.461 245.01 147.036 245.301 147.555C245.592 148.074 245.991 148.524 246.471 148.875C246.5 148.925 246.535 148.971 246.575 149.013C246.595 149.212 246.591 149.412 246.563 149.61V149.564Z" fill="#12196B"/>
<path d="M238.839 155.234C240.458 155.382 242.087 155.382 243.706 155.234C242.363 157.024 240.285 157.885 238.839 155.234Z" fill="#4F5665"/>
<path d="M272.94 164.979H209.512C205.588 164.979 202.407 168.16 202.407 172.084V198.977C202.407 202.901 205.588 206.082 209.512 206.082H272.94C276.864 206.082 280.045 202.901 280.045 198.977V172.084C280.045 168.16 276.864 164.979 272.94 164.979Z" fill="#948DD5"/>
<path d="M223.356 176.392H225.64V184.014C225.64 184.719 225.482 185.331 225.165 185.85C224.852 186.37 224.416 186.77 223.858 187.051C223.299 187.332 222.65 187.473 221.91 187.473C221.251 187.473 220.653 187.357 220.116 187.126C219.582 186.891 219.159 186.535 218.846 186.058C218.533 185.578 218.378 184.975 218.382 184.249H220.682C220.689 184.537 220.748 184.784 220.858 184.991C220.972 185.194 221.127 185.35 221.322 185.461C221.522 185.567 221.757 185.621 222.027 185.621C222.312 185.621 222.552 185.56 222.748 185.439C222.947 185.315 223.098 185.133 223.201 184.895C223.304 184.656 223.356 184.363 223.356 184.014V176.392ZM229.435 187.323H226.959L230.732 176.392H233.71L237.479 187.323H235.002L232.264 178.89H232.179L229.435 187.323ZM229.28 183.027H235.13V184.831H229.28V183.027ZM239.404 176.392L242.046 184.697H242.147L244.795 176.392H247.357L243.589 187.323H240.61L236.837 176.392H239.404ZM249.103 187.323H246.627L250.4 176.392H253.379L257.147 187.323H254.67L251.932 178.89H251.847L249.103 187.323ZM248.949 183.027H254.798V184.831H248.949V183.027Z" fill="#4F5665"/>
<path d="M385.613 92.1795H380.395C380.3 91.5044 380.105 90.9047 379.811 90.3805C379.517 89.8483 379.14 89.3956 378.679 89.0223C378.219 88.649 377.686 88.363 377.083 88.1645C376.487 87.9659 375.84 87.8666 375.141 87.8666C373.878 87.8666 372.778 88.1803 371.841 88.8078C370.903 89.4273 370.177 90.3328 369.66 91.5242C369.144 92.7077 368.886 94.1453 368.886 95.8371C368.886 97.5766 369.144 99.038 369.66 100.221C370.185 101.405 370.915 102.299 371.853 102.902C372.79 103.506 373.874 103.808 375.105 103.808C375.796 103.808 376.435 103.716 377.023 103.534C377.619 103.351 378.147 103.085 378.608 102.735C379.068 102.378 379.45 101.945 379.752 101.437C380.061 100.928 380.276 100.349 380.395 99.6973L385.613 99.7211C385.478 100.841 385.141 101.921 384.601 102.962C384.068 103.994 383.35 104.92 382.444 105.738C381.547 106.548 380.474 107.191 379.227 107.668C377.988 108.136 376.586 108.371 375.022 108.371C372.845 108.371 370.899 107.878 369.184 106.893C367.476 105.908 366.126 104.483 365.133 102.616C364.148 100.75 363.656 98.49 363.656 95.8371C363.656 93.1763 364.156 90.9126 365.157 89.0461C366.158 87.1796 367.516 85.7578 369.231 84.7809C370.947 83.796 372.877 83.3035 375.022 83.3035C376.435 83.3035 377.746 83.5021 378.953 83.8992C380.169 84.2964 381.245 84.8762 382.182 85.6387C383.119 86.3932 383.882 87.3186 384.47 88.4146C385.065 89.5107 385.446 90.7657 385.613 92.1795ZM396.461 104.32V87.4496H400.726V104.32H396.461ZM390.158 98.0174V93.7521H407.029V98.0174H390.158ZM419.265 104.32V87.4496H423.53V104.32H419.265ZM412.962 98.0174V93.7521H429.832V98.0174H412.962Z" fill="#4F5665"/>
<path d="M280.044 183.103C280.044 183.103 283.029 186.087 282.948 189.174C282.868 192.262 279.218 194.144 277.955 193.203C277.591 192.9 277.3 192.517 277.105 192.085C276.91 191.653 276.815 191.182 276.828 190.708C276.842 190.234 276.962 189.769 277.181 189.348C277.401 188.927 277.712 188.562 278.093 188.279C279.516 187.258 279.838 186.959 279.838 186.959L280.044 183.103Z" fill="#FFBAAC"/>
<path d="M202.407 183.103C202.407 183.103 199.423 186.087 199.491 189.174C199.56 192.262 203.222 194.144 204.484 193.203C204.851 192.901 205.143 192.519 205.34 192.087C205.537 191.654 205.632 191.182 205.619 190.708C205.605 190.233 205.484 189.767 205.263 189.346C205.043 188.925 204.729 188.56 204.347 188.279C202.935 187.258 202.602 186.959 202.602 186.959L202.407 183.103Z" fill="#FFBAAC"/>
<path d="M376.288 239.139H307.156C302.877 239.139 299.408 242.607 299.408 246.886V276.201C299.408 280.48 302.877 283.949 307.156 283.949H376.288C380.567 283.949 384.036 280.48 384.036 276.201V246.886C384.036 242.607 380.567 239.139 376.288 239.139Z" fill="#FF6D5A"/>
<path d="M312.677 264.979V250.979H315.637V256.756H321.646V250.979H324.599V264.979H321.646V259.196H315.637V264.979H312.677ZM326.506 253.42V250.979H338.004V253.42H333.718V264.979H330.792V253.42H326.506ZM339.897 250.979H343.548L347.403 260.386H347.567L351.423 250.979H355.073V264.979H352.202V255.867H352.086L348.463 264.911H346.508L342.885 255.833H342.769V264.979H339.897V250.979ZM357.512 264.979V250.979H360.472V262.539H366.474V264.979H357.512Z" fill="#4F5665"/>
<path d="M256.905 291.352C257.6 289.88 257.927 288.261 257.858 286.634C261.956 286.29 265.101 286.221 265.101 286.221C265.101 286.221 264.619 289.779 266.949 291.685C262.369 293.808 256.905 291.352 256.905 291.352Z" fill="#FFAC83"/>
<path d="M263.941 270.715C264.56 271.041 265.108 271.487 265.554 272.027C265.999 272.567 266.333 273.19 266.535 273.86C266.952 274.956 267.094 276.139 266.948 277.303C267.017 277.647 268.314 280.448 268.314 280.448L267.361 281.068C267.361 281.068 267.017 283.662 266.948 284.408C266.879 285.154 265.984 283.593 265.1 286.256C262.368 288.551 257.858 286.669 257.858 286.669C256.674 283.668 255.805 280.552 255.264 277.372C254.644 272.964 259.223 267.845 263.941 270.715Z" fill="#FFAC83"/>
<path d="M255.838 270.932C255.838 270.932 257.686 267.191 263.631 268.27C269.577 269.349 271.528 268.27 271.666 269.877C271.804 271.483 268.693 272.172 268.693 272.172C269.416 273.607 266.696 275.914 265.824 275.868C265.498 276.495 265.273 277.169 265.158 277.865C265.124 278.575 265.21 279.285 265.41 279.966H264.538C264.538 279.966 263.93 277.555 262.805 278.278C261.68 279.002 262.495 281.091 262.541 282.215C262.539 283.078 262.28 283.921 261.797 284.636C261.315 285.351 260.631 285.907 259.832 286.233C257.846 286.933 255.528 286.37 254.185 283.604C252.842 280.838 250.764 272.78 255.838 270.932Z" fill="#352C23"/>
<path d="M267.465 407.12L267.763 411.183H271.287V406.626L267.465 407.12Z" fill="#F2C897"/>
<path d="M267.075 408.898C267.075 408.898 266.994 414.511 267.075 415.556C270.518 415.613 275.637 415.728 275.81 415.556C275.982 415.384 276.269 411.24 273.388 411.779C271.85 411.779 271.781 408.898 271.781 408.898H267.075Z" fill="#FF6D5A"/>
<path d="M267.04 413.869C267.04 414.638 267.04 415.269 267.04 415.556C270.483 415.613 275.603 415.728 275.775 415.556C275.897 415 275.897 414.424 275.775 413.869H267.04Z" fill="#F2F2F2"/>
<path d="M256.377 407.12L256.079 411.183H252.566V406.626L256.377 407.12Z" fill="#F2C897"/>
<path d="M256.779 408.898C256.779 408.898 256.859 414.511 256.779 415.556C253.336 415.613 248.205 415.728 248.044 415.556C247.884 415.384 247.574 411.24 250.455 411.779C251.993 411.779 252.073 408.898 252.073 408.898H256.779Z" fill="#FF6D5A"/>
<path d="M248.021 413.926C247.902 414.463 247.902 415.019 248.021 415.556C248.182 415.728 253.347 415.613 256.756 415.556C256.756 415.28 256.756 414.66 256.756 413.926H248.021Z" fill="#F2F2F2"/>
<path d="M274.019 366.063C273.859 350.074 272.412 331.192 272.412 331.192H262.082L251.752 332.34C251.752 332.34 250.26 350.074 250.088 366.063C249.915 382.052 251.465 407.751 251.465 407.751H257.307C257.307 407.751 259.947 383.509 259.454 372.708C258.96 361.908 262.048 347.319 262.048 347.319C262.048 347.319 265.135 361.919 264.642 372.708C264.148 383.498 266.777 407.751 266.777 407.751H272.619C272.619 407.751 274.191 382.04 274.019 366.063Z" fill="#12196B"/>
<path d="M238.839 321.861C238.839 321.861 248.882 309.579 259.947 304.322C262.047 304.954 262.851 307.766 262.587 308.099C262.323 308.431 249.008 321.872 249.008 321.872C249.008 321.872 242.351 326.773 238.839 321.861Z" fill="#F45145"/>
<path d="M256.802 290.973C256.802 290.973 263.15 291.547 266.191 290.973C269.575 291.762 273.048 292.105 276.521 291.995C276.521 291.995 275.684 303.588 275.764 304.827C274.364 308.454 273.468 324.11 274.168 327.783C274.869 331.456 271.873 333.212 269.382 333.878C266.891 334.544 252.245 334.199 251.258 333.878C250.271 333.557 248.618 327.783 248.963 320.196C249.172 315.714 248.888 311.222 248.113 306.801C248.113 306.801 248.722 295.794 248.469 294.072C253.841 292.041 256.802 290.973 256.802 290.973Z" fill="#FF6D5A"/>
<path d="M248.48 294.026C248.48 294.026 239.792 314.836 238.724 318.819C237.289 324.145 243.579 324.971 244.945 322.848C246.311 320.724 248.836 312.334 248.836 312.334C248.836 312.334 252.016 296.838 248.48 294.026Z" fill="#FF6D5A"/>
<path d="M316.361 289.251C317.149 288.63 317.795 287.847 318.255 286.956C318.703 285.982 319.068 284.972 319.346 283.937H322.961C324.419 283.937 327.736 280.276 329.274 280.838C330.812 281.4 329.377 284.936 326.508 287.553C324.367 289.401 322.062 291.049 319.621 292.477L316.361 289.251Z" fill="#FFAC83"/>
<path d="M276.544 291.995C276.544 291.995 294.048 301.487 297.4 300.029C300.751 298.572 315.592 289.045 315.592 289.045C316.709 289.222 317.77 289.654 318.694 290.307C319.617 290.96 320.378 291.816 320.918 292.81C309.75 310.819 305.239 310.715 300.728 312.873C296.217 315.031 280.355 307.812 275.132 305.401C272.125 298.709 276.544 291.995 276.544 291.995Z" fill="#FF6D5A"/>
<path d="M130.234 178.821C130.234 178.821 127.605 165.977 130.555 162.568C133.505 159.159 136.88 165.047 137.867 167.458C138.854 169.868 140.484 177.008 140.484 177.008L130.234 178.821Z" fill="#B6D15A"/>
<path d="M161.66 244.051C161.451 245.65 161.482 247.271 161.752 248.86C162.234 250.307 173.528 254.163 175.526 254.404C177.523 254.645 177.936 252.2 175.778 250.628C173.62 249.056 167.514 244.177 166.906 242.846C166.297 241.514 161.66 244.051 161.66 244.051Z" fill="#A4C24F"/>
<path d="M177.11 252.292C176.972 252.763 176.571 253.05 175.859 252.97C173.988 252.74 163.405 249.136 161.534 247.472C161.534 248 160.983 248.838 161.11 249.216C161.592 250.663 173.563 254.473 175.583 254.714C176.949 254.875 177.523 253.498 177.11 252.292Z" fill="#E6E6EE"/>
<path d="M116.023 187.373C116.023 187.373 113.406 194.064 120.488 199.08C127.57 204.096 149.057 210.214 149.092 211.97C149.298 220.28 161.121 244.441 161.121 244.441L167.457 242.685C167.457 242.685 158.274 210.845 157.39 206.415C156.506 201.984 127.295 187.487 127.295 187.487L122.91 184.377C122.91 184.377 117.561 183.413 116.023 187.373Z" fill="#12196B"/>
<path d="M129.327 156.014C125.431 154.541 121.242 154.014 117.103 154.476C110.824 155.395 106.681 179.039 106.026 185.169L105.372 191.309C105.372 191.309 105.246 193.398 112.695 189.083C114.885 187.817 117.313 187.022 119.827 186.747C122.341 186.473 124.884 186.725 127.295 187.487C127.295 187.487 136.168 166.333 136.225 164.623C136.283 162.913 129.327 156.014 129.327 156.014Z" fill="#A4C24F"/>
<path d="M141.872 155.842C141.872 155.842 149.643 157.369 149.47 153.719C149.298 150.069 144.673 147.98 144.673 147.98C146.463 146.912 143.605 143.664 141.229 144.732C141.229 142.608 135.846 140.68 135.639 146.075C133.585 144.307 131.461 146.281 130.956 149.208C130.64 151.747 130.529 154.307 130.623 156.864L141.872 155.842Z" fill="#352C23"/>
<path d="M139.554 149.495C140.909 150.597 142.073 151.916 142.997 153.398C143.766 155.085 141.482 156.703 141.413 157.69C141.344 158.678 141.838 159.642 141.689 159.917C141.54 160.193 140.426 160.009 140.243 159.917C140.059 159.825 137.66 162.362 136.225 162.89C134.791 163.418 134.228 161.811 133.93 161.444C133.631 161.076 129.683 164.107 129.338 164.887C128.994 165.668 125.826 163.143 125.172 161.754C124.707 160.81 124.579 159.736 124.811 158.71C125.043 157.684 125.62 156.769 126.446 156.118C126.813 155.877 129.361 155.165 129.889 154.901C130.417 154.637 132.185 154.006 132.311 153.937C132.438 153.868 131.508 151.435 132.644 150.654C133.78 149.874 134.251 151.802 134.194 152.594C134.2 152.972 134.06 153.338 133.803 153.616L134.412 154.178C134.817 153.38 135.361 152.661 136.019 152.055C136.845 151.791 140.013 153.719 139.554 149.495Z" fill="#FFAC83"/>
<path d="M136.064 255.093C135.501 256.603 135.168 258.19 135.077 259.799C135.226 261.314 145.407 267.593 147.29 268.281C149.172 268.97 150.125 266.663 148.369 264.654C146.613 262.646 141.746 256.516 141.482 255.093C141.218 253.67 136.064 255.093 136.064 255.093Z" fill="#A4C24F"/>
<path d="M148.277 267.34C146.52 266.709 136.798 260.522 135.169 258.375C134.944 258.549 134.767 258.777 134.654 259.038C134.542 259.299 134.498 259.585 134.526 259.868C134.675 261.383 145.373 267.833 147.289 268.511C147.499 268.58 147.722 268.602 147.942 268.575C148.162 268.548 148.372 268.472 148.559 268.354C148.746 268.235 148.904 268.076 149.022 267.889C149.14 267.702 149.214 267.491 149.241 267.271C149.101 267.369 148.938 267.427 148.768 267.439C148.598 267.451 148.428 267.417 148.277 267.34Z" fill="#E6E6EE"/>
<path d="M106.6 190.999C106.6 190.999 103.478 200.893 108.965 207.62C114.451 214.346 131.921 218.558 131.829 220.314C131.427 229.83 135.571 255.483 135.571 255.483H142.056C142.056 255.483 141.585 223.781 141.907 219.281C142.228 214.782 124.196 198.081 124.196 198.081L123.772 186.741C123.772 186.741 111.111 185.57 106.6 190.999Z" fill="#12196B"/>
<path d="M114.13 199.998C113.354 200.193 112.541 200.193 111.765 199.998L111.49 199.918C110.973 199.712 110.529 199.357 110.216 198.897C110.216 198.897 102.25 181.634 101.894 180.704C101.435 179.625 111.547 169.111 111.547 169.111L104.879 164.348C104.879 164.348 91.8969 178.121 93.4005 181.852C94.6631 184.893 105.326 201.066 105.326 201.066C105.98 202.064 108.77 207.815 111.892 209.169C115.014 210.524 115.679 208.102 114.555 206.541C113.429 205.449 112.653 204.046 112.328 202.512C112.431 202.359 112.565 202.229 112.721 202.131C112.877 202.032 113.052 201.966 113.235 201.938C113.923 201.823 115.243 201.697 115.794 200.79C116.345 199.884 116.15 199.482 114.13 199.998Z" fill="#FFAC83"/>
<path d="M103.122 164.416C103.122 164.416 111.524 154.752 116.023 154.488C120.523 154.224 118.663 160.743 117.619 163.131C116.574 165.518 112.626 171.67 112.626 171.67L103.122 164.416Z" fill="#B6D15A"/>
<path d="M158.32 167.458H114.141C112.081 167.458 110.411 169.128 110.411 171.188V204.578C110.411 206.638 112.081 208.308 114.141 208.308H158.32C160.381 208.308 162.051 206.638 162.051 204.578V171.188C162.051 169.128 160.381 167.458 158.32 167.458Z" fill="#FFF6F6"/>
<path d="M146.877 182.15C146.877 187.992 136.306 202.604 136.306 202.604C136.306 202.604 125.734 187.992 125.734 182.15C125.734 179.346 126.848 176.657 128.831 174.675C130.813 172.692 133.502 171.579 136.306 171.579C139.109 171.579 141.798 172.692 143.781 174.675C145.763 176.657 146.877 179.346 146.877 182.15Z" fill="#FF6D5A"/>
<path d="M136.305 186.603C138.987 186.603 141.161 184.43 141.161 181.748C141.161 179.067 138.987 176.893 136.305 176.893C133.624 176.893 131.45 179.067 131.45 181.748C131.45 184.43 133.624 186.603 136.305 186.603Z" fill="#FFF6F6"/>
<path d="M162.039 187.763C162.039 187.763 164.932 190.655 164.863 193.651C164.794 196.647 161.236 198.483 160.008 197.565C159.653 197.27 159.37 196.898 159.18 196.478C158.99 196.057 158.898 195.599 158.911 195.138C158.925 194.677 159.043 194.225 159.256 193.816C159.47 193.407 159.774 193.053 160.145 192.779C161.523 191.78 161.833 191.505 161.833 191.505L162.039 187.763Z" fill="#FFAC83"/>
<path d="M114.13 199.998C113.354 200.193 112.542 200.193 111.766 199.998L111.49 199.918C110.973 199.712 110.529 199.356 110.216 198.896L108.735 195.694H101.849C103.834 198.77 105.384 201.111 105.384 201.111C106.038 202.11 108.827 207.861 111.949 209.215C115.071 210.569 115.737 208.148 114.612 206.587C113.486 205.495 112.711 204.092 112.385 202.558C112.489 202.405 112.623 202.275 112.779 202.176C112.935 202.078 113.11 202.012 113.292 201.984C113.981 201.869 115.301 201.743 115.852 200.836C116.403 199.929 116.15 199.482 114.13 199.998Z" fill="#FFAC83"/>
<path d="M392.943 356.582H386.389C385.873 353.611 385.046 350.702 383.921 347.904L389.718 344.553C390.535 344.082 391.131 343.306 391.377 342.396C391.622 341.485 391.496 340.515 391.026 339.697L387.939 334.349C387.464 333.533 386.686 332.938 385.774 332.693C384.863 332.448 383.892 332.573 383.072 333.04L377.115 336.484C375.221 334.205 373.098 332.128 370.779 330.285L374.222 324.236C374.457 323.832 374.608 323.385 374.669 322.922C374.73 322.459 374.699 321.988 374.577 321.537C374.456 321.086 374.246 320.663 373.961 320.293C373.675 319.923 373.32 319.613 372.914 319.381L367.577 316.294C367.172 316.059 366.725 315.906 366.261 315.844C365.798 315.782 365.326 315.812 364.874 315.933C364.422 316.053 363.998 316.262 363.627 316.546C363.256 316.831 362.944 317.186 362.71 317.591L359.175 323.72C356.428 322.685 353.582 321.935 350.681 321.482V314.365C350.681 313.422 350.306 312.517 349.639 311.849C348.972 311.182 348.066 310.807 347.123 310.807H340.994C340.05 310.807 339.145 311.182 338.478 311.849C337.81 312.517 337.435 313.422 337.435 314.365V321.482C334.535 321.936 331.689 322.686 328.942 323.72L325.406 317.591C325.173 317.186 324.863 316.831 324.492 316.547C324.122 316.263 323.699 316.054 323.248 315.934C322.797 315.813 322.327 315.783 321.864 315.845C321.401 315.907 320.955 316.059 320.551 316.294L315.202 319.37C314.386 319.841 313.789 320.616 313.544 321.527C313.298 322.437 313.424 323.407 313.894 324.225L317.337 330.274C315.018 332.117 312.895 334.194 311.001 336.472L305.044 333.029C304.227 332.559 303.256 332.433 302.346 332.678C301.436 332.924 300.66 333.52 300.189 334.337L297.102 339.686C296.867 340.09 296.714 340.536 296.653 340.998C296.591 341.461 296.621 341.932 296.742 342.383C296.862 342.834 297.071 343.257 297.355 343.627C297.639 343.998 297.994 344.308 298.399 344.541L304.138 347.893C303.012 350.689 302.188 353.598 301.681 356.57H295.116C294.172 356.57 293.267 356.945 292.6 357.612C291.933 358.28 291.558 359.185 291.558 360.128V366.303C291.558 366.771 291.65 367.233 291.828 367.665C292.007 368.097 292.269 368.489 292.6 368.819C292.93 369.15 293.322 369.412 293.754 369.591C294.186 369.77 294.649 369.862 295.116 369.862H301.463C301.891 372.909 302.641 375.902 303.701 378.792L298.341 381.891C297.936 382.125 297.581 382.436 297.297 382.808C297.012 383.179 296.804 383.603 296.683 384.055C296.563 384.507 296.533 384.978 296.595 385.442C296.657 385.906 296.809 386.353 297.044 386.757L300.132 392.095C300.364 392.5 300.674 392.856 301.044 393.141C301.414 393.427 301.836 393.636 302.287 393.758C302.739 393.88 303.209 393.911 303.673 393.85C304.136 393.789 304.583 393.637 304.987 393.403L310.209 390.384C312.14 392.85 314.334 395.098 316.752 397.088L313.791 402.207C313.323 403.027 313.199 403.998 313.444 404.909C313.689 405.821 314.284 406.598 315.099 407.073L320.448 410.161C321.265 410.631 322.236 410.757 323.146 410.511C324.057 410.266 324.832 409.669 325.303 408.853L328.207 403.825C331.147 404.991 334.207 405.826 337.332 406.316V412.055C337.332 412.522 337.424 412.985 337.603 413.417C337.782 413.848 338.044 414.24 338.374 414.571C338.705 414.901 339.097 415.163 339.529 415.342C339.96 415.521 340.423 415.613 340.89 415.613H347.065C347.533 415.613 347.995 415.521 348.427 415.342C348.859 415.163 349.251 414.901 349.581 414.571C349.912 414.24 350.174 413.848 350.353 413.417C350.532 412.985 350.624 412.522 350.624 412.055V406.316C353.748 405.826 356.809 404.991 359.749 403.825L362.802 408.898C363.275 409.716 364.053 410.313 364.965 410.558C365.877 410.803 366.849 410.677 367.668 410.207L373.006 407.119C373.412 406.886 373.768 406.575 374.053 406.204C374.339 405.833 374.549 405.41 374.67 404.958C374.792 404.505 374.823 404.034 374.762 403.57C374.701 403.106 374.549 402.658 374.314 402.253L371.353 397.133C373.774 395.147 375.968 392.899 377.895 390.43L383.118 393.449C383.523 393.683 383.971 393.835 384.435 393.896C384.899 393.957 385.371 393.926 385.823 393.805C386.275 393.683 386.699 393.474 387.07 393.188C387.441 392.902 387.751 392.546 387.985 392.14L391.072 386.803C391.542 385.984 391.669 385.012 391.423 384.1C391.178 383.187 390.581 382.41 389.764 381.937L384.403 378.837C385.488 375.952 386.258 372.958 386.699 369.908H393.046C393.514 369.908 393.976 369.816 394.408 369.637C394.84 369.458 395.232 369.196 395.562 368.865C395.893 368.535 396.155 368.143 396.334 367.711C396.513 367.279 396.605 366.817 396.605 366.349V360.174C396.609 359.695 396.518 359.22 396.334 358.778C396.151 358.335 395.881 357.934 395.539 357.598C395.197 357.263 394.791 357 394.345 356.825C393.899 356.651 393.422 356.568 392.943 356.582ZM344.081 387.308C339.45 387.308 334.922 385.935 331.071 383.361C327.22 380.788 324.219 377.13 322.447 372.851C320.675 368.572 320.212 363.863 321.117 359.321C322.021 354.778 324.252 350.606 327.528 347.332C330.804 344.058 334.977 341.829 339.52 340.926C344.063 340.024 348.771 340.49 353.05 342.264C357.328 344.038 360.984 347.041 363.556 350.893C366.127 354.745 367.499 359.273 367.496 363.905C367.493 370.113 365.025 376.065 360.634 380.454C356.243 384.843 350.289 387.308 344.081 387.308Z" fill="#1059CD"/>
<path d="M408.139 325.476C408.139 325.476 406.119 356.754 405.947 368.22C405.775 379.687 407.095 410.689 407.095 410.689H411.009C411.009 410.689 415.887 390.293 415.6 383.888C415.353 379.749 414.789 375.636 413.913 371.584L418.378 348.054C418.378 348.054 422.097 372.594 424.117 374.453C426.137 376.313 428.8 382.04 429.477 385.082C430.154 388.123 438.005 408.508 438.005 408.508H442C442 408.508 439.853 388.801 438.671 382.396C437.489 375.991 432.771 373.627 432.106 371.607C431.44 369.586 431.13 345.976 430.625 342.774C430.12 339.571 434.631 330.756 428.731 324.684C422.831 318.612 408.139 325.476 408.139 325.476Z" fill="#FFAC83"/>
<path d="M432.06 365.695C431.727 359.956 430.912 344.909 430.602 342.739C430.097 339.526 434.608 330.722 428.708 324.65C422.808 318.578 408.139 325.453 408.139 325.453C408.139 325.453 405.568 353.391 405.189 365.546C407.278 367.142 413.936 368.014 416.943 367.119L418.332 348.065C418.332 348.065 419.032 362.195 420.696 367.922C424.564 368.347 429.374 368.083 432.06 365.695Z" fill="#12196B"/>
<path d="M389.833 283.719C389.029 283.271 377.023 272.78 371.869 268.671L371.743 268.568C371.344 268.228 371.056 267.776 370.917 267.271C370.917 267.271 370.779 263.368 370.802 262.301C370.825 261.234 369.654 261.291 369.356 262.565C369.172 263.334 368.77 264.941 368.46 266.146C367.072 265.67 365.852 264.801 364.948 263.644C363.582 262.427 361.241 262.783 362.182 265.94C363.123 269.096 368.242 271.185 369.069 271.897C373.798 277.108 383.887 289.022 386.63 290.525C390.005 292.385 406.464 294.21 406.464 294.21L407.405 287.323C407.405 287.323 390.797 284.258 389.833 283.719Z" fill="#FFAC83"/>
<path d="M399.532 284.224C399.532 284.224 425.621 289.022 429.042 289.779C432.462 290.537 429.925 305.964 429.547 305.711C429.168 305.458 429.283 317.04 430.04 321.47C430.798 325.901 426 327.083 424.232 327.588C422.465 328.093 409.449 327.485 408.048 327.588C404.513 327.841 404.502 321.516 405.89 315.192C406.951 309.572 406.418 303.767 404.352 298.434L396.146 295.048C396.146 295.048 397.936 288.781 399.532 284.224Z" fill="#83AAFF"/>
<path d="M409.586 277.246C409.586 277.246 401.861 273.171 404.031 270.233C404.659 269.381 405.486 268.696 406.441 268.24C407.396 267.784 408.448 267.569 409.506 267.616C408.61 265.733 415.784 264.746 417.207 266.961C418.355 265.205 422.487 267.937 421.891 271.38C424.565 271.059 429.259 276.58 422.12 283.65C420.02 285.751 418.413 284.305 418.413 284.305L409.586 277.246Z" fill="#352C23"/>
<path d="M415.038 273.24C413.287 273.412 411.576 273.874 409.976 274.606C408.404 275.581 409.402 278.187 408.92 279.036C408.438 279.886 407.485 280.425 407.451 280.746C407.417 281.068 408.45 281.515 408.599 281.573C408.748 281.63 409.391 285.016 410.286 286.256C411.181 287.495 412.582 286.474 412.949 286.256C413.316 286.038 414.453 290.927 414.303 291.811C414.154 292.695 419.032 292.443 420.306 291.616C420.835 291.255 421.28 290.786 421.612 290.24C421.945 289.694 422.157 289.083 422.235 288.448C422.063 288.046 418.711 283.639 418.378 283.099C418.045 282.56 418.458 281.079 418.378 280.953C418.298 280.827 420.421 279.323 419.916 278.049C419.411 276.775 417.942 278.118 417.563 278.784C417.35 279.1 417.264 279.485 417.322 279.863L416.496 279.989C416.606 279.103 416.551 278.204 416.335 277.337C416.025 276.637 413.775 274.606 415.038 273.24Z" fill="#FFAC83"/>
<path d="M406.613 408.531C407.08 408.432 407.566 408.464 408.017 408.621C408.469 408.779 408.868 409.058 409.172 409.426C409.746 409.92 411.468 408.68 411.468 408.68C411.468 408.68 414.28 412.124 412.88 415.923C407.565 416.784 394.515 416.359 393.918 415.923C393.321 415.487 394.136 411.906 398.509 411.963C402.882 412.02 406.613 408.531 406.613 408.531Z" fill="#4A50AC"/>
<path d="M394.412 413.972C394.365 413.93 394.326 413.879 394.297 413.823C393.655 414.741 393.609 415.705 393.93 415.923C394.573 416.359 407.578 416.784 412.892 415.923C413.118 415.3 413.246 414.646 413.271 413.983C407.899 414.821 395.055 414.397 394.412 413.972Z" fill="#E6E6EE"/>
<path d="M442.344 409.277C442.235 408.593 441.932 407.954 441.47 407.437C441.008 406.92 440.407 406.547 439.739 406.362C437.558 405.949 437.627 406.27 436.491 408.061C435.354 409.851 431.13 412.916 430.694 415.292C430.258 417.668 437.707 417.174 440.313 416.233C442.918 415.292 442.746 415.292 443.079 414.316C443.412 413.341 442.344 409.277 442.344 409.277Z" fill="#4A50AC"/>
<path d="M440.313 414.339C438.132 415.12 432.531 415.602 431.05 414.339C430.885 414.642 430.765 414.966 430.694 415.303C430.258 417.691 437.707 417.186 440.313 416.245C442.918 415.303 442.746 415.303 443.079 414.328C443.166 413.747 443.146 413.156 443.022 412.583C442.758 413.398 442.769 413.49 440.313 414.339Z" fill="#E6E6EE"/>
<path d="M404.719 311.117C403.778 311.346 387.043 311.783 380.134 312.265H380.019C379.465 312.286 378.918 312.142 378.446 311.852C378.446 311.852 375.565 308.936 374.819 308.098C374.073 307.26 373.224 308.098 373.889 309.326C374.291 310.049 375.141 311.622 375.749 312.77C374.339 313.387 372.781 313.586 371.261 313.344C369.333 313.344 367.818 315.306 370.722 317.028C373.625 318.75 379.123 316.764 380.306 316.695C387.675 317.35 403.939 319.37 407.13 318.578C411.055 317.614 425.059 307.318 425.059 307.318L420.892 301.326C420.892 301.326 405.844 310.841 404.719 311.117Z" fill="#FFAC83"/>
<path d="M418.447 300.753C418.447 300.753 425.61 292.844 427.343 291.318C429.076 289.791 429.237 289.435 429.638 290.17C430.04 290.905 435.194 294.761 433.736 300.03C432.278 305.298 424.14 310.084 424.14 310.084L418.447 300.753Z" fill="#83AAFF"/>
<path d="M113.992 373.225H109.286C108.923 371.095 108.334 369.009 107.53 367.004L111.685 364.605C112.257 364.265 112.675 363.715 112.848 363.072C113.022 362.429 112.938 361.744 112.615 361.161L110.399 357.247C110.063 356.67 109.513 356.249 108.869 356.075C108.224 355.901 107.537 355.988 106.956 356.318L102.686 358.786C101.317 357.147 99.7777 355.658 98.0948 354.344L100.597 350.005C100.919 349.421 101.002 348.735 100.826 348.092C100.65 347.449 100.23 346.9 99.6558 346.561L95.8221 344.346C95.24 344.018 94.5517 343.932 93.9069 344.109C93.2621 344.285 92.7129 344.708 92.3787 345.287L89.8421 349.672C87.8632 348.928 85.8132 348.39 83.7243 348.065V342.957C83.7243 342.281 83.4558 341.633 82.978 341.156C82.5001 340.678 81.852 340.409 81.1762 340.409H76.7571C76.0803 340.409 75.431 340.677 74.9513 341.155C74.4716 341.632 74.2006 342.28 74.1975 342.957V348.065C72.1206 348.388 70.0822 348.922 68.1142 349.66L65.5775 345.276C65.2412 344.699 64.6921 344.278 64.0482 344.102C63.4042 343.926 62.717 344.009 62.1341 344.335L58.3004 346.55C57.728 346.89 57.3107 347.44 57.1371 348.083C56.9635 348.726 57.0473 349.411 57.3707 349.993L59.7811 354.378C58.0982 355.692 56.5592 357.181 55.1899 358.82L50.9201 356.352C50.3379 356.029 49.6527 355.945 49.0098 356.119C48.3668 356.292 47.8169 356.709 47.4767 357.282L45.2729 361.116C44.9495 361.698 44.8656 362.383 45.0392 363.026C45.2128 363.669 45.6301 364.219 46.2026 364.559L50.3576 366.958C49.5494 368.963 48.9569 371.048 48.59 373.179H43.9414C43.6053 373.183 43.2733 373.254 42.9645 373.387C42.6557 373.52 42.376 373.712 42.1415 373.953C41.907 374.194 41.7223 374.479 41.5978 374.791C41.4734 375.103 41.4117 375.437 41.4163 375.773V380.204C41.4162 380.539 41.4825 380.871 41.6113 381.181C41.7401 381.491 41.9288 381.773 42.1666 382.009C42.4045 382.246 42.6867 382.434 42.9972 382.561C43.3077 382.688 43.6403 382.753 43.9759 382.752H48.5671C48.8689 384.939 49.4077 387.086 50.174 389.156L46.3289 391.383C45.7519 391.719 45.3307 392.269 45.1566 392.914C44.9826 393.558 45.0697 394.246 45.3991 394.827L47.6029 398.66C47.9433 399.232 48.4924 399.65 49.1347 399.826C49.7769 400.001 50.4622 399.921 51.0463 399.601L54.7537 397.421C56.1396 399.189 57.7137 400.802 59.4482 402.23L57.3248 405.903C56.9984 406.484 56.9129 407.171 57.0868 407.814C57.2606 408.458 57.6798 409.008 58.2545 409.346L62.0767 411.642C62.6588 411.965 63.3441 412.049 63.987 411.876C64.6299 411.702 65.1799 411.285 65.5201 410.712L67.5977 407.097C69.7054 407.934 71.8997 408.534 74.1401 408.887V413.019C74.1401 413.355 74.2064 413.687 74.3352 413.997C74.464 414.307 74.6527 414.588 74.8905 414.825C75.1283 415.062 75.4106 415.249 75.7211 415.377C76.0316 415.504 76.3641 415.569 76.6997 415.567H81.1188C81.4538 415.569 81.7859 415.504 82.0957 415.376C82.4055 415.249 82.687 415.061 82.924 414.824C83.1609 414.587 83.3485 414.306 83.476 413.996C83.6035 413.686 83.6684 413.354 83.6669 413.019V408.899C85.9076 408.547 88.1021 407.947 90.2094 407.108L92.2984 410.724C92.6366 411.298 93.1865 411.718 93.8303 411.891C94.4741 412.065 95.1603 411.98 95.7418 411.653L99.5755 409.438C100.154 409.104 100.578 408.555 100.754 407.91C100.931 407.265 100.845 406.577 100.517 405.995L98.3932 402.322C100.165 400.87 101.77 399.226 103.18 397.421L106.921 399.59C107.504 399.915 108.192 399.999 108.835 399.823C109.479 399.647 110.029 399.225 110.365 398.649L112.58 394.861C112.91 394.28 112.997 393.593 112.823 392.948C112.649 392.304 112.227 391.754 111.65 391.418L107.805 389.191C108.572 387.12 109.11 384.973 109.412 382.786H114.003C114.34 382.786 114.674 382.719 114.985 382.589C115.296 382.458 115.577 382.267 115.813 382.027C116.05 381.787 116.236 381.501 116.36 381.188C116.485 380.875 116.546 380.54 116.54 380.204V375.773C116.54 375.097 116.272 374.449 115.794 373.971C115.316 373.493 114.668 373.225 113.992 373.225ZM78.9609 394.976C75.6011 394.976 72.3167 393.979 69.5232 392.113C66.7296 390.246 64.5523 387.593 63.2665 384.489C61.9808 381.385 61.6444 377.969 62.2998 374.674C62.9553 371.379 64.5732 368.352 66.9489 365.976C69.3247 363.601 72.3516 361.983 75.6468 361.327C78.9421 360.672 82.3577 361.008 85.4617 362.294C88.5658 363.58 91.2189 365.757 93.0855 368.551C94.9521 371.344 95.9484 374.628 95.9484 377.988C95.9484 382.494 94.1587 386.814 90.9729 390C87.7871 393.186 83.4663 394.976 78.9609 394.976Z" fill="#1059CD"/>
<path d="M157.333 397.627H89.498C86.3348 397.627 83.7705 400.191 83.7705 403.355V454.627C83.7705 457.79 86.3348 460.354 89.498 460.354H157.333C160.496 460.354 163.061 457.79 163.061 454.627V403.355C163.061 400.191 160.496 397.627 157.333 397.627Z" fill="#F6BE39"/>
<path d="M116.055 416.401H120.031V429.667C120.031 430.893 119.756 431.959 119.205 432.863C118.66 433.767 117.901 434.464 116.929 434.953C115.956 435.442 114.826 435.687 113.538 435.687C112.392 435.687 111.352 435.486 110.416 435.083C109.488 434.674 108.751 434.055 108.206 433.225C107.661 432.389 107.391 431.339 107.397 430.076H111.401C111.414 430.577 111.516 431.008 111.708 431.367C111.906 431.72 112.175 431.993 112.516 432.185C112.863 432.37 113.272 432.463 113.742 432.463C114.238 432.463 114.656 432.358 114.996 432.147C115.343 431.931 115.606 431.615 115.786 431.2C115.966 430.785 116.055 430.274 116.055 429.667V416.401ZM133.678 421.873C133.604 421.124 133.285 420.541 132.721 420.127C132.158 419.712 131.393 419.504 130.427 419.504C129.77 419.504 129.216 419.597 128.764 419.783C128.312 419.962 127.965 420.213 127.723 420.535C127.488 420.857 127.37 421.223 127.37 421.631C127.358 421.972 127.429 422.269 127.584 422.523C127.745 422.777 127.965 422.997 128.244 423.183C128.522 423.362 128.844 423.52 129.21 423.657C129.575 423.787 129.965 423.898 130.38 423.991L132.09 424.4C132.919 424.586 133.681 424.833 134.375 425.143C135.068 425.453 135.669 425.834 136.177 426.286C136.685 426.738 137.078 427.27 137.357 427.883C137.642 428.497 137.787 429.2 137.793 429.992C137.787 431.157 137.49 432.166 136.902 433.021C136.319 433.869 135.477 434.529 134.375 434.999C133.279 435.464 131.956 435.696 130.408 435.696C128.872 435.696 127.534 435.461 126.395 434.99C125.262 434.519 124.376 433.823 123.738 432.9C123.106 431.971 122.775 430.822 122.744 429.453H126.636C126.68 430.091 126.862 430.624 127.185 431.051C127.513 431.472 127.949 431.791 128.494 432.008C129.046 432.219 129.668 432.324 130.362 432.324C131.043 432.324 131.634 432.225 132.136 432.027C132.644 431.829 133.037 431.553 133.316 431.2C133.594 430.847 133.734 430.441 133.734 429.983C133.734 429.556 133.607 429.196 133.353 428.905C133.105 428.614 132.74 428.367 132.257 428.162C131.78 427.958 131.195 427.772 130.501 427.605L128.429 427.085C126.825 426.694 125.559 426.084 124.63 425.254C123.701 424.425 123.239 423.307 123.246 421.901C123.239 420.749 123.546 419.743 124.165 418.882C124.791 418.021 125.649 417.349 126.739 416.866C127.829 416.383 129.067 416.141 130.455 416.141C131.867 416.141 133.099 416.383 134.152 416.866C135.211 417.349 136.035 418.021 136.623 418.882C137.211 419.743 137.515 420.74 137.533 421.873H133.678Z" fill="#4F5665"/>
<path d="M99.0364 243.385H31.2012C28.0379 243.385 25.4736 245.95 25.4736 249.113V300.385C25.4736 303.548 28.0379 306.113 31.2012 306.113H99.0364C102.2 306.113 104.764 303.548 104.764 300.385V249.113C104.764 245.95 102.2 243.385 99.0364 243.385Z" fill="#A4C24F"/>
<path d="M32.3264 281.185V262.159H39.8326C41.2756 262.159 42.5049 262.435 43.5206 262.986C44.5363 263.531 45.3104 264.29 45.8431 265.262C46.3819 266.228 46.6513 267.343 46.6513 268.606C46.6513 269.87 46.3788 270.984 45.8338 271.951C45.2888 272.917 44.4991 273.669 43.4649 274.208C42.4368 274.747 41.192 275.016 39.7304 275.016H34.9461V271.793H39.0801C39.8542 271.793 40.4921 271.659 40.9938 271.393C41.5016 271.121 41.8794 270.746 42.1271 270.269C42.3811 269.786 42.508 269.232 42.508 268.606C42.508 267.975 42.3811 267.423 42.1271 266.953C41.8794 266.476 41.5016 266.107 40.9938 265.847C40.4859 265.581 39.8419 265.448 39.0615 265.448H36.3489V281.185H32.3264ZM49.264 281.185V262.159H53.2865V270.009H61.4522V262.159H65.4654V281.185H61.4522V273.325H53.2865V281.185H49.264ZM68.7818 281.185V262.159H76.288C77.731 262.159 78.9603 262.435 79.976 262.986C80.9917 263.531 81.7658 264.29 82.2984 265.262C82.8372 266.228 83.1067 267.343 83.1067 268.606C83.1067 269.87 82.8342 270.984 82.2892 271.951C81.7442 272.917 80.9545 273.669 79.9203 274.208C78.8922 274.747 77.6474 275.016 76.1858 275.016H71.4015V271.793H75.5355C76.3096 271.793 76.9475 271.659 77.4492 271.393C77.957 271.121 78.3348 270.746 78.5825 270.269C78.8365 269.786 78.9634 269.232 78.9634 268.606C78.9634 267.975 78.8365 267.423 78.5825 266.953C78.3348 266.476 77.957 266.107 77.4492 265.847C76.9413 265.581 76.2972 265.448 75.5169 265.448H72.8043V281.185H68.7818Z" fill="#4F5665"/>
</g>
<defs>
<clipPath id="clip0_110_1276">
<rect width="481.745" height="475.512" fill="white" transform="translate(13.8691 48.4883)"/>
</clipPath>
</defs>
</svg>
